<svg width="17" height="17" viewBox="0 0 17 17" fill="none" xmlns="http://www.w3.org/2000/svg">
  <path fill-rule="evenodd" clip-rule="evenodd"
    d="M4.38916 5.83237C3.28459 5.83237 2.38916 6.7278 2.38916 7.83237V11.8324C2.38916 12.9369 3.28459 13.8324 4.38916 13.8324H12.1578C13.2623 13.8324 14.1578 12.9369 14.1578 11.8324V7.83237C14.1578 6.7278 13.2623 5.83237 12.1578 5.83237H4.38916ZM7.43994 7.1657C7.1638 7.1657 6.93994 7.38956 6.93994 7.6657V7.99903C6.93994 8.27518 7.1638 8.49903 7.43994 8.49903H9.10661C9.38275 8.49903 9.60661 8.27518 9.60661 7.99903V7.6657C9.60661 7.38956 9.38275 7.1657 9.10661 7.1657H7.43994Z"
    fill="#202124" />
  <path opacity="0.3"
    d="M6.94027 5.83235H5.60693V5.16568C5.60693 4.06111 6.50236 3.16568 7.60693 3.16568H8.94027C10.0448 3.16568 10.9403 4.06111 10.9403 5.16568V5.83235H9.60693V5.16568C9.60693 4.79749 9.30846 4.49901 8.94027 4.49901H7.60693C7.23874 4.49901 6.94027 4.79749 6.94027 5.16568V5.83235Z"
    fill="#202124" />
</svg>
