<svg width="212" height="121" viewBox="0 0 212 121" fill="none" xmlns="http://www.w3.org/2000/svg">
<g clip-path="url(#clip0_4332_20026)">
<g clip-path="url(#clip1_4332_20026)">
<path d="M149.073 107.649L149.073 93.3737L162.467 92.8193L167.536 87.1546L172.301 92.265L187.628 91.1562L186.424 101.649L149.073 107.649Z" fill="#81D5BC"/>
<path d="M146.612 94.0192H163.543C163.819 94.0192 164.076 93.8915 164.249 93.6754L168.509 88.3062L172.68 93.1424C172.853 93.3426 173.102 93.4568 173.361 93.4568H189.935C190.259 93.4568 190.558 93.2824 190.719 92.9975C190.882 92.7138 190.883 92.3626 190.722 92.0776C189.992 90.7796 189.311 89.5232 188.649 88.3086C187.028 85.3219 185.5 82.5022 183.693 79.9024C182.558 78.2727 179.835 77.655 178.279 77.6378C172.779 77.5801 167.356 77.693 162.109 77.8036C160.306 77.8416 158.538 77.8797 156.819 77.9067C156.535 77.9117 156.269 78.0516 156.1 78.2862L145.873 92.5554C145.672 92.8366 145.644 93.2062 145.796 93.5157C145.949 93.8252 146.272 94.0192 146.612 94.0192ZM163.11 92.1771H148.396L157.309 79.7427C158.887 79.7157 160.506 79.6813 162.154 79.6469C167.388 79.5376 172.801 79.4234 178.265 79.4824C179.685 79.4983 181.612 80.0989 182.217 80.9671C183.962 83.481 185.469 86.259 187.067 89.199C187.495 89.9874 187.932 90.7918 188.386 91.6147H173.777L169.359 86.4911C169.133 86.2319 168.793 86.1349 168.491 86.1963C168.169 86.13 167.821 86.2418 167.601 86.5206L163.11 92.1771Z" fill="#202124"/>
<path d="M164.243 122.145C164.727 122.145 165.129 121.756 165.147 121.259C165.184 120.315 165.213 119.371 165.242 118.427C165.313 116.164 165.384 113.826 165.549 111.542C165.62 110.539 165.857 109.511 166.086 108.517C166.136 108.306 166.184 108.096 166.23 107.887C166.565 107.882 166.883 107.874 167.182 107.866C168.158 107.84 168.927 107.823 169.67 107.912C171.813 108.174 172.664 109.087 172.596 111.065C172.516 113.445 172.534 115.855 172.552 118.187C172.56 119.199 172.568 120.21 172.568 121.223C172.568 121.73 172.974 122.144 173.475 122.144C173.976 122.144 174.382 121.73 174.382 121.223C174.382 120.206 174.374 119.19 174.367 118.174C174.348 115.861 174.33 113.469 174.41 111.13C174.511 108.16 172.988 106.461 169.885 106.086C169.016 105.981 168.146 106.003 167.138 106.027C166.642 106.039 166.102 106.052 165.497 106.052C165.065 106.052 164.693 106.362 164.608 106.794C164.526 107.22 164.424 107.655 164.323 108.098C164.077 109.162 163.823 110.261 163.742 111.412C163.575 113.733 163.502 116.091 163.431 118.371C163.402 119.312 163.373 120.251 163.338 121.19C163.317 121.698 163.71 122.126 164.21 122.145C164.221 122.145 164.232 122.145 164.243 122.145Z" fill="#202124"/>
<path d="M186.036 122.146C186.512 122.146 186.912 121.768 186.939 121.28C187.016 120.005 187.099 118.732 187.18 117.458C187.362 114.651 187.551 111.749 187.659 108.884C187.798 105.29 187.874 101.638 187.947 98.106C187.977 96.5697 188.011 95.0334 188.046 93.4958C188.059 92.9874 187.664 92.5637 187.163 92.5514C187.155 92.5514 187.147 92.5514 187.139 92.5514C186.649 92.5514 186.245 92.9493 186.232 93.4503C186.197 94.9879 186.163 96.5267 186.133 98.0655C186.059 101.59 185.985 105.234 185.847 108.811C185.737 111.652 185.551 114.542 185.368 117.337C185.287 118.614 185.203 119.89 185.128 121.167C185.099 121.675 185.477 122.113 185.978 122.143C185.997 122.146 186.015 122.146 186.036 122.146Z" fill="#202124"/>
<path d="M150.208 122.146C150.708 122.146 151.115 121.733 151.115 121.225V96.8471C151.115 96.3387 150.708 95.926 150.208 95.926C149.707 95.926 149.3 96.3387 149.3 96.8471V121.225C149.3 121.733 149.707 122.146 150.208 122.146Z" fill="#202124"/>
<path d="M170.013 101.043C170.342 101.043 170.676 101.02 171.008 100.966C172.478 100.72 173.503 98.1463 173.548 96.8814C173.673 93.4636 170.882 92.782 168.84 92.2859L168.714 92.2552C168.466 91.8303 167.931 91.678 167.497 91.9224C164.489 93.6086 163.714 96.1814 165.13 99.7883C165.249 100.09 165.514 100.308 165.832 100.358C166.206 100.417 166.607 100.509 167.026 100.605C167.952 100.811 168.972 101.043 170.013 101.043ZM167.812 93.875C167.894 93.9291 167.987 93.9696 168.088 93.9942L168.417 94.0752C170.772 94.6487 171.797 95.081 171.733 96.8114C171.703 97.6502 170.993 98.9851 170.647 99.1656C169.684 99.3179 168.535 99.0563 167.423 98.8034C167.154 98.742 166.893 98.683 166.641 98.6314C165.772 96.093 166.432 94.8158 167.812 93.875Z" fill="#202124"/>
<path d="M182.322 117.772C182.562 117.772 182.795 117.675 182.967 117.499C183.174 117.287 183.267 116.985 183.215 116.69C183.06 115.809 183.339 114.935 183.635 114.009C184.152 112.388 184.794 110.369 182.543 108.508C182.323 108.329 182.05 108.266 181.786 108.322C181.727 108.309 181.665 108.302 181.604 108.302H178.833C178.332 108.302 177.925 108.715 177.925 109.223V116.255C177.925 116.705 178.246 117.09 178.683 117.164L182.175 117.757C182.222 117.767 182.273 117.772 182.322 117.772ZM181.629 110.145C182.603 111.076 182.397 111.908 181.907 113.442C181.68 114.149 181.434 114.92 181.371 115.756L179.736 115.478V110.147H181.601C181.611 110.145 181.621 110.145 181.629 110.145Z" fill="#202124"/>
<path d="M155.376 105.458H159.965C160.416 105.458 160.798 105.122 160.862 104.667C160.94 104.111 161.144 103.543 161.359 102.941C161.956 101.279 162.697 99.2056 160.384 97.264C160.163 97.0797 159.89 97.0196 159.621 97.0736C159.562 97.0601 159.5 97.0527 159.439 97.0527H155.376C154.875 97.0527 154.468 97.4654 154.468 97.9738V104.537C154.468 105.045 154.875 105.458 155.376 105.458ZM159.232 103.616H156.283V98.8949H159.439C159.447 98.8949 159.455 98.8949 159.464 98.8949C160.465 99.8687 160.222 100.727 159.655 102.311C159.504 102.734 159.349 103.166 159.232 103.616Z" fill="#202124"/>
<path d="M177.986 105.458H182.127C182.578 105.458 182.96 105.122 183.024 104.667C183.1 104.111 183.305 103.543 183.521 102.941C184.118 101.279 184.858 99.2055 182.545 97.2639C182.325 97.0797 182.051 97.0195 181.783 97.0736C181.718 97.0588 181.66 97.0527 181.579 97.0527C181.322 97.0601 181.054 97.0502 180.788 97.0416C179.338 96.9937 177.134 96.9237 176.256 99.7238C176.21 99.8712 176.2 100.028 176.23 100.179L177.096 104.712C177.178 105.145 177.551 105.458 177.986 105.458ZM181.391 103.616H178.735L178.057 100.07C178.507 98.8666 179.221 98.8346 180.731 98.8825C181.03 98.8924 181.326 98.8997 181.62 98.8948C181.621 98.8948 181.624 98.8948 181.625 98.8948C182.626 99.8687 182.383 100.727 181.816 102.311C181.666 102.734 181.511 103.166 181.391 103.616Z" fill="#202124"/>
<path d="M156.67 117.458H159.97C160.428 117.458 160.813 117.112 160.87 116.652C160.931 116.162 161 115.68 161.069 115.211C161.236 114.065 161.394 112.985 161.406 111.861C161.417 111.092 161.158 110.365 160.928 109.725C160.84 109.473 160.749 109.222 160.677 108.971C160.547 108.504 160.088 108.221 159.621 108.323C159.562 108.31 159.5 108.303 159.438 108.303H156.667C156.166 108.303 155.76 108.716 155.76 109.224V116.537C155.762 117.046 156.169 117.458 156.67 117.458ZM159.179 115.616H157.578V110.145H159.154C159.179 110.214 159.202 110.283 159.229 110.351C159.42 110.892 159.604 111.402 159.598 111.836C159.586 112.836 159.437 113.859 159.28 114.942C159.243 115.164 159.21 115.389 159.179 115.616Z" fill="#202124"/>
</g>
<g clip-path="url(#clip2_4332_20026)">
<path d="M48.6701 116.971L48.6701 101.109L33.8836 100.493L28.2877 94.1986L23.0277 99.8767L6.1073 98.6448L7.43677 110.304L48.6701 116.971Z" fill="#FFE4AF"/>
<path d="M51.3875 101.826H32.6964C32.392 101.826 32.1076 101.684 31.9167 101.444L27.2139 95.4783L22.6099 100.852C22.4189 101.074 22.1438 101.201 21.8581 101.201H3.56089C3.20304 101.201 2.87326 101.007 2.69567 100.691C2.51541 100.376 2.51404 99.9854 2.69163 99.6688C3.49813 98.2265 4.24992 96.8305 4.98031 95.481C6.76957 92.1624 8.45733 89.0295 10.4522 86.1407C11.7047 84.33 14.7104 83.6436 16.4289 83.6245C22.5003 83.5604 28.4863 83.6859 34.2787 83.8087C36.2696 83.851 38.2218 83.8933 40.1192 83.9233C40.433 83.9288 40.7268 84.0843 40.9124 84.345L52.2034 100.2C52.425 100.512 52.4557 100.923 52.2875 101.267C52.1192 101.611 51.7628 101.826 51.3875 101.826ZM33.1745 99.7793H49.418L39.5784 85.9633C37.8359 85.9333 36.0493 85.8951 34.2293 85.8569C28.4516 85.7354 22.4763 85.6085 16.4436 85.674C14.876 85.6918 12.7489 86.3591 12.0813 87.3238C10.1545 90.117 8.49071 93.2036 6.72682 96.4703C6.25413 97.3463 5.7721 98.2401 5.27138 99.1543H21.3987L26.2752 93.4615C26.5248 93.1736 26.9 93.0658 27.2339 93.134C27.589 93.0603 27.9736 93.1845 28.2166 93.4942L33.1745 99.7793Z" fill="#202124"/>
<path d="M31.9241 133.078C31.39 133.078 30.9454 132.645 30.9254 132.092C30.8853 131.044 30.8532 129.995 30.8212 128.946C30.7424 126.432 30.6636 123.834 30.482 121.296C30.4033 120.181 30.1416 119.039 29.8892 117.935C29.8344 117.701 29.781 117.467 29.7303 117.235C29.3604 117.23 29.0092 117.22 28.6794 117.212C27.6019 117.183 26.7526 117.164 25.9328 117.263C23.5667 117.555 22.628 118.568 22.7027 120.767C22.7909 123.411 22.7709 126.088 22.7508 128.68C22.7428 129.804 22.7335 130.927 22.7335 132.053C22.7335 132.616 22.2848 133.076 21.732 133.076C21.1792 133.076 20.7306 132.616 20.7306 132.053C20.7306 130.923 20.7399 129.795 20.7479 128.665C20.768 126.095 20.788 123.437 20.6998 120.839C20.589 117.538 22.2701 115.651 25.6951 115.234C26.6551 115.118 27.6152 115.142 28.7275 115.168C29.275 115.182 29.8718 115.197 30.5395 115.197C31.0161 115.197 31.4274 115.541 31.5209 116.021C31.6117 116.494 31.7238 116.977 31.836 117.47C32.107 118.652 32.3875 119.873 32.4769 121.152C32.6612 123.731 32.7413 126.35 32.8201 128.884C32.8521 129.93 32.8842 130.974 32.9229 132.016C32.9456 132.581 32.5116 133.056 31.9602 133.078C31.9482 133.078 31.9361 133.078 31.9241 133.078Z" fill="#202124"/>
<path d="M7.86592 133.078C7.33983 133.078 6.89922 132.658 6.8685 132.116C6.78438 130.699 6.69224 129.284 6.60278 127.869C6.40249 124.75 6.19286 121.526 6.07402 118.342C5.92046 114.35 5.83633 110.291 5.75622 106.367C5.72283 104.66 5.68545 102.953 5.64672 101.245C5.63203 100.68 6.06868 100.209 6.62148 100.195C6.63083 100.195 6.63883 100.195 6.64817 100.195C7.18896 100.195 7.63494 100.637 7.64962 101.194C7.68835 102.902 7.72574 104.612 7.75912 106.322C7.84057 110.238 7.92201 114.287 8.07423 118.262C8.19574 121.418 8.40137 124.629 8.60299 127.734C8.69246 129.153 8.78593 130.571 8.86872 131.99C8.90076 132.555 8.48282 133.041 7.93002 133.075C7.90866 133.078 7.88862 133.078 7.86592 133.078Z" fill="#202124"/>
<path d="M47.418 133.078C46.8652 133.078 46.4165 132.62 46.4165 132.055V104.969C46.4165 104.404 46.8652 103.945 47.418 103.945C47.9708 103.945 48.4194 104.404 48.4194 104.969V132.055C48.4194 132.62 47.9708 133.078 47.418 133.078Z" fill="#202124"/>
<path d="M25.5532 109.63C25.19 109.63 24.8214 109.604 24.4556 109.544C22.8319 109.271 21.7009 106.411 21.6515 105.005C21.5126 101.208 24.5944 100.451 26.8484 99.8993L26.9872 99.8652C27.261 99.393 27.8525 99.2238 28.3305 99.4954C31.6513 101.369 32.5072 104.228 30.9436 108.235C30.8128 108.571 30.5203 108.812 30.1692 108.868C29.7566 108.934 29.3133 109.036 28.8513 109.143C27.8284 109.372 26.7028 109.63 25.5532 109.63ZM27.9833 101.665C27.8925 101.725 27.7897 101.77 27.6789 101.797L27.3157 101.887C24.7159 102.525 23.5836 103.005 23.6544 104.928C23.6878 105.86 24.4716 107.343 24.8535 107.543C25.9164 107.713 27.1848 107.422 28.4133 107.141C28.7097 107.073 28.9981 107.007 29.2759 106.95C30.2359 104.129 29.5069 102.71 27.9833 101.665Z" fill="#202124"/>
<path d="M11.9647 128.218C11.7003 128.218 11.4426 128.11 11.253 127.915C11.0247 127.679 10.9218 127.343 10.9793 127.015C11.1502 126.037 10.8418 125.066 10.5159 124.037C9.94445 122.236 9.23544 119.992 11.7204 117.925C11.9634 117.726 12.2651 117.656 12.5562 117.717C12.6216 117.704 12.6897 117.696 12.7578 117.696H15.817C16.3698 117.696 16.8184 118.154 16.8184 118.719V126.532C16.8184 127.032 16.4646 127.46 15.9825 127.542L12.1276 128.201C12.0755 128.212 12.0194 128.218 11.9647 128.218ZM12.7298 119.744C11.6549 120.778 11.8819 121.702 12.4227 123.406C12.6737 124.192 12.9448 125.049 13.0142 125.978L14.8195 125.669V119.745H12.7605C12.7499 119.744 12.7392 119.744 12.7298 119.744Z" fill="#202124"/>
<path d="M41.7121 114.536H36.646C36.148 114.536 35.726 114.163 35.6553 113.657C35.5698 113.039 35.3441 112.409 35.1065 111.74C34.4482 109.892 33.6296 107.589 36.1827 105.432C36.427 105.227 36.7288 105.16 37.0253 105.22C37.0907 105.205 37.1588 105.197 37.2269 105.197H41.7121C42.2649 105.197 42.7135 105.655 42.7135 106.22V113.512C42.7135 114.077 42.2649 114.536 41.7121 114.536ZM37.4552 112.489H40.7106V107.244H37.2269C37.2175 107.244 37.2082 107.244 37.1988 107.244C36.0932 108.326 36.3616 109.28 36.9878 111.04C37.1548 111.509 37.3257 111.99 37.4552 112.489Z" fill="#202124"/>
<path d="M16.7511 114.535H12.1804C11.6824 114.535 11.2604 114.162 11.1897 113.656C11.1055 113.038 10.8799 112.407 10.6409 111.739C9.98257 109.891 9.1654 107.588 11.7184 105.431C11.9614 105.226 12.2646 105.159 12.5597 105.219C12.6318 105.203 12.6959 105.196 12.7853 105.196C13.0684 105.204 13.3648 105.193 13.6586 105.184C15.2596 105.13 17.6924 105.053 18.6618 108.164C18.7126 108.327 18.7233 108.502 18.6899 108.67L17.7338 113.707C17.643 114.187 17.2318 114.535 16.7511 114.535ZM12.9923 112.488H15.9245L16.6736 108.549C16.1769 107.211 15.3877 107.176 13.7213 107.229C13.3915 107.24 13.0644 107.248 12.7399 107.243C12.7386 107.243 12.7359 107.243 12.7345 107.243C11.6289 108.325 11.8973 109.279 12.5236 111.039C12.6892 111.508 12.8601 111.989 12.9923 112.488Z" fill="#202124"/>
<path d="M40.2845 127.869H36.6405C36.1358 127.869 35.7098 127.485 35.6471 126.973C35.5803 126.429 35.5042 125.894 35.4281 125.372C35.2438 124.099 35.0689 122.898 35.0555 121.65C35.0435 120.796 35.3293 119.988 35.583 119.277C35.6804 118.997 35.7806 118.718 35.8607 118.439C36.0036 117.921 36.511 117.605 37.0264 117.719C37.0918 117.705 37.1599 117.697 37.228 117.697H40.2871C40.8399 117.697 41.2886 118.155 41.2886 118.72V126.846C41.2859 127.411 40.8373 127.869 40.2845 127.869ZM37.5138 125.823H39.2817V119.744H37.5418C37.5138 119.82 37.4884 119.896 37.459 119.973C37.248 120.573 37.0451 121.14 37.0518 121.623C37.0651 122.733 37.2294 123.87 37.4029 125.074C37.443 125.321 37.4804 125.57 37.5138 125.823Z" fill="#202124"/>
</g>
<g clip-path="url(#clip3_4332_20026)">
<path d="M83.5392 24.4732C83.2519 24.6639 82.9646 24.9499 82.8689 25.3312C82.2943 25.5218 81.9112 26.0938 81.8154 26.6657L81.6239 30.7647L81.5281 32.0039L81.4324 32.8618L81.2408 34.9589V35.5309L81.0493 38.8672L80.9535 40.2971L80.8578 42.7755V43.8241L80.762 46.9698L80.5705 49.1623L80.3789 50.8781L80.1874 54.4051L79.9001 58.79L79.8044 60.7919L79.7086 62.889L79.6128 64.0329V64.8908L79.5171 66.0347L79.4213 66.8926L79.3255 68.2272L79.2298 68.7991L79.134 70.229L79.0382 70.8963L78.9425 72.9934V75.8531L78.7509 79.0942L78.6552 81.5726V83.0978L78.5594 85.4809L78.4636 87.1967V103.211C78.4636 104.546 78.6552 105.785 78.7509 107.12V107.406L78.8467 109.026L79.0382 111.123L79.3255 112.744C79.4213 113.316 79.5171 113.697 79.8044 114.174C79.9959 114.555 80.2832 114.745 80.6662 114.841C80.9535 115.031 81.2408 115.222 81.6239 115.222H84.4969L86.1249 115.127L87.4656 115.031H90.6259L92.9243 115.127L94.4566 115.317H94.5524C95.1269 115.317 95.7015 114.936 95.9888 114.46C96.1804 114.078 96.2761 113.602 96.2761 113.22V111.123L96.3719 109.121L96.6592 105.022V103.497L96.755 100.923L96.8507 99.3029L96.9465 97.7777L97.138 95.204V95.1087L97.7126 94.918L98.1915 94.8227L98.5745 94.7274L100.49 94.2507L101.831 94.1554H102.118L103.267 94.0601L103.746 93.9648H104.129L105.47 93.8694H110.833L111.886 93.9648L112.652 94.0601H112.844L114.28 94.1554L115.717 94.3461V94.4414H116.196L116.387 94.5367L116.483 94.632L116.579 94.8227V101.972L116.483 102.735V115.699H120.122L122.325 115.794L124.431 115.889H126.251L127.687 115.794L128.645 115.699L129.411 115.603L130.369 115.508H130.656L131.231 115.413C131.614 115.317 131.901 115.031 132.093 114.745C132.476 114.65 132.859 114.46 133.146 114.174C133.433 113.888 133.529 113.602 133.529 113.22V111.314V109.407L133.433 108.359L133.338 107.596L133.242 105.594V103.497V101.019V96.5385V95.1087V92.8209V85.9575V85.0996V83.7651L133.146 81.8586V78.7129V75.0905L133.05 73.2794L132.955 70.515V65.5581L132.859 61.8404L132.667 58.2181L132.572 57.3602L132.38 52.9753V46.3979V40.1065V37.2467L132.188 34.387L131.901 31.7179V31.5273L131.805 31.146V30.86L131.71 29.7161L131.039 28.9535V28.6675L130.944 27.619V27.5236L130.848 27.1423L130.56 26.3797C130.369 25.9031 129.89 25.5218 129.315 25.4265L128.358 25.3312H127.687L126.442 25.4265H124.336L123.474 25.5218L122.325 25.6171H121.941L119.452 25.5218H118.59L117.728 25.4265L116.866 25.3312H104.608L102.501 25.1405C101.16 24.9499 99.7237 24.7592 98.2872 24.7592H93.7862L89.4767 24.6639H88.136L85.6461 24.5686H85.263L84.6884 24.4732H84.1138C83.9223 24.2826 83.7308 24.2826 83.5392 24.4732Z" fill="#4DD78A"/>
<path d="M75.8785 22.9481C75.5912 23.1387 75.3039 23.4247 75.2081 23.806L74.8251 27.8096L74.6335 31.8133L74.5378 35.8169V37.628L74.442 39.5345V41.5364L74.3462 43.5382L74.2505 45.4447V63.9376L73.9632 72.2308L73.7716 76.5204L73.6759 78.6176L73.5801 80.6194L73.4843 82.7165V84.8136L73.3886 86.7201L73.2928 88.7219L73.197 92.6303L72.8132 116.89C72.8132 117.653 73.4836 118.32 74.2497 118.32C75.0159 118.32 75.6862 117.653 75.6862 116.89L76.07 94.3461L76.1658 90.1518V88.2453L76.2615 86.2435L76.3573 82.1446L76.4531 80.0474L76.5488 78.0456L76.7404 73.756L76.9319 69.6571L77.1234 65.3675V63.3656V61.3638V53.1659V48.9717V44.7774L77.2192 42.8709L77.315 40.8691V38.9626L77.4107 37.0561L77.5065 35.1496V33.1478L77.6023 29.2395L77.7938 26.5704L77.9853 24.5686C78.0811 24.1873 78.0811 23.806 77.7938 23.4247C77.6023 23.1387 77.315 22.8528 76.9319 22.7574L76.5488 22.6621C76.3573 22.7574 76.07 22.7574 75.8785 22.9481ZM77.9853 24.6639V24.8546C77.8896 24.8546 77.9853 24.7592 77.9853 24.6639Z" fill="#202124"/>
<path d="M97.6177 21.9945L95.3193 22.0898H93.2124L89.0945 22.1851H85.0723L83.0612 22.2805H81.0501L79.1348 22.3758H78.1771L76.9321 22.5664C76.5491 22.6618 76.2618 22.9477 76.0702 23.2337C75.9745 23.615 75.8787 23.9963 75.9745 24.3776C76.0702 24.7589 76.3575 25.0449 76.6448 25.2355C77.0279 25.4262 77.3152 25.4262 77.794 25.4262L78.1771 25.3308L79.9967 25.2355L82.0078 25.1402L86.413 25.0449H90.531L95.032 24.9496L99.3414 24.8542L103.555 25.0449L111.887 25.6168H115.909L120.027 25.5215L123.858 25.4262H127.688C128.071 25.4262 128.454 25.2355 128.742 25.0449C129.029 24.7589 129.125 24.3776 129.125 23.9963C129.125 23.615 128.933 23.2337 128.742 22.9477C128.454 22.6618 128.167 22.5664 127.688 22.5664H125.677L123.475 22.6618H119.261L116.962 22.7571H114.76L110.259 22.6618L102.023 21.9945L99.4372 21.8992L97.6177 21.9945Z" fill="#202124"/>
<path d="M126.826 24.4726V32.3845L126.73 36.5788V40.5824L126.826 42.6796L126.922 44.7767L127.017 47.0645L127.113 49.3523L127.305 53.6419L127.496 58.0268L127.688 62.1257L127.783 66.1294V82.6205L127.879 84.7176V86.6241L127.975 90.7231V92.8202L128.071 95.0127V99.3023L128.166 101.304V103.306L128.262 105.403V107.5L128.358 116.532C128.358 117.295 129.028 117.962 129.794 117.962C130.561 117.962 131.231 117.295 131.231 116.532V108.358L131.135 106.261L131.039 102.067L130.944 98.0631L130.848 93.6781V89.3885L130.752 87.3867V85.3849L130.656 81.3813V77.2823V68.9891V64.6042L130.561 62.6977L130.465 60.6959L130.273 56.311L130.082 51.926L129.986 49.8289L129.89 47.7318L129.699 43.2515L129.603 39.0572V35.0536V32.8611L129.699 30.764V26.6651V23.996C129.699 23.2334 129.028 22.5661 128.262 22.5661C127.496 23.0427 126.922 23.6147 126.826 24.4726Z" fill="#202124"/>
<path d="M145.308 43.9198H141.286L139.371 44.0151H137.36L133.433 44.2058L131.518 44.3011L129.602 44.3964H128.932C128.166 44.3964 127.496 45.0637 127.496 45.8263C127.496 46.5889 128.166 47.2562 128.932 47.2562L130.752 47.1608L132.763 47.0655L134.678 46.9702L136.785 46.8749L138.7 46.7795H140.711L144.734 46.6842H145.5C146.266 46.6842 146.936 46.1123 146.936 45.2543C146.745 44.6824 146.074 43.9198 145.308 43.9198Z" fill="#202124"/>
<path d="M144.351 45.7301V53.7374L144.446 61.7446V77.6638L144.542 81.7628V108.263L144.638 110.169V117.396C144.734 117.778 144.734 118.159 145.021 118.445C145.308 118.731 145.691 118.826 146.074 118.826C146.457 118.826 146.84 118.635 147.128 118.445C147.319 118.254 147.607 117.778 147.511 117.396C147.319 116.157 147.415 109.121 147.415 107.882V103.973V95.4895V87.7682V83.6693L147.319 79.3797V63.3651V55.4532L147.224 53.4514V51.5449V47.3506V45.8254C147.224 45.0629 146.553 44.3956 145.787 44.3956C145.021 44.3003 144.351 44.9675 144.351 45.7301ZM73.1963 61.0774L71.664 61.1727L69.6529 61.3633L67.4503 61.554C64.8646 61.84 62.2789 61.9353 59.6932 61.9353L55.4795 62.1259L53.2769 62.2213H51.17C50.6912 62.2213 50.1166 62.1259 49.6378 62.2213L47.7225 62.4119C47.3394 62.5072 47.0521 62.7932 46.8606 63.0792C46.669 63.3651 46.5733 63.8418 46.7648 64.2231C46.8606 64.6044 47.1479 64.8903 47.4352 65.081L48.3928 65.1763H52.6065L54.7134 65.081L56.8203 64.9857L61.034 64.795C63.3736 64.7419 65.708 64.5509 68.0249 64.2231H69.9402L71.8556 64.0324L73.292 63.9371H74.7285C75.4947 63.9371 76.165 63.2698 76.165 62.5072C76.165 61.6493 75.4947 61.0774 74.7285 61.0774L73.9624 60.982H73.8666L73.1963 61.0774Z" fill="#202124"/>
<path d="M46.0944 64.6047L46.1901 66.4158V70.3242L46.2859 72.326V74.4231L46.3817 76.3296V78.4267L46.4774 80.4285L46.5732 84.2415V86.148L46.669 88.1498V101.591L46.5732 103.211V105.022L46.4774 106.738L46.3817 108.263L46.2859 117.963C46.2859 118.725 46.9563 119.392 47.7224 119.392C48.4885 119.392 49.1589 118.725 49.1589 117.963L49.2546 107.977L49.3504 106.261L49.4462 104.069V102.258L49.5419 94.2506V90.0563L49.4462 86.0527L49.3504 82.2397L49.1589 78.3314L49.0631 74.7091V72.9932L48.9673 71.0867V67.5597V65.8439L48.8716 64.2234C48.8716 63.4608 48.2012 62.7935 47.4351 62.7935C46.7647 63.1748 46.0944 63.7468 46.0944 64.6047Z" fill="#202124"/>
<path d="M110.737 116.271L108.534 116.366L104.321 116.556L100.203 116.747L95.8932 116.938L93.6906 116.842H91.3922L86.987 116.938L82.5817 116.842L78.5596 116.747L76.5485 116.652L74.4416 116.556H70.3237L65.8226 116.652L61.3216 116.842L59.0232 117.128L56.9164 117.319C55.3841 117.605 53.9476 117.605 52.5111 117.605L50.4043 117.7H46.0948L43.8922 117.605C43.1261 117.605 42.4557 118.272 42.4557 119.035C42.4557 119.798 43.1261 121.418 43.8922 121.418L45.9033 121.513H50.2128L52.3196 121.418L56.6291 121.323L58.8317 121.132L61.0343 120.846C62.5642 120.735 64.0972 120.671 65.6311 120.655L70.0364 120.56H74.3458L76.3569 120.655H78.4638L82.5817 120.751L86.7954 120.846L91.2965 120.751L93.5948 120.655L95.7975 120.751L100.107 120.56L104.225 120.369L108.534 120.179L112.844 120.083L116.77 120.274L118.877 120.465H120.888L125.006 120.56L129.507 120.655L133.529 120.751L135.445 120.846L137.456 120.941H141.669L145.596 121.132L147.415 121.227L148.948 120.274C149.235 120.465 149.714 120.465 150.001 120.369C150.384 120.274 150.672 119.988 150.863 119.702C151.055 119.416 151.15 118.94 151.055 118.558C150.959 118.177 150.672 117.891 150.384 117.7C149.81 117.319 149.043 117.319 148.277 117.319H147.894L146.075 117.224L142.148 116.938L137.935 116.842L135.828 116.747L133.817 116.652L129.89 116.556L127.688 116.461H125.485L121.271 116.366C119.931 116.366 118.59 116.366 117.249 116.175L117.632 116.271C116.196 116.08 114.759 115.985 113.227 115.985H111.886C111.312 116.271 111.024 116.271 110.737 116.271ZM148.565 121.132H148.66C148.66 121.227 148.565 121.227 148.565 121.132ZM81.6241 30.8598V31.7177L81.7198 32.7663C81.9114 33.5289 82.7733 34.0055 83.4436 33.7196C84.2098 33.5289 84.5928 32.7663 84.4971 32.0037V30.7645C84.4971 30.0019 83.8267 29.3346 83.0606 29.3346C82.2944 29.43 81.6241 30.0019 81.6241 30.8598ZM88.4235 30.6692L88.5192 32.0037C88.5192 32.7663 89.1896 33.4336 89.9557 33.4336C90.7219 33.4336 91.3922 32.7663 91.3922 32.0037L91.2965 30.6692C91.2965 30.2879 91.2007 29.9066 90.9134 29.6206C90.6261 29.3346 90.243 29.2393 89.86 29.2393C89.0938 29.2393 88.3277 29.9066 88.4235 30.6692ZM95.8932 29.7159C95.6059 30.0019 95.4144 30.3832 95.5102 30.7645L95.6059 31.3364L95.7017 32.2897C95.8932 32.671 95.989 32.957 96.3721 33.1476C96.6594 33.3383 97.1382 33.4336 97.5213 33.2429C97.9043 33.1476 98.1916 32.8616 98.3832 32.5757C98.5747 32.2897 98.6705 31.8131 98.5747 31.4318V31.3364L98.4789 30.5739C98.4789 30.1926 98.3832 29.8113 98.0959 29.5253C97.8086 29.2393 97.4255 29.144 97.0424 29.144C96.6594 29.144 96.0848 29.43 95.8932 29.7159ZM103.267 30.2879L103.363 32.4803C103.459 32.8616 103.746 33.1476 104.033 33.3383C104.321 33.5289 104.799 33.6242 105.183 33.5289C105.566 33.4336 105.853 33.1476 106.044 32.8616C106.236 32.5757 106.236 32.2897 106.236 31.9084V31.2411V30.2879C106.236 29.5253 105.566 28.858 104.799 28.858C103.938 28.858 103.267 29.5253 103.267 30.2879ZM110.45 30.4785V31.9084C110.45 32.2897 110.545 32.671 110.833 32.957C111.12 33.2429 111.503 33.3383 111.886 33.3383C112.652 33.3383 113.418 32.671 113.323 31.9084V30.4785C113.323 29.7159 112.652 29.0487 111.886 29.0487C111.12 29.0487 110.354 29.7159 110.45 30.4785ZM118.111 30.3832V32.4803C118.111 32.8616 118.207 33.2429 118.494 33.5289C118.781 33.8149 119.164 33.9102 119.547 33.9102C119.931 33.9102 120.314 33.7196 120.601 33.5289C120.888 33.2429 121.08 32.8616 120.984 32.4803V31.5271V30.3832C120.984 29.6206 120.314 28.9533 119.547 28.9533C118.781 28.9533 118.111 29.5253 118.111 30.3832ZM81.3368 38.5811C81.3368 39.2484 81.241 40.011 81.4325 40.6782C81.5283 41.0595 81.8156 41.3455 82.1029 41.5362C82.3902 41.7268 82.869 41.8221 83.2521 41.7268C83.6352 41.6315 83.9225 41.3455 84.114 41.0595C84.3055 40.6782 84.3055 40.3923 84.3055 40.011V38.5811C84.3055 37.8185 83.6352 37.1512 82.869 37.1512C82.0071 37.1512 81.3368 37.8185 81.3368 38.5811ZM88.3277 38.6764C88.3277 39.3437 88.1362 39.9156 88.3277 40.5829C88.5192 41.3455 89.3811 41.8221 90.0515 41.5362C90.7219 41.3455 91.1049 40.7736 91.1049 40.1063V40.011L91.2007 38.6764C91.2007 37.9138 90.5303 37.2466 89.7642 37.2466C88.9981 37.2466 88.3277 37.9138 88.3277 38.6764ZM95.6059 38.2951V39.3437C95.6059 39.9156 95.5102 40.4876 95.7975 40.9642C96.1805 41.6315 97.0424 41.9175 97.8086 41.4408C98.3832 41.1549 98.6705 40.3923 98.4789 39.8203V39.2484V38.2951C98.4789 37.5325 97.8086 36.8653 97.0424 36.8653C96.2763 36.8653 95.6059 37.5325 95.6059 38.2951ZM103.746 37.4372C103.459 37.7232 103.363 38.0092 103.363 38.4858V40.3923C103.555 41.1549 104.416 41.6315 105.087 41.4408C105.853 41.2502 106.236 40.4876 106.14 39.725L106.236 38.4858C106.332 38.1045 106.044 37.7232 105.853 37.4372C105.566 37.1512 105.183 37.0559 104.799 37.0559C104.416 37.0559 104.033 37.1512 103.746 37.4372ZM110.641 38.3905V39.2484L110.737 40.1063C110.833 40.4876 111.12 40.7736 111.407 40.9642C111.695 41.1549 112.173 41.2502 112.557 41.1549C112.94 41.0595 113.227 40.7736 113.418 40.4876C113.61 40.1063 113.61 39.8203 113.61 39.3437V39.2484V38.3905C113.61 37.6279 112.94 36.9606 112.174 36.9606C111.312 36.9606 110.641 37.5325 110.641 38.3905ZM118.781 37.2466C118.494 37.5325 118.398 37.9138 118.398 38.2951L118.303 39.3437C118.303 39.8203 118.303 40.2969 118.59 40.6782C118.781 40.9642 119.069 41.2502 119.452 41.3455C119.835 41.4408 120.218 41.4408 120.601 41.1549C120.888 40.9642 121.176 40.6782 121.271 40.2969V39.439L121.367 38.2951C121.463 37.5325 120.697 36.8653 119.931 36.8653C119.356 36.7699 119.069 36.9606 118.781 37.2466ZM80.8579 47.3509V48.6855C80.8579 49.4481 81.5283 50.1154 82.2944 50.1154C83.0606 50.1154 83.7309 49.4481 83.7309 48.6855V47.3509C83.7309 46.5884 83.0606 45.9211 82.2944 45.9211C81.5283 45.9211 80.8579 46.5884 80.8579 47.3509ZM88.1362 47.1603V47.9229L88.2319 48.7808C88.3277 49.1621 88.5192 49.4481 88.9023 49.6387C89.1896 49.8294 89.6684 49.9247 90.0515 49.7341C90.4346 49.6387 90.7219 49.3528 90.9134 49.0668C91.1049 48.7808 91.2007 48.3042 91.1049 48.0182V47.1603C91.1049 46.3977 90.4346 45.7304 89.6684 45.7304C88.8065 45.7304 88.1362 46.3977 88.1362 47.1603ZM95.7975 47.2556V48.8761C95.989 49.6387 96.8509 50.1154 97.5213 49.8294C98.1916 49.6387 98.6705 48.9715 98.5747 48.3042V47.9229V47.2556C98.5747 46.493 98.0001 45.8258 97.1382 45.8258C96.4678 45.8258 95.7017 46.493 95.7975 47.2556ZM104.033 46.2071C103.746 46.493 103.555 46.8743 103.65 47.2556L103.746 48.1135V48.6855C103.746 49.0668 103.938 49.4481 104.129 49.7341C104.416 50.02 104.799 50.1154 105.183 50.1154C105.566 50.1154 105.949 49.9247 106.236 49.7341C106.523 49.4481 106.619 49.1621 106.619 48.6855V48.1135L106.523 47.1603C106.523 46.779 106.428 46.3977 106.14 46.1117C105.853 45.8258 105.47 45.7304 105.087 45.7304C104.704 45.7304 104.321 45.9211 104.033 46.2071ZM111.599 47.4463L111.695 49.7341C111.79 50.1154 112.078 50.4013 112.365 50.592C112.652 50.7826 113.131 50.878 113.514 50.7826C113.897 50.6873 114.185 50.4013 114.376 50.1154C114.568 49.7341 114.568 49.4481 114.568 49.0668V48.4948V47.4463C114.568 46.6837 113.897 46.0164 113.131 46.0164C112.269 46.0164 111.599 46.5884 111.599 47.4463ZM119.26 47.4463V48.8761C119.26 49.6387 119.931 50.306 120.697 50.306C121.463 50.306 122.133 49.6387 122.133 48.8761V48.7808L122.229 48.2089V47.4463C122.229 46.6837 121.559 46.0164 120.792 46.0164C119.835 46.0164 119.26 46.6837 119.26 47.4463ZM81.0495 56.2161V57.646C81.0495 58.4086 81.7198 59.0759 82.486 59.0759C83.2521 59.0759 83.9225 58.4086 83.9225 57.646V56.2161C83.9225 55.4535 83.2521 54.7863 82.486 54.7863C81.7198 54.7863 81.0495 55.4535 81.0495 56.2161ZM88.2319 56.7881V58.2179C88.2319 58.9805 88.9023 59.6478 89.6684 59.6478C90.4346 59.6478 91.1049 58.9805 91.1049 58.2179V56.7881C91.1049 56.0255 90.4346 55.3582 89.6684 55.3582C88.8065 55.3582 88.1362 56.0255 88.2319 56.7881ZM96.3721 56.3114V57.074L96.4678 58.1226C96.7551 58.8852 97.4255 59.3618 98.1916 59.0759C98.862 58.8852 99.4366 58.1226 99.2451 57.36V56.3114C99.2451 55.5488 98.5747 54.8816 97.8086 54.8816C97.0424 54.8816 96.3721 55.5488 96.3721 56.3114ZM104.033 56.5021V57.5507C104.129 57.932 104.129 58.3133 104.416 58.5992C104.704 58.8852 105.087 58.9805 105.47 58.9805C105.853 58.9805 106.236 58.7899 106.523 58.5992C106.811 58.3133 107.002 57.932 106.906 57.5507V56.5021C106.906 55.7395 106.236 55.0722 105.47 55.0722C104.704 55.0722 104.033 55.7395 104.033 56.5021ZM112.557 55.3582C112.269 55.5488 111.982 55.8348 111.886 56.2161L111.695 57.932C111.695 58.6946 112.365 59.3618 113.131 59.3618C113.897 59.3618 114.568 58.6946 114.568 57.932V57.1694V56.9787C114.663 56.5974 114.663 56.2161 114.376 55.8348C114.185 55.5488 113.897 55.2629 113.514 55.1675L113.131 55.0722L112.557 55.3582ZM119.26 56.4068L119.356 57.5507L119.452 58.0273C119.547 58.4086 119.835 58.6946 120.122 58.8852C120.409 59.0759 120.888 59.1712 121.271 59.0759C121.654 58.9805 121.942 58.6946 122.133 58.4086C122.325 58.0273 122.325 57.7413 122.325 57.2647L122.229 56.8834V56.4068C122.229 55.6442 121.559 54.9769 120.792 54.9769C119.931 54.9769 119.26 55.5488 119.26 56.4068ZM135.253 53.4517V55.3582C135.253 56.1208 135.924 56.7881 136.69 56.7881C137.456 56.7881 138.126 56.1208 138.126 55.3582V53.4517C138.126 52.6891 137.456 52.0218 136.69 52.0218C135.924 52.0218 135.253 52.6891 135.253 53.4517ZM135.445 62.8888V64.5093C135.445 65.2719 136.115 65.9392 136.881 65.9392C137.647 65.9392 138.318 65.2719 138.318 64.5093V62.8888C138.318 62.1262 137.647 61.459 136.881 61.459C136.115 61.459 135.445 62.1262 135.445 62.8888ZM135.349 72.7072V74.0418L135.253 74.5184C135.253 75.281 135.924 75.9483 136.69 75.9483C137.456 75.9483 138.126 75.3763 138.126 74.6137L138.222 73.8511V72.7072C138.222 71.9446 137.552 71.2774 136.785 71.2774C136.019 71.2774 135.349 71.9446 135.349 72.7072ZM135.349 80.4285V82.1444C135.349 82.5257 135.54 82.907 135.732 83.1929C136.019 83.4789 136.402 83.5742 136.785 83.5742C137.168 83.5742 137.552 83.3836 137.839 83.1929C138.126 82.907 138.222 82.621 138.222 82.1444V81.3818V80.4285C138.222 79.6659 137.552 78.9987 136.785 78.9987C136.019 78.9987 135.349 79.6659 135.349 80.4285ZM135.157 88.9124V90.9142C135.157 91.2955 135.54 91.5815 135.828 91.7721C136.115 91.9628 136.594 92.0581 136.977 91.8675C137.36 91.7721 137.647 91.4862 137.839 91.2002C138.03 90.8189 138.03 90.5329 138.03 90.1516V88.7217C138.03 87.9592 137.36 87.2919 136.594 87.2919C135.828 87.4825 135.157 88.1498 135.157 88.9124ZM54.1392 72.4213V73.2792L54.0434 74.1371C54.0434 74.8997 54.7138 75.567 55.4799 75.567C56.246 75.567 56.9164 74.8997 56.9164 74.1371L57.0122 73.2792V72.4213C57.0122 71.6587 56.3418 70.9914 55.5757 70.9914C54.7138 70.9914 54.1392 71.6587 54.1392 72.4213ZM65.7269 72.3259V74.0418C65.7269 74.8044 66.3972 75.4717 67.1634 75.4717C67.9295 75.4717 68.5999 74.8044 68.5999 74.0418V72.3259C68.5999 71.5634 67.9295 70.8961 67.1634 70.8961C66.3972 70.8961 65.6311 71.5634 65.7269 72.3259ZM55.2884 82.7163C55.0011 83.0023 54.9053 83.2883 54.9053 83.6696L54.7138 85.576C54.7138 85.9573 54.9053 86.3386 55.0968 86.6246C55.3841 86.9106 55.7672 87.0059 56.1503 87.0059C56.5333 87.0059 56.9164 86.8153 57.2037 86.6246C57.491 86.3386 57.5868 86.0527 57.5868 85.576L57.7783 83.6696C57.7783 83.2883 57.5868 82.907 57.3952 82.621C57.1079 82.335 56.7249 82.2397 56.3418 82.2397C55.9587 82.2397 55.5757 82.4303 55.2884 82.7163ZM66.1099 83.7649L66.0142 85.1947C66.0142 85.9573 66.6845 86.6246 67.4507 86.6246C68.2168 86.6246 68.8872 85.9573 68.8872 85.1947L68.9829 83.7649C68.9829 83.0023 68.3126 82.335 67.5464 82.335C66.6845 82.335 66.1099 83.0023 66.1099 83.7649ZM55.2884 95.2991C55.0011 95.5851 54.9053 95.8711 54.9053 96.3477L54.8095 97.7776C54.8095 98.5402 55.4799 99.2074 56.246 99.2074C57.0122 99.2074 57.6825 98.5402 57.6825 97.7776L57.7783 96.3477C57.7783 95.9664 57.5868 95.5851 57.3952 95.2991C57.1079 95.0132 56.7249 94.9178 56.3418 94.9178C55.9587 94.9178 55.5757 95.0132 55.2884 95.2991ZM53.373 51.1639C52.99 51.2592 52.7027 51.5452 52.5111 51.8312C52.3196 52.1172 52.2238 52.5938 52.4154 52.9751C52.5111 53.3564 52.7984 53.547 53.0857 53.833L52.7984 53.6424L53.7561 54.5003L54.2349 54.8816L54.7138 55.2629L55.2884 55.5489C55.6714 55.6442 56.0545 55.5488 56.4376 55.3582C56.7249 55.1676 57.0122 54.8816 57.1079 54.5003C57.2037 54.119 57.2037 53.7377 57.0122 53.3564C56.9164 53.0704 56.7249 52.9751 56.4376 52.8798L54.5222 51.2593L53.8519 51.0686L53.373 51.1639ZM57.5868 41.6315C56.9164 42.0128 56.6291 42.966 57.1079 43.6333L57.9698 44.9678L58.8317 46.3977L60.4597 48.9715C60.6513 49.2574 60.9386 49.5434 61.3216 49.6387C61.7047 49.7341 62.0878 49.7341 62.4708 49.5434C63.1412 49.1621 63.4285 48.2089 62.9497 47.5416L61.3216 45.0632L60.4597 43.6333L59.5978 42.2988C59.3105 41.8221 58.8317 41.6315 58.3529 41.6315C58.0656 41.4408 57.874 41.4408 57.5868 41.6315ZM65.1523 41.7268C64.4819 41.9175 63.9073 42.7754 64.1946 43.4426L64.4819 44.1099C64.5777 44.4912 64.7692 44.7772 65.1523 44.9678C65.4396 45.1585 65.9184 45.2538 66.3015 45.0632C66.9718 44.8725 67.5464 44.0146 67.3549 43.3473L67.0676 42.6801C66.9718 42.2988 66.7803 42.0128 66.3972 41.8221L65.6311 41.6315L65.1523 41.7268ZM138.892 21.3274L137.935 21.9947C137.168 22.4713 136.498 22.9479 135.924 23.5198C135.349 23.9965 135.445 25.045 135.924 25.5217C136.211 25.8076 136.594 25.903 136.977 25.903C137.36 25.903 137.743 25.7123 138.03 25.5217L138.797 24.8544L139.85 24.0918L140.52 23.6152L140.712 23.4245C141.382 23.2339 141.861 22.3759 141.669 21.7087C141.478 21.0414 140.999 20.6601 140.329 20.6601H140.233C139.735 20.7605 139.272 20.9908 138.892 21.3274ZM141.669 27.5235L140.233 28.0001C139.85 28.1907 139.563 28.2861 139.371 28.6674C139.18 28.9533 139.084 29.43 139.275 29.8113C139.371 30.1926 139.658 30.4785 139.946 30.6692C140.233 30.8598 140.712 30.9551 141.095 30.8598L142.531 30.3832C143.298 30.1926 143.776 29.3346 143.489 28.6674C143.298 28.0001 142.723 27.6188 142.053 27.6188L141.669 27.5235ZM131.423 18.1817L131.039 19.0396L131.231 18.6583L130.656 20.0882C130.369 20.8508 130.944 21.6134 131.614 21.804C131.997 21.8993 132.38 21.8993 132.763 21.6134C133.051 21.6134 133.242 21.3274 133.434 20.9461L133.721 20.0882L133.912 19.7069C134.295 19.0396 134.008 18.0864 133.434 17.7051L132.667 17.5144C132.189 17.5144 131.71 17.8004 131.423 18.1817ZM133.817 19.8022L133.721 20.0882V19.9928L133.817 19.8022Z" fill="#202124"/>
<path d="M92.5413 99.0647L92.4455 101.162L92.3497 103.068V106.881L92.4455 110.79L92.5413 114.889L92.637 116.89C92.637 117.272 92.7328 117.653 93.0201 117.939C93.3074 118.225 93.6905 118.32 94.0735 118.32C94.8397 118.32 95.6058 117.653 95.51 116.89C95.3985 115.654 95.3346 114.414 95.3185 113.173V111.076L95.2227 109.074V105.261L95.3185 101.448L95.4142 99.16C95.4142 98.3974 94.7439 97.7301 93.9778 97.7301C93.2116 97.6348 92.637 98.3021 92.5413 99.0647Z" fill="#202124"/>
<path d="M105.662 96.3954L103.746 96.4907L101.831 96.586L100.011 96.6814H98.0003L95.7977 96.7767L93.7866 97.158C93.0204 97.3486 92.5416 98.2065 92.8289 98.8738C92.9247 99.2551 93.212 99.5411 93.4993 99.7317C93.8823 99.9224 94.2654 99.9224 94.6485 99.9224L96.085 99.6364L98.9579 99.5411L102.597 99.3504C104.512 99.3504 106.523 99.1598 108.439 99.2551L108.63 102.401L108.726 104.498L108.822 106.69V108.502L108.726 110.599V116.128C108.726 116.89 109.396 117.557 110.163 117.557C110.929 117.557 111.599 116.89 111.599 116.128V112.124L111.695 108.025V106.023L111.599 103.831L111.503 101.924L111.408 100.018C111.312 98.6832 111.408 96.7767 109.684 96.4907L107.864 96.3954H105.662Z" fill="#202124"/>
</g>
<path d="M109.68 120.35C123.21 120.35 136.745 120.348 150.275 120.345L193.618 120.34C194.231 120.34 194.844 119.142 194.844 118.121C194.844 117.101 194.512 116.643 193.005 116.643L150.275 116.648C111.717 116.66 73.1584 116.663 34.5896 116.608C27.7191 116.599 20.669 116.382 13.8513 116.172C10.6271 116.071 5.67987 115.971 2.45041 115.892C0.44519 115.843 0.120834 116.621 0.00474548 117.641C-0.106064 118.662 0.265778 120.296 2.45041 120.35C5.63765 120.429 10.5478 120.53 13.7403 120.628C20.6689 120.843 27.4446 120.298 34.5579 120.308C59.602 120.34 84.6461 120.35 109.68 120.35Z" fill="#202124"/>
</g>
<defs>
<clipPath id="clip0_4332_20026">
<rect width="212" height="111" fill="white" transform="translate(-0.000488281 9.49902)"/>
</clipPath>
<clipPath id="clip1_4332_20026">
<rect width="52.7778" height="61.0076" fill="white" transform="translate(146.416 61.8936)"/>
</clipPath>
<clipPath id="clip2_4332_20026">
<rect width="54.4803" height="67.7863" fill="white" transform="translate(-6.66138 66.1307)"/>
</clipPath>
<clipPath id="clip3_4332_20026">
<rect width="110.131" height="109.623" fill="white" transform="translate(42.4561 11.7953)"/>
</clipPath>
</defs>
</svg>
