<svg width="25" height="25" viewBox="0 0 25 25" fill="none" xmlns="http://www.w3.org/2000/svg">
  <path fill-rule="evenodd" clip-rule="evenodd"
    d="M5.27344 6.49902C4.16887 6.49902 3.27344 7.39445 3.27344 8.49902V17.499C3.27344 18.6036 4.16887 19.499 5.27344 19.499H19.2734C20.378 19.499 21.2734 18.6036 21.2734 17.499V8.49902C21.2734 7.39445 20.378 6.49902 19.2734 6.49902H5.27344ZM19.4338 8.64345C19.2374 8.27875 18.7826 8.14229 18.4179 8.33867L12.2734 11.6472L6.12902 8.33867C5.76432 8.14229 5.30947 8.27875 5.1131 8.64345C4.91672 9.00815 5.05317 9.463 5.41787 9.65938L11.9179 13.1594C12.1399 13.2789 12.407 13.2789 12.629 13.1594L19.129 9.65938C19.4937 9.463 19.6302 9.00815 19.4338 8.64345Z"
    fill="#404145" />
</svg>
