<svg width="24" height="24" viewBox="0 0 24 24" fill="none" xmlns="http://www.w3.org/2000/svg">
<path d="M16.0507 14.9129C15.7386 14.6002 15.232 14.5998 14.9194 14.912C14.6067 15.2242 14.6063 15.7307 14.9185 16.0434L16.0507 14.9129ZM4.59912 10.9736H3.79912H4.59912ZM10.9741 4.59863V3.79863V4.59863ZM19.9655 18.8336L16.0507 14.9129L14.9185 16.0434L18.8332 19.9641L19.9655 18.8336ZM16.5491 10.9736C16.5491 12.4522 15.9618 13.8702 14.9162 14.9158L16.0476 16.0471C17.3932 14.7016 18.1491 12.8766 18.1491 10.9736H16.5491ZM14.9162 14.9158C13.8707 15.9613 12.4527 16.5486 10.9741 16.5486V18.1486C12.877 18.1486 14.702 17.3927 16.0476 16.0471L14.9162 14.9158ZM10.9741 16.5486C9.49554 16.5486 8.07752 15.9613 7.032 14.9158L5.90063 16.0471C7.2462 17.3927 9.07119 18.1486 10.9741 18.1486V16.5486ZM7.032 14.9158C5.98649 13.8702 5.39912 12.4522 5.39912 10.9736H3.79912C3.79912 12.8766 4.55506 14.7016 5.90063 16.0471L7.032 14.9158ZM5.39912 10.9736C5.39912 9.49505 5.98649 8.07703 7.032 7.03151L5.90063 5.90014C4.55506 7.24572 3.79912 9.0707 3.79912 10.9736H5.39912ZM7.032 7.03151C8.07752 5.986 9.49554 5.39863 10.9741 5.39863V3.79863C9.07119 3.79863 7.2462 4.55457 5.90063 5.90014L7.032 7.03151ZM10.9741 5.39863C12.4527 5.39863 13.8707 5.986 14.9162 7.03151L16.0476 5.90014C14.702 4.55457 12.877 3.79863 10.9741 3.79863V5.39863ZM14.9162 7.03151C15.9618 8.07703 16.5491 9.49505 16.5491 10.9736H18.1491C18.1491 9.0707 17.3932 7.24572 16.0476 5.90014L14.9162 7.03151Z" fill="#202124"/>
</svg>
