<svg width="28" height="15" viewBox="0 0 28 15" fill="none" xmlns="http://www.w3.org/2000/svg">
<path fill-rule="evenodd" clip-rule="evenodd" d="M0.21875 13.0643H0.563054L5.039 12.0422L5.38331 12.3829L12.6137 10.3389V10.6796L15.3681 9.65753L15.7124 10.6796H16.0567H16.401V11.7016L17.4339 12.0422L17.7782 11.0202H18.1225V11.7016L17.7782 12.3829L18.1225 13.7456L18.4668 14.0863L18.8112 13.4049L19.1555 13.0643L19.4998 13.4049L19.8441 12.7236V12.0422H20.1884L20.877 11.3609V10.6796H21.5656L21.9099 11.3609V12.3829H22.5985L22.9428 11.7016L23.2871 11.3609L24.32 11.0202L26.3858 9.99821V8.97619L26.0415 8.63552L25.6972 7.95417L25.0086 6.93215H24.6643L25.0086 7.6135C25.0086 7.6135 25.8037 8.35689 26.0291 8.72858C26.148 8.92467 26.0415 9.31686 26.0415 9.31686L25.0086 9.65753L24.6643 9.99821L24.32 10.3389H23.6314H22.2542L21.9099 9.65753V8.63552L21.2213 8.97619L20.1884 8.63552L20.5327 7.6135L19.1555 6.25081L18.4668 6.59148L18.1225 6.93215L17.4339 6.59148L17.0896 6.25081V5.56946L17.4339 5.22879V4.88812L18.1225 4.54745L17.7782 4.20677V3.52543L19.1555 3.18476L19.4998 2.50341L18.8112 2.84408L18.1225 2.50341L17.7782 2.16274V1.48139H17.0896L17.4339 0.800049H16.7453L16.0567 1.14072C16.0567 1.14072 15.8272 1.59495 15.7124 1.82207H15.3681L14.6795 3.18476L13.6466 3.52543L6.41622 5.22879L0.563054 6.25081L0.21875 13.0643ZM21.5656 14.0863V14.7676L22.2542 14.0863L23.6314 13.7456L22.5985 13.0643L22.2542 13.7456L21.5656 14.0863ZM26.0415 13.7456L26.3858 14.0863H27.0744L27.4188 13.7456L27.0744 13.0643L26.7301 13.7456H26.0415ZM17.4339 12.7236L17.0896 13.4049L17.4339 14.4269L17.7782 14.0863L17.4339 12.7236Z" fill="#989BA7"/>
</svg>
