<svg width="15" height="24" viewBox="0 0 15 24" fill="none" xmlns="http://www.w3.org/2000/svg">
<path fill-rule="evenodd" clip-rule="evenodd" d="M12.0584 0L2.78303 0.923077L3.55597 1.53846V2L4.48351 2.30769L4.6381 3.53846L4.17433 4V4.61538L3.24679 5.23077L2.01008 5.53846L1.7009 6.46154L2.31926 7.07692L2.47385 7.53846L1.85549 8.15385V8.76923L0.927953 9.38461L1.08254 10L0.927953 10.1538L0.773364 10.4615L0.618774 11.0769L0.927953 12L1.39172 12.9231L2.31926 13.6923L2.47385 14L3.40138 14.4615L3.71056 14.9231V15.3846L4.01974 16.1538L4.32892 16.4615L4.79269 16H5.41105L5.87481 16.4615L5.72022 16.6154V17.2308L5.25646 18.4615V19.0769L6.49317 20L7.42071 20.4615H7.5753L7.88447 20.9231L8.50283 21.2308V21.8462L8.81201 22.1538V22.3077L8.65742 22.7692V22.9231L9.12119 23.5385V23.8462L9.58496 24V23.6923L9.89414 24L10.0487 23.8462L9.89414 23.6923L10.2033 23.2308L10.5125 22.9231H10.9763L12.0584 23.3846H12.213L12.5222 23.2308L12.3676 22.9231L12.0584 22.4615L12.213 22L12.6767 21.8462L13.4497 21.5385V21.2308L13.1405 20.9231L13.2951 20.4615L13.4497 20.1538L13.2951 19.6923L13.4497 19.5385V18.9231L13.7589 18.6154L13.4497 18.3077L13.6043 18L13.9135 17.8462L14.2226 17.2308L14.5318 16.9231V16.4615L14.841 16V15.6923L14.6864 15.2308V14.9231L14.3772 14.4615L14.0681 14.1538L14.3772 14L14.2226 13.5385L14.5318 13.2308L13.4497 3.23077L12.9859 2.76923L12.8313 2.30769V1.84615L12.3676 1.53846L12.213 1.07692L12.0584 0.923077V0Z" fill="#989BA7"/>
</svg>
