<svg width="24" height="28" viewBox="0 0 24 28" fill="none" xmlns="http://www.w3.org/2000/svg">
<path d="M14.138 26.67L13.882 26.638L13.562 25.966H13.658L14.138 26.67ZM11.322 25.422L11.514 25.454V25.55L11.194 25.422H11.322ZM14.138 25.006L14.202 25.262H13.946L13.53 24.878L14.138 25.006ZM10.042 23.374L10.106 23.566L9.786 23.758L9.562 23.374H10.042ZM9.402 23.31V23.374L9.082 23.31L9.21 23.214L9.402 23.31ZM10.554 23.246L11.162 23.214L11.226 23.31L10.618 23.502L10.266 23.214L10.554 23.246ZM9.69 3.822L9.786 9.23L22.554 19.918L23.354 21.326L23.962 21.71L23.066 22.798L23.13 23.982L22.65 24.366L22.938 25.326L23.418 25.55L23.386 26.222L17.178 27.31L16.922 26.926L17.178 26.99L17.114 26.798L16.826 26.926L16.634 25.774L16.058 25.006L14.554 23.982L13.946 24.014L13.658 23.246L12.954 23.31L12.186 23.054L11.77 22.574L11.002 22.19L8.922 22.062L8.602 21.87V20.142L7.994 19.982V19.406L7.098 18.734L6.554 17.806L5.722 16.974L5.53 16.078L5.786 16.014L5.946 15.438L5.626 15.086H5.114L4.698 14.606L4.218 13.486V12.75L4.506 12.654L4.538 13.23L5.114 13.646H5.338L4.986 12.878L4.698 12.654L4.506 12.174L4.57 12.046L4.89 12.014L5.05 12.046H6.106L6.202 11.758L6.682 12.046L6.298 11.758L5.946 12.014L6.106 11.726L5.594 12.014L5.338 11.726L5.018 12.014L4.506 11.694L4.218 11.726L4.378 12.43L4.218 12.59L3.29 11.886L3.13 12.142L3.194 11.47L3.514 11.758L2.906 10.766L1.594 9.39V8.91L1.37 8.142L1.498 7.246L1.114 6.414L0.282 5.71L0.25 5.166L0.474 4.398L0.858 4.014L0.666 4.238L1.05 2.318L0.826 1.614L0.666 1.326L0.698 0.75H9.658L9.69 3.822Z" fill="#989BA7"/>
</svg>
