<svg width="31" height="31" viewBox="0 0 31 31" fill="none" xmlns="http://www.w3.org/2000/svg">
<mask id="path-1-outside-1_3395_76343" maskUnits="userSpaceOnUse" x="0" y="0" width="31" height="31" fill="black">
<rect fill="white" width="31" height="31"/>
<path d="M21.528 28.048H21.464L21.592 28.016L21.528 28.048ZM22.904 27.92V28.048H22.616L22.68 28.016L22.904 27.92ZM23.224 27.92L22.904 28.048L23.032 27.888L23.224 27.92ZM21.528 27.888L21.592 27.92L21.464 27.888H21.528ZM24.6 27.632H24.44L24.664 27.6L24.6 27.632ZM23.96 27.632L23.864 27.6V27.504H23.96V27.632ZM23.608 27.504L23.704 27.664L23.256 27.92L23.448 27.632L23.672 27.664L23.608 27.504ZM23.832 27.504L23.704 27.632V27.472H23.8L23.832 27.504ZM25.272 27.472L24.984 27.44L25.4 27.344V27.44L25.272 27.472ZM24.28 27.632L24.248 27.664L24.088 27.312L24.216 27.44L24.28 27.632ZM25.784 27.312L25.4 27.44L25.816 27.088L25.784 27.312ZM26.232 26.928V27.024L26.008 27.056L26.232 26.896V26.928ZM26.552 26.896H26.52L26.552 26.736V26.896ZM26.808 26.608H26.776L26.936 26.48L26.808 26.608ZM25.368 25.136H25.272V25.008H25.4L25.368 25.136ZM25.176 24.944H25.272L25.24 25.008L25.112 24.944H25.176ZM27.832 25.616L27.096 26.48H27L27.832 25.36V25.104L28.248 24.848L27.832 25.616ZM28.344 24.56L28.312 24.624L28.472 24.368L28.44 24.432L28.344 24.56ZM28.536 23.536H28.472L28.504 23.376H28.536V23.536ZM24.248 23.088H23.96V22.96L24.088 22.864L24.248 23.088ZM23.864 22.832V22.992L23.704 22.864L23.8 22.832H23.864ZM23.224 22.8L23.096 22.864L23.032 22.8H23.224ZM23.672 22.832L23.608 22.864V22.704L23.672 22.8V22.832ZM21.592 20.464L21.88 20.56L21.464 20.464L21.304 20.176L21.592 20.464ZM21.176 19.792V19.888L21.144 19.6H21.176V19.792ZM21.72 20.304L21.624 20.208L21.336 19.6L21.592 19.632L21.72 20.304ZM21.144 19.408L21.048 19.568V19.152V19.216L21.144 19.408ZM19.96 17.04V17.072L19.64 16.656H19.736L19.96 17.04ZM28.472 17.616L28.088 16.688L27.512 14.992L27.832 15.568L28.472 17.616ZM26.808 13.808L26.776 13.552L26.808 13.712V13.808ZM26.808 12.24L26.776 12.784V13.552L26.424 12.4L26.776 12.048L26.808 12.24ZM19.64 11.472H19.736V11.536H19.64V11.472ZM19.64 11.408V11.312L19.736 11.408H19.64ZM18.488 9.904H18.392V9.872L18.456 9.776L18.488 9.904ZM11.448 7.568L11.32 7.76L11.064 7.568H11.288H11.448ZM11.864 7.824L11.64 7.92L11.448 7.792H11.768L12.856 7.248L11.864 7.824ZM13.112 7.216L12.92 7.248L13.272 7.056L13.112 7.216ZM6.52 4.528L4.152 4.656H3.992L6.072 4.432L6.648 4.528H6.52ZM19.96 16.208L20.728 15.12L20.6 14.704H20.44V15.12H20.184L20.152 14.576L19.64 14.352V14.544H19.768L19.576 14.672L20.056 14.928L19.736 15.568L19.224 15.088L19.48 15.504V15.696L19.064 14.864L19.736 12.656L19.896 11.6L19.64 11.28L19.896 11.312V10.896L19.608 10.544L19.384 9.776H18.488L17.88 8.784L17.272 8.336L17.336 7.824L16.824 7.568L16.376 6.768L15.224 6.064L14.68 6.192L14.552 6L13.848 6.256L14.04 6.48L13.688 6.352L13.656 6.48L14.04 6.64V6.768L13.976 6.832L13.528 6.768L12.216 7.376L12.28 7.184L11.768 7.44L10.616 7.568L10.52 7.376L10.328 6.832L10.616 7.568L10.744 7.056L10.616 6.768L9.528 5.68L10.296 6.224L10.52 6.096L10.2 6.192L10.168 5.68L9.912 5.808L9.368 5.488L10.008 5.2L9.912 5.04L9.464 5.232L9.24 5.04L8.952 5.2L9.24 5.264L9.368 5.68L8.216 5.04L6.68 4.496L7.256 4.624L7.48 4.432L7.64 4.656V4.432L8.088 4.656L7.96 4.272L7.704 4.112L7.064 4.304V4.112L6.744 4.08L6.424 4.496L5.848 4.432L4.376 4.624L5.4 4.272L4.984 3.984L5.144 3.792L4.952 3.568L4.792 4.144L4.408 3.696L4.536 4.112L4.12 4.624L3.224 4.848L3.832 4.144L3.576 3.92L3.736 3.28L3 2.544L3.096 2L11.896 2.384L12.312 3.504L21.304 4.304L21.592 5.104L21.976 5.072V3.568L22.2 3.376L24.088 3.792V4.496L23.832 4.112V4.432L24.216 4.688L24.696 7.376L25.816 10.288L26.808 11.888L27.192 12.592L26.968 12.848V13.552L27.512 14.96L26.808 13.552L26.936 12.048H26.36L26.392 11.472L26.008 11.312L26.52 12.944L27.704 15.696L27.832 16.4L28.344 17.648V17.584L27.928 17.456L28.536 17.872L28.92 19.152L28.536 23.248V22.704L28.088 23.824L27.96 24.848L27.608 25.328L27.704 25.552L27.544 25.328L27.352 25.36L27.512 25.424L27.544 25.616L27.352 25.52L27.32 25.328L26.552 25.68L26.008 25.552L25.272 25.872L24.984 25.616L24.856 25.328L25.112 24.944L25.272 25.136L25.624 25.36H25.496L25.816 25.264L24.984 24.752L24.856 24.048L24.248 22.992L23.288 22.544L22.904 22.672L23.224 22.384L22.904 22.288L22.712 21.808V22L22.488 20.56L22.392 20.336V20.56L21.976 20.464L22.712 19.568L22.328 19.76L22.2 20.176H21.784L21.72 18.736L22.168 18.384L21.464 18.64L21.048 18.224L21.464 19.184L20.92 19.024L20.056 17.232L20.024 16.784L19.608 16.496L19.48 16.304L19.736 16.496L19.64 16.4H19.96L19.768 16.24L20.024 16.208H19.96Z"/>
</mask>
<path d="M21.528 28.048H21.464L21.592 28.016L21.528 28.048ZM22.904 27.92V28.048H22.616L22.68 28.016L22.904 27.92ZM23.224 27.92L22.904 28.048L23.032 27.888L23.224 27.92ZM21.528 27.888L21.592 27.92L21.464 27.888H21.528ZM24.6 27.632H24.44L24.664 27.6L24.6 27.632ZM23.96 27.632L23.864 27.6V27.504H23.96V27.632ZM23.608 27.504L23.704 27.664L23.256 27.92L23.448 27.632L23.672 27.664L23.608 27.504ZM23.832 27.504L23.704 27.632V27.472H23.8L23.832 27.504ZM25.272 27.472L24.984 27.44L25.4 27.344V27.44L25.272 27.472ZM24.28 27.632L24.248 27.664L24.088 27.312L24.216 27.44L24.28 27.632ZM25.784 27.312L25.4 27.44L25.816 27.088L25.784 27.312ZM26.232 26.928V27.024L26.008 27.056L26.232 26.896V26.928ZM26.552 26.896H26.52L26.552 26.736V26.896ZM26.808 26.608H26.776L26.936 26.48L26.808 26.608ZM25.368 25.136H25.272V25.008H25.4L25.368 25.136ZM25.176 24.944H25.272L25.24 25.008L25.112 24.944H25.176ZM27.832 25.616L27.096 26.48H27L27.832 25.36V25.104L28.248 24.848L27.832 25.616ZM28.344 24.56L28.312 24.624L28.472 24.368L28.44 24.432L28.344 24.56ZM28.536 23.536H28.472L28.504 23.376H28.536V23.536ZM24.248 23.088H23.96V22.96L24.088 22.864L24.248 23.088ZM23.864 22.832V22.992L23.704 22.864L23.8 22.832H23.864ZM23.224 22.8L23.096 22.864L23.032 22.8H23.224ZM23.672 22.832L23.608 22.864V22.704L23.672 22.8V22.832ZM21.592 20.464L21.88 20.56L21.464 20.464L21.304 20.176L21.592 20.464ZM21.176 19.792V19.888L21.144 19.6H21.176V19.792ZM21.72 20.304L21.624 20.208L21.336 19.6L21.592 19.632L21.72 20.304ZM21.144 19.408L21.048 19.568V19.152V19.216L21.144 19.408ZM19.96 17.04V17.072L19.64 16.656H19.736L19.96 17.04ZM28.472 17.616L28.088 16.688L27.512 14.992L27.832 15.568L28.472 17.616ZM26.808 13.808L26.776 13.552L26.808 13.712V13.808ZM26.808 12.24L26.776 12.784V13.552L26.424 12.4L26.776 12.048L26.808 12.24ZM19.64 11.472H19.736V11.536H19.64V11.472ZM19.64 11.408V11.312L19.736 11.408H19.64ZM18.488 9.904H18.392V9.872L18.456 9.776L18.488 9.904ZM11.448 7.568L11.32 7.76L11.064 7.568H11.288H11.448ZM11.864 7.824L11.64 7.92L11.448 7.792H11.768L12.856 7.248L11.864 7.824ZM13.112 7.216L12.92 7.248L13.272 7.056L13.112 7.216ZM6.52 4.528L4.152 4.656H3.992L6.072 4.432L6.648 4.528H6.52ZM19.96 16.208L20.728 15.12L20.6 14.704H20.44V15.12H20.184L20.152 14.576L19.64 14.352V14.544H19.768L19.576 14.672L20.056 14.928L19.736 15.568L19.224 15.088L19.48 15.504V15.696L19.064 14.864L19.736 12.656L19.896 11.6L19.64 11.28L19.896 11.312V10.896L19.608 10.544L19.384 9.776H18.488L17.88 8.784L17.272 8.336L17.336 7.824L16.824 7.568L16.376 6.768L15.224 6.064L14.68 6.192L14.552 6L13.848 6.256L14.04 6.48L13.688 6.352L13.656 6.48L14.04 6.64V6.768L13.976 6.832L13.528 6.768L12.216 7.376L12.28 7.184L11.768 7.44L10.616 7.568L10.52 7.376L10.328 6.832L10.616 7.568L10.744 7.056L10.616 6.768L9.528 5.68L10.296 6.224L10.52 6.096L10.2 6.192L10.168 5.68L9.912 5.808L9.368 5.488L10.008 5.2L9.912 5.04L9.464 5.232L9.24 5.04L8.952 5.2L9.24 5.264L9.368 5.68L8.216 5.04L6.68 4.496L7.256 4.624L7.48 4.432L7.64 4.656V4.432L8.088 4.656L7.96 4.272L7.704 4.112L7.064 4.304V4.112L6.744 4.08L6.424 4.496L5.848 4.432L4.376 4.624L5.4 4.272L4.984 3.984L5.144 3.792L4.952 3.568L4.792 4.144L4.408 3.696L4.536 4.112L4.12 4.624L3.224 4.848L3.832 4.144L3.576 3.92L3.736 3.28L3 2.544L3.096 2L11.896 2.384L12.312 3.504L21.304 4.304L21.592 5.104L21.976 5.072V3.568L22.2 3.376L24.088 3.792V4.496L23.832 4.112V4.432L24.216 4.688L24.696 7.376L25.816 10.288L26.808 11.888L27.192 12.592L26.968 12.848V13.552L27.512 14.96L26.808 13.552L26.936 12.048H26.36L26.392 11.472L26.008 11.312L26.52 12.944L27.704 15.696L27.832 16.4L28.344 17.648V17.584L27.928 17.456L28.536 17.872L28.92 19.152L28.536 23.248V22.704L28.088 23.824L27.96 24.848L27.608 25.328L27.704 25.552L27.544 25.328L27.352 25.36L27.512 25.424L27.544 25.616L27.352 25.52L27.32 25.328L26.552 25.68L26.008 25.552L25.272 25.872L24.984 25.616L24.856 25.328L25.112 24.944L25.272 25.136L25.624 25.36H25.496L25.816 25.264L24.984 24.752L24.856 24.048L24.248 22.992L23.288 22.544L22.904 22.672L23.224 22.384L22.904 22.288L22.712 21.808V22L22.488 20.56L22.392 20.336V20.56L21.976 20.464L22.712 19.568L22.328 19.76L22.2 20.176H21.784L21.72 18.736L22.168 18.384L21.464 18.64L21.048 18.224L21.464 19.184L20.92 19.024L20.056 17.232L20.024 16.784L19.608 16.496L19.48 16.304L19.736 16.496L19.64 16.4H19.96L19.768 16.24L20.024 16.208H19.96Z" fill="#989BA7"/>
<path d="M24.312 27.472H23.812V27.8324L24.1539 27.9463L24.312 27.472ZM24.5661 27.0297L24.4701 26.9977L24.1539 27.9463L24.2499 27.9783L24.5661 27.0297ZM24.812 27.472V27.44H23.812V27.472H24.812ZM19.96 15.708H19.896V16.708H19.96V15.708ZM21.528 28.048V29.048H21.764L21.9752 28.9424L21.528 28.048ZM21.464 28.048L21.2215 27.0779L21.464 29.048V28.048ZM21.592 28.016L22.0392 28.9104L21.3495 27.0459L21.592 28.016ZM22.904 27.92H23.904V26.4034L22.5101 27.0009L22.904 27.92ZM22.904 28.048V29.048H23.0966L23.2754 28.9765L22.904 28.048ZM22.616 28.048L22.1688 27.1536L22.616 29.048V28.048ZM22.68 28.016L22.2861 27.0969L22.2591 27.1084L22.2328 27.1216L22.68 28.016ZM23.224 27.92L23.5954 28.8485L26.9137 27.5212L23.3884 26.9336L23.224 27.92ZM23.032 27.888L23.1964 26.9016L22.6177 26.8051L22.2511 27.2633L23.032 27.888ZM21.528 27.888L21.9752 26.9936L21.7641 26.888H21.528V27.888ZM21.592 27.92L21.3495 28.8901L22.0392 27.0256L21.592 27.92ZM21.464 27.888V26.888L21.2215 28.8581L21.464 27.888ZM24.6 27.632V28.632H24.836L25.0472 28.5264L24.6 27.632ZM24.44 27.632L24.2986 26.642L24.44 28.632V27.632ZM24.664 27.6L25.1112 28.4944L24.5226 26.6101L24.664 27.6ZM23.96 27.632L23.6438 28.5807L24.96 29.0194V27.632H23.96ZM23.864 27.6H22.864V28.3208L23.5478 28.5487L23.864 27.6ZM23.864 27.504V26.504H22.864V27.504H23.864ZM23.96 27.504H24.96V26.504H23.96V27.504ZM23.608 27.504L24.4655 26.9895L22.6795 27.8754L23.608 27.504ZM23.704 27.664L24.2001 28.5322L25.0871 28.0254L24.5615 27.1495L23.704 27.664ZM23.256 27.92L22.4239 27.3653L23.7521 28.7882L23.256 27.92ZM23.448 27.632L23.5894 26.642L22.9655 26.5529L22.6159 27.0773L23.448 27.632ZM23.672 27.664L23.5306 28.6539L25.2429 28.8986L24.6005 27.2926L23.672 27.664ZM23.832 27.504L24.5391 28.2111L25.2462 27.504L24.5391 26.7969L23.832 27.504ZM23.704 27.632H22.704V30.0462L24.4111 28.3391L23.704 27.632ZM23.704 27.472V26.472H22.704V27.472H23.704ZM23.8 27.472L24.5071 26.7649L24.2142 26.472H23.8V27.472ZM25.272 27.472L25.1616 28.4659L25.3402 28.4857L25.5145 28.4421L25.272 27.472ZM24.984 27.44L24.7591 26.4656L24.8736 28.4339L24.984 27.44ZM25.4 27.344H26.4V26.0869L25.1751 26.3696L25.4 27.344ZM25.4 27.44L25.6425 28.4101L25.6798 28.4008L25.7162 28.3887L25.4 27.44ZM24.28 27.632L24.9871 28.3391L25.4241 27.9021L25.2287 27.3158L24.28 27.632ZM24.248 27.664L23.3376 28.0778L23.9348 29.3915L24.9551 28.3711L24.248 27.664ZM24.088 27.312L24.7951 26.6049L23.1776 27.7258L24.088 27.312ZM24.216 27.44L25.1647 27.1238L25.09 26.8998L24.9231 26.7329L24.216 27.44ZM25.784 27.312L26.1002 28.2607L26.6865 28.0652L26.7739 27.4534L25.784 27.312ZM25.816 27.088L26.806 27.2294L27.1779 24.6256L25.1701 26.3246L25.816 27.088ZM26.232 27.024L26.3734 28.014L27.232 27.8913V27.024H26.232ZM26.008 27.056L25.4268 26.2423L26.1494 28.0459L26.008 27.056ZM26.232 26.896H27.232V24.9528L25.6508 26.0823L26.232 26.896ZM26.552 26.896V27.896H27.552V26.896H26.552ZM26.52 26.896L25.5394 26.6999L25.3002 27.896H26.52V26.896ZM26.552 26.736H27.552L25.5714 26.5399L26.552 26.736ZM26.808 26.608V27.608H27.2222L27.5151 27.3151L26.808 26.608ZM26.776 26.608L26.1513 25.8271L23.9253 27.608H26.776V26.608ZM26.936 26.48L27.6431 27.1871L26.3113 25.6991L26.936 26.48ZM25.368 25.136V26.136H26.1488L26.3381 25.3785L25.368 25.136ZM25.272 25.136L24.5038 25.7762L24.6036 25.896L24.7351 25.9797L25.272 25.136ZM25.272 25.008V24.008H24.272V25.008H25.272ZM25.4 25.008L26.3701 25.2505L26.6808 24.008H25.4V25.008ZM25.272 24.944L26.1664 25.3912L26.89 23.944H25.272V24.944ZM25.24 25.008L24.7928 25.9024L25.6872 26.3496L26.1344 25.4552L25.24 25.008ZM25.112 24.944V23.944H24.5768L24.28 24.3893L25.112 24.944ZM27.832 25.616L28.5932 26.2645L28.6613 26.1846L28.7113 26.0923L27.832 25.616ZM27.096 26.48V27.48H27.5578L27.8572 27.1285L27.096 26.48ZM27 26.48L26.1973 25.8837L25.0114 27.48H27V26.48ZM27.832 25.36L28.6347 25.9563L28.832 25.6908V25.36H27.832ZM27.832 25.104L27.3079 24.2523L26.832 24.5452V25.104H27.832ZM28.248 24.848L29.1273 25.3243L30.9079 22.0369L27.7239 23.9963L28.248 24.848ZM28.344 24.56L27.544 23.96L27.4899 24.0321L27.4496 24.1128L28.344 24.56ZM28.312 24.624L27.4176 24.1768L29.16 25.154L28.312 24.624ZM28.472 24.368L29.3664 24.8152L27.624 23.838L28.472 24.368ZM28.44 24.432L29.24 25.032L29.2941 24.9599L29.3344 24.8792L28.44 24.432ZM28.536 23.536V24.536H29.536V23.536H28.536ZM28.472 23.536L27.4914 23.3399L27.2522 24.536H28.472V23.536ZM28.504 23.376V22.376H27.6842L27.5234 23.1799L28.504 23.376ZM28.536 23.376H29.536V22.376H28.536V23.376ZM24.248 23.088V24.088H26.1912L25.0617 22.5068L24.248 23.088ZM23.96 23.088H22.96V24.088H23.96V23.088ZM23.96 22.96L23.36 22.16L22.96 22.46V22.96H23.96ZM24.088 22.864L24.9017 22.2828L24.3068 21.4499L23.488 22.064L24.088 22.864ZM23.864 22.832H24.864V21.832H23.864V22.832ZM23.864 22.992L23.2393 23.7729L24.864 25.0726V22.992H23.864ZM23.704 22.864L23.3878 21.9153L21.644 22.4966L23.0793 23.6449L23.704 22.864ZM23.8 22.832V21.832H23.6377L23.4838 21.8833L23.8 22.832ZM23.224 22.8L23.6712 23.6944L23.224 21.8V22.8ZM23.096 22.864L22.3889 23.5711L22.8986 24.0807L23.5432 23.7584L23.096 22.864ZM23.032 22.8V21.8H20.6177L22.3249 23.5071L23.032 22.8ZM23.672 22.832L24.1192 23.7264L24.672 23.45V22.832H23.672ZM23.608 22.864H22.608V24.482L24.0552 23.7584L23.608 22.864ZM23.608 22.704L24.4401 22.1493L22.608 19.4012V22.704H23.608ZM23.672 22.8H24.672V22.4972L24.5041 22.2453L23.672 22.8ZM21.592 20.464L20.8849 21.1711L21.0518 21.338L21.2758 21.4127L21.592 20.464ZM21.88 20.56L21.6551 21.5344L22.1962 19.6113L21.88 20.56ZM21.464 20.464L20.5898 20.9496L20.8058 21.3384L21.2391 21.4384L21.464 20.464ZM21.304 20.176L22.0111 19.4689L20.4298 20.6616L21.304 20.176ZM21.176 19.888L20.1821 19.9984L22.176 19.888H21.176ZM21.144 19.6V18.6H20.0267L20.1501 19.7104L21.144 19.6ZM21.176 19.6H22.176V18.6H21.176V19.6ZM21.72 20.304L21.0129 21.0111L23.3103 23.3085L22.7023 20.1169L21.72 20.304ZM21.624 20.208L20.7203 20.6361L20.7944 20.7926L20.9169 20.9151L21.624 20.208ZM21.336 19.6L21.46 18.6077L19.6524 18.3818L20.4323 20.0281L21.336 19.6ZM21.592 19.632L22.5743 19.4449L22.4382 18.73L21.716 18.6397L21.592 19.632ZM21.144 19.408L22.0015 19.9225L22.2839 19.4518L22.0384 18.9608L21.144 19.408ZM21.048 19.568H20.048V23.1783L21.9055 20.0825L21.048 19.568ZM21.048 19.216H20.048V19.4521L20.1536 19.6632L21.048 19.216ZM19.96 17.04H20.96V16.7697L20.8238 16.5361L19.96 17.04ZM19.96 17.072L19.1674 17.6817L20.96 20.0121V17.072H19.96ZM19.64 16.656V15.656H17.6091L18.8474 17.2657L19.64 16.656ZM19.736 16.656L20.5998 16.1521L20.3104 15.656H19.736V16.656ZM19.96 16.208L19.143 15.6313L18.0301 17.208H19.96V16.208ZM28.472 17.616L27.548 17.9984L29.4265 17.3177L28.472 17.616ZM28.088 16.688L27.1411 17.0096L27.1516 17.0403L27.164 17.0704L28.088 16.688ZM27.512 14.992L28.3862 14.5064L26.5651 15.3136L27.512 14.992ZM27.832 15.568L28.7865 15.2697L28.7559 15.1719L28.7062 15.0824L27.832 15.568ZM26.808 13.808L25.8157 13.932L27.808 13.808H26.808ZM26.808 13.712H27.808V13.613L27.7886 13.5159L26.808 13.712ZM26.808 12.24L27.8063 12.2987L27.8129 12.1865L27.7944 12.0756L26.808 12.24ZM26.776 12.784L25.7777 12.7253L25.776 12.7546V12.784H26.776ZM26.424 12.4L25.7169 11.6929L25.2921 12.1177L25.4677 12.6922L26.424 12.4ZM26.776 12.048L27.7624 11.8836L27.4429 9.96684L26.0689 11.3409L26.776 12.048ZM19.64 11.472V10.472H18.64V11.472H19.64ZM19.736 11.472H20.736V10.472H19.736V11.472ZM19.736 11.536V12.536H20.736V11.536H19.736ZM19.64 11.536H18.64V12.536H19.64V11.536ZM19.64 11.408H18.64V12.408H19.64V11.408ZM19.64 11.312L20.3471 10.6049L18.64 8.89776V11.312H19.64ZM19.736 11.408V12.408H22.1502L20.4431 10.7009L19.736 11.408ZM18.488 9.904V10.904H19.7688L19.4581 9.66147L18.488 9.904ZM18.392 9.904H17.392V10.904H18.392V9.904ZM18.392 9.872L17.56 9.31729L17.392 9.56922V9.872H18.392ZM18.456 9.776L19.4261 9.53347L18.8779 7.34044L17.624 9.22129L18.456 9.776ZM11.448 7.568L12.28 8.1227L13.3165 6.568H11.448V7.568ZM11.32 7.76L10.72 8.56L11.5657 9.19426L12.1521 8.3147L11.32 7.76ZM11.064 7.568V6.568H8.06399L10.464 8.368L11.064 7.568ZM11.864 7.824L12.2579 8.74314L12.3137 8.71925L12.3661 8.68879L11.864 7.824ZM11.64 7.92L11.0853 8.75205L11.536 9.05253L12.0339 8.83914L11.64 7.92ZM11.448 7.792V6.792H8.14522L10.8933 8.62405L11.448 7.792ZM11.768 7.792V8.792H12.0041L12.2152 8.68643L11.768 7.792ZM12.856 7.248L13.3581 8.11279L12.4088 6.35357L12.856 7.248ZM13.112 7.216L13.2764 8.20239L13.5925 8.14971L13.8191 7.92311L13.112 7.216ZM12.92 7.248L12.4411 6.3701L13.0844 8.23439L12.92 7.248ZM13.272 7.056L13.9791 7.76311L12.7931 6.1781L13.272 7.056ZM6.52 4.528V3.528H6.49299L6.46603 3.52946L6.52 4.528ZM4.152 4.656V5.656H4.17901L4.20598 5.65454L4.152 4.656ZM3.992 4.656L3.88493 3.66175L3.992 5.656V4.656ZM6.072 4.432L6.2364 3.44561L6.1012 3.42307L5.96493 3.43775L6.072 4.432ZM6.648 4.528V5.528L6.8124 3.54161L6.648 4.528ZM20.728 15.12L21.545 15.6967L21.8282 15.2954L21.6838 14.8259L20.728 15.12ZM20.6 14.704L21.5558 14.4099L21.3386 13.704H20.6V14.704ZM20.44 14.704V13.704H19.44V14.704H20.44ZM20.44 15.12V16.12H21.44V15.12H20.44ZM20.184 15.12L19.1857 15.1787L19.2411 16.12H20.184V15.12ZM20.152 14.576L21.1503 14.5173L21.1143 13.9055L20.5528 13.6598L20.152 14.576ZM19.64 14.352L20.0408 13.4358L18.64 12.823V14.352H19.64ZM19.64 14.544H18.64V15.544H19.64V14.544ZM19.768 14.544L20.3227 15.376L23.0707 13.544H19.768V14.544ZM19.576 14.672L19.0213 13.84L17.63 14.7675L19.1054 15.5544L19.576 14.672ZM20.056 14.928L20.9504 15.3752L21.386 14.504L20.5266 14.0456L20.056 14.928ZM19.736 15.568L19.0521 16.2975L20.0306 17.2149L20.6304 16.0152L19.736 15.568ZM19.224 15.088L19.9079 14.3585L18.3723 15.6121L19.224 15.088ZM19.48 15.504H20.48V15.221L20.3317 14.9799L19.48 15.504ZM19.48 15.696L18.5856 16.1432L20.48 15.696H19.48ZM19.064 14.864L18.1073 14.5728L17.9912 14.9544L18.1696 15.3112L19.064 14.864ZM19.736 12.656L20.6927 12.9472L20.7138 12.8776L20.7247 12.8058L19.736 12.656ZM19.896 11.6L20.8847 11.7498L20.9503 11.3171L20.6769 10.9753L19.896 11.6ZM19.64 11.28L19.764 10.2877L17.3213 9.98238L18.8591 11.9047L19.64 11.28ZM19.896 11.312L19.772 12.3043L20.896 12.4448V11.312H19.896ZM19.896 10.896H20.896V10.539L20.67 10.2628L19.896 10.896ZM19.608 10.544L18.648 10.824L18.705 11.0196L18.834 11.1772L19.608 10.544ZM19.384 9.776L20.344 9.496L20.134 8.776H19.384V9.776ZM18.488 9.776L17.6354 10.2986L17.928 10.776H18.488V9.776ZM17.88 8.784L18.7326 8.26144L18.6305 8.09485L18.4732 7.97894L17.88 8.784ZM17.272 8.336L16.2797 8.21197L16.207 8.79344L16.6788 9.14106L17.272 8.336ZM17.336 7.824L18.3283 7.94803L18.416 7.24598L17.7832 6.92957L17.336 7.824ZM16.824 7.568L15.9515 8.0566L16.1017 8.32491L16.3768 8.46243L16.824 7.568ZM16.376 6.768L17.2485 6.2794L17.1207 6.05114L16.8975 5.91472L16.376 6.768ZM15.224 6.064L15.7455 5.21072L15.3949 4.99648L14.995 5.09058L15.224 6.064ZM14.68 6.192L13.848 6.7467L14.2331 7.32446L14.909 7.16542L14.68 6.192ZM14.552 6L15.3841 5.4453L14.9484 4.7918L14.2103 5.06021L14.552 6ZM13.848 6.256L13.5063 5.31621L12.1486 5.80992L13.0887 6.90679L13.848 6.256ZM14.04 6.48L13.6983 7.41979L17.2786 8.72172L14.7993 5.82921L14.04 6.48ZM13.688 6.352L14.0297 5.41221L12.987 5.03301L12.7179 6.10946L13.688 6.352ZM13.656 6.48L12.6859 6.23746L12.4772 7.07216L13.2714 7.40308L13.656 6.48ZM14.04 6.64H15.04V5.97333L14.4246 5.71692L14.04 6.64ZM14.04 6.768L14.7471 7.4751L15.04 7.18221V6.768H14.04ZM13.976 6.832L13.8346 7.82195L14.3296 7.89266L14.6831 7.5391L13.976 6.832ZM13.528 6.768L13.6694 5.77805L13.3762 5.73617L13.1075 5.86069L13.528 6.768ZM12.216 7.376L11.2673 7.05977L10.5348 9.25723L12.6365 8.28331L12.216 7.376ZM12.28 7.184L13.2287 7.50022L13.9921 5.20991L11.8328 6.28957L12.28 7.184ZM11.768 7.44L11.8784 8.43388L12.0557 8.41419L12.2152 8.33443L11.768 7.44ZM10.616 7.568L9.72157 8.01521L10.0334 8.63889L10.7264 8.56188L10.616 7.568ZM10.52 7.376L9.57701 7.70882L9.59773 7.76753L9.62557 7.82321L10.52 7.376ZM10.328 6.832L11.2592 6.4676L9.38501 7.16482L10.328 6.832ZM10.744 7.056L11.7141 7.29854L11.7977 6.9645L11.6578 6.64986L10.744 7.056ZM10.616 6.768L11.5298 6.36186L11.4544 6.19219L11.3231 6.06089L10.616 6.768ZM9.528 5.68L10.106 4.86398L8.82089 6.38711L9.528 5.68ZM10.296 6.224L9.71798 7.04002L10.2384 7.40866L10.7921 7.09225L10.296 6.224ZM10.52 6.096L11.0161 6.96425L10.2327 5.13817L10.52 6.096ZM10.2 6.192L9.20195 6.25438L9.28054 7.51186L10.4873 7.14983L10.2 6.192ZM10.168 5.68L11.1661 5.61762L11.0718 4.11005L9.72079 4.78557L10.168 5.68ZM9.912 5.808L9.40498 6.66993L9.87327 6.9454L10.3592 6.70243L9.912 5.808ZM9.368 5.488L8.95764 4.57608L7.19434 5.36955L8.86098 6.34993L9.368 5.488ZM10.008 5.2L10.4184 6.11192L11.4443 5.65024L10.8655 4.68551L10.008 5.2ZM9.912 5.04L10.7695 4.5255L10.3204 3.777L9.51808 4.12085L9.912 5.04ZM9.464 5.232L8.81321 5.99125L9.2858 6.39634L9.85792 6.15114L9.464 5.232ZM9.24 5.04L9.89079 4.28074L9.36254 3.82796L8.75435 4.16584L9.24 5.04ZM8.952 5.2L8.46635 4.32585L6.16413 5.60487L8.73507 6.17619L8.952 5.2ZM9.24 5.264L10.1958 4.96991L10.0247 4.41399L9.45693 4.28781L9.24 5.264ZM9.368 5.68L8.88236 6.55416L11.0546 7.76094L10.3238 5.38591L9.368 5.68ZM8.216 5.04L8.70164 4.16584L8.62861 4.12527L8.54985 4.09737L8.216 5.04ZM6.68 4.496L6.89693 3.51981L6.34615 5.43863L6.68 4.496ZM7.256 4.624L7.03907 5.60019L7.52717 5.70865L7.9068 5.38325L7.256 4.624ZM7.48 4.432L8.29374 3.85076L7.65872 2.96173L6.82921 3.67274L7.48 4.432ZM7.64 4.656L6.82627 5.23724L8.64 7.77648V4.656H7.64ZM7.64 4.432L8.08721 3.53757L6.64 2.81396V4.432H7.64ZM8.088 4.656L7.64079 5.55043L9.80012 6.6301L9.03668 4.33977L8.088 4.656ZM7.96 4.272L8.90868 3.95577L8.79496 3.6146L8.49 3.424L7.96 4.272ZM7.704 4.112L8.234 3.264L7.85018 3.02412L7.41665 3.15417L7.704 4.112ZM7.064 4.304H6.064V5.64803L7.35135 5.26183L7.064 4.304ZM7.064 4.112H8.064V3.20701L7.1635 3.11696L7.064 4.112ZM6.744 4.08L6.8435 3.08496L6.29033 3.02965L5.95138 3.47029L6.744 4.08ZM6.424 4.496L6.31357 5.48988L6.87327 5.55207L7.21662 5.10571L6.424 4.496ZM5.848 4.432L5.95843 3.43812L5.83841 3.42478L5.71866 3.4404L5.848 4.432ZM4.376 4.624L4.05092 3.67831L4.50534 5.6156L4.376 4.624ZM5.4 4.272L5.72508 5.21769L7.59456 4.57505L5.96921 3.44981L5.4 4.272ZM4.984 3.984L4.21578 3.34381L3.51579 4.1838L4.41479 4.80619L4.984 3.984ZM5.144 3.792L5.91222 4.43219L6.45328 3.78291L5.90326 3.14121L5.144 3.792ZM4.952 3.568L5.71126 2.91721L4.49052 1.49301L3.98848 3.30035L4.952 3.568ZM4.792 4.144L4.03274 4.79479L5.25348 6.21898L5.75552 4.41164L4.792 4.144ZM4.408 3.696L5.16726 3.04521L3.45222 3.99008L4.408 3.696ZM4.536 4.112L5.31211 4.74259L5.64879 4.32822L5.49178 3.81791L4.536 4.112ZM4.12 4.624L4.36253 5.59414L4.68592 5.5133L4.89611 5.25459L4.12 4.624ZM3.224 4.848L2.46718 4.19438L0.403504 6.5839L3.46653 5.81814L3.224 4.848ZM3.832 4.144L4.58882 4.79762L5.23823 4.04568L4.4905 3.39142L3.832 4.144ZM3.576 3.92L2.60586 3.67746L2.45767 4.27023L2.9175 4.67258L3.576 3.92ZM3.736 3.28L4.70614 3.52254L4.84346 2.97325L4.44311 2.57289L3.736 3.28ZM3 2.544L2.01522 2.37022L1.92473 2.88295L2.29289 3.25111L3 2.544ZM3.096 2L3.13959 1.00095L2.2636 0.962725L2.11122 1.82621L3.096 2ZM11.896 2.384L12.8334 2.03581L12.6024 1.41387L11.9396 1.38495L11.896 2.384ZM12.312 3.504L11.3746 3.85219L11.5944 4.44411L12.2234 4.50007L12.312 3.504ZM21.304 4.304L22.2449 3.96528L22.0286 3.36452L21.3926 3.30793L21.304 4.304ZM21.592 5.104L20.6511 5.44272L20.9109 6.16423L21.675 6.10055L21.592 5.104ZM21.976 5.072L22.059 6.06855L22.976 5.99213V5.072H21.976ZM21.976 3.568L21.3252 2.80874L20.976 3.10806V3.568H21.976ZM22.2 3.376L22.4152 2.39942L21.928 2.29208L21.5492 2.61674L22.2 3.376ZM24.088 3.792H25.088V2.98835L24.3032 2.81542L24.088 3.792ZM24.088 4.496L23.2559 5.0507L25.088 7.79878V4.496H24.088ZM23.832 4.112L24.6641 3.5573L22.832 0.809216V4.112H23.832ZM23.832 4.432H22.832V4.96718L23.2773 5.26405L23.832 4.432ZM24.216 4.688L25.2004 4.51221L25.1255 4.09246L24.7707 3.85595L24.216 4.688ZM24.696 7.376L23.7116 7.55179L23.7284 7.64582L23.7627 7.73498L24.696 7.376ZM25.816 10.288L24.8827 10.647L24.9165 10.7349L24.9661 10.8149L25.816 10.288ZM26.808 11.888L27.6859 11.4091L27.6726 11.3847L27.6579 11.3611L26.808 11.888ZM27.192 12.592L27.9446 13.2505L28.4039 12.7255L28.0699 12.1131L27.192 12.592ZM26.968 12.848L26.2154 12.1895L25.968 12.4723V12.848H26.968ZM26.968 13.552H25.968V13.7385L26.0352 13.9124L26.968 13.552ZM27.512 14.96L26.6176 15.4072L28.4448 14.5996L27.512 14.96ZM26.808 13.552L25.8116 13.4672L25.7877 13.7476L25.9136 13.9992L26.808 13.552ZM26.936 12.048L27.9324 12.1328L28.0247 11.048H26.936V12.048ZM26.36 12.048L25.3615 11.9925L25.3029 13.048H26.36V12.048ZM26.392 11.472L27.3905 11.5275L27.4297 10.821L26.7766 10.5489L26.392 11.472ZM26.008 11.312L26.3926 10.3889L24.4114 9.5634L25.0539 11.6113L26.008 11.312ZM26.52 12.944L25.5659 13.2433L25.5812 13.2922L25.6014 13.3392L26.52 12.944ZM27.704 15.696L28.6879 15.5171L28.6675 15.4052L28.6226 15.3008L27.704 15.696ZM27.832 16.4L26.8481 16.5789L26.8669 16.6823L26.9068 16.7796L27.832 16.4ZM28.344 17.648L27.4188 18.0276L29.344 17.648H28.344ZM28.344 17.584H29.344V16.8454L28.6381 16.6282L28.344 17.584ZM27.928 17.456L28.2221 16.5002L27.3633 18.2813L27.928 17.456ZM28.536 17.872L29.4938 17.5847L29.3923 17.2462L29.1007 17.0467L28.536 17.872ZM28.92 19.152L29.9156 19.2453L29.9338 19.0513L29.8778 18.8647L28.92 19.152ZM28.536 23.248H27.536L29.5316 23.3413L28.536 23.248ZM28.536 22.704H29.536L27.6075 22.3326L28.536 22.704ZM28.088 23.824L27.1595 23.4526L27.1117 23.5722L27.0957 23.7L28.088 23.824ZM27.96 24.848L28.7664 25.4394L28.9201 25.2298L28.9523 24.972L27.96 24.848ZM27.608 25.328L26.8016 24.7366L26.4639 25.1971L26.6889 25.7219L27.608 25.328ZM27.704 25.552L26.8903 26.1332L28.6231 25.1581L27.704 25.552ZM27.544 25.328L28.3577 24.7468L27.9951 24.239L27.3796 24.3416L27.544 25.328ZM27.352 25.36L27.1876 24.3736L23.6623 24.9612L26.9806 26.2885L27.352 25.36ZM27.512 25.424L28.4984 25.2596L28.4059 24.7045L27.8834 24.4955L27.512 25.424ZM27.544 25.616L27.0968 26.5104L28.8532 27.3886L28.5304 25.4516L27.544 25.616ZM27.352 25.52L26.3656 25.6844L26.4493 26.1867L26.9048 26.4144L27.352 25.52ZM27.32 25.328L28.3064 25.1636L28.0915 23.8744L26.9033 24.4189L27.32 25.328ZM26.552 25.68L26.323 26.6534L26.6568 26.732L26.9687 26.5891L26.552 25.68ZM26.008 25.552L26.237 24.5786L25.9138 24.5025L25.6093 24.6349L26.008 25.552ZM25.272 25.872L24.6076 26.6194L25.085 27.0437L25.6707 26.7891L25.272 25.872ZM24.984 25.616L24.0702 26.0221L24.158 26.2197L24.3196 26.3634L24.984 25.616ZM24.856 25.328L24.024 24.7733L23.7187 25.2312L23.9422 25.7341L24.856 25.328ZM25.624 25.36V26.36H29.0581L26.1609 24.5163L25.624 25.36ZM25.496 25.36L25.2087 24.4022L25.496 26.36V25.36ZM25.816 25.264L26.1034 26.2218L28.2393 25.581L26.3401 24.4123L25.816 25.264ZM24.984 24.752L24.0001 24.9309L24.0799 25.3698L24.4599 25.6037L24.984 24.752ZM24.856 24.048L25.8399 23.8691L25.8089 23.6989L25.7226 23.549L24.856 24.048ZM24.248 22.992L25.1146 22.493L24.9571 22.2194L24.6709 22.0858L24.248 22.992ZM23.288 22.544L23.7109 21.6378L23.3498 21.4693L22.9718 21.5953L23.288 22.544ZM22.904 22.672L22.235 21.9287L23.2202 23.6207L22.904 22.672ZM23.224 22.384L23.893 23.1273L25.2152 21.9373L23.5114 21.4262L23.224 22.384ZM22.904 22.288L21.9755 22.6594L22.1547 23.1072L22.6167 23.2458L22.904 22.288ZM22.712 21.808L23.6405 21.4366L21.712 21.808H22.712ZM22.712 22L21.7239 22.1537L23.712 22H22.712ZM22.488 20.56L23.4761 20.4063L23.4568 20.2818L23.4071 20.1661L22.488 20.56ZM22.392 20.336L23.3111 19.9421L21.392 20.336H22.392ZM22.392 20.56L22.1671 21.5344L23.392 21.817V20.56H22.392ZM21.976 20.464L21.2033 19.8293L20.1794 21.0757L21.7511 21.4384L21.976 20.464ZM22.712 19.568L23.4847 20.2027L22.2648 18.6736L22.712 19.568ZM22.328 19.76L21.8808 18.8656L21.4981 19.0569L21.3722 19.4659L22.328 19.76ZM22.2 20.176V21.176H22.9386L23.1558 20.4701L22.2 20.176ZM21.784 20.176L20.785 20.2204L20.8275 21.176H21.784V20.176ZM21.72 18.736L21.1022 17.9497L20.6982 18.2671L20.721 18.7804L21.72 18.736ZM22.168 18.384L22.7858 19.1703L21.8263 17.4442L22.168 18.384ZM21.464 18.64L20.7569 19.3471L21.2072 19.7974L21.8057 19.5798L21.464 18.64ZM21.048 18.224L21.7551 17.5169L20.1304 18.6216L21.048 18.224ZM21.464 19.184L21.1818 20.1434L23.2307 20.746L22.3816 18.7864L21.464 19.184ZM20.92 19.024L20.0192 19.4583L20.212 19.8581L20.6378 19.9834L20.92 19.024ZM20.056 17.232L19.0585 17.3032L19.0722 17.494L19.1552 17.6663L20.056 17.232ZM20.024 16.784L21.0215 16.7128L20.9873 16.2346L20.5932 15.9618L20.024 16.784ZM19.608 16.496L18.776 17.0507L18.8818 17.2095L19.0388 17.3182L19.608 16.496ZM19.48 16.304L20.08 15.504L18.648 16.8587L19.48 16.304ZM19.736 16.496L19.136 17.296L20.4431 15.7889L19.736 16.496ZM19.64 16.4V15.4H17.2258L18.9329 17.1071L19.64 16.4ZM19.96 16.4V17.4H22.7221L20.6002 15.6318L19.96 16.4ZM19.768 16.24L19.644 15.2477L17.3581 15.5335L19.1278 17.0082L19.768 16.24ZM20.024 16.208L20.148 17.2003L20.024 15.208V16.208ZM21.528 27.048H21.464V29.048H21.528V27.048ZM21.7065 29.0181L21.8345 28.9861L21.3495 27.0459L21.2215 27.0779L21.7065 29.0181ZM21.1448 27.1216L21.0808 27.1536L21.9752 28.9424L22.0392 28.9104L21.1448 27.1216ZM21.904 27.92V28.048H23.904V27.92H21.904ZM22.904 27.048H22.616V29.048H22.904V27.048ZM23.0632 28.9424L23.1272 28.9104L22.2328 27.1216L22.1688 27.1536L23.0632 28.9424ZM23.0739 28.9351L23.2979 28.8391L22.5101 27.0009L22.2861 27.0969L23.0739 28.9351ZM22.8526 26.9915L22.5326 27.1195L23.2754 28.9765L23.5954 28.8485L22.8526 26.9915ZM23.6849 28.6727L23.8129 28.5127L22.2511 27.2633L22.1231 27.4233L23.6849 28.6727ZM22.8676 28.8744L23.0596 28.9064L23.3884 26.9336L23.1964 26.9016L22.8676 28.8744ZM21.0808 28.7824L21.1448 28.8144L22.0392 27.0256L21.9752 26.9936L21.0808 28.7824ZM21.8345 26.9499L21.7065 26.9179L21.2215 28.8581L21.3495 28.8901L21.8345 26.9499ZM21.464 28.888H21.528V26.888H21.464V28.888ZM24.6 26.632H24.44V28.632H24.6V26.632ZM24.5814 28.622L24.8054 28.59L24.5226 26.6101L24.2986 26.642L24.5814 28.622ZM24.2168 26.7056L24.1528 26.7376L25.0472 28.5264L25.1112 28.4944L24.2168 26.7056ZM24.2762 26.6833L24.1802 26.6513L23.5478 28.5487L23.6438 28.5807L24.2762 26.6833ZM24.864 27.6V27.504H22.864V27.6H24.864ZM23.864 28.504H23.96V26.504H23.864V28.504ZM22.96 27.504V27.632H24.96V27.504H22.96ZM22.7505 28.0185L22.8465 28.1785L24.5615 27.1495L24.4655 26.9895L22.7505 28.0185ZM23.2079 26.7958L22.7599 27.0518L23.7521 28.7882L24.2001 28.5322L23.2079 26.7958ZM24.0881 28.4747L24.2801 28.1867L22.6159 27.0773L22.4239 27.3653L24.0881 28.4747ZM23.3066 28.6219L23.5306 28.6539L23.8134 26.6741L23.5894 26.642L23.3066 28.6219ZM24.6005 27.2926L24.5365 27.1326L22.6795 27.8754L22.7435 28.0354L24.6005 27.2926ZM23.1249 26.7969L22.9969 26.9249L24.4111 28.3391L24.5391 28.2111L23.1249 26.7969ZM24.704 27.632V27.472H22.704V27.632H24.704ZM23.704 28.472H23.8V26.472H23.704V28.472ZM23.0929 28.1791L23.1249 28.2111L24.5391 26.7969L24.5071 26.7649L23.0929 28.1791ZM25.3824 26.4781L25.0944 26.4461L24.8736 28.4339L25.1616 28.4659L25.3824 26.4781ZM25.2089 28.4144L25.6249 28.3184L25.1751 26.3696L24.7591 26.4656L25.2089 28.4144ZM24.4 27.344V27.44H26.4V27.344H24.4ZM25.1575 26.4699L25.0295 26.5019L25.5145 28.4421L25.6425 28.4101L25.1575 26.4699ZM23.5729 26.9249L23.5409 26.9569L24.9551 28.3711L24.9871 28.3391L23.5729 26.9249ZM25.1584 27.2502L24.9984 26.8982L23.1776 27.7258L23.3376 28.0778L25.1584 27.2502ZM23.3809 28.0191L23.5089 28.1471L24.9231 26.7329L24.7951 26.6049L23.3809 28.0191ZM23.2673 27.7562L23.3313 27.9482L25.2287 27.3158L25.1647 27.1238L23.2673 27.7562ZM25.4678 26.3633L25.0838 26.4913L25.7162 28.3887L26.1002 28.2607L25.4678 26.3633ZM26.0459 28.2034L26.4619 27.8514L25.1701 26.3246L24.7541 26.6766L26.0459 28.2034ZM24.8261 26.9466L24.7941 27.1706L26.7739 27.4534L26.806 27.2294L24.8261 26.9466ZM25.232 26.928V27.024H27.232V26.928H25.232ZM26.0906 26.034L25.8666 26.066L26.1494 28.0459L26.3734 28.014L26.0906 26.034ZM26.5892 27.8697L26.8132 27.7097L25.6508 26.0823L25.4268 26.2423L26.5892 27.8697ZM25.232 26.896V26.928H27.232V26.896H25.232ZM26.552 25.896H26.52V27.896H26.552V25.896ZM27.5006 27.0921L27.5326 26.9321L25.5714 26.5399L25.5394 26.6999L27.5006 27.0921ZM25.552 26.736V26.896H27.552V26.736H25.552ZM26.808 25.608H26.776V27.608H26.808V25.608ZM27.4007 27.3889L27.5607 27.2609L26.3113 25.6991L26.1513 25.8271L27.4007 27.3889ZM26.2289 25.7729L26.1009 25.9009L27.5151 27.3151L27.6431 27.1871L26.2289 25.7729ZM25.368 24.136H25.272V26.136H25.368V24.136ZM26.272 25.136V25.008H24.272V25.136H26.272ZM25.272 26.008H25.4V24.008H25.272V26.008ZM24.4299 24.7655L24.3979 24.8935L26.3381 25.3785L26.3701 25.2505L24.4299 24.7655ZM25.176 25.944H25.272V23.944H25.176V25.944ZM24.3776 24.4968L24.3456 24.5608L26.1344 25.4552L26.1664 25.3912L24.3776 24.4968ZM25.6872 24.1136L25.5592 24.0496L24.6648 25.8384L24.7928 25.9024L25.6872 24.1136ZM25.112 25.944H25.176V23.944H25.112V25.944ZM27.0708 24.9675L26.3348 25.8315L27.8572 27.1285L28.5932 26.2645L27.0708 24.9675ZM27.096 25.48H27V27.48H27.096V25.48ZM27.8027 27.0763L28.6347 25.9563L27.0293 24.7637L26.1973 25.8837L27.8027 27.0763ZM28.832 25.36V25.104H26.832V25.36H28.832ZM28.3561 25.9557L28.7721 25.6997L27.7239 23.9963L27.3079 24.2523L28.3561 25.9557ZM27.3687 24.3717L26.9527 25.1397L28.7113 26.0923L29.1273 25.3243L27.3687 24.3717ZM27.4496 24.1128L27.4176 24.1768L29.2064 25.0712L29.2384 25.0072L27.4496 24.1128ZM29.16 25.154L29.32 24.898L27.624 23.838L27.464 24.094L29.16 25.154ZM27.5776 23.9208L27.5456 23.9848L29.3344 24.8792L29.3664 24.8152L27.5776 23.9208ZM27.64 23.832L27.544 23.96L29.144 25.16L29.24 25.032L27.64 23.832ZM28.536 22.536H28.472V24.536H28.536V22.536ZM29.4526 23.7321L29.4846 23.5721L27.5234 23.1799L27.4914 23.3399L29.4526 23.7321ZM28.504 24.376H28.536V22.376H28.504V24.376ZM27.536 23.376V23.536H29.536V23.376H27.536ZM24.248 22.088H23.96V24.088H24.248V22.088ZM24.96 23.088V22.96H22.96V23.088H24.96ZM24.56 23.76L24.688 23.664L23.488 22.064L23.36 22.16L24.56 23.76ZM23.2743 23.4452L23.4343 23.6692L25.0617 22.5068L24.9017 22.2828L23.2743 23.4452ZM22.864 22.832V22.992H24.864V22.832H22.864ZM24.4887 22.2111L24.3287 22.0831L23.0793 23.6449L23.2393 23.7729L24.4887 22.2111ZM24.0202 23.8127L24.1162 23.7807L23.4838 21.8833L23.3878 21.9153L24.0202 23.8127ZM23.8 23.832H23.864V21.832H23.8V23.832ZM22.7768 21.9056L22.6488 21.9696L23.5432 23.7584L23.6712 23.6944L22.7768 21.9056ZM23.8031 22.1569L23.7391 22.0929L22.3249 23.5071L22.3889 23.5711L23.8031 22.1569ZM23.032 23.8H23.224V21.8H23.032V23.8ZM23.2248 21.9376L23.1608 21.9696L24.0552 23.7584L24.1192 23.7264L23.2248 21.9376ZM24.608 22.864V22.704H22.608V22.864H24.608ZM22.7759 23.2587L22.8399 23.3547L24.5041 22.2453L24.4401 22.1493L22.7759 23.2587ZM22.672 22.8V22.832H24.672V22.8H22.672ZM21.2758 21.4127L21.5638 21.5087L22.1962 19.6113L21.9082 19.5153L21.2758 21.4127ZM22.1049 19.5856L21.6889 19.4896L21.2391 21.4384L21.6551 21.5344L22.1049 19.5856ZM22.3382 19.9784L22.1782 19.6904L20.4298 20.6616L20.5898 20.9496L22.3382 19.9784ZM20.5969 20.8831L20.8849 21.1711L22.2991 19.7569L22.0111 19.4689L20.5969 20.8831ZM20.176 19.792V19.888H22.176V19.792H20.176ZM22.1699 19.7776L22.1379 19.4896L20.1501 19.7104L20.1821 19.9984L22.1699 19.7776ZM21.144 20.6H21.176V18.6H21.144V20.6ZM20.176 19.6V19.792H22.176V19.6H20.176ZM22.4271 19.5969L22.3311 19.5009L20.9169 20.9151L21.0129 21.0111L22.4271 19.5969ZM22.5277 19.7799L22.2397 19.1719L20.4323 20.0281L20.7203 20.6361L22.5277 19.7799ZM21.212 20.5923L21.468 20.6243L21.716 18.6397L21.46 18.6077L21.212 20.5923ZM20.6097 19.8191L20.7377 20.4911L22.7023 20.1169L22.5743 19.4449L20.6097 19.8191ZM20.2865 18.8935L20.1905 19.0535L21.9055 20.0825L22.0015 19.9225L20.2865 18.8935ZM22.048 19.568V19.152H20.048V19.568H22.048ZM20.048 19.152V19.216H22.048V19.152H20.048ZM20.1536 19.6632L20.2496 19.8552L22.0384 18.9608L21.9424 18.7688L20.1536 19.6632ZM18.96 17.04V17.072H20.96V17.04H18.96ZM20.7526 16.4623L20.4326 16.0463L18.8474 17.2657L19.1674 17.6817L20.7526 16.4623ZM19.64 17.656H19.736V15.656H19.64V17.656ZM18.8722 17.1599L19.0962 17.5439L20.8238 16.5361L20.5998 16.1521L18.8722 17.1599ZM29.396 17.2336L29.012 16.3056L27.164 17.0704L27.548 17.9984L29.396 17.2336ZM29.0349 16.3664L28.4589 14.6704L26.5651 15.3136L27.1411 17.0096L29.0349 16.3664ZM26.6378 15.4776L26.9578 16.0536L28.7062 15.0824L28.3862 14.5064L26.6378 15.4776ZM26.8775 15.8663L27.5175 17.9143L29.4265 17.3177L28.7865 15.2697L26.8775 15.8663ZM27.8003 13.684L27.7683 13.428L25.7837 13.676L25.8157 13.932L27.8003 13.684ZM25.7954 13.7481L25.8274 13.9081L27.7886 13.5159L27.7566 13.3559L25.7954 13.7481ZM25.808 13.712V13.808H27.808V13.712H25.808ZM25.8097 12.1813L25.7777 12.7253L27.7743 12.8427L27.8063 12.2987L25.8097 12.1813ZM25.776 12.784V13.552H27.776V12.784H25.776ZM27.7324 13.2598L27.3804 12.1078L25.4677 12.6922L25.8196 13.8442L27.7324 13.2598ZM27.1311 13.1071L27.4831 12.7551L26.0689 11.3409L25.7169 11.6929L27.1311 13.1071ZM25.7896 12.2124L25.8216 12.4044L27.7944 12.0756L27.7624 11.8836L25.7896 12.2124ZM19.64 12.472H19.736V10.472H19.64V12.472ZM18.736 11.472V11.536H20.736V11.472H18.736ZM19.736 10.536H19.64V12.536H19.736V10.536ZM20.64 11.536V11.472H18.64V11.536H20.64ZM20.64 11.408V11.312H18.64V11.408H20.64ZM18.9329 12.0191L19.0289 12.1151L20.4431 10.7009L20.3471 10.6049L18.9329 12.0191ZM19.736 10.408H19.64V12.408H19.736V10.408ZM18.488 8.904H18.392V10.904H18.488V8.904ZM19.392 9.904V9.872H17.392V9.904H19.392ZM19.224 10.4267L19.288 10.3307L17.624 9.22129L17.56 9.31729L19.224 10.4267ZM17.4859 10.0185L17.5179 10.1465L19.4581 9.66147L19.4261 9.53347L17.4859 10.0185ZM10.616 7.0133L10.4879 7.2053L12.1521 8.3147L12.28 8.1227L10.616 7.0133ZM11.92 6.96L11.664 6.768L10.464 8.368L10.72 8.56L11.92 6.96ZM11.064 8.568H11.288V6.568H11.064V8.568ZM11.288 8.568H11.448V6.568H11.288V8.568ZM11.4701 6.90486L11.2461 7.00086L12.0339 8.83914L12.2579 8.74314L11.4701 6.90486ZM12.1947 7.08795L12.0027 6.95995L10.8933 8.62405L11.0853 8.75205L12.1947 7.08795ZM11.448 8.792H11.768V6.792H11.448V8.792ZM12.2152 8.68643L13.3032 8.14243L12.4088 6.35357L11.3208 6.89757L12.2152 8.68643ZM12.3539 6.38321L11.3619 6.95921L12.3661 8.68879L13.3581 8.11279L12.3539 6.38321ZM12.9476 6.2296L12.7556 6.2616L13.0844 8.23439L13.2764 8.20239L12.9476 6.2296ZM13.3989 8.1259L13.7509 7.9339L12.7931 6.1781L12.4411 6.3701L13.3989 8.1259ZM12.5649 6.34889L12.4049 6.50889L13.8191 7.92311L13.9791 7.76311L12.5649 6.34889ZM6.46603 3.52946L4.09802 3.65746L4.20598 5.65454L6.57398 5.52654L6.46603 3.52946ZM4.152 3.656H3.992V5.656H4.152V3.656ZM4.09907 5.65025L6.17907 5.42625L5.96493 3.43775L3.88493 3.66175L4.09907 5.65025ZM5.9076 5.41839L6.4836 5.51439L6.8124 3.54161L6.2364 3.44561L5.9076 5.41839ZM6.648 3.528H6.52V5.528H6.648V3.528ZM20.777 16.7847L21.545 15.6967L19.911 14.5433L19.143 15.6313L20.777 16.7847ZM21.6838 14.8259L21.5558 14.4099L19.6442 14.9981L19.7722 15.4141L21.6838 14.8259ZM20.6 13.704H20.44V15.704H20.6V13.704ZM19.44 14.704V15.12H21.44V14.704H19.44ZM20.44 14.12H20.184V16.12H20.44V14.12ZM21.1823 15.0613L21.1503 14.5173L19.1537 14.6347L19.1857 15.1787L21.1823 15.0613ZM20.5528 13.6598L20.0408 13.4358L19.2392 15.2682L19.7512 15.4922L20.5528 13.6598ZM18.64 14.352V14.544H20.64V14.352H18.64ZM19.64 15.544H19.768V13.544H19.64V15.544ZM19.2133 13.712L19.0213 13.84L20.1307 15.504L20.3227 15.376L19.2133 13.712ZM19.1054 15.5544L19.5854 15.8104L20.5266 14.0456L20.0466 13.7896L19.1054 15.5544ZM19.1616 14.4808L18.8416 15.1208L20.6304 16.0152L20.9504 15.3752L19.1616 14.4808ZM20.4199 14.8385L19.9079 14.3585L18.5401 15.8175L19.0521 16.2975L20.4199 14.8385ZM18.3723 15.6121L18.6283 16.0281L20.3317 14.9799L20.0757 14.5639L18.3723 15.6121ZM18.48 15.504V15.696H20.48V15.504H18.48ZM20.3744 15.2488L19.9584 14.4168L18.1696 15.3112L18.5856 16.1432L20.3744 15.2488ZM20.0207 15.1552L20.6927 12.9472L18.7793 12.3648L18.1073 14.5728L20.0207 15.1552ZM20.7247 12.8058L20.8847 11.7498L18.9073 11.4502L18.7473 12.5062L20.7247 12.8058ZM20.6769 10.9753L20.4209 10.6553L18.8591 11.9047L19.1151 12.2247L20.6769 10.9753ZM19.516 12.2723L19.772 12.3043L20.02 10.3197L19.764 10.2877L19.516 12.2723ZM20.896 11.312V10.896H18.896V11.312H20.896ZM20.67 10.2628L20.382 9.91076L18.834 11.1772L19.122 11.5292L20.67 10.2628ZM20.568 10.264L20.344 9.496L18.424 10.056L18.648 10.824L20.568 10.264ZM19.384 8.776H18.488V10.776H19.384V8.776ZM19.3406 9.25344L18.7326 8.26144L17.0274 9.30656L17.6354 10.2986L19.3406 9.25344ZM18.4732 7.97894L17.8652 7.53094L16.6788 9.14106L17.2868 9.58906L18.4732 7.97894ZM18.2643 8.46003L18.3283 7.94803L16.3437 7.69996L16.2797 8.21197L18.2643 8.46003ZM17.7832 6.92957L17.2712 6.67357L16.3768 8.46243L16.8888 8.71843L17.7832 6.92957ZM17.6965 7.0794L17.2485 6.2794L15.5035 7.2566L15.9515 8.0566L17.6965 7.0794ZM16.8975 5.91472L15.7455 5.21072L14.7025 6.91728L15.8546 7.62128L16.8975 5.91472ZM14.995 5.09058L14.451 5.21858L14.909 7.16542L15.453 7.03742L14.995 5.09058ZM15.5121 5.6373L15.3841 5.4453L13.72 6.5547L13.848 6.7467L15.5121 5.6373ZM14.2103 5.06021L13.5063 5.31621L14.1897 7.19579L14.8937 6.93979L14.2103 5.06021ZM13.0887 6.90679L13.2807 7.13079L14.7993 5.82921L14.6073 5.60521L13.0887 6.90679ZM14.3817 5.54021L14.0297 5.41221L13.3463 7.29179L13.6983 7.41979L14.3817 5.54021ZM12.7179 6.10946L12.6859 6.23746L14.6261 6.72253L14.6581 6.59453L12.7179 6.10946ZM13.2714 7.40308L13.6554 7.56308L14.4246 5.71692L14.0406 5.55692L13.2714 7.40308ZM13.04 6.64V6.768H15.04V6.64H13.04ZM13.3329 6.06089L13.2689 6.1249L14.6831 7.5391L14.7471 7.4751L13.3329 6.06089ZM14.1174 5.84205L13.6694 5.77805L13.3866 7.75795L13.8346 7.82195L14.1174 5.84205ZM13.1075 5.86069L11.7955 6.46869L12.6365 8.28331L13.9485 7.67531L13.1075 5.86069ZM13.1647 7.69222L13.2287 7.50022L11.3313 6.86777L11.2673 7.05977L13.1647 7.69222ZM11.8328 6.28957L11.3208 6.54557L12.2152 8.33443L12.7272 8.07843L11.8328 6.28957ZM11.6576 6.44612L10.5056 6.57412L10.7264 8.56188L11.8784 8.43388L11.6576 6.44612ZM11.5104 7.12079L11.4144 6.92879L9.62557 7.82321L9.72157 8.01521L11.5104 7.12079ZM11.463 7.04318L11.271 6.49918L9.38501 7.16482L9.57701 7.70882L11.463 7.04318ZM9.39676 7.1964L9.68476 7.9324L11.5472 7.2036L11.2592 6.4676L9.39676 7.1964ZM11.5861 7.81054L11.7141 7.29854L9.77386 6.81346L9.64586 7.32546L11.5861 7.81054ZM11.6578 6.64986L11.5298 6.36186L9.70219 7.17414L9.83019 7.46214L11.6578 6.64986ZM11.3231 6.06089L10.2351 4.97289L8.82089 6.38711L9.90889 7.47511L11.3231 6.06089ZM8.94998 6.49603L9.71798 7.04002L10.874 5.40797L10.106 4.86398L8.94998 6.49603ZM10.7921 7.09225L11.0161 6.96425L10.0239 5.22775L9.79987 5.35575L10.7921 7.09225ZM10.2327 5.13817L9.91266 5.23417L10.4873 7.14983L10.8073 7.05383L10.2327 5.13817ZM11.1981 6.12962L11.1661 5.61762L9.16995 5.74238L9.20195 6.25438L11.1981 6.12962ZM9.72079 4.78557L9.46479 4.91357L10.3592 6.70243L10.6152 6.57443L9.72079 4.78557ZM10.419 4.94607L9.87502 4.62607L8.86098 6.34993L9.40498 6.66993L10.419 4.94607ZM9.77836 6.39992L10.4184 6.11192L9.59764 4.28808L8.95764 4.57608L9.77836 6.39992ZM10.8655 4.68551L10.7695 4.5255L9.05451 5.55449L9.15051 5.71449L10.8655 4.68551ZM9.51808 4.12085L9.07008 4.31286L9.85792 6.15114L10.3059 5.95914L9.51808 4.12085ZM10.1148 4.47275L9.89079 4.28074L8.58921 5.79925L8.81321 5.99125L10.1148 4.47275ZM8.75435 4.16584L8.46635 4.32585L9.43765 6.07416L9.72565 5.91415L8.75435 4.16584ZM8.73507 6.17619L9.02307 6.24019L9.45693 4.28781L9.16893 4.22381L8.73507 6.17619ZM8.28422 5.55809L8.41222 5.97409L10.3238 5.38591L10.1958 4.96991L8.28422 5.55809ZM9.85364 4.80584L8.70164 4.16584L7.73036 5.91416L8.88236 6.55416L9.85364 4.80584ZM8.54985 4.09737L7.01385 3.55337L6.34615 5.43863L7.88215 5.98263L8.54985 4.09737ZM6.46307 5.47219L7.03907 5.60019L7.47293 3.64781L6.89693 3.51981L6.46307 5.47219ZM7.9068 5.38325L8.13079 5.19125L6.82921 3.67274L6.60521 3.86475L7.9068 5.38325ZM6.66627 5.01324L6.82627 5.23724L8.45373 4.07476L8.29374 3.85076L6.66627 5.01324ZM8.64 4.656V4.432H6.64V4.656H8.64ZM7.19279 5.32643L7.64079 5.55043L8.53522 3.76157L8.08721 3.53757L7.19279 5.32643ZM9.03668 4.33977L8.90868 3.95577L7.01132 4.58823L7.13932 4.97223L9.03668 4.33977ZM8.49 3.424L8.234 3.264L7.174 4.96L7.43 5.12L8.49 3.424ZM7.41665 3.15417L6.77665 3.34617L7.35135 5.26183L7.99135 5.06983L7.41665 3.15417ZM8.064 4.304V4.112H6.064V4.304H8.064ZM7.1635 3.11696L6.8435 3.08496L6.6445 5.07504L6.9645 5.10704L7.1635 3.11696ZM5.95138 3.47029L5.63138 3.88629L7.21662 5.10571L7.53662 4.68971L5.95138 3.47029ZM6.53443 3.50212L5.95843 3.43812L5.73757 5.42588L6.31357 5.48988L6.53443 3.50212ZM5.71866 3.4404L4.24666 3.6324L4.50534 5.6156L5.97734 5.4236L5.71866 3.4404ZM4.70108 5.56969L5.72508 5.21769L5.07492 3.32631L4.05092 3.67831L4.70108 5.56969ZM5.96921 3.44981L5.55321 3.16181L4.41479 4.80619L4.83079 5.09419L5.96921 3.44981ZM5.75222 4.62418L5.91222 4.43219L4.37578 3.15181L4.21578 3.34381L5.75222 4.62418ZM5.90326 3.14121L5.71126 2.91721L4.19274 4.21879L4.38474 4.44279L5.90326 3.14121ZM3.98848 3.30035L3.82848 3.87636L5.75552 4.41164L5.91552 3.83564L3.98848 3.30035ZM5.55126 3.49321L5.16726 3.04521L3.64874 4.34679L4.03274 4.79479L5.55126 3.49321ZM3.45222 3.99008L3.58022 4.40609L5.49178 3.81791L5.36378 3.40191L3.45222 3.99008ZM3.75989 3.48141L3.34389 3.99341L4.89611 5.25459L5.31211 4.74259L3.75989 3.48141ZM3.87747 3.65386L2.98147 3.87786L3.46653 5.81814L4.36253 5.59414L3.87747 3.65386ZM3.98082 5.50162L4.58882 4.79762L3.07518 3.49038L2.46718 4.19438L3.98082 5.50162ZM4.4905 3.39142L4.2345 3.16742L2.9175 4.67258L3.1735 4.89658L4.4905 3.39142ZM4.54614 4.16254L4.70614 3.52254L2.76586 3.03746L2.60586 3.67746L4.54614 4.16254ZM4.44311 2.57289L3.70711 1.83689L2.29289 3.25111L3.02889 3.98711L4.44311 2.57289ZM3.98478 2.71779L4.08078 2.17379L2.11122 1.82621L2.01522 2.37022L3.98478 2.71779ZM3.05241 2.99905L11.8524 3.38305L11.9396 1.38495L3.13959 1.00095L3.05241 2.99905ZM10.9586 2.73219L11.3746 3.85219L13.2494 3.15581L12.8334 2.03581L10.9586 2.73219ZM12.2234 4.50007L21.2154 5.30006L21.3926 3.30793L12.4006 2.50793L12.2234 4.50007ZM20.3631 4.64272L20.6511 5.44272L22.5329 4.76528L22.2449 3.96528L20.3631 4.64272ZM21.675 6.10055L22.059 6.06855L21.893 4.07545L21.509 4.10745L21.675 6.10055ZM22.976 5.072V3.568H20.976V5.072H22.976ZM22.6268 4.32726L22.8508 4.13526L21.5492 2.61674L21.3252 2.80874L22.6268 4.32726ZM21.9848 4.35257L23.8728 4.76857L24.3032 2.81542L22.4152 2.39942L21.9848 4.35257ZM23.088 3.792V4.496H25.088V3.792H23.088ZM24.9201 3.9413L24.6641 3.5573L23 4.6667L23.2559 5.0507L24.9201 3.9413ZM22.832 4.112V4.432H24.832V4.112H22.832ZM23.2773 5.26405L23.6613 5.52005L24.7707 3.85595L24.3867 3.59995L23.2773 5.26405ZM23.2316 4.86379L23.7116 7.55179L25.6804 7.20021L25.2004 4.51221L23.2316 4.86379ZM23.7627 7.73498L24.8827 10.647L26.7493 9.92902L25.6293 7.01702L23.7627 7.73498ZM24.9661 10.8149L25.9581 12.4149L27.6579 11.3611L26.6659 9.76106L24.9661 10.8149ZM25.9301 12.3669L26.3141 13.0709L28.0699 12.1131L27.6859 11.4091L25.9301 12.3669ZM26.4394 11.9335L26.2154 12.1895L27.7206 13.5065L27.9446 13.2505L26.4394 11.9335ZM25.968 12.848V13.552H27.968V12.848H25.968ZM26.0352 13.9124L26.5792 15.3204L28.4448 14.5996L27.9008 13.1916L26.0352 13.9124ZM28.4064 14.5128L27.7024 13.1048L25.9136 13.9992L26.6176 15.4072L28.4064 14.5128ZM27.8044 13.6368L27.9324 12.1328L25.9396 11.9632L25.8116 13.4672L27.8044 13.6368ZM26.936 11.048H26.36V13.048H26.936V11.048ZM27.3585 12.1035L27.3905 11.5275L25.3935 11.4165L25.3615 11.9925L27.3585 12.1035ZM26.7766 10.5489L26.3926 10.3889L25.6234 12.2351L26.0074 12.3951L26.7766 10.5489ZM25.0539 11.6113L25.5659 13.2433L27.4741 12.6447L26.9621 11.0127L25.0539 11.6113ZM25.6014 13.3392L26.7854 16.0912L28.6226 15.3008L27.4386 12.5488L25.6014 13.3392ZM26.7201 15.8749L26.8481 16.5789L28.8159 16.2211L28.6879 15.5171L26.7201 15.8749ZM26.9068 16.7796L27.4188 18.0276L29.2692 17.2684L28.7572 16.0204L26.9068 16.7796ZM29.344 17.648V17.584H27.344V17.648H29.344ZM28.6381 16.6282L28.2221 16.5002L27.6339 18.4118L28.0499 18.5398L28.6381 16.6282ZM27.3633 18.2813L27.9713 18.6973L29.1007 17.0467L28.4927 16.6307L27.3633 18.2813ZM27.5782 18.1593L27.9622 19.4393L29.8778 18.8647L29.4938 17.5847L27.5782 18.1593ZM27.9244 19.0587L27.5404 23.1547L29.5316 23.3413L29.9156 19.2453L27.9244 19.0587ZM29.536 23.248V22.704H27.536V23.248H29.536ZM27.6075 22.3326L27.1595 23.4526L29.0165 24.1954L29.4645 23.0754L27.6075 22.3326ZM27.0957 23.7L26.9677 24.724L28.9523 24.972L29.0803 23.948L27.0957 23.7ZM27.1536 24.2566L26.8016 24.7366L28.4144 25.9194L28.7664 25.4394L27.1536 24.2566ZM26.6889 25.7219L26.7849 25.9459L28.6231 25.1581L28.5271 24.9341L26.6889 25.7219ZM28.5177 24.9708L28.3577 24.7468L26.7303 25.9092L26.8903 26.1332L28.5177 24.9708ZM27.3796 24.3416L27.1876 24.3736L27.5164 26.3464L27.7084 26.3144L27.3796 24.3416ZM26.9806 26.2885L27.1406 26.3525L27.8834 24.4955L27.7234 24.4315L26.9806 26.2885ZM26.5256 25.5884L26.5576 25.7804L28.5304 25.4516L28.4984 25.2596L26.5256 25.5884ZM27.9912 24.7216L27.7992 24.6256L26.9048 26.4144L27.0968 26.5104L27.9912 24.7216ZM28.3384 25.3556L28.3064 25.1636L26.3336 25.4924L26.3656 25.6844L28.3384 25.3556ZM26.9033 24.4189L26.1353 24.7709L26.9687 26.5891L27.7367 26.2371L26.9033 24.4189ZM26.781 24.7066L26.237 24.5786L25.779 26.5254L26.323 26.6534L26.781 24.7066ZM25.6093 24.6349L24.8733 24.9549L25.6707 26.7891L26.4067 26.4691L25.6093 24.6349ZM25.9364 25.1246L25.6484 24.8686L24.3196 26.3634L24.6076 26.6194L25.9364 25.1246ZM25.8978 25.2099L25.7698 24.9219L23.9422 25.7341L24.0702 26.0221L25.8978 25.2099ZM25.6881 25.8827L25.9441 25.4987L24.28 24.3893L24.024 24.7733L25.6881 25.8827ZM24.3438 25.5842L24.5038 25.7762L26.0402 24.4958L25.8802 24.3038L24.3438 25.5842ZM24.7351 25.9797L25.0871 26.2037L26.1609 24.5163L25.8089 24.2923L24.7351 25.9797ZM25.624 24.36H25.496V26.36H25.624V24.36ZM25.7834 26.3178L26.1034 26.2218L25.5287 24.3062L25.2087 24.4022L25.7834 26.3178ZM26.3401 24.4123L25.5081 23.9003L24.4599 25.6037L25.2919 26.1157L26.3401 24.4123ZM25.9679 24.5731L25.8399 23.8691L23.8721 24.2269L24.0001 24.9309L25.9679 24.5731ZM25.7226 23.549L25.1146 22.493L23.3814 23.491L23.9894 24.547L25.7226 23.549ZM24.6709 22.0858L23.7109 21.6378L22.8651 23.4502L23.8251 23.8982L24.6709 22.0858ZM22.9718 21.5953L22.5878 21.7233L23.2202 23.6207L23.6042 23.4927L22.9718 21.5953ZM23.573 23.4153L23.893 23.1273L22.555 21.6407L22.235 21.9287L23.573 23.4153ZM23.5114 21.4262L23.1914 21.3302L22.6167 23.2458L22.9367 23.3418L23.5114 21.4262ZM23.8325 21.9166L23.6405 21.4366L21.7835 22.1794L21.9755 22.6594L23.8325 21.9166ZM21.712 21.808V22H23.712V21.808H21.712ZM23.7001 21.8463L23.4761 20.4063L21.4999 20.7137L21.7239 22.1537L23.7001 21.8463ZM23.4071 20.1661L23.3111 19.9421L21.4729 20.7299L21.5689 20.9539L23.4071 20.1661ZM21.392 20.336V20.56H23.392V20.336H21.392ZM22.6169 19.5856L22.2009 19.4896L21.7511 21.4384L22.1671 21.5344L22.6169 19.5856ZM22.7487 21.0987L23.4847 20.2027L21.9393 18.9333L21.2033 19.8293L22.7487 21.0987ZM22.2648 18.6736L21.8808 18.8656L22.7752 20.6544L23.1592 20.4624L22.2648 18.6736ZM21.3722 19.4659L21.2442 19.8819L23.1558 20.4701L23.2838 20.0541L21.3722 19.4659ZM22.2 19.176H21.784V21.176H22.2V19.176ZM22.783 20.1316L22.719 18.6916L20.721 18.7804L20.785 20.2204L22.783 20.1316ZM22.3378 19.5223L22.7858 19.1703L21.5502 17.5977L21.1022 17.9497L22.3378 19.5223ZM21.8263 17.4442L21.1223 17.7002L21.8057 19.5798L22.5097 19.3238L21.8263 17.4442ZM22.1711 17.9329L21.7551 17.5169L20.3409 18.9311L20.7569 19.3471L22.1711 17.9329ZM20.1304 18.6216L20.5464 19.5816L22.3816 18.7864L21.9656 17.8264L20.1304 18.6216ZM21.7462 18.2246L21.2022 18.0646L20.6378 19.9834L21.1818 20.1434L21.7462 18.2246ZM21.8208 18.5897L20.9568 16.7977L19.1552 17.6663L20.0192 19.4583L21.8208 18.5897ZM21.0535 17.1608L21.0215 16.7128L19.0265 16.8552L19.0585 17.3032L21.0535 17.1608ZM20.5932 15.9618L20.1772 15.6738L19.0388 17.3182L19.4548 17.6062L20.5932 15.9618ZM20.44 15.9413L20.312 15.7493L18.648 16.8587L18.776 17.0507L20.44 15.9413ZM18.88 17.104L19.136 17.296L20.336 15.696L20.08 15.504L18.88 17.104ZM20.4431 15.7889L20.3471 15.6929L18.9329 17.1071L19.0289 17.2031L20.4431 15.7889ZM19.64 17.4H19.96V15.4H19.64V17.4ZM20.6002 15.6318L20.4082 15.4718L19.1278 17.0082L19.3198 17.1682L20.6002 15.6318ZM19.892 17.2323L20.148 17.2003L19.9 15.2157L19.644 15.2477L19.892 17.2323ZM20.024 15.208H19.96V17.208H20.024V15.208Z" fill="#989BA7" mask="url(#path-1-outside-1_3395_76343)"/>
</svg>
