<svg width="14" height="30" viewBox="0 0 14 30" fill="none" xmlns="http://www.w3.org/2000/svg">
<path fill-rule="evenodd" clip-rule="evenodd" d="M3.50523 0.467285L11.3133 3.07017L11.7471 3.50398L11.3133 5.23923V6.54067L10.4458 6.97449L10.012 7.84211L9.57819 9.14355L10.012 10.0112L11.7471 10.445H12.6147L13.0485 12.6141L12.6147 14.7831V16.0846V17.386L12.1809 17.8198L12.6147 18.6874L12.1809 20.4227L11.7471 20.8565H10.8795L11.7471 22.158H10.8795V23.0256L11.3133 23.4594H10.4458L10.012 24.327L9.14441 24.7608L10.012 25.1946L9.14441 26.9299V27.3637L8.71062 27.7975V28.6652L7.84306 29.5328V28.6652V26.4961H6.97549H6.10793L5.24036 26.9299L4.80658 26.0623H3.50523L3.07145 25.1946H2.20388L0.902533 24.327V23.0256L0.46875 22.5918L0.902533 21.2903V20.4227H1.33632L2.20388 19.1213L3.07145 18.2536V17.386L6.10793 14.7831V13.9155L3.50523 12.1802H2.63766L2.20388 10.445L0.902533 10.8788L0.46875 9.14355L0.902533 7.84211L1.33632 6.97449L0.46875 6.10686V5.23923L1.33632 4.37161L2.20388 2.63635V1.76873L3.50523 0.467285Z" fill="#989BA7"/>
</svg>
