<svg width="30" height="24" viewBox="0 0 30 24" fill="none" xmlns="http://www.w3.org/2000/svg">
<path d="M21.5589 22.5391V22.8234L20.8745 23.25L21.1312 22.5959L21.5589 22.5391ZM24.7529 22.3969L24.1255 22.6244L23.4981 22.6813L24.3821 22.4822L24.7529 22.3969ZM25.0951 22.4822L24.5532 22.5959V22.5391L26.4924 21.8281L25.0951 22.4822ZM28.4886 19.9797L27.0627 21.1741H27.7186L28.2319 20.52L28.7452 20.5484L28.7738 20.3494L29.0304 20.6338L30 20.2641L26.692 21.8281L27.0342 21.6291L22.8992 22.6813L23.4125 22.795L22.1008 22.9656L22.7567 22.6813L22.4715 22.4822L22.1863 22.5959L22.2719 22.795L21.7871 22.9088L21.6445 22.5391L22.1008 21.885L22.7567 21.8281V21.6006L22.8422 21.6859L22.8992 21.3162L23.1559 21.6291L23.27 21.2309L23.7833 21.2594L23.9259 20.975L24.211 21.2309L24.0684 20.975L24.7814 21.1741L25.1806 20.8897L27.0627 20.7759L28.1179 19.9228L28.4886 19.9797ZM29.4011 19.3256L29.3156 19.2687L29.6578 19.1266L29.4582 19.3256H29.4011ZM3.53612 10.0266L3.30799 10.3109L3.13688 10.1688L3.1654 9.85594L3.53612 10.0266ZM13.5741 5.505L13.3745 5.67563L13.6312 5.30594V5.47656L13.5741 5.505ZM14.1445 3.99781L14.23 4.05469L13.8878 4.14L13.9449 4.05469L14.1445 3.99781ZM14.7433 3.685L14.5722 3.82719L14.3441 4.05469L14.2871 3.82719L14.7433 3.685ZM18.6502 0.5H24.0684V0.784375L24.0399 2.49062L24.3251 3.34375L24.1825 4.39594L23.7833 5.30594L24.0684 6.69937L23.8688 7.58094L23.9259 7.78L24.3251 7.52406L24.4677 7.89375L24.5532 11.9319L23.6692 15.2591L23.4981 19.3256L23.7833 19.6669L22.8422 20.2641L23.1559 20.7759L22.5 21.4016L22.557 21.6291L22.1008 21.6859L21.7871 22.1978L22.2719 20.6338L22.0437 19.155L21.8441 19.4109L22.1293 20.7759L19.1065 18.9559L18.9354 18.6147L17.9943 18.245L17.7376 17.7047L17.7091 16.6241L17.0247 16.3397L16.711 15.7141L0 15.06L0.0855514 13.7234L2.48099 12.3016L2.93726 11.6191L3.53612 11.3062L3.39354 10.3109L3.59316 9.94125L2.93726 9.65688L2.96578 8.74687L5.58935 8.29188L7.89924 8.63313L8.4981 9.145L9.32509 8.94594L10.7795 9.25875L10.8935 8.97438L11.7205 8.83219L12.8042 7.89375L13.3745 7.95063L13.6882 7.60937L13.7167 7.23969L13.6312 7.325L13.346 6.27281L13.5741 6.01687L13.6312 6.27281L14.23 5.505L13.6882 5.61875L14.0019 5.24906L13.6882 5.10687L13.346 5.33438L13.1464 4.85094L15 3.62813L15.5703 2.57594L17.1958 1.21094L18.6502 0.5Z" fill="#989BA7"/>
</svg>
