<svg width="173" height="92" viewBox="0 0 173 92" fill="none" xmlns="http://www.w3.org/2000/svg">
  <g clip-path="url(#clip0_205_10556)">
    <g clip-path="url(#clip1_205_10556)">
      <path
        d="M121.65 80.9646L121.65 69.2611L132.58 68.8066L136.716 64.1626L140.605 68.3522L153.112 67.4432L152.13 76.0454L121.65 80.9646Z"
        fill="#81D5BC" />
      <path
        d="M119.641 69.7903H133.458C133.683 69.7903 133.893 69.6856 134.034 69.5084L137.51 65.1067L140.914 69.0715C141.055 69.2356 141.258 69.3292 141.469 69.3292H154.995C155.259 69.3292 155.503 69.1862 155.634 68.9527C155.767 68.7201 155.768 68.4322 155.637 68.1986C155.041 67.1344 154.485 66.1044 153.945 65.1087C152.623 62.6601 151.375 60.3485 149.901 58.2171C148.975 56.881 146.753 56.3746 145.483 56.3605C140.995 56.3132 136.57 56.4058 132.288 56.4964C130.816 56.5276 129.373 56.5588 127.971 56.581C127.739 56.585 127.521 56.6998 127.384 56.8921L119.038 68.5902C118.874 68.8208 118.851 69.1238 118.976 69.3775C119.1 69.6313 119.364 69.7903 119.641 69.7903ZM133.104 68.2801H121.097L128.37 58.0862C129.658 58.064 130.979 58.0358 132.324 58.0076C136.595 57.918 141.012 57.8244 145.472 57.8727C146.63 57.8858 148.203 58.3782 148.696 59.09C150.121 61.1509 151.35 63.4283 152.654 65.8386C153.004 66.485 153.36 67.1444 153.73 67.819H141.809L138.204 63.6186C138.02 63.4062 137.742 63.3266 137.495 63.377C137.233 63.3226 136.949 63.4142 136.769 63.6428L133.104 68.2801Z"
        fill="#202124" />
      <path
        d="M134.029 92.8486C134.424 92.8486 134.752 92.5294 134.767 92.1217C134.797 91.3484 134.82 90.5742 134.844 89.8C134.902 87.9454 134.961 86.0285 135.095 84.1558C135.153 83.3332 135.346 82.4905 135.533 81.676C135.573 81.5029 135.613 81.3307 135.65 81.1595C135.924 81.1555 136.183 81.1485 136.427 81.1424C137.224 81.1213 137.852 81.1072 138.458 81.1797C140.207 81.3951 140.901 82.1432 140.845 83.7652C140.78 85.7164 140.795 87.6917 140.81 89.6037C140.816 90.4333 140.823 91.2619 140.823 92.0925C140.823 92.5083 141.154 92.8476 141.563 92.8476C141.971 92.8476 142.303 92.5083 142.303 92.0925C142.303 91.2589 142.296 90.4262 142.29 89.5926C142.275 87.6968 142.261 85.7355 142.326 83.8185C142.408 81.3831 141.165 79.9906 138.633 79.6825C137.924 79.597 137.214 79.6151 136.392 79.6342C135.987 79.6443 135.546 79.6554 135.052 79.6554C134.7 79.6554 134.396 79.9091 134.327 80.2635C134.26 80.6128 134.177 80.9692 134.094 81.3327C133.894 82.2046 133.686 83.1057 133.62 84.0491C133.484 85.9519 133.425 87.885 133.366 89.7547C133.343 90.5259 133.319 91.2961 133.29 92.0653C133.274 92.4821 133.594 92.8325 134.002 92.8486C134.011 92.8486 134.02 92.8486 134.029 92.8486Z"
        fill="#202124" />
      <path
        d="M151.813 92.8491C152.202 92.8491 152.528 92.539 152.55 92.1393C152.612 91.0942 152.68 90.0501 152.747 89.0061C152.895 86.7045 153.05 84.3254 153.137 81.9765C153.251 79.0306 153.313 76.0364 153.372 73.1408C153.397 71.8813 153.425 70.6217 153.453 69.3612C153.464 68.9444 153.141 68.597 152.733 68.587C152.726 68.587 152.72 68.587 152.713 68.587C152.313 68.587 151.984 68.9132 151.973 69.324C151.944 70.5845 151.917 71.846 151.892 73.1075C151.832 75.9971 151.771 78.9843 151.659 81.9171C151.569 84.2459 151.417 86.6149 151.268 88.9064C151.202 89.9535 151.133 90.9996 151.072 92.0466C151.048 92.4635 151.357 92.8219 151.766 92.8471C151.781 92.8491 151.796 92.8491 151.813 92.8491Z"
        fill="#202124" />
      <path
        d="M122.576 92.849C122.984 92.849 123.316 92.5107 123.316 92.0939V72.1087C123.316 71.6919 122.984 71.3536 122.576 71.3536C122.167 71.3536 121.835 71.6919 121.835 72.1087V92.0939C121.835 92.5107 122.167 92.849 122.576 92.849Z"
        fill="#202124" />
      <path
        d="M138.738 75.5489C139.007 75.5489 139.279 75.5298 139.549 75.4855C140.75 75.2841 141.586 73.1738 141.622 72.1368C141.725 69.3348 139.447 68.7761 137.781 68.3693L137.678 68.3441C137.476 67.9958 137.038 67.8709 136.685 68.0713C134.23 69.4537 133.598 71.5629 134.753 74.5199C134.85 74.7676 135.066 74.9458 135.326 74.9871C135.631 75.0354 135.959 75.1109 136.3 75.1894C137.056 75.3586 137.888 75.5489 138.738 75.5489ZM136.942 69.6721C137.009 69.7164 137.085 69.7497 137.167 69.7698L137.435 69.8362C139.357 70.3064 140.194 70.6608 140.142 72.0794C140.117 72.7671 139.538 73.8615 139.255 74.0095C138.47 74.1343 137.532 73.9199 136.624 73.7125C136.405 73.6621 136.191 73.6138 135.986 73.5715C135.277 71.4904 135.815 70.4433 136.942 69.6721Z"
        fill="#202124" />
      <path
        d="M148.782 89.2632C148.978 89.2632 149.168 89.1836 149.309 89.0397C149.477 88.8655 149.553 88.6178 149.511 88.3762C149.385 87.6543 149.613 86.9374 149.853 86.1783C150.276 84.8493 150.8 83.1941 148.963 81.6688C148.783 81.5218 148.56 81.4705 148.345 81.5158C148.297 81.5057 148.247 81.4997 148.196 81.4997H145.935C145.526 81.4997 145.195 81.838 145.195 82.2548V88.0198C145.195 88.3883 145.456 88.7044 145.812 88.7648L148.662 89.2511C148.701 89.2591 148.742 89.2632 148.782 89.2632ZM148.217 83.0109C149.011 83.774 148.844 84.4557 148.444 85.7132C148.258 86.2931 148.058 86.9254 148.007 87.611L146.672 87.3825V83.0119H148.194C148.202 83.0109 148.21 83.0109 148.217 83.0109Z"
        fill="#202124" />
      <path
        d="M126.793 79.1679H130.538C130.906 79.1679 131.218 78.893 131.27 78.5195C131.333 78.0634 131.5 77.5983 131.676 77.1049C132.162 75.7417 132.767 74.0422 130.88 72.4505C130.699 72.2994 130.476 72.2501 130.257 72.2944C130.209 72.2833 130.158 72.2773 130.108 72.2773H126.793C126.384 72.2773 126.052 72.6156 126.052 73.0324V78.4128C126.052 78.8296 126.384 79.1679 126.793 79.1679ZM129.939 77.6577H127.533V73.7875H130.108C130.115 73.7875 130.122 73.7875 130.129 73.7875C130.946 74.5859 130.748 75.2897 130.285 76.5884C130.161 76.9348 130.035 77.2892 129.939 77.6577Z"
        fill="#202124" />
      <path
        d="M145.244 79.1678H148.623C148.991 79.1678 149.303 78.893 149.355 78.5194C149.418 78.0634 149.584 77.5982 149.761 77.1049C150.248 75.7417 150.852 74.0422 148.964 72.4504C148.785 72.2994 148.561 72.25 148.343 72.2943C148.289 72.2823 148.242 72.2772 148.176 72.2772C147.967 72.2833 147.747 72.2752 147.53 72.2682C146.347 72.2289 144.548 72.1715 143.832 74.467C143.794 74.5879 143.786 74.7167 143.811 74.8406L144.518 78.5567C144.585 78.9111 144.889 79.1678 145.244 79.1678ZM148.023 77.6576H145.855L145.302 74.751C145.669 73.7643 146.252 73.7381 147.484 73.7774C147.728 73.7854 147.97 73.7915 148.209 73.7874C148.21 73.7874 148.212 73.7874 148.213 73.7874C149.031 74.5858 148.832 75.2896 148.369 76.5884C148.247 76.9347 148.121 77.2891 148.023 77.6576Z"
        fill="#202124" />
      <path
        d="M127.849 89.0063H130.542C130.916 89.0063 131.23 88.7224 131.277 88.3448C131.326 87.9431 131.382 87.5484 131.439 87.1638C131.575 86.2245 131.704 85.3385 131.714 84.4173C131.723 83.787 131.512 83.191 131.324 82.6664C131.252 82.46 131.178 82.2536 131.119 82.0482C131.013 81.6656 130.638 81.4331 130.257 81.5166C130.209 81.5066 130.159 81.5005 130.108 81.5005H127.847C127.438 81.5005 127.107 81.8388 127.107 82.2556V88.2512C127.109 88.668 127.44 89.0063 127.849 89.0063ZM129.897 87.4961H128.59V83.0107H129.876C129.897 83.0671 129.916 83.1235 129.937 83.1799C130.093 83.6229 130.243 84.0407 130.238 84.3971C130.229 85.2167 130.107 86.0553 129.979 86.9433C129.949 87.1256 129.922 87.3098 129.897 87.4961Z"
        fill="#202124" />
    </g>
    <g clip-path="url(#clip2_205_10556)">
      <path
        d="M39.7172 88.6063L39.7172 75.6024L27.6508 75.0974L23.0844 69.9374L18.792 74.5925L4.98438 73.5825L6.06927 83.1406L39.7172 88.6063Z"
        fill="#FFE4AF" />
      <path
        d="M41.9349 76.1906H26.6823C26.4338 76.1906 26.2018 76.0742 26.046 75.8773L22.2083 70.9865L18.4512 75.3918C18.2954 75.5742 18.0709 75.6782 17.8378 75.6782H2.90657C2.61455 75.6782 2.34544 75.5194 2.20052 75.2598C2.05342 75.0014 2.0523 74.6815 2.19722 74.422C2.85536 73.2395 3.46884 72.0951 4.06487 70.9887C5.52497 68.2681 6.90225 65.6996 8.53016 63.3314C9.55223 61.8469 12.005 61.2842 13.4073 61.2686C18.3619 61.216 23.2467 61.3189 27.9735 61.4195C29.5981 61.4542 31.1912 61.4889 32.7395 61.5135C32.9956 61.518 33.2353 61.6455 33.3868 61.8592L42.6007 74.8571C42.7816 75.1133 42.8066 75.45 42.6693 75.7319C42.532 76.0138 42.2411 76.1906 41.9349 76.1906ZM27.0724 74.5126H40.3277L32.2982 63.186C30.8763 63.1613 29.4183 63.13 27.9332 63.0987C23.2184 62.9991 18.3423 62.8951 13.4193 62.9488C12.1401 62.9633 10.4043 63.5104 9.85951 64.3013C8.28717 66.5912 6.92948 69.1217 5.49008 71.7998C5.10436 72.518 4.711 73.2507 4.30239 74.0002H17.4629L21.4423 69.3331C21.646 69.097 21.9522 69.0087 22.2246 69.0646C22.5144 69.0042 22.8283 69.106 23.0266 69.3599L27.0724 74.5126Z"
        fill="#202124" />
      <path
        d="M26.0518 101.811C25.616 101.811 25.2531 101.457 25.2368 101.004C25.2041 100.144 25.1779 99.2841 25.1518 98.4238C25.0875 96.3632 25.0232 94.2333 24.875 92.1525C24.8107 91.2386 24.5972 90.3022 24.3912 89.3972C24.3466 89.2048 24.3029 89.0135 24.2615 88.8234C23.9597 88.8189 23.6732 88.8111 23.404 88.8043C22.5247 88.7808 21.8317 88.7652 21.1626 88.8457C19.2318 89.0851 18.4658 89.9163 18.5268 91.7185C18.5987 93.8865 18.5824 96.0813 18.5661 98.2057C18.5595 99.1275 18.5519 100.048 18.5519 100.971C18.5519 101.433 18.1858 101.81 17.7347 101.81C17.2836 101.81 16.9175 101.433 16.9175 100.971C16.9175 100.045 16.9251 99.1197 16.9316 98.1934C16.948 96.0869 16.9643 93.9078 16.8924 91.7778C16.8019 89.0717 18.1738 87.5246 20.9687 87.1823C21.7521 87.0872 22.5356 87.1073 23.4433 87.1286C23.89 87.1397 24.3771 87.152 24.9219 87.152C25.3109 87.152 25.6465 87.434 25.7227 87.8277C25.7968 88.2159 25.8884 88.6119 25.9799 89.0158C26.2011 89.9845 26.4299 90.9858 26.5029 92.034C26.6533 94.1483 26.7187 96.2961 26.7829 98.3735C26.8091 99.2304 26.8353 100.086 26.8669 100.941C26.8854 101.404 26.5313 101.793 26.0812 101.811C26.0714 101.811 26.0616 101.811 26.0518 101.811Z"
        fill="#202124" />
      <path
        d="M6.41964 101.811C5.99033 101.811 5.63077 101.467 5.60571 101.023C5.53707 99.8615 5.46188 98.7015 5.38887 97.5414C5.22543 94.9841 5.05436 92.3407 4.95738 89.7308C4.83207 86.4575 4.76342 83.1306 4.69804 79.9133C4.6708 78.5138 4.64029 77.1143 4.60869 75.7138C4.59671 75.2506 4.95303 74.8647 5.40413 74.8535C5.41176 74.8535 5.41829 74.8535 5.42591 74.8535C5.86721 74.8535 6.23115 75.2159 6.24314 75.6724C6.27474 77.073 6.30525 78.4746 6.33249 79.8764C6.39895 83.087 6.46541 86.4061 6.58963 89.6648C6.68879 92.2523 6.85659 94.8845 7.02112 97.4306C7.09413 98.5941 7.1704 99.7564 7.23796 100.92C7.26411 101.383 6.92306 101.781 6.47195 101.809C6.45451 101.811 6.43817 101.811 6.41964 101.811Z"
        fill="#202124" />
      <path
        d="M38.6951 101.812C38.244 101.812 37.8779 101.436 37.8779 100.973V78.7671C37.8779 78.304 38.244 77.9281 38.6951 77.9281C39.1463 77.9281 39.5124 78.304 39.5124 78.7671V100.973C39.5124 101.436 39.1463 101.812 38.6951 101.812Z"
        fill="#202124" />
      <path
        d="M20.8531 82.5882C20.5567 82.5882 20.256 82.5669 19.9575 82.5177C18.6325 82.294 17.7095 79.9492 17.6692 78.797C17.5559 75.6837 20.0708 75.0628 21.9101 74.6109L22.0234 74.5829C22.2468 74.1959 22.7295 74.0572 23.1196 74.2798C25.8295 75.8157 26.5279 78.1593 25.252 81.4449C25.1452 81.7201 24.9065 81.9181 24.62 81.964C24.2833 82.0177 23.9215 82.1016 23.5445 82.1888C22.7098 82.3768 21.7913 82.5882 20.8531 82.5882ZM22.8362 76.0585C22.7622 76.1077 22.6783 76.1446 22.5878 76.167L22.2914 76.2408C20.1699 76.7632 19.2459 77.157 19.3037 78.7332C19.3309 79.4973 19.9705 80.7133 20.2822 80.8777C21.1495 81.0164 22.1846 80.7782 23.1871 80.5477C23.429 80.4918 23.6644 80.4381 23.891 80.3911C24.6744 78.0788 24.0795 76.9154 22.8362 76.0585Z"
        fill="#202124" />
      <path
        d="M9.76429 97.8269C9.54855 97.8269 9.33826 97.7385 9.18353 97.5785C8.99721 97.385 8.91329 97.1098 8.96014 96.8413C9.09961 96.0392 8.84793 95.2427 8.58206 94.3992C8.1157 92.9226 7.53711 91.0835 9.56491 89.3887C9.76322 89.2254 10.0095 89.1683 10.247 89.2186C10.3004 89.2074 10.356 89.2007 10.4115 89.2007H12.9079C13.359 89.2007 13.7251 89.5766 13.7251 90.0398V96.4453C13.7251 96.8547 13.4363 97.206 13.043 97.2731L9.89724 97.8134C9.85474 97.8224 9.80897 97.8269 9.76429 97.8269ZM10.3886 90.8799C9.5115 91.7278 9.69672 92.4852 10.138 93.8824C10.3429 94.5268 10.5641 95.2293 10.6208 95.9911L12.0939 95.7372V90.881H10.4137C10.405 90.8799 10.3963 90.8799 10.3886 90.8799Z"
        fill="#202124" />
      <path
        d="M34.0391 86.6103H29.9051C29.4986 86.6103 29.1543 86.3049 29.0966 85.8899C29.0268 85.3831 28.8427 84.8663 28.6487 84.3182C28.1115 82.8035 27.4436 80.9151 29.527 79.1465C29.7264 78.9787 29.9726 78.9239 30.2145 78.9731C30.2679 78.9608 30.3235 78.9541 30.3791 78.9541H34.0391C34.4902 78.9541 34.8563 79.33 34.8563 79.7931V85.7713C34.8563 86.2345 34.4902 86.6103 34.0391 86.6103ZM30.5654 84.9323H33.2219V80.6321H30.3791C30.3714 80.6321 30.3638 80.6321 30.3562 80.6321C29.454 81.5192 29.673 82.3012 30.184 83.7443C30.3202 84.1291 30.4597 84.5229 30.5654 84.9323Z"
        fill="#202124" />
      <path
        d="M13.67 86.6094H9.9402C9.53377 86.6094 9.18944 86.304 9.13169 85.889C9.06304 85.3822 8.87888 84.8654 8.68384 84.3172C8.14665 82.8025 7.47981 80.9142 9.56318 79.1456C9.76149 78.9778 10.0088 78.923 10.2496 78.9722C10.3085 78.9588 10.3608 78.9532 10.4338 78.9532C10.6648 78.9599 10.9067 78.9509 11.1464 78.9431C12.4529 78.8995 14.4382 78.8357 15.2293 81.3863C15.2707 81.5205 15.2794 81.6637 15.2521 81.8013L14.472 85.9304C14.3979 86.3242 14.0623 86.6094 13.67 86.6094ZM10.6027 84.9314H12.9955L13.6068 81.7018C13.2014 80.6055 12.5575 80.5764 11.1976 80.62C10.9285 80.629 10.6615 80.6357 10.3968 80.6312C10.3957 80.6312 10.3935 80.6312 10.3924 80.6312C9.49016 81.5183 9.70918 82.3003 10.2202 83.7434C10.3553 84.1282 10.4948 84.522 10.6027 84.9314Z"
        fill="#202124" />
      <path
        d="M32.8742 97.5414H29.9006C29.4888 97.5414 29.1411 97.226 29.0899 96.8065C29.0354 96.3601 28.9733 95.9216 28.9112 95.4943C28.7609 94.4505 28.6181 93.4661 28.6072 92.4425C28.5974 91.7422 28.8306 91.08 29.0376 90.4971C29.1172 90.2678 29.1989 90.0385 29.2643 89.8103C29.3809 89.3852 29.7949 89.1268 30.2155 89.2196C30.2689 89.2084 30.3245 89.2017 30.3801 89.2017H32.8764C33.3275 89.2017 33.6936 89.5776 33.6936 90.0407V96.7024C33.6914 97.1656 33.3253 97.5414 32.8742 97.5414ZM30.6132 95.8634H32.0559V90.8797H30.6361C30.6132 90.9424 30.5925 91.005 30.5686 91.0677C30.3964 91.5599 30.2308 92.0241 30.2362 92.4201C30.2471 93.3307 30.3811 94.2626 30.5228 95.2493C30.5555 95.4518 30.586 95.6565 30.6132 95.8634Z"
        fill="#202124" />
    </g>
    <g clip-path="url(#clip3_205_10556)">
      <path
        d="M68.1717 12.7752C67.9372 12.9315 67.7028 13.1659 67.6246 13.4785C67.1557 13.6348 66.8431 14.1037 66.765 14.5726L66.6087 17.933L66.5305 18.949L66.4524 19.6523L66.2961 21.3716V21.8405L66.1398 24.5757L66.0617 25.7479L65.9835 27.7798V28.6394L65.9054 31.2183L65.7491 33.0158L65.5928 34.4224L65.4365 37.3139L65.202 40.9088L65.1239 42.5499L65.0457 44.2692L64.9676 45.207V45.9103L64.8894 46.8481L64.8113 47.5514L64.7331 48.6455L64.655 49.1144L64.5768 50.2866L64.4987 50.8337L64.4205 52.553V54.8974L64.2642 57.5545L64.1861 59.5864V60.8367L64.1079 62.7905L64.0298 64.1971V77.3262C64.0298 78.4202 64.1861 79.4362 64.2642 80.5303V80.7647L64.3424 82.0932L64.4987 83.8125L64.7331 85.141C64.8113 85.6099 64.8894 85.9225 65.1239 86.3133C65.2802 86.6259 65.5146 86.7822 65.8272 86.8603C66.0617 87.0166 66.2961 87.1729 66.6087 87.1729H68.9532L70.2817 87.0948L71.3758 87.0166H73.9547L75.8303 87.0948L77.0806 87.2511H77.1588C77.6277 87.2511 78.0966 86.9385 78.331 86.5477C78.4873 86.2351 78.5655 85.8444 78.5655 85.5318V83.8125L78.6436 82.1714L78.8781 78.811V77.5606L78.9562 75.4506L79.0344 74.1221L79.1125 72.8717L79.2688 70.7617V70.6835L79.7377 70.5272L80.1285 70.4491L80.441 70.3709L82.004 69.9802L83.0981 69.902H83.3326L84.2703 69.8239L84.6611 69.7457H84.9737L86.0678 69.6676H90.4441L91.3037 69.7457L91.9289 69.8239H92.0852L93.2575 69.902L94.4297 70.0583V70.1365H94.8204L94.9767 70.2146L95.0549 70.2928L95.133 70.4491V76.3102L95.0549 76.9354V87.5637H98.0245L99.822 87.6418L101.541 87.7199H103.026L104.198 87.6418L104.98 87.5637L105.605 87.4855L106.386 87.4074H106.621L107.09 87.3292C107.402 87.2511 107.637 87.0166 107.793 86.7822C108.106 86.704 108.418 86.5477 108.653 86.3133C108.887 86.0788 108.965 85.8444 108.965 85.5318V83.9688V82.4058L108.887 81.5462L108.809 80.921L108.731 79.2799V77.5606V75.5287V71.8557V70.6835V68.8079V63.1812V62.4779V61.3838L108.653 59.8208V57.2419V54.2722L108.575 52.7874L108.496 50.5211V46.4574L108.418 43.4095L108.262 40.4399L108.184 39.7366L108.028 36.1417V30.7494V25.5916V23.2471L107.871 20.9027L107.637 18.7145V18.5582L107.559 18.2456V18.0112L107.481 17.0734L106.934 16.4482V16.2137L106.855 15.3541V15.276L106.777 14.9634L106.543 14.3382C106.386 13.9474 105.996 13.6348 105.527 13.5567L104.745 13.4785H104.198L103.182 13.5567H101.463L100.76 13.6348L99.822 13.713H99.5094L97.4775 13.6348H96.7742L96.0708 13.5567L95.3675 13.4785H85.3644L83.6452 13.3222C82.5511 13.1659 81.3788 13.0096 80.2066 13.0096H76.5336L73.0169 12.9315H71.9228L69.8909 12.8533H69.5784L69.1095 12.7752H68.6406C68.4843 12.6189 68.328 12.6189 68.1717 12.7752Z"
        fill="#D3EDE5" />
      <path
        d="M61.9198 11.5248C61.6854 11.6811 61.4509 11.9156 61.3728 12.2282L61.0602 15.5104L60.9039 18.7927L60.8257 22.0749V23.5597L60.7476 25.1227V26.7639L60.6694 28.405L60.5913 29.968V45.1288L60.3568 51.9278L60.2005 55.4445L60.1224 57.1638L60.0442 58.8049L59.9661 60.5242V62.2434L59.8879 63.8064L59.8098 65.4475L59.7316 68.6516L59.4185 88.5402C59.4185 89.1654 59.9655 89.7124 60.5907 89.7124C61.2159 89.7124 61.7629 89.1654 61.7629 88.5402L62.0761 70.0583L62.1543 66.6198V65.0568L62.2324 63.4157L62.3106 60.0553L62.3887 58.336L62.4669 56.6949L62.6232 53.1782L62.7795 49.8178L62.9358 46.3011V44.6599V43.0188V36.298V32.8595V29.4209L63.0139 27.8579L63.0921 26.2168V24.6538L63.1702 23.0909L63.2483 21.5279V19.8867L63.3265 16.6826L63.4828 14.4945L63.6391 12.8534C63.7172 12.5408 63.7172 12.2282 63.4828 11.9156C63.3265 11.6811 63.0921 11.4467 62.7795 11.3685L62.4669 11.2904C62.3106 11.3685 62.0761 11.3685 61.9198 11.5248ZM63.6391 12.9315V13.0878C63.5609 13.0878 63.6391 13.0096 63.6391 12.9315Z"
        fill="#202124" />
      <path
        d="M79.6598 10.7431L77.7843 10.8212H76.065L72.7046 10.8993H69.4223L67.7812 10.9775H66.1401L64.5771 11.0556H63.7956L62.7797 11.2119C62.4671 11.2901 62.2326 11.5245 62.0763 11.759C61.9982 12.0716 61.92 12.3842 61.9982 12.6968C62.0763 13.0094 62.3108 13.2438 62.5452 13.4001C62.8578 13.5564 63.0923 13.5564 63.483 13.5564L63.7956 13.4783L65.2804 13.4001L66.9216 13.322L70.5164 13.2438H73.8768L77.5498 13.1657L81.0665 13.0875L84.5051 13.2438L91.304 13.7127H94.5863L97.9467 13.6346L101.073 13.5564H104.199C104.511 13.5564 104.824 13.4001 105.058 13.2438C105.293 13.0094 105.371 12.6968 105.371 12.3842C105.371 12.0716 105.215 11.759 105.058 11.5245C104.824 11.2901 104.589 11.2119 104.199 11.2119H102.557L100.76 11.2901H97.3215L95.4459 11.3682H93.6485L89.9755 11.2901L83.2547 10.7431L81.1447 10.6649L79.6598 10.7431Z"
        fill="#202124" />
      <path
        d="M103.495 12.7746V19.261L103.417 22.6996V25.9818L103.495 27.7011L103.573 29.4204L103.651 31.2959L103.729 33.1715L103.885 36.6882L104.042 40.283L104.198 43.6434L104.276 46.9257V60.4454L104.354 62.1647V63.7277L104.432 67.0881V68.8074L104.511 70.6048V74.1215L104.589 75.7626V77.4037L104.667 79.123V80.8423L104.745 88.2471C104.745 88.8722 105.292 89.4193 105.917 89.4193C106.542 89.4193 107.089 88.8722 107.089 88.2471V81.5456L107.011 79.8264L106.933 76.3878L106.855 73.1056L106.777 69.5107V65.994L106.699 64.3529V62.7118L106.621 59.4295V56.0691V49.2702V45.6753L106.542 44.1123L106.464 42.4712L106.308 38.8764L106.152 35.2815L106.074 33.5622L105.995 31.843L105.839 28.17L105.761 24.7314V21.4492V19.6517L105.839 17.9325V14.5721V12.3839C105.839 11.7587 105.292 11.2117 104.667 11.2117C104.042 11.6024 103.573 12.0713 103.495 12.7746Z"
        fill="#202124" />
      <path
        d="M118.577 28.7178H115.295L113.732 28.796H112.091L108.887 28.9523L107.324 29.0304L105.761 29.1086H105.214C104.589 29.1086 104.042 29.6556 104.042 30.2808C104.042 30.906 104.589 31.453 105.214 31.453L106.699 31.3749L108.34 31.2967L109.903 31.2186L111.622 31.1404L113.185 31.0623H114.826L118.108 30.9841H118.733C119.359 30.9841 119.906 30.5153 119.906 29.8119C119.749 29.343 119.202 28.7178 118.577 28.7178Z"
        fill="#202124" />
      <path
        d="M117.796 30.202V36.7665L117.874 43.331V56.3818L117.952 59.7422V81.4676L118.03 83.0306V88.9553C118.109 89.2679 118.109 89.5805 118.343 89.8149C118.578 90.0494 118.89 90.1275 119.203 90.1275C119.515 90.1275 119.828 89.9712 120.062 89.8149C120.219 89.6586 120.453 89.2679 120.375 88.9553C120.219 87.9393 120.297 82.171 120.297 81.155V77.9509V70.9957V64.6656V61.3052L120.219 57.7885V44.6595V38.1732L120.14 36.532V34.9691V31.5305V30.2801C120.14 29.6549 119.593 29.1079 118.968 29.1079C118.343 29.0298 117.796 29.5768 117.796 30.202ZM59.7314 42.7839L58.481 42.8621L56.8399 43.0184L55.0425 43.1747C52.9325 43.4091 50.8225 43.4873 48.7124 43.4873L45.2739 43.6436L43.4765 43.7217H41.7572C41.3664 43.7217 40.8976 43.6436 40.5068 43.7217L38.9438 43.878C38.6312 43.9562 38.3968 44.1906 38.2405 44.4251C38.0842 44.6595 38.006 45.0503 38.1623 45.3629C38.2405 45.6755 38.4749 45.9099 38.7094 46.0662L39.4909 46.1444H42.9294L44.6487 46.0662L46.368 45.9881L49.8065 45.8318C51.7157 45.7882 53.6207 45.6316 55.5114 45.3629H57.0744L58.6373 45.2066L59.8096 45.1284H60.9818C61.607 45.1284 62.154 44.5814 62.154 43.9562C62.154 43.2528 61.607 42.7839 60.9818 42.7839L60.3566 42.7058H60.2785L59.7314 42.7839Z"
        fill="#202124" />
      <path
        d="M37.6147 45.6757L37.6929 47.1606V50.3647L37.771 52.0058V53.7251L37.8492 55.288V57.0073L37.9273 58.6484L38.0055 61.7744V63.3374L38.0836 64.9785V75.9975L38.0055 77.326V78.8108L37.9273 80.2175L37.8492 81.4679L37.771 89.4196C37.771 90.0447 38.3181 90.5918 38.9433 90.5918C39.5685 90.5918 40.1155 90.0447 40.1155 89.4196L40.1937 81.2335L40.2718 79.8268L40.35 78.0294V76.5445L40.4281 69.98V66.5415L40.35 63.2592L40.2718 60.1333L40.1155 56.9292L40.0374 53.9595V52.5528L39.9592 50.9899V48.0983V46.6917L39.8811 45.3631C39.8811 44.7379 39.334 44.1909 38.7088 44.1909C38.1618 44.5035 37.6147 44.9724 37.6147 45.6757Z"
        fill="#202124" />
      <path
        d="M90.3656 88.0324L88.5682 88.1105L85.1297 88.2668L81.7693 88.4231L78.2526 88.5794L76.4551 88.5013H74.5796L70.9847 88.5794L67.3899 88.5013L64.1076 88.4231L62.4665 88.345L60.7472 88.2668H57.3868L53.7138 88.345L50.0408 88.5013L48.1653 88.7357L46.446 88.892C45.1956 89.1265 44.0234 89.1265 42.8511 89.1265L41.1319 89.2046H37.6152L35.8177 89.1265C35.1925 89.1265 34.6455 89.6735 34.6455 90.2987C34.6455 90.9239 35.1925 92.2524 35.8177 92.2524L37.4589 92.3306H40.9756L42.6948 92.2524L46.2115 92.1743L48.009 92.018L49.8064 91.7835C51.0548 91.6924 52.3058 91.6403 53.5575 91.6272L57.1524 91.5491H60.6691L62.3102 91.6272H64.0295L67.3899 91.7054L70.8284 91.7835L74.5014 91.7054L76.377 91.6272L78.1744 91.7054L81.6911 91.5491L85.0515 91.3928L88.5682 91.2365L92.0849 91.1583L95.289 91.3147L97.0083 91.4709H98.6494L102.01 91.5491L105.683 91.6272L108.965 91.7054L110.528 91.7835L112.169 91.8617H115.608L118.812 92.018L120.297 92.0961L121.547 91.3147C121.781 91.4709 122.172 91.4709 122.407 91.3928C122.719 91.3147 122.954 91.0802 123.11 90.8458C123.266 90.6113 123.344 90.2206 123.266 89.908C123.188 89.5954 122.954 89.3609 122.719 89.2046C122.25 88.892 121.625 88.892 121 88.892H120.687L119.203 88.8139L115.998 88.5794L112.56 88.5013L110.841 88.4231L109.2 88.345L105.995 88.2668L104.198 88.1887H102.401L98.962 88.1105C97.8679 88.1105 96.7738 88.1105 95.6798 87.9542L95.9924 88.0324C94.8201 87.8761 93.6479 87.798 92.3975 87.798H91.3034C90.8345 88.0324 90.6001 88.0324 90.3656 88.0324ZM121.234 92.018H121.313C121.313 92.0961 121.234 92.0961 121.234 92.018ZM66.6084 18.011V18.7144L66.6865 19.574C66.8428 20.1992 67.5462 20.5899 68.0932 20.3555C68.7184 20.1992 69.031 19.574 68.9529 18.9488V17.9329C68.9529 17.3077 68.4058 16.7606 67.7806 16.7606C67.1554 16.8388 66.6084 17.3077 66.6084 18.011ZM72.157 17.8547L72.2351 18.9488C72.2351 19.574 72.7821 20.121 73.4073 20.121C74.0325 20.121 74.5796 19.574 74.5796 18.9488L74.5014 17.8547C74.5014 17.5421 74.4233 17.2295 74.1888 16.9951C73.9544 16.7606 73.6418 16.6825 73.3292 16.6825C72.704 16.6825 72.0788 17.2295 72.157 17.8547ZM78.2526 17.0732C78.0181 17.3077 77.8618 17.6203 77.94 17.9329L78.0181 18.4018L78.0963 19.1833C78.2526 19.4959 78.3307 19.7303 78.6433 19.8866C78.8778 20.0429 79.2685 20.121 79.5811 19.9648C79.8937 19.8866 80.1281 19.6522 80.2844 19.4177C80.4407 19.1833 80.5189 18.7925 80.4407 18.4799V18.4018L80.3626 17.7766C80.3626 17.464 80.2844 17.1514 80.05 16.9169C79.8155 16.6825 79.5029 16.6044 79.1904 16.6044C78.8778 16.6044 78.4089 16.8388 78.2526 17.0732ZM84.27 17.5421L84.3482 19.3396C84.4263 19.6522 84.6608 19.8866 84.8952 20.0429C85.1297 20.1992 85.5204 20.2773 85.833 20.1992C86.1456 20.121 86.3801 19.8866 86.5363 19.6522C86.6926 19.4177 86.6926 19.1833 86.6926 18.8707V18.3236V17.5421C86.6926 16.9169 86.1456 16.3699 85.5204 16.3699C84.8171 16.3699 84.27 16.9169 84.27 17.5421ZM90.1312 17.6984V18.8707C90.1312 19.1833 90.2093 19.4959 90.4438 19.7303C90.6782 19.9648 90.9908 20.0429 91.3034 20.0429C91.9286 20.0429 92.5538 19.4959 92.4757 18.8707V17.6984C92.4757 17.0732 91.9286 16.5262 91.3034 16.5262C90.6782 16.5262 90.053 17.0732 90.1312 17.6984ZM96.3831 17.6203V19.3396C96.3831 19.6522 96.4613 19.9647 96.6957 20.1992C96.9301 20.4336 97.2427 20.5118 97.5553 20.5118C97.8679 20.5118 98.1805 20.3555 98.415 20.1992C98.6494 19.9647 98.8057 19.6522 98.7276 19.3396V18.5581V17.6203C98.7276 16.9951 98.1805 16.4481 97.5553 16.4481C96.9301 16.4481 96.3831 16.9169 96.3831 17.6203ZM66.3739 24.3411C66.3739 24.8881 66.2958 25.5133 66.4521 26.0604C66.5302 26.373 66.7647 26.6074 66.9991 26.7637C67.2336 26.92 67.6243 26.9981 67.9369 26.92C68.2495 26.8418 68.484 26.6074 68.6403 26.373C68.7966 26.0604 68.7966 25.8259 68.7966 25.5133V24.3411C68.7966 23.7159 68.2495 23.1689 67.6243 23.1689C66.921 23.1689 66.3739 23.7159 66.3739 24.3411ZM72.0788 24.4192C72.0788 24.9663 71.9225 25.4352 72.0788 25.9822C72.2351 26.6074 72.9384 26.9981 73.4855 26.7637C74.0325 26.6074 74.3451 26.1385 74.3451 25.5915V25.5133L74.4233 24.4192C74.4233 23.794 73.8762 23.247 73.251 23.247C72.6259 23.247 72.0788 23.794 72.0788 24.4192ZM78.0181 24.1066V24.9663C78.0181 25.4352 77.94 25.9041 78.1744 26.2948C78.487 26.8418 79.1904 27.0763 79.8155 26.6856C80.2844 26.4511 80.5189 25.8259 80.3626 25.357V24.8881V24.1066C80.3626 23.4814 79.8155 22.9344 79.1904 22.9344C78.5652 22.9344 78.0181 23.4814 78.0181 24.1066ZM84.6608 23.4033C84.4263 23.6377 84.3482 23.8722 84.3482 24.2629V25.8259C84.5045 26.4511 85.2078 26.8418 85.7549 26.6856C86.3801 26.5293 86.6926 25.9041 86.6145 25.2789L86.6926 24.2629C86.7708 23.9503 86.5363 23.6377 86.38 23.4033C86.1456 23.1689 85.833 23.0907 85.5204 23.0907C85.2078 23.0907 84.8952 23.1689 84.6608 23.4033ZM90.2875 24.1848V24.8881L90.3656 25.5915C90.4438 25.9041 90.6782 26.1385 90.9127 26.2948C91.1471 26.4511 91.5379 26.5293 91.8505 26.4511C92.1631 26.373 92.3975 26.1385 92.5538 25.9041C92.7101 25.5915 92.7101 25.357 92.7101 24.9663V24.8881V24.1848C92.7101 23.5596 92.1631 23.0126 91.5379 23.0126C90.8345 23.0126 90.2875 23.4814 90.2875 24.1848ZM96.9301 23.247C96.6957 23.4814 96.6175 23.794 96.6175 24.1066L96.5394 24.9663C96.5394 25.357 96.5394 25.7478 96.7738 26.0604C96.9301 26.2948 97.1646 26.5293 97.4772 26.6074C97.7898 26.6856 98.1024 26.6856 98.415 26.4511C98.6494 26.2948 98.8839 26.0604 98.962 25.7478V25.0444L99.0402 24.1066C99.1183 23.4814 98.4931 22.9344 97.8679 22.9344C97.399 22.8563 97.1646 23.0126 96.9301 23.247ZM65.9832 31.5308V32.6249C65.9832 33.2501 66.5302 33.7971 67.1554 33.7971C67.7806 33.7971 68.3277 33.2501 68.3277 32.6249V31.5308C68.3277 30.9056 67.7806 30.3585 67.1554 30.3585C66.5302 30.3585 65.9832 30.9056 65.9832 31.5308ZM71.9225 31.3745V31.9997L72.0007 32.703C72.0788 33.0156 72.2351 33.2501 72.5477 33.4064C72.7822 33.5627 73.1729 33.6408 73.4855 33.4845C73.7981 33.4064 74.0325 33.1719 74.1888 32.9375C74.3451 32.703 74.4233 32.3123 74.3451 32.0778V31.3745C74.3451 30.7493 73.7981 30.2022 73.1729 30.2022C72.4696 30.2022 71.9225 30.7493 71.9225 31.3745ZM78.1744 31.4526V32.7812C78.3307 33.4064 79.0341 33.7971 79.5811 33.5627C80.1281 33.4064 80.5189 32.8593 80.4407 32.3123V31.9997V31.4526C80.4407 30.8274 79.9718 30.2804 79.2685 30.2804C78.7215 30.2804 78.0963 30.8274 78.1744 31.4526ZM84.8952 30.593C84.6608 30.8274 84.5045 31.14 84.5826 31.4526L84.6608 32.156V32.6249C84.6608 32.9375 84.8171 33.2501 84.9734 33.4845C85.2078 33.7189 85.5204 33.7971 85.833 33.7971C86.1456 33.7971 86.4582 33.6408 86.6926 33.4845C86.9271 33.2501 87.0052 33.0156 87.0052 32.6249V32.156L86.9271 31.3745C86.9271 31.0619 86.8489 30.7493 86.6145 30.5148C86.3801 30.2804 86.0675 30.2022 85.7549 30.2022C85.4423 30.2022 85.1297 30.3585 84.8952 30.593ZM91.069 31.6089L91.1471 33.4845C91.2253 33.7971 91.4597 34.0315 91.6942 34.1878C91.9286 34.3441 92.3194 34.4223 92.632 34.3441C92.9445 34.266 93.179 34.0315 93.3353 33.7971C93.4916 33.4845 93.4916 33.2501 93.4916 32.9375V32.4686V31.6089C93.4916 30.9837 92.9446 30.4367 92.3194 30.4367C91.616 30.4367 91.069 30.9056 91.069 31.6089ZM97.3209 31.6089V32.7812C97.3209 33.4064 97.8679 33.9534 98.4931 33.9534C99.1183 33.9534 99.6654 33.4064 99.6654 32.7812V32.703L99.7435 32.2341V31.6089C99.7435 30.9837 99.1965 30.4367 98.5713 30.4367C97.7898 30.4367 97.3209 30.9837 97.3209 31.6089ZM66.1395 38.7986V39.9709C66.1395 40.596 66.6865 41.1431 67.3117 41.1431C67.9369 41.1431 68.484 40.596 68.484 39.9709V38.7986C68.484 38.1734 67.9369 37.6264 67.3117 37.6264C66.6865 37.6264 66.1395 38.1734 66.1395 38.7986ZM72.0007 39.2675V40.4398C72.0007 41.0649 72.5477 41.612 73.1729 41.612C73.7981 41.612 74.3451 41.0649 74.3451 40.4398V39.2675C74.3451 38.6423 73.7981 38.0953 73.1729 38.0953C72.4696 38.0953 71.9225 38.6423 72.0007 39.2675ZM78.6433 38.8768V39.502L78.7215 40.3616C78.9559 40.9868 79.5029 41.3775 80.1281 41.1431C80.6752 40.9868 81.1441 40.3616 80.9878 39.7364V38.8768C80.9878 38.2516 80.4407 37.7045 79.8155 37.7045C79.1904 37.7045 78.6433 38.2516 78.6433 38.8768ZM84.8952 39.0331V39.8927C84.9734 40.2053 84.9734 40.5179 85.2078 40.7523C85.4423 40.9868 85.7549 41.0649 86.0675 41.0649C86.3801 41.0649 86.6926 40.9086 86.9271 40.7523C87.1615 40.5179 87.3178 40.2053 87.2397 39.8927V39.0331C87.2397 38.4079 86.6926 37.8608 86.0675 37.8608C85.4423 37.8608 84.8952 38.4079 84.8952 39.0331ZM91.8505 38.0953C91.616 38.2516 91.3816 38.486 91.3034 38.7986L91.1471 40.2053C91.1471 40.8305 91.6942 41.3775 92.3194 41.3775C92.9446 41.3775 93.4916 40.8305 93.4916 40.2053V39.5801V39.4238C93.5697 39.1112 93.5697 38.7986 93.3353 38.486C93.179 38.2516 92.9445 38.0171 92.632 37.939L92.3194 37.8608L91.8505 38.0953ZM97.3209 38.9549L97.399 39.8927L97.4772 40.2835C97.5553 40.596 97.7898 40.8305 98.0242 40.9868C98.2587 41.1431 98.6494 41.2212 98.962 41.1431C99.2746 41.0649 99.5091 40.8305 99.6654 40.596C99.8216 40.2835 99.8217 40.049 99.8217 39.6583L99.7435 39.3457V38.9549C99.7435 38.3297 99.1965 37.7827 98.5713 37.7827C97.8679 37.7827 97.3209 38.2516 97.3209 38.9549ZM110.372 36.5323V38.0953C110.372 38.7205 110.919 39.2675 111.544 39.2675C112.169 39.2675 112.716 38.7205 112.716 38.0953V36.5323C112.716 35.9071 112.169 35.3601 111.544 35.3601C110.919 35.3601 110.372 35.9071 110.372 36.5323ZM110.528 44.269V45.5976C110.528 46.2228 111.075 46.7698 111.7 46.7698C112.325 46.7698 112.873 46.2228 112.873 45.5976V44.269C112.873 43.6438 112.325 43.0968 111.7 43.0968C111.075 43.0968 110.528 43.6438 110.528 44.269ZM110.45 52.3184V53.4125L110.372 53.8032C110.372 54.4284 110.919 54.9754 111.544 54.9754C112.169 54.9754 112.716 54.5065 112.716 53.8814L112.794 53.2562V52.3184C112.794 51.6932 112.247 51.1461 111.622 51.1461C110.997 51.1461 110.45 51.6932 110.45 52.3184ZM110.45 58.6484V60.0551C110.45 60.3677 110.606 60.6803 110.762 60.9147C110.997 61.1492 111.31 61.2273 111.622 61.2273C111.935 61.2273 112.247 61.071 112.482 60.9147C112.716 60.6803 112.794 60.4459 112.794 60.0551V59.4299V58.6484C112.794 58.0232 112.247 57.4762 111.622 57.4762C110.997 57.4762 110.45 58.0232 110.45 58.6484ZM110.294 65.6037V67.2448C110.294 67.5574 110.606 67.7918 110.841 67.9481C111.075 68.1044 111.466 68.1826 111.778 68.0263C112.091 67.9481 112.325 67.7137 112.482 67.4793C112.638 67.1667 112.638 66.9322 112.638 66.6196V65.4474C112.638 64.8222 112.091 64.2751 111.466 64.2751C110.841 64.4314 110.294 64.9785 110.294 65.6037ZM44.1797 52.0839V52.7873L44.1015 53.4906C44.1015 54.1158 44.6486 54.6628 45.2738 54.6628C45.8989 54.6628 46.446 54.1158 46.446 53.4906L46.5241 52.7873V52.0839C46.5241 51.4587 45.9771 50.9117 45.3519 50.9117C44.6486 50.9117 44.1797 51.4587 44.1797 52.0839ZM53.6357 52.0058V53.4125C53.6357 54.0377 54.1827 54.5847 54.8079 54.5847C55.4331 54.5847 55.9801 54.0377 55.9801 53.4125V52.0058C55.9801 51.3806 55.4331 50.8335 54.8079 50.8335C54.1827 50.8335 53.5575 51.3806 53.6357 52.0058ZM45.1175 60.524C44.883 60.7584 44.8049 60.9929 44.8049 61.3055L44.6486 62.8685C44.6486 63.1811 44.8049 63.4937 44.9612 63.7281C45.1956 63.9626 45.5082 64.0407 45.8208 64.0407C46.1334 64.0407 46.446 63.8844 46.6804 63.7281C46.9149 63.4937 46.993 63.2592 46.993 62.8685L47.1493 61.3055C47.1493 60.9929 46.993 60.6803 46.8367 60.4459C46.6023 60.2114 46.2897 60.1333 45.9771 60.1333C45.6645 60.1333 45.3519 60.2896 45.1175 60.524ZM53.9483 61.3836L53.8701 62.5559C53.8701 63.1811 54.4172 63.7281 55.0424 63.7281C55.6675 63.7281 56.2146 63.1811 56.2146 62.5559L56.2927 61.3836C56.2927 60.7584 55.7457 60.2114 55.1205 60.2114C54.4172 60.2114 53.9483 60.7584 53.9483 61.3836ZM45.1175 70.8396C44.883 71.0741 44.8049 71.3085 44.8049 71.6993L44.7267 72.8715C44.7267 73.4967 45.2738 74.0437 45.8989 74.0437C46.5241 74.0437 47.0712 73.4967 47.0712 72.8715L47.1493 71.6993C47.1493 71.3867 46.993 71.0741 46.8367 70.8396C46.6023 70.6052 46.2897 70.5271 45.9771 70.5271C45.6645 70.5271 45.3519 70.6052 45.1175 70.8396ZM43.5545 34.6567C43.2419 34.7349 43.0074 34.9693 42.8511 35.2038C42.6948 35.4382 42.6167 35.829 42.773 36.1416C42.8511 36.4542 43.0856 36.6105 43.32 36.8449L43.0856 36.6886L43.8671 37.3919L44.2578 37.7045L44.6486 38.0171L45.1175 38.2516C45.43 38.3297 45.7426 38.2516 46.0552 38.0953C46.2897 37.939 46.5241 37.7045 46.6023 37.3919C46.6804 37.0793 46.6804 36.7668 46.5241 36.4542C46.446 36.2197 46.2897 36.1416 46.0552 36.0634L44.4923 34.7349L43.9452 34.5786L43.5545 34.6567ZM46.993 26.8418C46.446 27.1544 46.2115 27.9359 46.6023 28.483L47.3056 29.5771L48.009 30.7493L49.3375 32.8593C49.4938 33.0938 49.7282 33.3282 50.0408 33.4064C50.3534 33.4845 50.666 33.4845 50.9786 33.3282C51.5257 33.0156 51.7601 32.2341 51.3694 31.6871L50.0408 29.6552L49.3375 28.483L48.6342 27.3889C48.3997 26.9981 48.009 26.8418 47.6182 26.8418C47.3838 26.6856 47.2275 26.6856 46.993 26.8418ZM53.1668 26.92C52.6197 27.0763 52.1509 27.7796 52.3853 28.3267L52.6197 28.8737C52.6979 29.1863 52.8542 29.4208 53.1668 29.5771C53.4012 29.7334 53.792 29.8115 54.1046 29.6552C54.6516 29.4989 55.1205 28.7956 54.9642 28.2485L54.7298 27.7015C54.6516 27.3889 54.4953 27.1544 54.1827 26.9981L53.5575 26.8418L53.1668 26.92ZM113.341 10.1961L112.56 10.7432C111.935 11.1339 111.388 11.5247 110.919 11.9936C110.45 12.3843 110.528 13.2439 110.919 13.6347C111.153 13.8691 111.466 13.9473 111.778 13.9473C112.091 13.9473 112.404 13.791 112.638 13.6347L113.263 13.0877L114.123 12.4625L114.67 12.0717L114.826 11.9154C115.373 11.7591 115.764 11.0558 115.608 10.5087C115.451 9.9617 115.061 9.6491 114.514 9.6491H114.435C114.029 9.73142 113.651 9.92019 113.341 10.1961ZM115.608 15.2758L114.435 15.6666C114.123 15.8229 113.888 15.901 113.732 16.2136C113.576 16.4481 113.498 16.8388 113.654 17.1514C113.732 17.464 113.967 17.6984 114.201 17.8547C114.435 18.011 114.826 18.0892 115.139 18.011L116.311 17.6203C116.936 17.464 117.327 16.7606 117.093 16.2136C116.936 15.6666 116.467 15.354 115.92 15.354L115.608 15.2758ZM107.246 7.61723L106.933 8.32057L107.089 8.00798L106.621 9.18021C106.386 9.8054 106.855 10.4306 107.402 10.5869C107.715 10.665 108.027 10.665 108.34 10.4306C108.574 10.4306 108.731 10.1961 108.887 9.88355L109.121 9.18021L109.278 8.86761C109.59 8.32057 109.356 7.53908 108.887 7.22649L108.262 7.07019C107.871 7.07019 107.48 7.30464 107.246 7.61723ZM109.2 8.94576L109.121 9.18021V9.10206L109.2 8.94576Z"
        fill="#202124" />
      <path
        d="M75.5176 73.9267L75.4395 75.646L75.3613 77.2089V80.3349L75.4395 83.539L75.5176 86.8994L75.5958 88.5405C75.5958 88.8531 75.6739 89.1657 75.9084 89.4002C76.1428 89.6346 76.4554 89.7128 76.768 89.7128C77.3932 89.7128 78.0184 89.1657 77.9402 88.5405C77.8493 87.527 77.7971 86.5103 77.7839 85.4927V83.7734L77.7058 82.1323V79.0064L77.7839 75.8804L77.8621 74.0048C77.8621 73.3796 77.3151 72.8326 76.6899 72.8326C76.0647 72.7545 75.5958 73.3015 75.5176 73.9267Z"
        fill="#202124" />
      <path
        d="M86.2243 71.7384L84.6613 71.8165L83.0984 71.8947L81.6135 71.9728H79.9724L78.175 72.051L76.5339 72.3636C75.9087 72.5199 75.5179 73.2232 75.7524 73.7702C75.8305 74.0828 76.065 74.3173 76.2994 74.4736C76.612 74.6299 76.9246 74.6299 77.2372 74.6299L78.4094 74.3954L80.7539 74.3173L83.7235 74.161C85.2865 74.161 86.9277 74.0047 88.4906 74.0828L88.6469 76.6618L88.7251 78.381L88.8032 80.1785V81.6633L88.7251 83.3826V87.9152C88.7251 88.5404 89.2721 89.0874 89.8973 89.0874C90.5225 89.0874 91.0695 88.5404 91.0695 87.9152V84.6329L91.1477 81.2725V79.6314L91.0695 77.834L90.9914 76.271L90.9132 74.708C90.8351 73.6139 90.9132 72.051 89.5066 71.8165L88.0217 71.7384H86.2243Z"
        fill="#202124" />
    </g>
    <path
      d="M89.5031 91.377C100.544 91.377 111.589 91.375 122.63 91.3729L158 91.3689C158.5 91.3689 159 90.3862 159 89.5496C159 88.713 158.73 88.3378 157.5 88.3378L122.63 88.3418C91.1654 88.3519 59.7004 88.354 28.2268 88.3095C22.6202 88.3014 16.8671 88.1236 11.3035 87.9518C8.67245 87.869 4.63535 87.7867 1.99998 87.722C0.363647 87.6816 0.0989685 88.3196 0.00422668 89.1562C-0.0861969 89.9928 0.217239 91.3328 1.99998 91.3773C4.60089 91.4419 8.60776 91.5243 11.213 91.6051C16.8669 91.7809 22.3962 91.3346 28.2009 91.3426C48.6378 91.3689 69.0748 91.377 89.5031 91.377Z"
      fill="#202124" />
  </g>
  <defs>
    <clipPath id="clip0_205_10556">
      <rect width="173" height="91" fill="white" transform="translate(0 0.499023)" />
    </clipPath>
    <clipPath id="clip1_205_10556">
      <rect width="43.0687" height="50.0153" fill="white" transform="translate(119.481 43.4531)" />
    </clipPath>
    <clipPath id="clip2_205_10556">
      <rect width="44.458" height="55.5725" fill="white" transform="translate(-5.43555 46.9268)" />
    </clipPath>
    <clipPath id="clip3_205_10556">
      <rect width="89.8712" height="89.8712" fill="white" transform="translate(34.646 2.38155)" />
    </clipPath>
  </defs>
</svg>
