<svg width="25" height="25" viewBox="0 0 25 25" fill="none" xmlns="http://www.w3.org/2000/svg">
  <path opacity="0.3"
    d="M4.62109 5.5C4.62109 4.94772 5.06881 4.5 5.62109 4.5H19.3789C19.9312 4.5 20.3789 4.94772 20.3789 5.5V19.5C20.3789 20.6046 19.4835 21.5 18.3789 21.5H6.6211C5.51653 21.5 4.62109 20.6046 4.62109 19.5V5.5Z"
    fill="#46A78B" />
  <path fill-rule="evenodd" clip-rule="evenodd"
    d="M7.5 7.5H9.5C9.5 9.15685 10.8431 10.5 12.5 10.5C14.1569 10.5 15.5 9.15685 15.5 7.5H17.5C17.5 10.2614 15.2614 12.5 12.5 12.5C9.73858 12.5 7.5 10.2614 7.5 7.5Z"
    fill="#46A78B" />
</svg>
