<svg width="40" height="44" viewBox="0 0 40 44" fill="none" xmlns="http://www.w3.org/2000/svg">
<path d="M15.0384 25.158C14.1016 26.2998 13.917 27.6903 14.645 28.4729C14.6895 28.5206 15.2549 28.3753 15.3249 28.2324C15.6935 27.4804 15.9659 26.6956 16.3076 25.9336C16.3817 25.7684 16.6036 25.65 16.7572 25.5101C16.883 25.7321 17.1483 25.9765 17.1042 26.1717C17.0225 26.5341 16.7539 26.8655 16.5743 27.2138C15.1751 29.9266 13.1721 32.3624 11.5401 34.9681C11.2705 35.3986 11.1222 35.8848 10.8335 36.3042C10.5506 36.7152 10.7939 37.6967 9.48958 37.2C9.31529 37.1337 8.62061 38.0574 8.14851 38.509C7.63967 38.9957 7.10935 39.4663 6.58847 39.9439C6.47079 39.3042 6.29774 38.6676 6.24573 38.0242C6.07069 35.8612 6.85413 33.8199 7.38084 31.7388C7.83122 29.959 8.01184 28.1426 8.71533 26.3923C9.25011 25.0614 8.11723 24.0193 7.24094 23.0692C6.59381 22.3676 5.61237 21.8846 4.7871 21.2972C4.5747 21.1459 4.31327 20.9963 4.20614 20.7962C3.85917 20.1479 2.34953 21.2415 2.43307 19.9081C2.47007 19.3192 2.173 18.7174 2.04626 18.1187C1.85881 17.2334 2.23768 16.8881 3.24419 16.695C5.54732 16.2532 7.87677 16.4033 10.1999 16.3416C11.2631 16.3134 12.4078 16.2918 13.3514 15.9487C14.051 15.6945 14.8228 14.9851 14.973 14.376C15.3659 12.7823 16.3098 11.422 17.1513 10.0191C18.299 8.10543 19.0126 6.07821 19.6478 4.02163C19.7137 3.8082 19.7151 3.57396 19.822 3.37844C19.9041 3.22852 20.1052 3.12441 20.2535 3C20.3317 3.13493 20.398 3.27589 20.4897 3.40394C21.5405 4.87012 22.0615 6.48986 22.6277 8.12167C23.2939 10.0416 24.2811 11.8837 25.1583 13.7497C25.2504 13.9456 25.5393 14.076 25.7369 14.2369C25.7224 13.995 25.6705 13.7495 25.7037 13.5126C25.736 13.2832 25.8525 13.0616 25.9389 12.8385C25.9787 12.7356 26.0352 12.6374 26.0842 12.5371C26.175 12.6464 26.3157 12.746 26.3486 12.8665C26.6416 13.9401 26.8877 15.0235 27.2171 16.0889C27.2874 16.3162 27.6401 16.4821 27.8625 16.6763C27.9195 16.4614 28.085 16.2165 28.0146 16.0367C27.6921 15.2114 28.6421 15.2526 29.0444 15.0249C29.7308 14.6364 30.6133 14.4925 31.2999 14.1043C31.9268 13.7498 31.6681 14.2709 31.8243 14.3391C32.2075 14.5062 32.7234 14.6525 33.1173 14.5717C34.2463 14.3401 35.3308 13.9586 36.4553 13.7072C36.8471 13.6196 37.4453 13.6103 37.6941 13.8006C37.9577 14.0022 38.0252 14.4907 37.9923 14.8415C37.8171 16.7156 36.4665 17.9938 34.9162 19.2327C32.1634 21.4324 29.4942 23.7088 27.497 26.4665C27.3444 26.6774 26.9741 26.7945 26.6802 26.9114C26.3865 27.0283 25.8577 27.6496 25.9253 26.7074C25.9447 26.4385 25.8193 26.1623 25.7604 25.8894L25.1675 26.0957C25.4035 25.7147 24.3688 25.4941 25.0428 24.9625C25.402 24.6794 25.3693 24.0442 25.4976 23.565C25.5005 23.554 25.2506 23.4593 25.2233 23.4843C24.7749 23.8951 24.0918 24.1736 24.25 24.9073C24.4604 25.8829 23.7478 27.0298 25.0682 27.8078C25.2017 27.8865 25.2149 28.3629 25.0791 28.4683C24.3143 29.0612 24.7777 29.795 24.6929 30.454C24.4949 31.9917 24.5659 33.4446 26.8125 33.9624C27.6121 34.1467 26.8272 34.4529 26.7821 34.4567C26.3591 34.493 25.8711 34.586 25.5131 34.4524C24.5221 34.0825 24.3295 34.1141 24.2687 34.9496C24.2263 35.534 24.285 36.1236 24.2497 36.7088C24.2335 36.977 24.1627 37.2727 23.9992 37.4949C23.879 37.6584 23.5681 37.7229 23.3423 37.8316C23.2292 37.6575 23.0633 37.4937 23.0117 37.3077C22.7144 36.2349 22.4371 35.158 22.1704 34.0796C22.1154 33.8571 22.2247 33.5774 22.1019 33.4008C21.7279 32.8627 21.2776 32.362 20.8571 31.8468C19.836 32.398 21.4474 32.8906 20.8023 33.519C20.4878 33.7378 20.2695 33.8606 20.0795 34.009C20.0546 34.0285 20.176 34.18 20.2296 34.2703C20.4131 34.1434 20.6097 34.0274 20.7742 33.8849C20.8508 33.8186 20.8647 33.7013 20.9071 33.6071C21.6082 34.6922 21.7733 35.8705 21.741 37.078C21.7272 37.5953 21.57 38.1645 22.5942 38.0351C22.6414 38.029 22.8225 38.3483 22.8105 38.5093C22.7638 39.1275 22.6918 39.7468 22.5694 40.3572C22.524 40.5836 22.3132 40.7865 22.1779 41C21.9095 40.837 21.4175 40.682 21.4087 40.5097C21.3448 39.2569 20.4501 38.2496 20.0743 37.0977C19.1643 34.3078 18.2835 31.5113 17.3905 28.7177C17.3063 28.4543 17.1709 28.1941 17.1501 27.9274C17.1338 27.7189 17.2584 27.5028 17.3203 27.29C17.5586 27.3596 17.8463 27.3803 18.0251 27.5082C18.4471 27.8108 18.6613 28.333 18.8727 27.3235C19.094 26.2671 19.0966 25.3348 18.9463 24.2543C18.7638 22.943 17.8987 21.6151 18.7294 20.1339C19.1864 19.3191 18.7936 18.1744 18.8291 17.1795C18.8348 17.0196 19.0778 16.8656 19.211 16.7089C19.3572 16.8548 19.6432 17.0121 19.6278 17.1449C19.4839 18.3846 19.7347 19.6085 19.334 20.8894C19.0034 21.9458 19.5736 23.2047 19.7676 24.3711C19.8307 24.7501 19.9712 25.1196 20.0668 25.4953C20.122 25.712 20.1583 25.9323 20.2032 26.151C20.3509 25.9516 20.5446 25.7659 20.6356 25.5496C20.7654 25.2411 20.9459 24.8923 20.8845 24.5924C20.6625 23.51 20.2639 22.4494 20.1055 21.3629C20.0306 20.8477 20.4458 20.2954 20.4697 19.7547C20.5448 18.06 20.1692 16.4168 19.7064 14.7638C19.4733 13.9308 19.4559 12.9763 20.0483 12.1C20.8502 10.9138 20.9509 9.65177 20.7915 8.25025C20.6742 7.21883 20.9308 6.13911 20.482 5.10926C20.4316 4.99349 20.2998 4.90271 20.2057 4.80037C20.16 4.90156 20.0683 5.00578 20.0771 5.10353C20.1076 5.43814 20.1575 5.77317 20.236 6.10205C20.2592 6.1996 20.4934 6.33411 20.4746 6.35587C19.5075 7.47078 20.3062 8.75601 19.9764 9.93401C19.6752 11.0093 19.4556 12.1016 19.2364 13.1916C19.059 14.0732 19.2038 15.0834 18.7312 15.8227C17.7957 17.2859 17.9953 18.7943 17.9865 20.3091C17.9817 21.1241 17.9025 21.8797 17.1732 22.4933C16.9896 22.6478 16.7298 22.8566 16.737 23.0338C16.7886 24.2843 15.905 25.2089 15.1433 26.2141C15.0384 25.9208 15.0384 25.6274 15.1433 25.246C15.6417 24.1232 16.0314 23.0875 16.4303 22.0541C16.8407 20.9903 17.2687 19.9294 17.1282 18.7848C17.1158 18.6842 17.0151 18.5913 16.9555 18.4949C16.8754 18.567 16.755 18.6279 16.7214 18.7129C16.2928 19.7948 15.9979 20.928 15.4244 21.9514C14.8263 23.0186 15.1645 24.0923 15.0384 25.158V25.158ZM24.6797 14.7726L24.2913 14.7469C24.4208 14.8141 24.5503 14.8814 24.6797 15.1247L25.0683 15.1505C24.9387 15.0833 24.8093 15.0159 24.6797 14.7726V14.7726ZM31.5963 18.8212L31.5657 19.1474C31.6457 19.0387 31.7258 18.9299 32.0155 18.8212L32.0462 18.4949C31.9661 18.6036 31.8861 18.7124 31.5963 18.8212ZM23.003 16.5329L22.8885 16.0847L22.6146 16.1551C22.744 16.3397 22.8735 16.5243 23.003 16.8849C23.003 17.7475 22.9932 18.6102 23.0139 19.4724C23.0169 19.5992 23.1651 19.7235 23.2463 19.849C23.2947 19.8084 23.3893 19.7636 23.3848 19.7277C23.2593 18.7213 23.8551 17.6494 23.003 16.5329V16.5329ZM21.955 22.3416C22.864 21.7981 22.8291 20.963 22.4317 20.3314C21.6902 19.1532 21.8051 17.934 21.7315 16.6985C21.654 15.3964 21.4714 14.0986 21.3135 12.8007C21.3035 12.72 21.0473 12.576 21.0098 12.5965C20.8379 12.69 20.5683 12.8378 20.5759 12.955C20.6603 14.2481 20.5466 15.598 20.9642 16.817C21.5908 18.6461 21.0432 20.5501 21.5358 22.3416L21.5051 22.6679C21.5852 22.5591 21.6653 22.4504 21.955 22.3416V22.3416ZM10.6371 24.806C10.7069 25.2505 10.9352 25.7268 10.8193 26.1343C10.3031 27.9517 9.98042 29.7801 10.0018 31.6509C10.0049 31.9283 9.91252 32.206 9.87925 32.4847C9.77857 33.33 9.67181 34.1753 9.60565 35.0227C9.59721 35.1311 9.81532 35.2521 9.92853 35.3673C10.0949 35.2382 10.3763 35.1261 10.4078 34.9769C10.5594 34.259 10.4916 33.484 10.7846 32.8169C11.3262 31.5837 11.7517 30.3351 12.1829 29.0761C12.5099 28.1209 12.3834 27.4397 11.9763 26.5803C11.6285 25.846 10.6835 25.0644 11.658 24.1392C11.7696 24.0334 11.5699 23.4662 11.4116 23.43C10.7431 23.2772 10.9046 23.7447 10.8304 24.07C10.7716 24.3274 10.5672 24.5615 10.2178 24.806L10.0502 25.3692L10.324 25.4207C10.3585 25.2158 10.3929 25.0108 10.6371 24.806V24.806ZM36.2074 17.0609C36.3547 16.8199 36.5863 16.5887 36.6285 16.3353C36.6845 15.9995 36.7284 15.4242 36.5384 15.3422C35.9537 15.0895 35.6663 15.4335 35.4288 15.9276C34.952 16.9199 34.1924 17.7564 33.2605 18.5166C32.4015 19.2174 31.7237 20.0751 30.9681 20.8651C30.7378 21.1059 30.5143 21.3513 30.2877 21.5946C30.0951 21.3108 29.8893 21.0326 29.7156 20.7409C29.6302 20.5975 29.6043 20.4292 29.5515 20.2722C29.3545 20.409 29.0875 20.5154 28.9799 20.6907C28.8652 20.8775 28.8299 21.1427 28.884 21.3508C29.1264 22.2819 28.4942 22.8327 27.81 23.4499C27.2447 23.96 26.8792 24.6331 26.4831 25.2599C26.43 25.344 26.7074 25.586 26.8592 25.7351C26.875 25.7507 27.1121 25.6537 27.1899 25.5714C29.9447 22.658 32.7806 19.8056 36.2074 17.0609V17.0609ZM17.1344 11.2522C16.9947 11.9031 16.7996 12.5499 16.7283 13.2061C16.6252 14.1559 16.9154 15.032 15.6231 15.8195C14.517 16.4936 15.0817 17.943 15.0574 19.0617C15.0542 19.2142 15.3074 19.3706 15.442 19.5253C15.5869 19.3795 15.8328 19.2463 15.8613 19.0859C16.1892 17.245 18.0309 15.7422 17.5676 13.7226C17.5526 13.6572 17.8128 13.5674 17.8308 13.4736C18.0309 12.4321 18.2228 11.389 18.3795 10.3424C18.4101 10.1379 18.2798 9.91642 18.2237 9.70278C18.0004 9.89341 17.7147 10.0561 17.5708 10.2824C17.4231 10.5146 17.4138 10.8089 17.1344 11.2522V11.2522ZM12.3137 21.9896C12.5234 21.8379 12.8982 21.6978 12.9145 21.5325C12.993 20.7418 12.7487 19.92 13.746 19.3299C14.0441 19.1535 14.0858 18.6424 14.1852 18.2732C14.2228 18.1335 14.0917 17.9617 14.0376 17.8046C13.9388 17.8611 13.8287 17.9079 13.7433 17.9763C13.4904 18.1784 13.1022 18.3572 13.0256 18.6023C12.708 19.6168 12.3128 20.1148 11.0661 19.243C10.7326 19.0097 9.9438 19.2983 9.45283 19.1456C8.79192 18.9399 7.70497 19.8133 7.44986 18.6088C7.32448 18.6481 7.10588 18.6682 7.088 18.7296C6.84804 19.5528 7.78044 20.313 8.72166 20.0777C10.3847 19.6619 11.4775 19.8311 11.9797 20.6821C12.1862 21.0322 12.4926 21.5973 11.4978 21.6571C11.27 21.6707 11.0632 21.9293 10.8467 22.0753C11.0188 22.25 11.2108 22.5789 11.3588 22.5655C11.6213 22.5419 11.8573 22.3102 12.3137 21.9896V21.9896ZM12.5234 24.2779C11.9989 24.8843 12.2273 25.4948 12.5305 26.0945C12.6179 26.2675 12.7914 26.4098 12.9253 26.5661C13.0708 26.4195 13.3513 26.2643 13.3393 26.1272C13.2727 25.3627 13.7543 24.743 13.9722 24.0584C14.3655 22.8223 14.4261 21.5111 14.6111 20.2299C14.6247 20.136 14.5214 20.0302 14.4725 19.93C14.3244 20.0192 14.1069 20.0825 14.0427 20.2032C13.9117 20.4495 13.9239 20.7552 13.7701 20.9862C13.2054 21.8339 13.8764 23.2431 12.1292 23.5527C12.2606 23.677 12.392 23.8014 12.5234 24.2779V24.2779ZM8.54104 32.5509C8.40275 32.5509 8.14864 32.5301 8.14255 32.5539C7.77337 33.9967 7.41275 35.4412 7.08986 36.8916C7.052 37.0621 7.23262 37.2667 7.31207 37.4556C7.50771 37.2913 7.83345 37.1487 7.87839 36.9591C8.21108 35.5552 9.0726 34.2248 8.54104 32.5509ZM28.8716 17.9411L27.8782 17.0609C27.6505 17.3825 27.41 17.6985 27.1991 18.0277C27.0351 18.2836 26.9079 18.5561 26.7644 18.8212C26.6283 18.5497 26.5203 18.2644 26.3442 18.0129C26.2626 17.8964 26.0419 17.7761 25.8959 17.7854C25.762 17.7941 25.5583 17.9617 25.5326 18.0814C25.4087 18.6583 26.1403 19.4422 26.9214 19.5124C27.5106 19.5653 28.2409 19.684 28.0687 18.7718C28.0333 18.5846 28.4524 18.3369 28.8716 17.9411V17.9411ZM7.70273 20.9334L6.83985 20.602C6.77815 20.7563 6.60597 20.9846 6.67152 21.0539C7.47184 21.8971 8.30257 22.7204 9.1477 23.5327C9.18767 23.5711 9.573 23.4285 9.5694 23.4157C9.44936 22.9922 9.37065 22.5446 9.13951 22.1631C8.87236 21.7224 8.46718 21.3408 7.70273 20.9334V20.9334ZM31.3868 16.5329L33.0105 15.4322C32.217 14.9917 31.6846 15.6245 31.0377 15.779C30.9214 15.8068 30.8447 15.9368 30.7356 16.0032C30.3047 16.2654 29.3703 15.4864 29.365 16.4552C29.3646 16.5378 30.4104 16.6252 30.9708 16.7076C31.0377 16.7174 31.1082 16.7089 31.3868 16.5329V16.5329ZM12.3137 32.5509C12.7962 31.7936 13.4123 31.0718 13.7154 30.2669C13.9255 29.7087 13.7046 29.0359 13.676 28.4144C13.4316 28.9066 13.1461 29.3878 12.9519 29.8937C12.6377 30.7122 12.3836 31.547 12.3137 32.5509V32.5509ZM25.3085 21.6375C25.3784 21.1983 25.5581 20.7457 25.4861 20.3234C25.419 19.9294 25.0845 19.5675 24.8677 19.1914C24.6653 19.5847 24.4337 19.9696 24.2729 20.3744C24.1925 20.577 24.786 21.5137 25.3085 21.6375V21.6375ZM18.8111 29.9106L19.3826 31.7988C19.4716 31.1661 19.5808 30.5348 19.6422 29.9003C19.6813 29.4971 19.6742 29.0874 19.6349 28.6844C19.6226 28.5589 19.4369 28.4454 19.3305 28.3264C19.1575 28.4472 18.8779 28.5459 18.8342 28.6937C18.7536 28.9668 18.8111 29.2687 18.8111 29.9106V29.9106ZM6.44509 17.413C6.10595 17.413 5.75128 17.3594 5.43101 17.4248C4.85997 17.5413 4.09106 17.0343 3.72038 17.7915C4.31054 17.9001 4.90367 18.0992 5.4896 18.0853C5.88324 18.076 6.2667 17.765 6.44509 17.413ZM23.003 15.4767C23.003 14.7337 23.0263 13.9896 22.9826 13.2483C22.9742 13.1054 22.703 12.9734 22.553 12.8364C22.4235 12.9907 22.1594 13.1648 22.1867 13.296C22.3519 14.087 22.5838 14.8683 23.003 15.4767ZM20.9071 27.0942L20.5848 26.5661C20.4127 26.688 20.0794 26.8297 20.0967 26.9281C20.171 27.3513 20.404 27.7553 20.4746 28.1786C20.5768 28.7927 20.5886 29.4174 20.639 30.0376C20.7284 29.4057 20.8261 28.7745 20.9026 28.1415C20.9303 27.9121 20.9071 27.6781 20.9071 27.0942V27.0942ZM10.637 18.117C11.3776 18.0819 12.1225 18.0744 12.8551 17.9903C13.0192 17.9715 13.2865 17.6492 13.2456 17.529C13.186 17.3537 12.8248 17.0813 12.7064 17.1172C11.9296 17.3517 11.1836 17.6581 10.637 18.117ZM6.65476 20.0534C6.6488 19.1523 5.61337 19.1956 5.02706 18.8394C4.86978 18.744 4.52008 18.8719 4.25865 18.8973C4.42139 19.1005 4.53188 19.3733 4.75743 19.4934C5.29086 19.7773 5.87915 19.9887 6.65476 20.0534ZM22.5838 27.0942C22.5838 27.3821 22.5729 27.6702 22.5897 27.9574C22.5957 28.0591 22.6694 28.158 22.7123 28.2582C22.8092 28.2222 22.978 28.2 22.992 28.1483C23.1491 27.5671 23.2925 26.9826 23.3986 26.3938C23.4055 26.3559 22.9717 26.1874 22.9195 26.2305C22.7609 26.3613 22.6893 26.5661 22.5838 27.0942ZM30.1291 18.2932C30.5309 18.2345 30.985 18.254 31.3201 18.0959C31.68 17.926 32.2395 17.4744 32.1717 17.3447C31.8601 16.7482 31.5821 17.7632 31.0922 17.4491C30.9835 17.3793 30.4611 17.765 30.1291 18.2932ZM26.7757 22.1656C26.8233 22.2056 26.8647 22.2555 26.9212 22.2822C26.9559 22.2987 27.0434 22.2947 27.0575 22.2751C27.2515 22.0035 27.4687 21.7391 27.6147 21.4496C27.7452 21.191 27.7947 20.9034 27.8799 20.6287C27.5528 20.7545 27.1369 20.8172 26.9259 21.026C26.7507 21.1993 26.8166 21.5445 26.7757 22.1656V22.1656ZM24.2605 23.2217C24.1284 22.8761 24.0116 22.5251 23.848 22.1903C23.8228 22.1389 23.5815 22.162 23.4402 22.1505C23.6395 22.5677 22.8646 23.3215 24.2605 23.2217ZM24.2605 15.8288C24.2605 15.9455 24.2065 16.0921 24.2704 16.1734C24.4893 16.4523 24.7496 16.7082 24.9941 16.973C24.9669 16.6567 24.9813 16.3319 24.8941 16.0278C24.8524 15.8826 24.6175 15.7765 24.2605 15.8288ZM21.955 31.1427C22.4902 30.8639 22.6241 30.5299 22.1663 30.1057C22.0624 30.0093 21.9801 29.8963 21.8879 29.791C21.8404 30.1246 21.7917 30.458 21.7465 30.7917C21.7387 30.8494 21.7455 30.9083 21.955 31.1427ZM8.75071 28.8545C8.75071 28.9698 8.73395 29.0873 8.75468 29.1999C8.78398 29.3593 8.84096 29.515 8.88614 29.6724C8.98074 29.6313 9.16148 29.5815 9.15701 29.5508C9.08216 29.0432 8.98409 28.5381 8.89123 28.0323C8.84443 28.1313 8.78956 28.2284 8.75406 28.3302C8.73544 28.3833 8.75071 28.4447 8.75071 28.8545V28.8545ZM8.54104 30.0866C8.47127 30.5148 8.38102 30.9417 8.34279 31.3718C8.33 31.5166 8.44893 31.6696 8.50777 31.8188C8.58871 31.6394 8.71918 31.464 8.73991 31.2798C8.77777 30.9434 8.75071 30.602 8.54104 30.0866ZM21.955 24.1019C21.9074 24.2964 21.7641 24.5225 21.8364 24.6777C21.9241 24.8661 22.1935 24.9949 22.3844 25.1494C22.451 24.946 22.5603 24.7437 22.5691 24.5385C22.5753 24.3951 22.4441 24.2475 21.955 24.1019ZM24.051 33.9591C24.049 33.7244 24.0518 33.4893 24.0278 33.2562C24.0268 33.2464 23.6561 33.2464 23.655 33.2562C23.6308 33.4893 23.6337 33.7244 24.051 33.9591ZM21.3263 10.5482L21.5698 11.7518C21.6057 11.3315 21.6454 10.9114 21.6709 10.4907C21.6731 10.4532 21.583 10.4118 21.3263 10.5482ZM22.3742 31.4948C22.3044 31.7467 22.2151 31.9966 22.1757 32.2519C22.1631 32.3345 22.281 32.4313 22.3392 32.5215C22.4208 32.4038 22.5412 32.293 22.574 32.1663C22.6149 32.0081 22.5838 31.8366 22.3742 31.4948V31.4948ZM10.637 21.2855L10.6689 20.6083L10.0173 20.7649L10.637 21.2855ZM8.75071 17.237C8.45067 17.1783 8.15311 17.1034 7.84922 17.0703C7.7509 17.0596 7.63558 17.1587 7.52807 17.2076C7.66835 17.276 7.80018 17.3771 7.95113 17.4047C8.13958 17.4392 8.34378 17.413 8.75071 17.237ZM33.6923 16.3568L33.1623 16.4499C33.1869 16.5259 33.227 16.6693 33.2338 16.6681C33.4585 16.6316 33.68 16.5812 33.6923 16.3568ZM29.5004 19.1732L29.3327 19.3845C29.4586 19.3727 29.5842 19.3609 29.5004 19.1732ZM36.8362 14.4206L37.0877 14.5615C37.0737 14.4558 37.0598 14.3502 36.8362 14.4206Z" fill="#FFC800" stroke="#FFC800" stroke-width="3"/>
</svg>
