<svg width="25" height="25" viewBox="0 0 25 25" fill="none" xmlns="http://www.w3.org/2000/svg">
<path fill-rule="evenodd" clip-rule="evenodd" d="M5.44727 8.49902C4.3427 8.49902 3.44727 9.39445 3.44727 10.499V18.499C3.44727 19.6036 4.3427 20.499 5.44727 20.499H19.1002C20.2047 20.499 21.1002 19.6036 21.1002 18.499V10.499C21.1002 9.39445 20.2047 8.49902 19.1002 8.49902H5.44727ZM10.7734 10.499C10.4973 10.499 10.2734 10.7229 10.2734 10.999V11.999C10.2734 12.2752 10.4973 12.499 10.7734 12.499H13.7734C14.0496 12.499 14.2734 12.2752 14.2734 11.999V10.999C14.2734 10.7229 14.0496 10.499 13.7734 10.499H10.7734Z" fill="#404145"/>
<path opacity="0.3" d="M10.2734 8.49902H8.27344V7.49902C8.27344 5.84217 9.61658 4.49902 11.2734 4.49902H13.2734C14.9303 4.49902 16.2734 5.84217 16.2734 7.49902V8.49902H14.2734V7.49902C14.2734 6.94674 13.8257 6.49902 13.2734 6.49902H11.2734C10.7212 6.49902 10.2734 6.94674 10.2734 7.49902V8.49902Z" fill="#404145"/>
</svg>
