<svg width="129" height="129" viewBox="0 0 129 129" fill="none" xmlns="http://www.w3.org/2000/svg">
<g clip-path="url(#clip0_164_8319)">
<path d="M98.5121 86.9696C104.115 100.793 107.192 128.5 72.9975 128.5C56.204 128.5 22.6169 102.995 22.6169 81.151C22.6169 59.3073 31.276 55.2134 45.0289 55.2134C58.7819 55.2134 80.6844 60.0702 98.5121 86.9696Z" fill="#B0A4E2"/>
<path d="M39.6979 107.412C39.1042 107.412 38.5134 107.171 38.0806 106.696C36.9371 105.441 35.8199 104.153 34.7027 102.865C32.3747 100.18 29.9648 97.4038 27.3648 95.0283C17.1521 85.7004 13.4963 73.9588 15.5114 56.9593C15.643 55.8482 16.5789 55.0112 17.6902 55.0112H102.606C103.296 55.0112 103.946 55.3384 104.361 55.8954C104.776 56.4524 104.908 57.1715 104.712 57.8405C104.136 59.8387 103.519 61.7574 102.916 63.6288C101.659 67.525 100.474 71.209 99.9127 74.8901C98.6024 83.4606 93.9172 89.8913 89.387 96.1129C87.4538 98.7713 85.4505 101.521 83.801 104.347C83.1868 105.397 81.8415 105.753 80.8003 105.131C79.7563 104.512 79.4053 103.157 80.0195 102.105C81.783 99.0866 83.8536 96.2455 85.8512 93.4987C90.2644 87.4422 94.429 81.7188 95.5755 74.2181C96.1926 70.1805 97.4297 66.3344 98.7428 62.2643C99.0441 61.333 99.3453 60.3899 99.6465 59.432H19.6614C18.3249 73.8144 21.6472 83.8378 30.3128 91.754C33.1029 94.3033 35.5947 97.1768 38.0046 99.959C39.0984 101.22 40.1922 102.479 41.3123 103.711C42.1312 104.61 42.0727 106.007 41.1778 106.835C40.7595 107.221 40.2273 107.412 39.6979 107.412Z" fill="#202124"/>
<path d="M58.9326 125.294C52.1299 125.294 45.4326 125.262 38.6767 125.147C25.2177 124.923 15.584 119.409 9.223 108.286C8.83111 107.602 8.83403 106.759 9.223 106.076C9.6149 105.395 10.3373 104.97 11.1211 104.97C14.499 104.97 17.8798 104.994 21.2607 105.018C28.8939 105.074 36.7933 105.124 44.5318 104.894C48.8339 104.767 53.2354 104.402 57.4907 104.045C62.875 103.597 68.4434 103.134 73.968 103.134C73.9972 103.134 74.0265 103.134 74.0557 103.134C81.2122 103.14 88.4419 103.721 95.4375 104.281C98.4996 104.525 101.565 104.773 104.63 104.973C105.837 105.053 106.756 106.105 106.674 107.322C106.668 107.443 106.65 107.561 106.624 107.676C106.788 108.392 106.589 109.173 106.036 109.733L91.3139 124.572C90.9015 124.988 90.3458 125.221 89.7638 125.221C84.4352 125.221 79.1943 125.238 74.0148 125.259C68.8879 125.277 63.881 125.294 58.9326 125.294ZM15.1687 109.403C20.6553 116.933 28.2417 120.552 38.7499 120.726C50.3781 120.924 61.8513 120.882 73.9972 120.838C78.8872 120.82 83.8298 120.803 88.8542 120.8L100.45 109.111C98.6634 108.979 96.8735 108.834 95.0895 108.69C88.1816 108.136 81.0368 107.561 74.0528 107.555C74.0265 107.555 73.9972 107.555 73.9709 107.555C68.6277 107.555 63.1528 108.009 57.8534 108.451C53.5396 108.811 49.0825 109.182 44.6634 109.312C36.8489 109.544 28.9085 109.488 21.2344 109.435C19.2105 109.427 17.1896 109.412 15.1687 109.403Z" fill="#202124"/>
<path d="M94.2476 90.6012C94.0458 90.6012 93.8411 90.5982 93.6363 90.5953C92.4255 90.5658 91.4663 89.552 91.4955 88.3318C91.5248 87.1117 92.6244 86.2393 93.7416 86.1745C102.328 86.4545 108.294 81.1407 114.541 74.7865C114.822 74.3768 114.775 72.526 114.749 71.4179C114.74 71.0701 114.732 70.7194 114.726 70.3686L101.293 68.8155C100.088 68.677 99.2253 67.5806 99.3627 66.3663C99.5031 65.155 100.609 64.2827 101.79 64.4212L117.223 66.2072C118.402 66.3428 119.262 67.4038 119.156 68.6003C119.08 69.4668 119.107 70.3981 119.13 71.3059C119.192 73.7432 119.253 76.263 117.653 77.8928C111.067 84.5948 104.311 90.5982 94.2476 90.6012Z" fill="#202124"/>
<path d="M57.9849 44.6574C56.8501 44.6574 55.8908 43.9713 55.8002 43.0696C55.7066 42.1174 55.4755 41.1009 55.2299 40.0271C54.6333 37.4113 54.0162 34.7061 55.2972 32.3519C58.134 27.1411 56.8296 22.6163 54.0074 17.4261C53.5307 16.5518 54.0483 15.5423 55.1626 15.1683C56.2798 14.7919 57.5666 15.1981 58.0404 16.0746C60.8685 21.2671 62.9801 26.9965 59.3302 33.7034C58.5639 35.1122 59.064 37.3012 59.5466 39.4213C59.801 40.5319 60.0643 41.6791 60.1754 42.8034C60.269 43.7511 59.3682 44.5794 58.1603 44.6528C58.0989 44.6574 58.0404 44.6574 57.9849 44.6574Z" fill="#202124"/>
<path d="M78.4765 47.0632C78.1051 47.0632 77.7307 46.9898 77.3856 46.8337C70.8462 43.8784 69.5623 39.466 73.5749 33.7183C76.403 29.657 75.8707 26.027 71.9429 22.6197C71.1328 21.913 71.2001 20.8254 72.1009 20.1875C73.0016 19.5542 74.3821 19.607 75.201 20.3114C80.3804 24.8109 81.1525 30.0172 77.4266 35.3703C74.5605 39.4798 75.1629 41.8592 79.5732 43.8532C80.6232 44.3281 80.9829 45.379 80.3804 46.2027C79.971 46.7557 79.234 47.0632 78.4765 47.0632Z" fill="#202124"/>
<path d="M39.192 46.9683C38.0573 46.9683 37.098 46.2822 37.0073 45.3804C36.9079 44.3823 36.7324 43.375 36.5599 42.3677C36.1446 39.9516 35.7147 37.4506 36.2353 34.9794L36.4897 33.8C37.525 29.1123 37.952 26.1042 33.8692 23.4701C32.9363 22.8666 32.8018 21.7813 33.5739 21.0494C34.343 20.3151 35.7264 20.2096 36.6622 20.813C42.9209 24.856 41.8008 29.92 40.8152 34.3897L40.5637 35.5393C40.1513 37.5034 40.5198 39.6419 40.9088 41.9065C41.093 42.9781 41.2773 44.0519 41.3826 45.112C41.4762 46.0596 40.5724 46.8879 39.3675 46.9614C39.3061 46.9683 39.2476 46.9683 39.192 46.9683Z" fill="#202124"/>
</g>
<defs>
<clipPath id="clip0_164_8319">
<rect width="128" height="128" fill="white" transform="translate(0.0478516 0.499023)"/>
</clipPath>
</defs>
</svg>
