<svg width="129" height="129" viewBox="0 0 129 129" fill="none" xmlns="http://www.w3.org/2000/svg">
<path fill-rule="evenodd" clip-rule="evenodd" d="M53.8182 44.8656C53.713 44.9715 53.5752 45.0314 53.5118 44.9987C53.1935 44.8341 52.0361 44.8266 51.6782 44.9867C51.4034 45.1098 51.1157 45.1287 50.772 45.0463C50.1388 44.8944 46.5047 45.0288 46.2381 45.2138C46.1054 45.306 46.0192 45.2996 45.9772 45.1943C45.9048 45.0123 43.1777 45.2926 43.1777 45.482C43.1777 45.5427 43.0224 45.5583 42.8326 45.5168C42.4223 45.427 41.2171 45.7222 40.8049 46.0132C40.5814 46.171 40.4226 46.185 40.1276 46.0726C39.6808 45.9023 38.8049 46.002 38.9557 46.206C39.0183 46.2909 38.9216 46.3081 38.7052 46.2507C38.4295 46.1775 38.3742 46.2046 38.4523 46.375C38.5114 46.5038 38.464 46.5929 38.3363 46.5929C38.2078 46.5929 38.2511 46.6758 38.4433 46.7973C38.749 46.9907 38.7371 47.002 38.2254 47.0062C37.928 47.0087 37.6844 46.9558 37.6844 46.8888C37.6844 46.6967 36.8108 46.7469 36.5641 46.9531C36.402 47.0887 36.2267 47.103 35.9201 47.0053C35.3348 46.8192 35.1823 46.8374 35.2937 47.0803C35.3571 47.2182 35.2879 47.2891 35.0903 47.2891C34.81 47.2891 34.811 47.3014 35.1064 47.4821C35.3513 47.6319 35.5166 47.6403 35.8457 47.5197C36.0787 47.4343 36.3141 47.3124 36.3687 47.2489C36.4233 47.1852 36.5846 47.2823 36.7273 47.4644C36.9693 47.7735 36.9633 47.808 36.6357 47.979C36.3834 48.1109 36.2668 48.118 36.2216 48.0042C36.149 47.822 35.6869 47.7872 35.6869 47.9638C35.6869 48.0287 35.8047 48.2794 35.9487 48.5208C36.175 48.9001 36.2985 48.9599 36.8545 48.9599C37.2085 48.9599 37.5493 48.891 37.6115 48.8066C37.6766 48.7186 37.9323 48.6881 38.2123 48.7349C38.4804 48.7798 38.6622 48.7658 38.6164 48.7039C38.4648 48.4985 39.262 48.6078 39.4686 48.8207C39.5801 48.9356 39.6738 48.964 39.6766 48.8839C39.68 48.7938 40.2684 48.7365 41.2217 48.7335C44.0586 48.7246 45.5076 48.6247 45.508 48.4378C45.5081 48.2295 45.9554 48.2028 46.0366 48.4063C46.1204 48.6164 47.349 48.7543 47.486 48.569C47.5661 48.4605 47.9228 48.4537 48.6994 48.5457C50.1819 48.7213 52.1398 48.6617 52.2427 48.4378C52.3545 48.1944 52.666 48.22 52.666 48.4726C52.666 48.5875 52.7765 48.6815 52.9115 48.6815C53.0823 48.6815 53.1396 48.5649 53.0995 48.2986C53.0678 48.0879 53.0752 47.9941 53.1158 48.0897C53.1566 48.1855 53.2967 48.2638 53.4272 48.2638C53.5579 48.2638 53.6648 48.3577 53.6648 48.4726C53.6648 48.6234 53.8497 48.6815 54.3306 48.6815C54.8115 48.6815 54.9965 48.6234 54.9965 48.4726C54.9965 48.2092 55.1459 48.2078 55.4895 48.4677C55.653 48.5917 56.173 48.6855 56.8121 48.7067C57.7827 48.7387 57.8964 48.711 58.2644 48.353L58.6638 47.9647L58.3101 47.5493C58.1156 47.3209 57.9938 47.1027 58.0394 47.0645C58.1562 46.9668 58.9915 47.6358 58.9915 47.8273C58.9915 47.9141 59.0665 47.9853 59.158 47.9853C59.4998 47.9853 59.309 48.2617 58.9095 48.3456C58.113 48.5127 58.6886 48.6815 60.0556 48.6815C60.8131 48.6815 61.4845 48.7245 61.5474 48.7771C61.7007 48.9055 62.3208 48.9382 62.3208 48.8181C62.3208 48.6869 64.0192 48.7287 64.2779 48.8664C64.4074 48.9351 64.5252 48.8945 64.587 48.7599C64.7157 48.4794 65.1506 48.4764 65.1506 48.756C65.1506 48.9274 65.2174 48.9399 65.4871 48.8192C65.672 48.7363 65.8967 48.7065 65.9864 48.7529C66.076 48.7993 66.1494 48.7117 66.1494 48.5582C66.1494 48.3072 66.2032 48.3207 66.6904 48.6941C67.1076 49.0138 67.2437 49.0598 67.2852 48.895C67.3528 48.6274 67.4397 48.627 67.7574 48.8928C68.0699 49.154 69.3117 49.1217 69.1898 48.8555C69.0793 48.6142 69.4495 48.6372 69.7521 48.8903C69.899 49.0131 70.3056 49.0992 70.7389 49.0992C71.1731 49.0992 71.4762 49.1634 71.4762 49.2554C71.4762 49.3704 71.5353 49.3707 71.6996 49.2566C71.8224 49.1714 71.9536 49.1255 71.9909 49.1546C72.139 49.2704 73.6483 49.4012 75.3706 49.4474C76.5794 49.48 77.2268 49.5538 77.3118 49.6689C77.4557 49.8637 78.0764 49.8892 79.0249 49.7395C79.5133 49.6624 79.6355 49.6792 79.5386 49.8101C79.4509 49.929 79.4953 49.955 79.6834 49.8948C79.8329 49.8467 79.9974 49.8647 80.049 49.9346C80.1006 50.0045 80.2492 50.0274 80.3792 49.9858C80.5092 49.944 80.7115 49.9595 80.8288 50.0201C81.1476 50.1849 81.6304 50.1865 81.6304 50.0227C81.6304 49.9367 81.7106 49.946 81.8301 50.046C81.94 50.1379 82.2305 50.2131 82.4756 50.2131C82.7208 50.2131 83.2034 50.3116 83.548 50.4321C83.8926 50.5525 84.346 50.615 84.5556 50.571C84.765 50.527 85.1462 50.5578 85.4024 50.6392C85.7283 50.7428 85.8858 50.7433 85.9267 50.6405C85.9674 50.5384 86.0837 50.5379 86.3081 50.6383C86.4857 50.7178 86.7044 50.7449 86.7942 50.6986C86.8837 50.6522 86.9571 50.7121 86.9571 50.8314C86.9571 50.9701 87.1073 51.0485 87.3733 51.0485C87.6022 51.0485 87.7894 50.9814 87.7894 50.8993C87.7894 50.8172 87.9071 50.8485 88.0509 50.969C88.3151 51.1898 88.7057 51.2765 88.5658 51.0833C88.5242 51.0259 88.5948 50.8981 88.7225 50.7994C88.9165 50.6493 88.9547 50.678 88.9547 50.9734C88.9547 51.3296 89.1802 51.4457 89.3708 51.1877C89.4274 51.1111 89.5629 51.0535 89.672 51.0595C89.815 51.0674 89.8121 51.0901 89.6621 51.1406C89.2791 51.27 89.4487 51.4662 89.9436 51.4662C90.213 51.4662 90.4803 51.5298 90.5377 51.6076C90.5953 51.6855 90.7153 51.7115 90.8046 51.6653C90.8938 51.6192 91.0686 51.652 91.1929 51.7384C91.3173 51.8247 91.8358 51.9095 92.3453 51.9268C92.8547 51.944 93.3639 52.0354 93.4768 52.1298C93.5898 52.2243 93.802 52.3016 93.9485 52.3016C94.095 52.3016 94.3098 52.38 94.4258 52.4756C94.5949 52.6151 94.6796 52.6012 94.8521 52.406C95.0776 52.1507 95.3751 52.0606 95.197 52.3016C95.1404 52.3782 95.1735 52.4486 95.2704 52.4582C95.8099 52.5115 96.6187 52.8758 96.5137 53.0181C96.4333 53.127 96.5437 53.1533 97.2779 53.2008C97.4154 53.2097 97.6213 53.2654 97.7357 53.3244C97.8501 53.3836 97.9436 53.3947 97.9436 53.3492C97.9436 53.3037 98.1122 53.3467 98.3182 53.4447C98.5241 53.5427 98.8051 53.6263 98.9424 53.6302C99.0797 53.6341 99.1793 53.6978 99.1636 53.7719C99.148 53.846 99.3164 53.9781 99.5381 54.0656C99.8736 54.198 99.9412 54.1882 99.9412 54.0074C99.9412 53.8152 99.9764 53.8167 100.246 54.0204C100.413 54.1471 100.638 54.2509 100.745 54.2509C100.852 54.2509 100.94 54.308 100.94 54.3777C100.94 54.5689 102.314 55.0863 102.822 55.0863C103.087 55.0863 103.352 55.1989 103.475 55.3648C103.59 55.5179 103.82 55.6432 103.986 55.6432C104.153 55.6432 104.243 55.5806 104.186 55.504C104.129 55.4274 104.147 55.3648 104.226 55.3648C104.469 55.3648 104.769 55.6863 104.769 55.9469C104.769 56.1633 104.95 56.2486 105.767 56.4154C105.813 56.4248 106.061 56.5054 106.319 56.5948C106.577 56.684 106.895 56.7571 107.027 56.7571C107.158 56.7571 107.265 56.8578 107.265 56.9809C107.265 57.125 107.357 57.1754 107.521 57.1225C107.667 57.0757 107.818 57.1293 107.872 57.2468C107.924 57.3604 108.042 57.4533 108.134 57.4533C108.226 57.4533 108.751 57.8284 109.301 58.2869C109.851 58.7454 110.357 59.0914 110.425 59.056C110.494 59.0205 110.687 59.1174 110.853 59.2716C111.02 59.4256 111.245 59.523 111.354 59.4881C111.463 59.4533 111.646 59.5919 111.761 59.7965C111.883 60.013 112.001 60.0957 112.045 59.9943C112.184 59.6727 112.426 59.8165 112.426 60.221C112.426 60.4413 112.534 60.6965 112.666 60.7881C112.798 60.8796 112.929 61.1209 112.957 61.324C112.989 61.5527 113.167 61.7593 113.425 61.8659C114.054 62.1269 114.923 62.8895 114.923 63.1814C114.923 63.4741 115.184 63.5311 115.312 63.2664C115.37 63.1452 115.4 63.1546 115.409 63.297C115.416 63.4095 115.641 63.6601 115.908 63.8539C116.236 64.0916 116.412 64.3648 116.449 64.6935C116.488 65.0401 116.6 65.2026 116.837 65.256C117.038 65.3013 117.19 65.471 117.22 65.6835C117.247 65.8772 117.64 66.3749 118.094 66.7896C118.547 67.2041 118.918 67.6226 118.918 67.7197C118.918 67.8166 118.976 67.8959 119.047 67.8959C119.119 67.8959 119.31 68.2719 119.473 68.7314C119.642 69.2068 119.865 69.5668 119.99 69.5668C120.112 69.5668 120.256 69.7078 120.311 69.88C120.463 70.354 120.446 70.3814 120.041 70.31C119.711 70.2517 119.702 70.2624 119.958 70.3995C120.118 70.4852 120.25 70.6336 120.25 70.7294C120.25 71.0645 120.668 71.6415 120.957 71.7047C121.186 71.7549 121.248 71.919 121.248 72.4711C121.248 72.8576 121.338 73.3378 121.447 73.5385C121.609 73.8356 121.601 73.9273 121.405 74.035C121.201 74.1471 121.209 74.1952 121.461 74.3566C121.728 74.5274 121.731 74.5549 121.488 74.6327C121.257 74.7069 121.279 74.7789 121.65 75.1472C121.887 75.3826 122.086 75.6487 122.092 75.7387C122.098 75.8285 122.145 76.0899 122.196 76.3197C122.357 77.0508 122.277 77.8368 122.025 77.9908C121.815 78.119 121.815 78.1884 122.021 78.5171C122.151 78.7253 122.332 78.8955 122.422 78.8955C122.512 78.8955 122.546 79.0364 122.496 79.2088C122.446 79.3812 122.379 79.7907 122.348 80.119C122.316 80.4473 122.243 80.7556 122.185 80.804C122.127 80.8525 122.198 81.0441 122.344 81.2298C122.592 81.5462 122.585 81.5878 122.244 81.892C122.043 82.0705 121.925 82.2785 121.981 82.3543C122.037 82.4299 121.989 82.5179 121.876 82.5496C121.71 82.5957 121.71 82.6844 121.875 82.9872C122.024 83.26 122.033 83.4438 121.908 83.6396C121.775 83.8476 121.79 83.9303 121.972 83.9886C122.112 84.0337 122.175 84.1763 122.126 84.3348C122.021 84.6707 121.748 84.6893 121.747 84.3605C121.746 84.1992 121.66 84.2543 121.492 84.5237C121.305 84.8236 121.289 84.9569 121.431 85.0304C121.537 85.0851 121.576 85.1945 121.518 85.2736C121.459 85.3526 121.524 85.5116 121.662 85.6269C121.92 85.8424 121.843 86.2562 121.51 86.447C121.385 86.5188 121.387 86.5499 121.516 86.5514C121.624 86.5526 121.668 86.6998 121.622 86.9016C121.572 87.1189 121.43 87.2497 121.243 87.2497C121.021 87.2497 120.957 87.3416 120.992 87.609C121.019 87.8156 120.942 87.9994 120.811 88.0416C120.682 88.083 120.582 88.3129 120.582 88.5699C120.582 89.2157 120.398 89.9025 120.247 89.8241C120.176 89.7875 120.075 89.8511 120.022 89.9656C119.97 90.08 120.002 90.1736 120.094 90.1736C120.201 90.1736 120.195 90.2765 120.079 90.4588C119.953 90.6562 119.797 90.7176 119.574 90.6583C119.206 90.5607 119.151 90.7254 119.459 90.9986C119.625 91.1462 119.625 91.1959 119.459 91.2468C119.344 91.2819 119.251 91.3855 119.251 91.477C119.251 91.5685 119.095 91.7548 118.905 91.8911C118.618 92.0966 118.578 92.2336 118.671 92.6946C118.764 93.1553 118.724 93.2934 118.437 93.5015C118.247 93.6394 118.14 93.793 118.2 93.8427C118.259 93.8923 118.192 93.933 118.051 93.933C117.899 93.933 117.753 94.1035 117.694 94.3522C117.634 94.6039 117.439 94.8305 117.206 94.919C116.779 95.0819 116.338 95.5812 116.502 95.7177C116.559 95.7654 116.675 95.7124 116.76 95.5997C116.865 95.4611 116.916 95.451 116.918 95.569C116.919 95.6648 116.77 95.8683 116.587 96.0215C116.404 96.1746 116.254 96.3626 116.254 96.4392C116.254 96.5158 116.169 96.5784 116.065 96.5784C115.738 96.5784 115.428 97.0428 115.623 97.2394C115.745 97.363 115.736 97.4138 115.591 97.4138C115.478 97.4138 115.429 97.5068 115.482 97.6227C115.535 97.7376 115.506 97.8315 115.417 97.8315C115.328 97.8315 115.256 97.9183 115.256 98.0241C115.256 98.1301 115.106 98.2495 114.923 98.2896C114.723 98.3332 114.59 98.4795 114.59 98.6539C114.59 98.8143 114.51 98.9454 114.414 98.9454C114.317 98.9454 114.28 99.0038 114.333 99.0751C114.386 99.1463 114.344 99.2484 114.241 99.3017C114.138 99.3551 114 99.3261 113.934 99.2371C113.863 99.1412 113.725 99.3034 113.593 99.637C113.457 99.9804 113.268 100.199 113.106 100.199C112.96 100.199 112.629 100.387 112.37 100.616C112.11 100.846 111.83 101.034 111.746 101.034C111.662 101.034 111.593 101.152 111.593 101.295C111.593 101.439 111.481 101.635 111.344 101.73C111.206 101.826 111.094 101.99 111.094 102.095C111.094 102.201 110.99 102.287 110.862 102.287C110.735 102.287 110.584 102.444 110.526 102.636C110.424 102.977 109.236 103.819 108.857 103.819C108.615 103.819 106.189 105.791 106.045 106.105C105.985 106.236 105.866 106.307 105.781 106.263C105.696 106.218 105.461 106.377 105.258 106.615C104.978 106.944 104.856 107.002 104.747 106.86C104.638 106.717 104.503 106.78 104.175 107.126C103.939 107.374 103.644 107.578 103.52 107.578C103.396 107.578 103.147 107.735 102.967 107.926C102.787 108.118 102.566 108.274 102.476 108.274C102.386 108.274 102.22 108.367 102.107 108.481C101.994 108.595 101.573 108.825 101.171 108.993C100.769 109.161 100.441 109.35 100.441 109.413C100.441 109.476 100.332 109.527 100.199 109.527C100.066 109.527 99.8979 109.606 99.8246 109.701C99.7514 109.797 99.2572 110.12 98.7265 110.419C98.1956 110.718 97.6891 111.076 97.6007 111.214C97.5125 111.352 97.1902 111.504 96.8846 111.552C96.579 111.6 96.1137 111.806 95.8507 112.01C95.5877 112.215 95.2553 112.388 95.1121 112.396C94.9688 112.404 94.5375 112.576 94.1536 112.779C93.7698 112.982 93.3854 113.147 93.2995 113.147C93.0738 113.147 92.1198 113.617 92.1184 113.729C92.116 113.963 91.5505 114.261 91.1094 114.261C90.8425 114.261 90.2591 114.449 89.8126 114.679C89.3663 114.909 88.8678 115.097 88.705 115.097C88.5422 115.097 88.0386 115.287 87.586 115.52C87.1334 115.753 86.526 115.982 86.236 116.029C85.9459 116.076 85.5299 116.261 85.3115 116.441C84.919 116.764 84.7059 116.819 84.0321 116.776C83.8425 116.764 83.3181 116.905 82.8668 117.09C82.4157 117.275 81.6345 117.541 81.131 117.682C80.6274 117.823 80.0972 118.02 79.9526 118.119C79.8081 118.218 79.5055 118.299 79.2801 118.299C78.684 118.299 76.9929 118.686 76.2094 119.001C75.8372 119.151 75.2567 119.274 74.9193 119.274C74.4851 119.274 74.306 119.335 74.306 119.483C74.306 119.643 74.0945 119.691 73.4003 119.691C72.9021 119.691 72.4483 119.754 72.3917 119.831C72.3351 119.907 72.1489 119.97 71.9776 119.97C71.8064 119.97 71.5464 120.07 71.3999 120.193C71.2333 120.332 70.9884 120.385 70.7469 120.335C70.5343 120.29 70.3078 120.297 70.2435 120.351C70.1793 120.405 69.8655 120.43 69.5464 120.407C68.9872 120.367 68.9703 120.38 69.0758 120.759C69.1717 121.105 69.157 121.126 68.9574 120.929C68.7039 120.68 68.1469 120.479 68.1469 120.637C68.1469 120.693 67.9913 120.82 67.801 120.919C67.534 121.059 67.401 121.062 67.2186 120.936C66.9423 120.744 66.038 120.993 65.697 121.356C65.5458 121.516 65.4927 121.524 65.4889 121.386C65.4826 121.166 64.3062 121.2 64.1102 121.427C64.028 121.522 63.9355 121.506 63.8391 121.381C63.7372 121.249 63.6733 121.24 63.6287 121.352C63.5929 121.442 63.1468 121.531 62.6197 121.553C62.1001 121.575 61.5769 121.661 61.4568 121.744C61.337 121.827 60.2297 121.935 58.9964 121.985C57.7632 122.035 56.6709 122.133 56.5692 122.204C56.4675 122.274 55.6192 122.357 54.6842 122.387C53.7492 122.417 52.9382 122.481 52.8819 122.528C52.8258 122.575 52.6885 122.55 52.5768 122.472C52.4544 122.387 52.2164 122.378 51.9788 122.448C51.7616 122.513 51.172 122.553 50.6685 122.539C50.1649 122.524 49.6669 122.569 49.5618 122.639C49.4566 122.708 49.157 122.729 48.896 122.684C47.8677 122.507 47.5793 122.468 47.3392 122.476C47.2019 122.48 46.5652 122.491 45.9243 122.5C45.2817 122.509 44.7041 122.586 44.6367 122.671C44.551 122.778 44.5137 122.774 44.5119 122.655C44.5105 122.561 44.397 122.521 44.2597 122.565C44.1223 122.609 44.01 122.73 44.01 122.834C44.01 122.938 43.8617 123.09 43.6804 123.171C43.3796 123.306 43.3593 123.283 43.4482 122.911C43.5242 122.593 43.478 122.487 43.2368 122.424C42.8153 122.315 42.0789 122.396 41.8137 122.58C41.6537 122.691 41.5091 122.679 41.2727 122.534C41.0807 122.417 40.5412 122.335 39.9415 122.333C39.3183 122.33 38.809 122.25 38.6086 122.123C38.4303 122.01 38.1532 121.953 37.9927 121.995C37.8324 122.038 37.4764 121.976 37.2017 121.857C36.9269 121.738 36.5032 121.641 36.26 121.641C35.9104 121.641 35.8394 121.692 35.9209 121.884C35.9978 122.066 35.9494 122.052 35.7307 121.828C35.5083 121.601 35.2458 121.527 34.6465 121.52C34.1405 121.515 33.8498 121.573 33.8392 121.681C33.83 121.774 33.7706 121.693 33.7068 121.502C33.6432 121.31 33.5196 121.148 33.4322 121.141C33.3448 121.135 33.1457 121.082 32.9899 121.025C32.8341 120.967 32.628 120.96 32.5321 121.01C32.4362 121.06 32.3576 121.034 32.3576 120.953C32.3576 120.704 31.7211 120.79 31.64 121.049C31.5753 121.257 31.5611 121.259 31.5446 121.065C31.5312 120.905 31.3003 120.809 30.7763 120.743C30.2965 120.683 30.0272 120.579 30.0272 120.453C30.0272 120.335 29.9266 120.289 29.7732 120.339C29.5774 120.402 29.5631 120.464 29.7104 120.613C29.8163 120.72 29.8298 120.805 29.7404 120.805C29.5243 120.805 29.0284 120.337 29.0284 120.133C29.0284 119.894 28.2497 119.934 27.769 120.198C27.3002 120.455 27.0437 120.362 27.3548 120.049C27.5253 119.877 27.4868 119.827 27.1266 119.751C26.8885 119.701 26.621 119.558 26.5325 119.432C26.3905 119.232 26.3507 119.229 26.2019 119.413C26.0782 119.565 26.0606 119.5 26.1363 119.169C26.2172 118.817 26.1834 118.717 25.9835 118.717C25.8423 118.717 25.7015 118.653 25.6705 118.575C25.6394 118.497 25.3897 118.405 25.1156 118.37C24.1438 118.246 24.0464 118.211 23.6344 117.84C23.4055 117.633 23.1012 117.464 22.9582 117.464C22.5818 117.464 22.033 117.173 21.5684 116.727C21.3457 116.513 21.079 116.362 20.976 116.391C20.8729 116.42 20.6973 116.344 20.5858 116.223C20.4005 116.021 20.3825 116.021 20.3777 116.223C20.3677 116.636 19.4695 116.439 18.7968 115.877C18.4549 115.591 18.2165 115.322 18.267 115.28C18.3176 115.237 18.2533 115.114 18.1243 115.007C17.9952 114.899 17.9116 114.734 17.9386 114.64C17.9654 114.547 17.9559 114.517 17.9176 114.575C17.7583 114.813 17.5425 114.653 17.5424 114.296C17.5424 113.978 17.4661 113.909 17.0898 113.891C16.8409 113.879 16.61 113.801 16.5766 113.717C16.5433 113.634 16.4394 113.565 16.3457 113.565C16.252 113.565 16.2183 113.659 16.2711 113.774C16.3237 113.889 16.3031 113.983 16.225 113.983C15.924 113.983 15.9304 113.465 16.2333 113.307C16.7172 113.054 16.6358 112.683 16.1146 112.766C15.807 112.815 15.5685 112.737 15.2722 112.489C15.045 112.299 14.8998 112.109 14.9497 112.067C14.9997 112.026 14.9104 111.912 14.7516 111.815C14.593 111.718 14.4597 111.555 14.4555 111.453C14.4513 111.351 14.3621 111.282 14.2574 111.3C14.1529 111.317 14.0207 111.209 13.9639 111.06C13.9072 110.91 13.6826 110.67 13.4649 110.527C13.1937 110.349 13.0526 110.095 13.0169 109.723C12.9788 109.325 12.809 109.046 12.3822 108.68C11.8439 108.218 11.7991 108.113 11.793 107.305C11.787 106.535 11.7334 106.392 11.3453 106.113C10.92 105.807 10.9167 105.793 11.2488 105.721C11.5106 105.663 11.5604 105.585 11.4567 105.393C11.3818 105.255 11.2904 104.781 11.2539 104.341C11.206 103.764 11.1208 103.54 10.9483 103.54C10.817 103.54 10.6267 103.368 10.5257 103.157C10.2923 102.671 10.2245 101.73 10.423 101.73C10.5057 101.73 10.5252 101.589 10.4659 101.417C10.4067 101.244 10.3236 100.999 10.2813 100.871C10.238 100.741 10.4256 100.428 10.7108 100.157C11.2658 99.6281 11.323 99.5024 11.0089 99.5024C10.8604 99.5024 10.8032 99.2061 10.8088 98.4673C10.8137 97.8523 10.7532 97.4651 10.6598 97.5133C10.5665 97.5616 10.5468 97.4311 10.6114 97.1909C10.671 96.9688 10.7665 96.5837 10.8238 96.3348C10.8809 96.086 10.9958 95.8823 11.079 95.8823C11.232 95.8823 11.2554 95.6133 11.2533 93.8888C11.2523 93.1626 11.3032 92.9562 11.4703 93.0098C11.7736 93.1072 11.9046 92.7461 11.7164 92.3317C11.5552 91.9771 11.6466 91.566 11.8868 91.566C11.9609 91.566 12.0535 91.6442 12.0924 91.74C12.1312 91.8358 12.1995 91.7105 12.2439 91.4615C12.2882 91.2126 12.2814 91.009 12.2286 91.0089C12.1758 91.0089 12.1232 90.8365 12.1121 90.626C12.1007 90.4155 12.1272 90.3254 12.1708 90.4258C12.2322 90.5669 12.322 90.5541 12.566 90.3694C12.9775 90.0579 12.969 89.7559 12.5487 89.7559C12.3569 89.7559 12.2158 89.8488 12.2158 89.9746C12.2158 90.1691 12.188 90.1703 11.9661 89.9847C11.65 89.7202 11.65 89.6167 11.9661 89.6167C12.1034 89.6167 12.2158 89.5468 12.2158 89.4611C12.2158 89.3756 12.3526 89.3357 12.5197 89.3722C12.9231 89.4604 13.6026 88.6355 13.5837 88.0805C13.5749 87.8184 13.6528 87.6674 13.797 87.6674C14.0274 87.6674 14.2644 87.2531 14.1775 87.0028C14.1514 86.9277 14.3471 86.6608 14.6123 86.4098C15.0478 85.9972 15.0679 85.9368 14.8204 85.7855C14.4345 85.5495 14.4752 85.4748 15.0456 85.37C15.5472 85.2778 15.7438 84.8626 15.3759 84.6724C15.2828 84.6242 15.2549 84.5197 15.314 84.4398C15.3729 84.36 15.3398 84.2525 15.24 84.201C15.1247 84.1412 15.1773 84.0454 15.3852 83.9368C15.655 83.7958 15.7115 83.8027 15.7115 83.9765C15.7115 84.3387 16.0649 84.2054 16.2618 83.7688C16.38 83.5069 16.5681 83.3511 16.7662 83.3511C17.0007 83.3511 17.0595 83.2789 16.9944 83.0708C16.9355 82.8824 17.0162 82.7415 17.2402 82.6411C17.4505 82.5471 17.5442 82.397 17.4938 82.2357C17.4458 82.0824 17.4898 82.0022 17.603 82.036C17.888 82.1209 18.3945 81.0785 18.4283 80.3373C18.4488 79.8901 18.5368 79.6661 18.7078 79.6272C18.9237 79.5782 18.9247 79.5896 18.7154 79.7113C18.5054 79.8336 18.5047 79.9008 18.7103 80.2223L18.9472 80.5925L19.3312 80.1966C19.5424 79.9788 19.6812 79.686 19.6398 79.5459C19.589 79.3744 19.6375 79.3148 19.7888 79.3632C20.0877 79.4593 20.8718 78.8386 20.8718 78.5058C20.8718 78.2048 21.3996 77.6424 21.682 77.6424C21.7857 77.6424 21.8706 77.5798 21.8706 77.5032C21.8706 77.4266 21.9744 77.3639 22.1013 77.3639C22.426 77.3639 22.9111 76.4478 22.7851 76.0724C22.7125 75.8564 22.7283 75.8198 22.8372 75.9511C23.023 76.1752 23.6019 75.972 23.7601 75.6274C23.8137 75.5104 23.9768 75.4147 24.1224 75.4147C24.2679 75.4147 24.3413 75.3527 24.2854 75.2769C24.2272 75.1981 24.2939 75.1748 24.4421 75.2222C24.6525 75.2899 24.7004 75.1863 24.7004 74.6638C24.7004 73.9723 24.4542 73.8304 23.9645 74.2401C23.8213 74.3598 23.6287 74.4187 23.5365 74.3711C23.2132 74.204 23.374 74.0525 23.974 73.9583C24.3069 73.906 24.7943 73.7303 25.0571 73.5678C25.4273 73.3389 25.5798 73.3098 25.7336 73.4385C25.8428 73.5298 26.0108 73.6036 26.107 73.6025C26.2031 73.6012 26.1856 73.5493 26.0681 73.4869C25.8453 73.3686 25.96 72.9084 26.2122 72.9084C26.2918 72.9084 26.2831 72.7465 26.1932 72.5486C26.0231 72.1745 26.0983 71.9338 26.3853 71.9338C26.4772 71.9338 26.529 72.0563 26.5004 72.206C26.4717 72.3557 26.5045 72.481 26.5731 72.4844C26.9576 72.5039 27.0309 72.4715 27.0309 72.2819C27.0309 72.167 26.9435 72.073 26.8366 72.073C26.7299 72.073 26.6984 72.0261 26.767 71.9689C26.8356 71.9115 26.9908 71.9779 27.1118 72.1163C27.2667 72.2937 27.3673 72.3201 27.4519 72.2057C27.5412 72.0847 27.6058 72.0892 27.7049 72.2232C27.7974 72.3485 27.905 72.3605 28.0586 72.2628C28.18 72.1855 28.4576 72.1145 28.6755 72.1049C28.8934 72.0954 29.2463 71.9503 29.4599 71.7824C29.6735 71.6146 30.0195 71.4062 30.2291 71.3192C30.4385 71.2322 30.6338 71.0216 30.6631 70.8512C30.6922 70.6808 30.7902 70.5414 30.881 70.5414C30.9715 70.5414 31.0036 70.4846 30.9524 70.4151C30.9009 70.3458 31.009 70.3217 31.1922 70.3618C31.3754 70.4019 31.5253 70.3773 31.5253 70.3071C31.5253 70.0846 31.1608 69.8642 30.9206 69.9412C30.7614 69.9923 30.7213 69.9453 30.7922 69.7911C30.8488 69.6677 30.97 69.5668 31.0616 69.5668C31.1531 69.5668 31.1849 69.4728 31.1322 69.3579C31.0677 69.2171 31.1401 69.1491 31.3542 69.1491C31.5292 69.1491 31.7153 69.0906 31.768 69.0192C31.8901 68.8542 32.9076 68.8692 33.0393 69.0381C33.0937 69.108 33.3373 69.1234 33.5803 69.0725C33.9444 68.996 34.0223 68.9004 34.0223 68.5306C34.0223 67.9571 34.1917 67.815 34.4236 68.1945C34.5989 68.4816 35.0011 68.5257 34.8759 68.244C34.763 67.9902 34.6826 67.5448 34.7803 67.7141C34.8329 67.8054 34.9857 67.8451 35.1199 67.8021C35.3287 67.7351 35.3252 67.7002 35.0961 67.5601C34.918 67.4512 34.8468 67.2388 34.883 66.9259C34.9426 66.4143 35.354 66.153 35.354 66.6268C35.354 66.8305 35.4297 66.8882 35.6181 66.8277C35.8412 66.7562 35.8174 66.6886 35.4647 66.3936C35.077 66.0693 35.0274 66.0607 34.773 66.2736C34.6032 66.4155 34.5393 66.6091 34.6051 66.7823C34.6745 66.9653 34.6244 67.0898 34.4604 67.1424C34.3226 67.1865 34.2488 67.3081 34.2968 67.4124C34.4616 67.7716 33.6689 67.5676 33.2387 67.14C32.8559 66.7595 32.8023 66.7443 32.6122 66.9618C32.4978 67.0927 32.3189 67.1998 32.2145 67.1998C32.1101 67.1998 32.0247 67.2899 32.0247 67.3998C32.0247 67.5527 32.1719 67.5807 32.649 67.5183L33.2732 67.4367L32.857 67.7314C32.5146 67.9738 32.4925 68.0267 32.7322 68.0306C32.9283 68.0336 33.0235 68.1459 33.0235 68.3739C33.0235 68.6602 32.9461 68.7109 32.5241 68.7009C32.0241 68.689 31.8489 68.5251 32.2243 68.4204C32.3493 68.3856 32.318 68.3308 32.1411 68.274C31.9541 68.214 31.8583 68.2524 31.8583 68.3876C31.8583 68.6556 31.422 68.6521 31.2986 68.3833C31.246 68.2684 31.1212 68.1744 31.0213 68.1744C30.9216 68.1744 30.8939 68.2477 30.9602 68.3373C31.0411 68.4469 30.9898 68.4711 30.8036 68.4113C30.6111 68.3496 30.5266 68.3958 30.5266 68.563C30.5266 68.8361 29.9295 69.2011 29.6874 69.076C29.5947 69.0279 29.5278 69.2522 29.5278 69.6112C29.5278 69.9509 29.4184 70.448 29.2848 70.7156C29.1509 70.9832 29.0835 71.2373 29.1348 71.2801C29.1859 71.3229 29.068 71.3231 28.8729 71.2803C28.5498 71.2096 28.5392 71.1756 28.7549 70.9004C29.0073 70.5782 29.1965 69.1488 28.9868 69.1489C28.8029 69.1491 28.1961 69.6834 28.1961 69.8452C28.1961 69.9218 27.9714 69.9845 27.6967 69.9845C27.3724 69.9845 27.1973 70.0549 27.1973 70.1854C27.1973 70.2959 26.9726 70.4974 26.6979 70.6332C26.3748 70.7927 26.1986 70.9923 26.1986 71.198C26.1986 71.388 26.098 71.5161 25.9489 71.5161C25.6462 71.5161 25.6184 71.2918 25.9073 71.1809C26.0218 71.1369 25.9284 71.1408 25.6998 71.1896C25.0994 71.3175 24.5859 71.9308 25.0749 71.9359C25.2211 71.9374 25.2279 71.9684 25.0974 72.0403C24.9952 72.0965 24.8555 72.2931 24.7868 72.4769C24.6849 72.75 24.7114 72.7955 24.931 72.725C25.0788 72.6776 25.1998 72.704 25.1998 72.7838C25.1998 72.8636 25.0688 72.9062 24.9085 72.8785C24.7482 72.8508 24.6275 72.7209 24.6403 72.5898C24.657 72.4176 24.5356 72.3515 24.2028 72.3515C23.5475 72.3515 23.2647 72.6763 23.5169 73.1394C23.7779 73.6182 23.6883 73.6618 22.9632 73.4084C22.3158 73.1822 22.3653 73.1593 22.1357 73.7913C22.0983 73.8939 22.1391 74.0663 22.2263 74.1742C22.3558 74.3347 22.4322 74.3136 22.6473 74.0571C22.9913 73.6466 23.2022 73.6599 23.2022 74.0919C23.2022 74.4337 23.0766 74.4968 22.4948 74.4472C22.0893 74.4129 22.1311 74.693 22.578 75.0047C23.0476 75.3325 23.1586 75.337 23.254 75.0318C23.3218 74.8148 23.3323 74.8137 23.3494 75.0219C23.3762 75.3457 22.9206 75.6931 22.469 75.6931C21.9656 75.6931 21.8526 75.5742 22.0738 75.2778C22.2249 75.0755 22.1615 74.9532 21.7174 74.5901C21.2898 74.2405 21.1999 74.2079 21.2854 74.4335C21.3855 74.6973 21.2457 74.7899 20.8302 74.7349C20.7614 74.7259 20.7213 74.7654 20.7406 74.8229C20.7601 74.8803 20.68 75.0724 20.5627 75.2497C20.391 75.5085 20.3025 75.5394 20.1111 75.4066C19.9213 75.2749 19.873 75.2871 19.873 75.4673C19.873 75.5915 19.7981 75.6931 19.7065 75.6931C19.615 75.6931 19.5389 75.8967 19.5376 76.1456C19.5356 76.4946 19.4968 76.5504 19.368 76.3893C19.2225 76.2072 19.1792 76.2116 19.0294 76.4241C18.935 76.5581 18.7507 76.6678 18.6201 76.6678C18.4894 76.6678 18.2578 76.8269 18.1054 77.0216C17.8835 77.3049 17.8653 77.4436 18.0148 77.7177C18.1355 77.9393 18.1416 78.0601 18.0324 78.0601C17.9219 78.0601 17.9187 78.146 18.0233 78.3094C18.1646 78.5302 18.1177 78.5523 17.613 78.503C17.0307 78.4461 16.8074 78.201 17.3345 78.1973C17.583 78.1955 17.589 78.1755 17.3761 78.0625C17.2284 77.984 17.1049 77.9817 17.074 78.0568C17.0452 78.1265 16.9142 78.1492 16.7826 78.107C16.6513 78.0649 16.5438 78.0997 16.5438 78.1845C16.5438 78.2693 16.3891 78.4679 16.2 78.6261C15.9407 78.843 15.8826 79.014 15.9635 79.3223C16.0289 79.5715 16.0028 79.7309 15.8964 79.7309C15.8004 79.7309 15.7651 79.637 15.8177 79.5221C15.8704 79.4072 15.8307 79.3132 15.7293 79.3132C15.6279 79.3132 15.545 79.4699 15.545 79.6613C15.545 79.878 15.4506 80.0094 15.2953 80.0094C15.158 80.0094 15.0456 80.0884 15.0456 80.1849C15.0456 80.2813 14.8404 80.5455 14.5895 80.7717C14.3388 80.998 14.1562 81.295 14.1838 81.4317C14.2175 81.5975 14.1294 81.6802 13.919 81.6802C13.5997 81.6802 13.1571 82.2103 13.1235 82.633C13.075 83.2404 13.0348 83.3511 12.8621 83.3511C12.7524 83.3511 12.715 83.2227 12.7707 83.0378C12.8593 82.7434 12.8512 82.7401 12.6351 82.9817C12.5086 83.1231 12.4442 83.3242 12.4921 83.4283C12.5467 83.5477 12.4192 83.6514 12.1477 83.7085C11.7102 83.8002 11.6378 83.9515 11.7019 84.639C11.7269 84.9062 11.6591 85.0219 11.4773 85.0219C11.3342 85.0219 11.217 85.1159 11.217 85.2307C11.217 85.3456 11.1371 85.4396 11.0394 85.4396C10.9362 85.4396 10.9069 85.5589 10.9695 85.7239C11.0479 85.9303 10.9596 86.0859 10.6479 86.291C10.2209 86.572 10.0664 86.9712 10.3847 86.9712C10.6995 86.9712 10.5506 87.2051 10.135 87.3636C9.90611 87.4509 9.71884 87.6391 9.71884 87.7821C9.71884 87.9249 9.56936 88.1551 9.38658 88.2935C9.13289 88.4854 9.09827 88.5895 9.24043 88.7328C9.38508 88.8786 9.35895 88.9205 9.12324 88.9205C8.89252 88.9205 8.86639 88.9593 9.01371 89.0826C9.16102 89.2058 9.12856 89.3018 8.87804 89.4836C8.5298 89.7363 8.58923 90.1736 8.97192 90.1736C9.29386 90.1736 8.8842 90.8378 8.51199 90.9192C8.11198 91.0066 8.11198 91.6999 8.51199 91.7194C8.67213 91.7272 8.57025 91.7964 8.28527 91.8732C7.81119 92.0011 7.77057 92.0594 7.80453 92.5627C7.83349 92.9927 7.78905 93.0957 7.60094 93.0353C7.39819 92.9701 7.37605 93.1438 7.46062 94.1417C7.51671 94.8055 7.49541 95.3253 7.41218 95.3253C7.16448 95.3253 7.02599 96.1987 7.25487 96.3171C7.40685 96.3956 7.38038 96.4942 7.15066 96.7065C6.89415 96.9436 6.879 97.0272 7.05944 97.209C7.21425 97.365 7.30947 97.3813 7.39453 97.2664C7.48043 97.1501 7.54468 97.1483 7.62708 97.2597C7.73911 97.4115 7.52753 97.4727 7.07443 97.4198C6.92977 97.403 6.8805 97.473 6.94242 97.6078C6.99652 97.726 6.97405 97.8572 6.89232 97.8995C6.81058 97.9417 6.74999 98.0847 6.75781 98.2172C6.76547 98.3496 6.72469 98.6881 6.66693 98.9692C6.59951 99.2974 6.64678 99.617 6.7991 99.8624C6.93743 100.085 6.99536 100.415 6.93843 100.653C6.87351 100.925 6.91862 101.104 7.07293 101.187C7.26902 101.293 7.26968 101.332 7.07709 101.435C6.88949 101.537 6.89748 101.581 7.1227 101.686C7.29765 101.768 7.43432 102.083 7.5019 102.56C7.57714 103.091 7.55417 103.278 7.422 103.21C7.31996 103.157 7.27867 103.022 7.33028 102.909C7.4438 102.661 6.88383 102.626 6.60084 102.862C6.46068 102.979 6.49547 103.149 6.73684 103.524C6.93726 103.835 7.02549 104.165 6.96772 104.388C6.90713 104.622 6.96473 104.812 7.13136 104.927C7.27268 105.026 7.38837 105.259 7.38837 105.446C7.38837 105.633 7.58446 106.002 7.82434 106.265C8.06404 106.527 8.1764 106.743 8.07403 106.743C7.97149 106.743 7.88776 106.843 7.88776 106.966C7.88776 107.104 7.97998 107.16 8.12896 107.113C8.29842 107.058 8.33954 107.102 8.26712 107.26C8.19854 107.409 8.22917 107.451 8.35885 107.384C8.59838 107.26 8.59905 107.288 8.371 107.835C8.21302 108.214 8.24465 108.354 8.60538 108.868C8.83459 109.196 9.44101 109.856 9.95305 110.336C10.9463 111.267 11.0264 111.374 10.6344 111.249C10.4876 111.201 10.3857 111.246 10.3872 111.357C10.3908 111.626 10.5856 111.83 10.9447 111.941C11.1716 112.011 11.233 112.133 11.1734 112.394C11.1216 112.621 11.1757 112.779 11.3209 112.825C11.4469 112.866 11.5499 112.997 11.5499 113.116C11.5499 113.235 11.5937 113.297 11.647 113.252C11.7395 113.175 12.3822 113.63 12.3822 113.772C12.3822 113.96 12.9923 114.401 13.2515 114.401C13.4143 114.401 13.5475 114.495 13.5475 114.609C13.5475 114.901 14.0057 114.872 14.0986 114.575C14.159 114.381 14.1787 114.392 14.194 114.627C14.2047 114.79 14.0991 115.003 13.9596 115.1C13.6633 115.305 13.7462 115.411 14.2553 115.476C14.6874 115.531 14.9596 115.867 14.9612 116.347C14.9621 116.579 15.0701 116.71 15.2911 116.746C15.4719 116.776 15.7131 116.902 15.8268 117.028C15.9407 117.153 16.0362 117.183 16.0391 117.096C16.0421 117.008 16.1483 116.903 16.2753 116.863C16.4372 116.81 16.481 116.868 16.4223 117.056C16.358 117.262 16.4253 117.324 16.7102 117.324C17.0159 117.324 17.068 117.386 17.0034 117.668C16.9601 117.857 16.9896 117.979 17.0686 117.938C17.3767 117.779 17.8755 118.044 17.8755 118.367C17.8755 118.592 18.0609 118.79 18.4682 119.001C18.8569 119.202 19.0282 119.379 18.9658 119.515C18.8994 119.659 18.948 119.698 19.1258 119.641C19.2689 119.595 19.5314 119.684 19.7232 119.845C19.915 120.005 20.1775 120.095 20.3206 120.049C20.5059 119.989 20.5472 120.03 20.4711 120.195C20.3835 120.386 20.4501 120.41 20.8771 120.338C21.1579 120.291 21.3515 120.302 21.3072 120.362C21.263 120.422 21.2954 120.562 21.3797 120.673C21.5065 120.84 21.533 120.834 21.5351 120.631C21.5391 120.25 22.0225 120.346 22.2408 120.771C22.5066 121.288 22.5352 121.311 22.6809 121.114C22.8532 120.88 23.5352 121.506 23.5352 121.897C23.5352 122.028 24.2733 122.337 24.5864 122.337C24.6982 122.337 24.9078 122.174 25.052 121.976L25.3141 121.614L25.2985 122.219C25.284 122.785 25.314 122.827 25.7584 122.87C26.0632 122.899 26.1946 122.862 26.1243 122.767C26.0572 122.676 26.1148 122.651 26.2731 122.701C26.4153 122.747 26.5315 122.868 26.5315 122.969C26.5315 123.071 26.6813 123.193 26.8644 123.242C27.0475 123.291 27.1973 123.389 27.1973 123.46C27.1973 123.532 27.4349 123.59 27.7252 123.59C28.0155 123.59 28.3947 123.697 28.5676 123.828C28.8238 124.022 28.9079 124.032 29.0208 123.879C29.1949 123.643 30.0272 123.794 30.0272 124.061C30.0272 124.252 30.9918 124.267 31.3514 124.081C31.4471 124.032 31.5253 124.089 31.5253 124.208C31.5253 124.466 31.801 124.499 31.899 124.253C31.9427 124.144 32.1248 124.223 32.3981 124.47C32.6348 124.683 33.0408 124.879 33.3005 124.904C33.5602 124.93 33.7726 124.965 33.7726 124.984C33.7726 125.002 34.1283 125.032 34.5633 125.051C34.9982 125.071 35.354 125.043 35.354 124.989C35.354 124.936 35.6945 124.888 36.1109 124.883C36.784 124.874 36.8346 124.894 36.5686 125.062C36.2993 125.233 36.3328 125.253 36.9047 125.256C37.254 125.259 37.6848 125.326 37.8619 125.405C38.1024 125.513 38.1845 125.504 38.1863 125.37C38.1883 125.234 38.2236 125.237 38.3343 125.383C38.4142 125.489 38.559 125.534 38.6562 125.484C38.7534 125.433 38.9142 125.519 39.0136 125.675C39.2407 126.029 39.5222 126.033 39.968 125.685C40.3145 125.415 40.3192 125.416 40.7493 125.749C41.175 126.079 41.3717 126.145 41.8247 126.113C42.0001 126.1 42.0088 126.052 41.8621 125.904C41.7138 125.754 41.7333 125.691 41.9488 125.622C42.1015 125.573 42.2658 125.566 42.3137 125.606C42.3617 125.646 42.3157 125.679 42.2119 125.679C42.108 125.679 42.063 125.766 42.1121 125.873C42.2215 126.112 43.0102 126.26 43.0137 126.042C43.0152 125.949 43.0715 125.96 43.1539 126.069C43.2294 126.169 43.3594 126.24 43.4427 126.226C43.5257 126.213 43.6501 126.218 43.7187 126.237C43.7873 126.255 43.8998 126.284 43.9684 126.3C44.0369 126.316 44.2369 126.382 44.4125 126.446C44.6262 126.523 44.9 126.481 45.2403 126.318C45.5436 126.172 45.7718 126.131 45.8056 126.216C45.8369 126.295 45.9701 126.325 46.1016 126.282C46.2329 126.24 46.3404 126.262 46.3404 126.331C46.3404 126.429 49.8227 126.484 50.3771 126.395C50.6292 126.354 50.4923 126.112 50.1691 126.027C49.7175 125.907 49.7466 125.678 50.2107 125.699C50.4168 125.709 50.735 125.664 50.9181 125.601C51.2288 125.493 51.2326 125.501 50.9746 125.719C50.8224 125.847 50.7359 126.073 50.782 126.221C50.8542 126.452 51.0253 126.49 52.0156 126.498C52.958 126.505 53.1654 126.467 53.1654 126.287C53.1654 126.115 53.2673 126.088 53.6231 126.164C53.8748 126.218 54.5498 126.292 55.123 126.327C56.0077 126.383 56.2334 126.348 56.6171 126.095C56.8805 125.922 57.094 125.86 57.1287 125.947C57.2189 126.173 58.48 126.126 58.7672 125.886C58.9053 125.771 59.1059 125.722 59.2131 125.778C59.5325 125.945 59.8823 125.951 60.1098 125.793C60.2277 125.711 60.5298 125.678 60.7813 125.72C61.2548 125.799 61.8214 125.559 61.8214 125.28C61.8214 125.193 61.9424 125.122 62.0906 125.122C62.2777 125.122 62.3331 125.206 62.2725 125.4C62.161 125.757 62.7369 125.785 63.1872 125.444C63.4001 125.283 63.7344 125.22 64.2551 125.242C64.688 125.261 65.1255 125.197 65.2753 125.094C65.4829 124.951 65.5523 124.949 65.6077 125.087C65.6931 125.299 66.4202 125.318 66.5725 125.112C66.633 125.03 66.7786 124.994 66.8962 125.032C67.0138 125.07 67.2585 125.014 67.4401 124.907C67.6218 124.801 67.8137 124.75 67.8666 124.794C67.9196 124.839 68.229 124.737 68.5543 124.569C68.8795 124.401 69.1457 124.32 69.1457 124.389C69.1457 124.548 70.3998 124.47 70.8115 124.286C70.982 124.209 71.2949 124.147 71.5068 124.146C71.7189 124.146 72.1031 124.053 72.3608 123.941C72.6184 123.828 73.2017 123.695 73.657 123.645C74.2228 123.582 74.5619 123.461 74.7283 123.262C74.8728 123.09 74.9719 123.048 74.9719 123.16C74.9719 123.384 76.1245 123.276 76.3029 123.034C76.363 122.953 76.6688 122.86 76.9822 122.828C78.023 122.723 78.5486 122.586 78.7596 122.363C78.9215 122.192 79.0127 122.18 79.1674 122.31C79.4773 122.569 79.9874 122.507 80.0839 122.198C80.1387 122.023 80.311 121.919 80.5475 121.919C80.7544 121.919 81.1764 121.833 81.4852 121.729C81.794 121.624 82.1449 121.567 82.2651 121.604C82.3854 121.64 82.5962 121.554 82.7333 121.412C82.9124 121.226 83.0075 121.203 83.0696 121.328C83.1924 121.574 83.3139 121.548 83.8619 121.153C84.128 120.962 84.4837 120.805 84.6526 120.805C84.8214 120.805 84.9596 120.711 84.9596 120.597C84.9596 120.442 85.1545 120.388 85.7157 120.388C86.3817 120.388 87.8024 119.963 88.994 119.408C89.1529 119.334 89.3848 119.274 89.5092 119.274C89.6337 119.274 89.8734 119.146 90.042 118.99C90.2106 118.835 90.447 118.739 90.5672 118.777C90.6874 118.816 90.7858 118.762 90.7858 118.658C90.7858 118.552 91.0446 118.429 91.3772 118.377C91.7023 118.326 92.0083 118.197 92.0567 118.091C92.1053 117.986 92.2511 117.933 92.381 117.975C92.5106 118.016 92.6168 117.981 92.6168 117.896C92.6168 117.812 92.748 117.737 92.9081 117.731C93.0821 117.725 93.1157 117.692 92.9914 117.65C92.877 117.611 92.7833 117.491 92.7833 117.383C92.7833 117.137 93.559 117.116 93.6607 117.359C93.714 117.487 93.8212 117.468 94.0622 117.29C94.243 117.156 94.5117 117.046 94.6593 117.046C94.8068 117.046 94.9739 116.983 95.0305 116.907C95.0871 116.83 95.3243 116.768 95.5576 116.768C95.8662 116.768 95.9556 116.711 95.8858 116.559C95.8146 116.403 95.9111 116.35 96.2638 116.35C96.5244 116.35 96.8308 116.256 96.9448 116.141C97.0589 116.026 97.3014 115.932 97.484 115.932C97.7241 115.932 97.7938 115.861 97.7362 115.677C97.6706 115.467 97.8657 115.361 98.8212 115.085C99.6513 114.845 100.193 114.578 100.705 114.157C101.1 113.831 101.53 113.565 101.661 113.565C101.791 113.565 101.991 113.471 102.105 113.356C102.219 113.241 102.4 113.147 102.508 113.147C102.615 113.147 102.887 112.962 103.112 112.736C103.336 112.509 103.681 112.321 103.877 112.318C104.073 112.315 104.475 112.124 104.769 111.894C105.063 111.665 105.338 111.477 105.38 111.477C105.599 111.477 106.6 110.72 106.6 110.555C106.6 110.449 106.708 110.363 106.841 110.363C106.974 110.363 107.142 110.278 107.216 110.174C107.289 110.07 107.648 109.868 108.015 109.724C108.724 109.447 109.502 108.777 109.53 108.421C109.539 108.302 109.558 108.061 109.571 107.885C109.593 107.6 109.657 107.575 110.157 107.653C110.644 107.73 110.79 107.679 111.28 107.26C111.59 106.996 112.012 106.736 112.218 106.682C112.424 106.628 112.592 106.505 112.592 106.408C112.592 106.312 112.887 106.034 113.246 105.793C113.606 105.551 113.948 105.227 114.007 105.073C114.065 104.919 114.205 104.793 114.318 104.793C114.431 104.793 114.618 104.574 114.734 104.306C114.849 104.038 115.011 103.819 115.092 103.819C115.256 103.819 116.066 103.176 116.105 103.015C116.18 102.712 116.318 102.567 116.603 102.492C116.777 102.446 116.92 102.315 116.92 102.201C116.92 101.954 117.953 101.034 118.23 101.034C118.354 101.034 118.387 100.909 118.322 100.69C118.207 100.309 118.493 99.9822 119.013 99.8985C119.255 99.8595 119.338 99.7235 119.351 99.3463C119.373 98.7169 119.563 98.4161 119.768 98.6869C119.873 98.8249 119.912 98.7913 119.914 98.5625C119.915 98.3902 119.991 98.2493 120.083 98.2493C120.175 98.2493 120.25 98.1692 120.25 98.0713C120.25 97.9734 120.398 97.7873 120.579 97.6575C120.76 97.5277 120.872 97.341 120.826 97.2427C120.781 97.1443 120.914 97.0016 121.121 96.9255C121.428 96.813 121.508 96.6578 121.55 96.0921C121.579 95.7097 121.719 95.2894 121.861 95.1579C122.027 95.0044 122.083 94.7943 122.016 94.5707C121.938 94.312 121.993 94.1858 122.231 94.0796C122.452 93.9803 122.521 93.8443 122.455 93.6346C122.391 93.4273 122.421 93.3638 122.554 93.4321C122.668 93.4913 122.746 93.4435 122.746 93.3146C122.746 93.1953 122.819 93.0975 122.908 93.0975C122.996 93.0975 123.028 93.0084 122.978 92.8994C122.928 92.7905 123.043 92.5712 123.233 92.4121C123.455 92.2262 123.579 91.9434 123.579 91.6207C123.579 91.2138 123.63 91.135 123.85 91.2055C124.076 91.2782 124.104 91.2212 124.017 90.8591C123.931 90.4977 123.971 90.4129 124.261 90.3497C124.54 90.2886 124.587 90.2027 124.5 89.9104C124.441 89.7105 124.393 89.434 124.392 89.2959C124.392 89.1577 124.284 89.0101 124.152 88.9677C123.834 88.8659 123.844 88.642 124.166 88.642C124.53 88.642 124.788 88.001 124.551 87.6835C124.4 87.4811 124.44 87.3147 124.75 86.8527C124.964 86.535 125.191 86.275 125.256 86.275C125.32 86.275 125.403 86.0602 125.44 85.7974C125.478 85.5227 125.44 85.3541 125.351 85.4005C125.258 85.4482 125.242 85.3171 125.31 85.0774C125.373 84.8554 125.44 84.353 125.459 83.9609C125.485 83.4114 125.547 83.2653 125.728 83.3232C125.888 83.374 125.921 83.3408 125.832 83.2199C125.758 83.1205 125.781 82.9994 125.884 82.9464C126.016 82.8779 126.018 82.7017 125.891 82.3161C125.757 81.9101 125.764 81.7554 125.919 81.6751C126.205 81.5275 125.968 81.0744 125.658 81.1741C125.382 81.2628 125.315 81.0496 125.577 80.9142C125.684 80.8586 125.687 80.7401 125.585 80.5807C125.434 80.3434 125.477 79.4888 125.649 79.3455C125.694 79.3077 125.658 79.1622 125.568 79.0224C125.441 78.8237 125.481 78.7343 125.749 78.6144C126.001 78.5014 126.062 78.3822 125.978 78.1623C125.916 77.9982 125.847 77.7044 125.824 77.5094C125.801 77.3145 125.738 77.0611 125.685 76.9462C125.631 76.8314 125.596 76.6434 125.608 76.5285C125.652 76.0931 125.571 75.8189 125.421 75.896C125.336 75.9401 125.223 75.9167 125.169 75.8442C125.115 75.7717 125.148 75.6731 125.241 75.6249C125.511 75.4851 125.436 75.2373 125.151 75.3287C124.924 75.4014 124.906 75.2724 125.004 74.2994C125.087 73.4812 125.064 73.1869 124.919 73.1869C124.799 73.1869 124.762 73.0804 124.825 72.915C124.881 72.7653 124.818 72.3321 124.683 71.9524C124.548 71.5726 124.482 71.2251 124.535 71.1801C124.589 71.1351 124.538 71.0984 124.421 71.0984C124.303 71.0984 124.251 71.0077 124.303 70.894C124.417 70.6442 124.141 70.4689 124.02 70.7146C123.973 70.8108 123.976 70.6858 124.027 70.437C124.098 70.0915 124.06 69.9845 123.868 69.9845C123.71 69.9845 123.574 69.7959 123.503 69.48C123.36 68.8458 123.073 68.4534 122.748 68.4508C122.542 68.449 122.538 68.4268 122.724 68.328C122.91 68.2297 122.888 68.1336 122.605 67.8079C122.415 67.5884 122.18 67.1072 122.083 66.7388C121.987 66.3703 121.76 65.9356 121.578 65.7726C121.397 65.6097 121.248 65.3649 121.248 65.2286C121.248 65.0654 121.163 65.0082 120.999 65.0608C120.81 65.1214 120.749 65.0362 120.749 64.7127C120.749 64.3697 120.694 64.3023 120.47 64.374C120.259 64.4418 120.218 64.407 120.299 64.2304C120.357 64.1022 120.333 63.9974 120.244 63.9974C120.156 63.9974 120.083 63.9034 120.083 63.7885C120.083 63.6736 120.156 63.5796 120.244 63.5796C120.333 63.5796 120.362 63.4857 120.31 63.3708C120.257 63.2559 120.11 63.1619 119.982 63.1619C119.854 63.1619 119.75 63.068 119.75 62.9531C119.75 62.8382 119.638 62.7442 119.5 62.7442C119.363 62.7442 119.251 62.6502 119.251 62.5354C119.251 62.4205 119.12 62.2151 118.959 62.079C118.521 61.7067 117.753 60.6868 117.753 60.4776C117.753 60.2153 117.405 59.9595 117.048 59.9595C116.88 59.9595 116.7 59.8655 116.648 59.7507C116.595 59.6358 116.464 59.5418 116.356 59.5418C116.249 59.5418 116.061 59.2599 115.939 58.9153C115.797 58.513 115.621 58.2849 115.445 58.278C115.026 58.2617 114.568 58.178 114.476 58.1006C114.43 58.0623 114.295 57.7929 114.175 57.5019C114.008 57.0941 113.869 56.972 113.569 56.9693C113.268 56.9668 113.16 56.871 113.092 56.5483C113.026 56.23 112.907 56.1216 112.591 56.0934C110.407 55.8973 110.428 55.9017 110.67 55.6996C110.799 55.592 110.982 55.504 111.077 55.504C111.172 55.504 111.207 55.41 111.154 55.2951C111.092 55.159 110.833 55.0863 110.41 55.0863C109.866 55.0863 109.762 55.0401 109.762 54.7985C109.762 54.5739 109.689 54.53 109.429 54.599C109.207 54.6579 109.097 54.624 109.097 54.497C109.097 54.3163 108 53.8808 107.712 53.9472C107.637 53.9645 107.59 53.8676 107.607 53.7318C107.623 53.5961 107.628 53.4135 107.618 53.3261C107.598 53.1607 106.837 52.9311 106.475 52.9812C106.36 52.9971 106.266 52.8975 106.264 52.7602C106.262 52.5476 106.237 52.5415 106.098 52.7193C105.952 52.9049 105.915 52.9049 105.764 52.7193C105.617 52.5383 105.562 52.5465 105.348 52.7807C105.055 53.1022 105.018 52.9664 105.297 52.5927C105.454 52.3826 105.44 52.2861 105.226 52.1072C105.079 51.9844 104.887 51.8839 104.798 51.8839C104.71 51.8839 104.595 51.7899 104.542 51.675C104.489 51.5602 104.271 51.4662 104.057 51.4662C103.842 51.4662 103.522 51.3741 103.344 51.2618C103.166 51.1493 102.831 51.0553 102.6 51.0529C102.368 51.0504 102.047 50.9197 101.886 50.7622C101.662 50.5429 101.464 50.4932 101.039 50.5497C100.619 50.6054 100.41 50.5552 100.181 50.3434C99.9482 50.1278 99.7614 50.0847 99.3719 50.1562C98.9176 50.2398 98.8888 50.226 99.0909 50.0223C99.2886 49.8231 99.2665 49.7953 98.9109 49.7953C98.688 49.7953 98.3541 49.6771 98.1688 49.5327C97.9097 49.3309 97.6132 49.2764 96.8836 49.2969C96.1906 49.3164 95.9564 49.2774 96.014 49.1519C96.0573 49.0575 96.0035 48.9191 95.8946 48.8445C95.6198 48.6563 94.2633 48.348 93.8938 48.3898C93.7263 48.4087 93.328 48.3206 93.0089 48.1939C92.6896 48.0672 92.2273 47.9346 91.9816 47.8994C91.2459 47.7936 90.8758 47.6781 90.7473 47.514C90.6617 47.4047 90.4701 47.4322 90.1006 47.6067C89.8118 47.7432 89.5356 47.8214 89.487 47.7807C89.4384 47.7401 89.486 47.7068 89.5927 47.7068C89.6996 47.7068 89.787 47.6442 89.787 47.5676C89.787 47.491 89.5974 47.4283 89.3655 47.4283C89.1336 47.4283 88.6667 47.3314 88.3278 47.2129C87.9889 47.0945 87.5231 46.9747 87.2927 46.9466C87.0623 46.9186 86.4408 46.8239 85.9113 46.7363C85.3817 46.6488 84.7918 46.6187 84.6004 46.6695C84.4038 46.7217 84.2017 46.6936 84.1361 46.6049C84.0723 46.5186 83.6392 46.4252 83.1736 46.3974C82.708 46.3696 82.2288 46.2959 82.1084 46.2338C81.9881 46.1716 81.6791 46.1342 81.4218 46.1504C81.1644 46.1669 80.8059 46.114 80.6248 46.0329C80.4436 45.9519 79.6783 45.8622 78.9239 45.8338C78.1693 45.8053 77.338 45.7128 77.0765 45.6283C76.6768 45.4991 72.7757 45.3005 71.2791 45.3331C71.0332 45.3384 70.7879 45.2827 70.7336 45.2093C70.6793 45.136 70.1906 45.0776 69.6476 45.0799C69.1046 45.0821 68.5037 45.0423 68.3124 44.9914C68.121 44.9406 67.8573 44.9735 67.7263 45.0644C67.5457 45.1899 67.3569 45.1917 66.9453 45.0716C66.5825 44.9658 66.3838 44.9605 66.3458 45.0559C66.3092 45.1475 66.1855 45.152 65.9993 45.0686C65.84 44.9973 64.9657 44.9313 64.0568 44.9218C61.7921 44.8986 61.8555 44.8915 61.8815 45.1658C61.9093 45.4589 61.3387 45.4282 61.054 45.1214C60.9277 44.9852 60.53 44.9221 59.7972 44.9221C59.1853 44.9221 58.6395 44.8504 58.5255 44.755C58.3715 44.6262 58.3257 44.626 58.3257 44.754C58.3257 44.8565 58.0867 44.9128 57.7015 44.9009C57.3582 44.8905 56.8434 44.9254 56.5574 44.9788C56.1632 45.0523 56.013 45.0226 55.9368 44.8565C55.8542 44.6762 55.7788 44.6673 55.5127 44.8064C55.2698 44.9332 55.0416 44.9377 54.5993 44.8241C54.1317 44.7041 53.9699 44.7127 53.8182 44.8656ZM63.8189 46.5233C63.8189 46.6382 63.6974 46.7322 63.5489 46.7322C63.3277 46.7322 63.3162 46.6944 63.486 46.5233C63.6 46.4084 63.7216 46.3145 63.756 46.3145C63.7906 46.3145 63.8189 46.4084 63.8189 46.5233ZM38.7969 47.5938C38.7438 47.7047 38.7043 47.6717 38.6963 47.5095C38.6892 47.3628 38.7285 47.2806 38.7837 47.3268C38.839 47.3731 38.845 47.4932 38.7969 47.5938ZM33.163 47.6007C33.2765 47.6957 33.4909 47.7739 33.6397 47.7748C34.0462 47.7773 34.09 48.0878 33.6985 48.1918C33.2296 48.3162 33.2697 48.4857 33.8228 48.7164C34.2097 48.8779 34.3244 48.8796 34.4952 48.7267C34.618 48.6167 34.6314 48.5422 34.5281 48.5422C34.4331 48.5422 34.3552 48.4723 34.3552 48.3867C34.3552 48.3012 34.4985 48.2626 34.6738 48.3009C34.888 48.3479 35.0187 48.2865 35.0728 48.1135C35.1664 47.8137 34.7805 47.4691 34.6099 47.7C34.5506 47.7803 34.5857 47.846 34.6881 47.846C34.7905 47.846 34.8279 47.9087 34.7713 47.9853C34.5817 48.2418 34.3552 48.128 34.3552 47.7764C34.3552 47.4604 34.2908 47.4283 33.6561 47.4283C33.1002 47.4283 32.9992 47.4637 33.163 47.6007ZM37.8509 47.9157C37.8509 48.1585 37.7628 48.2604 37.5596 48.2528C37.3856 48.2462 37.352 48.2135 37.4763 48.1716C37.5909 48.1329 37.6844 47.9812 37.6844 47.8345C37.6844 47.6876 37.7219 47.5676 37.7677 47.5676C37.8134 47.5676 37.8509 47.7242 37.8509 47.9157ZM105.101 52.4326C105.101 52.5047 105.027 52.6023 104.935 52.6497C104.843 52.697 104.769 52.638 104.769 52.5186C104.769 52.3993 104.843 52.3016 104.935 52.3016C105.027 52.3016 105.101 52.3605 105.101 52.4326ZM109.596 54.9553C109.596 55.1129 109.524 55.2049 109.437 55.1597C109.349 55.1144 109.32 54.9853 109.371 54.873C109.503 54.5852 109.596 54.619 109.596 54.9553ZM113.538 57.4795C113.485 57.5904 113.446 57.5574 113.438 57.3952C113.431 57.2485 113.47 57.1663 113.525 57.2126C113.58 57.2588 113.586 57.3789 113.538 57.4795ZM54.5096 60.1336C54.5675 60.5069 54.4896 60.7949 54.3306 60.7949C54.2391 60.7949 54.1642 60.7076 54.1642 60.601C54.1642 60.4943 54.0579 60.3729 53.9283 60.3313C53.643 60.2397 53.4331 60.6092 53.7157 60.7053C53.8634 60.7555 53.861 60.7757 53.7064 60.7839C53.592 60.7899 53.4983 60.8889 53.4983 61.0038C53.4983 61.1187 53.4234 61.2126 53.3318 61.2126C53.2403 61.2126 53.1654 61.1187 53.1654 61.0038C53.1654 60.8889 53.0554 60.7949 52.9208 60.7949C52.7799 60.7949 52.7143 60.7125 52.7659 60.6001C52.8989 60.3101 52.5635 60.2044 52.2751 60.4456C52.137 60.5612 51.8688 60.6557 51.679 60.6557C51.4332 60.6557 51.3336 60.7456 51.3318 60.969C51.3298 61.2164 51.2967 61.2392 51.1743 61.0774C50.9651 60.8008 50.759 60.9975 50.9296 61.3111C51.0044 61.4484 51.0718 61.6234 51.0794 61.7C51.0871 61.7765 51.1552 61.9216 51.2306 62.0226C51.4971 62.3789 51.1668 62.3637 50.7315 61.9996C50.2751 61.6178 49.8361 61.5134 49.8361 61.7866C49.8361 61.8946 49.7589 61.8893 49.5865 61.7696C49.2142 61.5112 49.284 61.2539 49.7529 61.1554C50.196 61.0624 50.3292 60.7949 49.9324 60.7949C49.8022 60.7949 49.4391 61.0456 49.1257 61.3519C48.8122 61.6582 48.4753 61.9088 48.3769 61.9088C48.2784 61.9088 48.1486 62.0968 48.0883 62.3265C47.9969 62.6743 47.8974 62.7442 47.4925 62.7442C47.225 62.7442 47.0063 62.8094 47.0063 62.8889C47.0063 62.9724 46.9084 62.9577 46.7751 62.8541C46.5117 62.6498 46.7506 62.4459 47.116 62.5632C47.2388 62.6025 47.3392 62.5655 47.3392 62.4807C47.3392 62.3959 47.2563 62.3265 47.1549 62.3265C47.0517 62.3265 47.0153 62.2193 47.072 62.0829C47.1536 61.887 47.1231 61.8938 46.9169 62.117C46.6967 62.3553 46.6379 62.3652 46.5029 62.1866C46.3634 62.002 46.3429 62.0021 46.3233 62.1873C46.311 62.3022 46.3062 62.4339 46.3125 62.48C46.3188 62.5262 46.3428 62.8283 46.3656 63.1516L46.407 63.7395L46.9976 63.6468C47.3224 63.5958 47.6257 63.505 47.6718 63.4451C47.7177 63.3851 47.9854 63.2945 48.2666 63.2435C48.7218 63.1608 48.7726 63.1019 48.7313 62.7039C48.7057 62.458 48.7252 62.369 48.7746 62.5061C48.8535 62.7253 48.9264 62.7044 49.3819 62.3321C49.9558 61.8627 50.1691 61.8047 50.1691 62.1177C50.1691 62.2325 50.252 62.3265 50.3533 62.3265C50.4547 62.3265 50.4967 62.4158 50.4467 62.5248C50.368 62.6962 50.4322 62.6962 50.923 62.5248C51.6369 62.2752 51.7258 62.2765 51.607 62.5354C51.5544 62.6502 51.5838 62.7442 51.6724 62.7442C51.7611 62.7442 51.8337 62.6502 51.8337 62.5354C51.8337 62.375 52.0464 62.3265 52.7492 62.3265C53.2528 62.3265 53.6648 62.2639 53.6648 62.1873C53.6648 62.1107 53.8895 62.0481 54.1642 62.0481C54.4971 62.0481 54.6635 61.9784 54.6635 61.8392C54.6635 61.5979 54.9254 61.5607 55.0867 61.7791C55.1471 61.8609 55.2993 61.8949 55.4246 61.8547C55.5501 61.8144 55.7672 61.8772 55.9072 61.9943C56.1294 62.1802 56.1617 62.1809 56.1617 62C56.1617 61.7179 56.5262 61.6369 56.7926 61.8597C56.9124 61.9599 57.162 62.1306 57.3472 62.2392C57.5325 62.3478 57.702 62.5215 57.7238 62.6252C57.8273 63.1179 58.0369 63.4404 58.2536 63.4404C58.3848 63.4404 58.4922 63.5191 58.4922 63.6153C58.4922 63.7115 58.7149 63.8726 58.9872 63.9734C59.4175 64.1327 59.5479 64.1242 59.986 63.9078C60.5523 63.628 60.5902 63.5443 60.2563 63.3125C60.128 63.2235 59.9742 62.9879 59.9146 62.7891C59.7724 62.3157 59.015 61.4911 58.722 61.4911C58.5957 61.4911 58.4922 61.404 58.4922 61.2973C58.4922 61.1908 58.3134 61.066 58.095 61.0202C57.8766 60.9744 57.5209 60.7807 57.3043 60.5898C57.0879 60.399 56.761 60.2466 56.5779 60.2514C56.3947 60.2561 56.3386 60.2916 56.453 60.3302C56.762 60.4345 56.7052 60.6137 56.3375 60.694C56.086 60.749 55.9902 60.6749 55.908 60.3622C55.8131 60.0007 55.7349 59.9595 55.1425 59.9595C54.711 59.9595 54.4919 60.0198 54.5096 60.1336ZM55.5791 60.9342C55.6357 61.0108 55.607 61.0734 55.5155 61.0734C55.4239 61.0734 55.3027 61.0108 55.2462 60.9342C55.1896 60.8576 55.2182 60.7949 55.3097 60.7949C55.4013 60.7949 55.5225 60.8576 55.5791 60.9342ZM44.4692 62.5273C44.2184 62.6369 43.7689 62.7492 43.4705 62.7772L42.928 62.8279L43.5106 63.0714C44.0451 63.2949 44.0541 63.3081 43.6195 63.2324C43.35 63.1855 43.042 63.222 42.905 63.3172C42.7226 63.4438 42.6174 63.4451 42.4715 63.3232C42.2004 63.0964 42.0049 63.1227 42.1186 63.3708C42.1714 63.4857 42.3269 63.5796 42.4642 63.5796C42.6177 63.5796 42.677 63.6601 42.618 63.7885C42.5578 63.9199 42.6199 63.9974 42.7857 63.9974C42.9836 63.9974 43.0308 64.1011 42.9757 64.4151C42.892 64.8922 42.9669 64.9366 43.2704 64.5895C43.4195 64.4188 43.4314 64.2942 43.31 64.1718C43.1785 64.0393 43.2461 63.9974 43.5913 63.9974C43.9014 63.9974 44.0186 64.0562 43.9604 64.183C43.8597 64.4027 44.3291 64.4411 44.6362 64.2384C44.7982 64.1314 44.8015 64.0543 44.6505 63.9023C44.4974 63.748 44.515 63.6544 44.7318 63.4733C44.9079 63.3258 45.0087 63.3031 45.0087 63.4106C45.0087 63.5036 45.1562 63.5796 45.3365 63.5796C45.5594 63.5796 45.6335 63.5128 45.5684 63.3708C45.515 63.2543 45.2674 63.1619 45.0087 63.1619C44.7501 63.1619 44.5025 63.0696 44.4491 62.9531C44.3923 62.8294 44.4474 62.7442 44.5839 62.7442C44.7108 62.7442 44.8523 62.8226 44.8985 62.9183C44.9447 63.0141 44.9884 62.9199 44.9956 62.7094C45.0109 62.2619 45.048 62.2747 44.4692 62.5273ZM45.3417 62.7442C45.1917 62.8253 45.1711 62.88 45.2902 62.8814C45.3993 62.8825 45.5348 62.8208 45.5914 62.7442C45.719 62.5713 45.6614 62.5713 45.3417 62.7442ZM41.0586 63.3921C40.7184 63.5099 40.482 63.7086 40.4144 63.9334C40.2844 64.3672 40.478 64.5739 40.7015 64.2399C40.7908 64.1065 41.0286 63.9964 41.2301 63.9953C41.7243 63.9923 42.1544 63.7524 41.9126 63.6145C41.8118 63.5571 41.6995 63.4417 41.6629 63.358C41.6164 63.252 41.4335 63.2623 41.0586 63.3921ZM41.0137 64.7002C41.0137 64.7895 40.9013 64.8265 40.764 64.7824C40.6266 64.7384 40.5143 64.765 40.5143 64.8415C40.5143 64.9181 40.622 65.0153 40.7535 65.0575C40.8873 65.1005 40.9496 65.2283 40.8946 65.3478C40.8132 65.5253 40.8554 65.5351 41.144 65.4059C41.3349 65.3204 41.6316 65.2505 41.8032 65.2505C41.9748 65.2505 42.2606 65.1582 42.4384 65.0454C42.7347 64.8571 42.6956 64.8449 41.9673 64.8975C41.5305 64.929 41.2134 64.9003 41.2625 64.8337C41.3118 64.7672 41.2758 64.6735 41.1828 64.6253C41.0897 64.5773 41.0137 64.611 41.0137 64.7002ZM37.06 65.2847C37.098 65.3801 37.2353 65.4645 37.3652 65.4723C38.1124 65.5172 38.169 65.5385 38.0768 65.7393C38.005 65.8958 38.0561 65.9255 38.2759 65.8549C38.4696 65.7927 38.5324 65.8128 38.4581 65.9134C38.3959 65.9976 38.4305 66.1109 38.535 66.165C38.6519 66.2254 38.5242 66.334 38.2048 66.4464C37.9186 66.547 37.6844 66.695 37.6844 66.7754C37.6844 66.9805 37.9511 66.9568 38.2253 66.7275C38.3528 66.6208 38.5931 66.5112 38.7594 66.4838C38.9257 66.4564 39.1267 66.2872 39.2057 66.1077C39.3221 65.8443 39.2878 65.768 39.0279 65.7111C38.851 65.6724 38.7428 65.5611 38.7874 65.4639C38.8801 65.2616 38.3646 65.116 37.5458 65.1132C37.1761 65.1119 37.0139 65.1692 37.06 65.2847ZM39.9601 65.3997C39.5977 65.7535 39.6715 65.8768 40.0916 65.6197C40.2578 65.5182 40.364 65.3607 40.3278 65.2698C40.2862 65.1654 40.1511 65.213 39.9601 65.3997ZM36.02 65.5288C35.8392 65.6224 35.8384 65.7196 36.0156 66.0775C36.1342 66.3167 36.2703 66.4798 36.3183 66.4397C36.366 66.3996 36.5049 66.4359 36.6266 66.5204C36.7482 66.6048 36.9668 66.6359 37.1121 66.5892C37.3525 66.5121 37.3527 66.4847 37.1141 66.2851C36.97 66.1647 36.8521 65.9916 36.8521 65.9006C36.8521 65.6552 36.2747 65.3972 36.02 65.5288ZM33.8571 66.7784C33.6695 66.8777 33.6559 66.949 33.801 67.0704C34.0289 67.261 34.3552 67.1274 34.3552 66.8435C34.3552 66.6118 34.2085 66.5927 33.8571 66.7784ZM35.9339 67.2098C35.8067 67.6941 35.9827 67.975 36.126 67.5167C36.1831 67.3341 36.3093 67.2479 36.4524 67.2939C36.7381 67.3856 36.7582 67.1769 36.4859 66.9491C36.176 66.6899 36.0556 66.7467 35.9339 67.2098ZM30.3485 70.3674C30.3548 70.6162 30.2852 70.8199 30.1936 70.8199C30.1021 70.8199 30.0272 70.7572 30.0272 70.6807C30.0272 70.6041 29.9005 70.5414 29.7457 70.5414C29.499 70.5414 29.5042 70.5144 29.7873 70.3238C30.0165 70.1695 30.05 70.0851 29.9023 70.0338C29.788 69.9939 29.6943 69.8777 29.6943 69.7756C29.6943 69.499 30.0933 69.4363 30.2236 69.6925C30.2859 69.8147 30.342 70.1186 30.3485 70.3674ZM28.4458 70.4332C28.5408 70.4925 28.4872 70.5381 28.3209 70.5393C28.159 70.5404 28.0296 70.4384 28.0296 70.3093C28.0296 70.1818 28.0859 70.134 28.1545 70.2034C28.2231 70.2726 28.3542 70.3761 28.4458 70.4332ZM26.0321 72.6382C26.0321 72.7103 25.9572 72.7692 25.8656 72.7692C25.7741 72.7692 25.6992 72.6714 25.6992 72.5521C25.6992 72.4328 25.7741 72.3738 25.8656 72.4211C25.9572 72.4684 26.0321 72.566 26.0321 72.6382ZM27.1294 72.8388C26.8954 73.1376 26.8919 73.1869 27.1044 73.1869C27.3205 73.1869 27.6967 72.7947 27.6967 72.5695C27.6967 72.3714 27.3764 72.5234 27.1294 72.8388ZM24.9501 73.8831C24.8935 73.9596 24.9641 74.0223 25.1067 74.0223C25.2494 74.0223 25.3663 73.9596 25.3663 73.8831C25.3663 73.8065 25.2958 73.7438 25.2096 73.7438C25.1234 73.7438 25.0067 73.8065 24.9501 73.8831ZM25.5327 74.2312C25.3176 74.4226 25.1813 74.5792 25.2298 74.5792C25.278 74.5792 25.5197 74.4226 25.7666 74.2312C26.0136 74.0397 26.15 73.8831 26.0697 73.8831C25.9893 73.8831 25.7478 74.0397 25.5327 74.2312ZM121.838 76.6582C121.785 76.7295 121.818 76.8271 121.911 76.8752C122.005 76.9233 122.081 76.8649 122.081 76.7456C122.081 76.501 121.981 76.465 121.838 76.6582ZM17.9968 78.8404C17.9416 78.8866 17.7979 78.8916 17.6779 78.8514C17.545 78.807 17.5845 78.774 17.7784 78.7673C17.9539 78.7613 18.0521 78.7942 17.9968 78.8404ZM16.5772 80.3305C16.3595 80.5345 16.3467 80.6326 16.5095 80.8507C16.7712 81.2011 16.772 81.1993 16.3379 81.2268C16.0434 81.2453 16.0173 81.2223 16.213 81.1172C16.4188 81.0065 16.4224 80.9635 16.2343 80.862C16.0472 80.7612 16.0447 80.6551 16.2193 80.2509C16.383 79.8726 16.4779 79.7978 16.6382 79.9204C16.8026 80.0462 16.79 80.1311 16.5772 80.3305ZM16.0444 80.2879C16.0444 80.3645 15.9695 80.4271 15.8779 80.4271C15.7864 80.4271 15.7115 80.3645 15.7115 80.2879C15.7115 80.2113 15.7864 80.1487 15.8779 80.1487C15.9695 80.1487 16.0444 80.2113 16.0444 80.2879ZM12.5487 83.8302C12.5487 83.864 12.4738 83.9303 12.3822 83.9776C12.2907 84.025 12.2158 83.9973 12.2158 83.9162C12.2158 83.8352 12.2907 83.7688 12.3822 83.7688C12.4738 83.7688 12.5487 83.7963 12.5487 83.8302ZM13.4143 86.3029C13.259 86.4328 13.2145 86.3957 13.2145 86.1358C13.2145 85.8758 13.259 85.8388 13.4143 85.9687C13.5696 86.0986 13.5696 86.173 13.4143 86.3029ZM10.3847 90.2997C10.3847 90.3692 10.2349 90.3932 10.0518 90.3532C9.86865 90.3131 9.71884 90.2563 9.71884 90.2269C9.71884 90.1977 9.86865 90.1736 10.0518 90.1736C10.2349 90.1736 10.3847 90.2304 10.3847 90.2997ZM10.7176 91.0172C10.7176 91.1748 10.646 91.2669 10.5585 91.2216C10.4709 91.1764 10.4414 91.0473 10.4931 90.9349C10.6251 90.6471 10.7176 90.681 10.7176 91.0172ZM109.595 104.057C109.414 104.294 109.409 104.293 109.5 104.051C109.553 103.911 109.602 103.723 109.609 103.633C109.619 103.516 109.645 103.518 109.704 103.639C109.749 103.732 109.7 103.92 109.595 104.057ZM103.785 109.703C103.611 110.086 103.27 110.338 103.27 110.084C103.27 109.921 103.819 109.249 103.899 109.313C103.925 109.333 103.873 109.509 103.785 109.703ZM94.5693 113.092C94.514 113.139 94.3703 113.144 94.2503 113.103C94.1175 113.059 94.1569 113.026 94.3509 113.019C94.5263 113.013 94.6245 113.046 94.5693 113.092ZM91.7845 115.778C91.7845 115.846 91.6722 115.938 91.5348 115.983C91.3827 116.031 91.2851 115.983 91.2851 115.858C91.2851 115.746 91.3975 115.654 91.5348 115.654C91.6722 115.654 91.7845 115.71 91.7845 115.778ZM93.7293 116.237C93.6762 116.348 93.6367 116.315 93.6288 116.153C93.6216 116.006 93.6609 115.924 93.7161 115.97C93.7714 116.016 93.7774 116.136 93.7293 116.237ZM18.2916 116.211C18.3482 116.287 18.3151 116.35 18.2182 116.35C18.1213 116.35 18.0419 116.287 18.0419 116.211C18.0419 116.134 18.0749 116.071 18.1153 116.071C18.1558 116.071 18.235 116.134 18.2916 116.211ZM92.2075 117.195C92.3783 117.426 92.225 117.458 91.9861 117.241C91.8679 117.134 91.8448 117.046 91.9347 117.046C92.0244 117.046 92.1472 117.113 92.2075 117.195ZM16.2941 117.742C16.3507 117.819 16.4299 117.881 16.4704 117.881C16.5108 117.881 16.5438 117.819 16.5438 117.742C16.5438 117.666 16.4644 117.603 16.3675 117.603C16.2706 117.603 16.2375 117.666 16.2941 117.742ZM83.5447 119.413C83.6013 119.49 83.5307 119.552 83.388 119.552C83.2454 119.552 83.1285 119.49 83.1285 119.413C83.1285 119.336 83.1989 119.274 83.2852 119.274C83.3714 119.274 83.4881 119.336 83.5447 119.413ZM84.2105 120.666C84.2671 120.743 84.1922 120.805 84.0441 120.805C83.8959 120.805 83.821 120.743 83.8776 120.666C83.9342 120.59 84.0091 120.527 84.0441 120.527C84.079 120.527 84.1539 120.59 84.2105 120.666ZM77.99 121.828C77.8881 121.93 77.8538 122.056 77.9141 122.106C77.9743 122.157 77.9362 122.198 77.8295 122.198C77.6068 122.198 77.5973 122.164 77.7363 121.861C77.7919 121.74 77.9134 121.641 78.0063 121.641C78.1127 121.641 78.1065 121.71 77.99 121.828ZM37.185 122.198C37.185 122.274 37.1101 122.337 37.0186 122.337C36.927 122.337 36.8521 122.274 36.8521 122.198C36.8521 122.121 36.927 122.059 37.0186 122.059C37.1101 122.059 37.185 122.121 37.185 122.198ZM64.4848 123.033C64.4848 123.11 64.4518 123.172 64.4114 123.172C64.3709 123.172 64.2917 123.11 64.2351 123.033C64.1785 122.957 64.2116 122.894 64.3085 122.894C64.4054 122.894 64.4848 122.957 64.4848 123.033ZM40.431 123.172C40.4876 123.249 40.4545 123.312 40.3576 123.312C40.2608 123.312 40.1814 123.249 40.1814 123.172C40.1814 123.096 40.2143 123.033 40.2548 123.033C40.2952 123.033 40.3745 123.096 40.431 123.172ZM41.3882 123.265C41.2738 123.303 41.0866 123.303 40.972 123.265C40.8577 123.226 40.9512 123.194 41.1801 123.194C41.409 123.194 41.5027 123.226 41.3882 123.265ZM64.1519 123.645C64.1519 123.751 64.048 123.872 63.921 123.913C63.759 123.965 63.7152 123.907 63.774 123.719C63.8704 123.411 64.1519 123.355 64.1519 123.645ZM43.8435 123.869C43.8435 123.945 43.7686 124.008 43.6771 124.008C43.5855 124.008 43.5106 123.945 43.5106 123.869C43.5106 123.792 43.5855 123.729 43.6771 123.729C43.7686 123.729 43.8435 123.792 43.8435 123.869ZM62.97 124.53C63.0967 124.734 63.1047 124.843 62.9925 124.843C62.8977 124.843 62.8202 124.749 62.8202 124.634C62.8202 124.519 62.7408 124.425 62.6439 124.425C62.547 124.425 62.517 124.359 62.5773 124.277C62.7033 124.107 62.7088 124.11 62.97 124.53ZM63.486 124.286C63.486 124.363 63.4066 124.425 63.3097 124.425C63.2129 124.425 63.1797 124.363 63.2363 124.286C63.2929 124.21 63.3722 124.147 63.4126 124.147C63.4531 124.147 63.486 124.21 63.486 124.286ZM35.8533 125.122C35.8533 125.198 35.9283 125.261 36.0198 125.261C36.1114 125.261 36.1863 125.198 36.1863 125.122C36.1863 125.045 36.1114 124.982 36.0198 124.982C35.9283 124.982 35.8533 125.045 35.8533 125.122ZM42.8447 125.322C42.8447 125.356 42.7698 125.422 42.6783 125.47C42.5867 125.517 42.5118 125.489 42.5118 125.408C42.5118 125.327 42.5867 125.261 42.6783 125.261C42.7698 125.261 42.8447 125.288 42.8447 125.322ZM39.682 125.624C39.682 125.654 39.5696 125.679 39.4323 125.679C39.2949 125.679 39.1826 125.618 39.1826 125.544C39.1826 125.47 39.2949 125.445 39.4323 125.489C39.5696 125.533 39.682 125.594 39.682 125.624Z" fill="#D4D7E2" stroke="#D4D7E2" stroke-width="3"/>
<path d="M75.5921 40.7153C75.5921 55.3323 45.5959 67.999 33.4089 67.999C21.222 67.999 22.9083 58.366 22.9083 43.749C22.9083 29.1321 41.4721 9.24902 53.659 9.24902C65.8459 9.24902 75.5921 26.0984 75.5921 40.7153Z" fill="#FFD000"/>
<path d="M73.6582 102.249C73.6582 116.866 55.6914 121.249 38.9082 121.249C33.4082 118.999 25.1582 114.366 25.1582 99.749C25.1582 85.1321 34.6699 76.999 51.4531 76.999C68.2363 76.999 73.6582 87.6321 73.6582 102.249Z" fill="#FFD000"/>
<path d="M118.158 67.999C120.908 77.249 123.191 97.999 106.408 97.999C100.908 95.749 80.9082 78.7224 80.9082 64.1055C80.9082 49.4885 85.1581 46.749 91.9082 46.749C98.6583 46.749 109.408 49.999 118.158 67.999Z" fill="#FFD000"/>
<path fill-rule="evenodd" clip-rule="evenodd" d="M69.1963 16.6826C67.449 15.0462 65.4158 13.7302 63.7943 11.9706C55.3339 2.79802 42.6791 5.72083 35.9093 10.5905C25.8692 17.8261 19.1635 28.1471 15.7355 40.5456C13.1577 49.8784 16.046 56.663 23.7079 61.9023C26.0614 63.4993 28.4963 65.387 30.0292 67.7751C31.7321 70.4367 33.6987 70.8359 36.2642 70.6338C44.8823 69.9462 53.0173 67.2649 60.1272 62.2301C67.2642 57.1904 74.3395 51.6109 75.4066 41.3761C75.7171 38.409 75.7664 35.3999 75.9291 32.418C75.6013 22.8141 75.5619 22.6662 69.1963 16.6826ZM19.5381 41.5487C22.6926 30.2074 28.9867 20.9042 38.0435 14.0826C42.7604 10.5338 48.6479 9.25974 54.2274 10.8247C60.9183 12.7124 65.1053 21.052 64.1245 28.5537C62.0199 44.7499 48.118 58.2673 32.7967 59.0017C22.7788 59.4897 16.7065 51.7686 19.5381 41.5487ZM58.8408 58.2451C52.2213 62.6934 45.003 65.3821 37.2204 66.4049C34.9087 66.7129 33.5755 65.6606 32.1707 63.1493C43.1892 63.4032 51.376 58.3955 58.1261 50.1175C64.6839 42.081 69.1815 33.2978 67.9567 21.7938C70.7267 23.6347 71.9983 25.796 71.7297 28.8421C71.7001 29.2265 71.747 29.6233 71.7938 30.0102C73.6322 42.6059 68.6147 51.6824 58.8408 58.2451Z" fill="#202124"/>
<path fill-rule="evenodd" clip-rule="evenodd" d="M122.469 79.4912C121.257 63.3048 108.688 47.774 93.8152 44.1809C91.9669 43.7274 90.1605 43.6781 88.4896 44.8315C84.5712 47.5177 80.7562 50.3765 76.7269 52.8507C72.6507 55.3595 70.4377 58.5583 71.8745 63.2334C71.0267 70.0795 72.9317 75.9202 75.2507 81.5367C79.0311 90.6846 85.4707 97.2055 93.591 102.235C97.47 104.641 100.698 104.872 104.449 102.499C106.108 101.439 108.207 101.168 109.888 100.133C118.405 94.9037 123.167 88.8658 122.469 79.4912ZM95.1707 98.2134C86.7744 93.3585 80.7415 86.2708 77.5993 76.5684C76.202 72.2384 75.6426 67.8295 75.5119 63.1964C75.3789 58.721 77.5697 57.0526 80.5763 55.5813C80.0366 74.3676 88.253 87.8825 102.125 98.1888C99.9541 100.047 98.6209 100.212 95.1707 98.2134ZM110.117 95.1058C108.348 95.9782 106.763 95.3645 105.179 94.6055C96.4768 90.4184 91.5061 82.6087 87.6443 73.8476C85.9389 69.9612 84.342 65.959 84.4184 62.2796C84.4085 55.8352 87.7256 50.4627 92.4647 48.6045C92.9749 48.4024 93.6896 48.4862 94.212 48.6982C100.176 51.0887 106.233 53.2869 110.181 59.209C114.001 64.9092 116.831 71.1047 118.267 77.8942C119.741 84.8538 116.101 92.1435 110.117 95.1058Z" fill="#202124"/>
<path fill-rule="evenodd" clip-rule="evenodd" d="M76.3309 98.0184C74.2953 94.0408 73.0064 89.7158 70.6873 85.8343C66.2612 78.4336 56.3296 73.3125 48.4065 75.5354C42.4968 77.1841 36.555 79.2247 31.5966 83.185C25.4725 88.0769 22.1628 94.4672 23.018 103.058C23.5626 108.556 27.1533 112.026 29.5043 116.356C32.8042 122.426 37.7601 124.462 44.106 123.981C57.3104 122.34 68.3387 116.622 75.7148 104.162C76.9642 102.053 77.4374 100.187 76.3309 98.0184ZM27.4391 103.322C25.1965 96.9168 28.0897 91.4261 32.3162 88.0966C40.8949 81.3638 50.341 76.2008 61.5887 81.7064C64.8245 83.291 68.6739 89.0356 68.7281 92.7716C68.7602 94.1813 68.2377 95.3075 67.3382 96.2539C59.5087 104.485 50.2548 109.549 41.8043 110.525C33.1246 110.673 29.1913 108.357 27.4391 103.322ZM72.1019 102.247C66.2612 113.389 51.4574 121.194 39.6134 119.452C36.9025 119.052 35.1824 117.722 33.8294 114.754C49.2961 115.873 61.1623 108.529 71.6706 97.9174C72.9842 99.3591 72.9423 100.636 72.1019 102.247Z" fill="#202124"/>
<path fill-rule="evenodd" clip-rule="evenodd" d="M56.9117 23.0745C55.1866 24.4126 54.9303 25.8371 55.4799 28.092C56.34 31.5915 53.6587 33.7775 51.8375 36.1655C51.3741 36.7767 50.5141 36.8457 49.8092 36.3848C49.0847 35.919 48.853 35.0935 49.1069 34.3393C49.4716 33.2525 49.9251 32.1337 50.5954 31.249C52.3525 28.9472 51.3027 27.3108 49.4987 26.0712C47.4286 24.6443 45.9598 26.1501 44.9666 27.8653C43.6901 30.0512 43.6186 32.5724 43.934 35.0787C44.0942 36.37 44.4048 37.6392 44.5378 38.9306C45.2673 45.8236 41.6939 49.8233 34.9956 49.5251C33.3124 48.8474 32.0555 49.8554 30.8603 51.0679C29.8449 52.0955 28.694 53.2144 27.4396 51.6717C26.4662 50.4739 27.0478 49.0076 28.0804 48.2338C30.2737 46.6122 30.4216 44.5988 29.872 42.1023C29.6354 41.0204 29.8819 39.7586 30.1382 38.6398C30.3896 37.5308 31.225 36.8703 32.3463 37.0059C33.5859 37.1537 33.8644 38.1321 33.8126 39.2928C33.7831 39.9435 33.6254 40.599 33.7116 41.2348C33.963 43.1694 34.0714 45.5155 36.6295 45.3184C39.0175 45.136 40.9127 43.8397 40.7426 40.843C40.649 39.1573 40.2202 37.5061 40.0501 35.8229C39.5868 30.9927 39.8899 26.362 43.8084 23.0178C45.2673 21.7806 47.0515 20.7727 48.9171 21.2656C51.1425 21.8422 52.9169 21.6574 54.6198 19.9274C55.4528 19.0796 56.7195 18.9071 57.5771 20.0358C58.4668 21.2187 57.8408 22.3524 56.9117 23.0745Z" fill="#202124"/>
<path fill-rule="evenodd" clip-rule="evenodd" d="M111.582 87.0796C111.952 88.0875 112.132 89.2089 111.043 89.8447C109.877 90.5323 108.672 90.0714 108.246 88.8885C107.381 86.5128 105.963 86.148 103.738 86.3526C101.431 86.5571 101.207 84.3958 101.02 82.3011C101.365 80.3172 102.119 78.7622 104.29 80.7657C105.382 81.7663 106.281 81.6135 107.255 80.9235C108.329 80.1718 108.44 78.9174 108.108 77.7764C107.696 76.3667 106.427 76.4629 105.323 76.4678C102.242 76.4924 99.243 76.4998 96.4459 74.5948C93.8213 72.8081 92.3648 70.3215 92.3081 67.1868C92.2564 64.0619 93.4861 60.9148 91.7684 57.8269C91.3864 57.1393 91.7512 55.9958 92.7616 55.6138C93.5354 55.3156 94.4423 55.4709 94.7134 56.1979C95.6523 58.6894 97.5968 58.9802 99.7088 59.3302C100.741 59.5027 101.703 60.3086 102.637 60.9222C103.903 61.7527 105.443 62.7163 104.544 64.572C103.509 66.6939 102.052 65.2128 100.786 64.6114C99.5412 64.015 98.3829 62.3639 96.9659 64.2985C95.7213 66.0038 95.9826 67.7881 97.0053 69.3875C98.6343 71.9308 101.153 72.3152 103.854 72.3251C111.711 72.3547 113.448 74.8511 111.156 82.9665C110.712 84.5338 111.094 85.7414 111.582 87.0796Z" fill="#202124"/>
<path fill-rule="evenodd" clip-rule="evenodd" d="M63.0635 90.753C62.8861 91.0315 62.7037 91.6673 62.334 91.8324C60.1974 92.7393 59.8967 94.7675 59.2708 96.7662C58.5339 99.132 56.486 99.9231 54.3468 100.276C53.191 100.47 52.0722 100.244 51.7764 98.7648C51.5152 97.4883 52.2816 96.8155 53.3019 96.4779C54.9999 95.9061 56.2099 95.1545 55.372 92.8576C54.99 91.8324 56.2272 90.0161 54.1472 89.8683C52.4295 89.7426 50.9435 90.4376 50.421 92.3327C50.0711 93.5698 50.0366 94.9031 49.8566 96.1871C48.8019 103.773 43.2471 106.994 36.805 103.6C35.6369 102.994 34.698 103.322 33.6358 103.405C32.8669 103.469 32.1522 103.346 31.7283 102.56C31.3069 101.776 31.3685 100.768 31.9945 100.448C34.6684 99.0458 35.1539 95.9529 36.8124 93.7916C37.7267 92.6161 38.8037 91.48 40.1961 92.6013C41.4332 93.5871 40.7506 94.9967 40.0778 96.1181C39.1093 97.7372 38.0028 99.6028 40.2035 100.731C42.0124 101.653 43.7769 100.478 44.9327 98.7599C45.9727 97.2123 45.9949 95.3418 46.197 93.5279C47.0201 86.0731 52.9692 83.2759 58.5733 87.7612C59.4802 88.4907 60.3058 88.4906 61.2743 88.5449C62.4104 88.604 63.0635 89.2595 63.0635 90.753Z" fill="#202124"/>
</svg>
