<svg width="129" height="129" viewBox="0 0 129 129" fill="none" xmlns="http://www.w3.org/2000/svg">
<g clip-path="url(#clip0_341_20194)">
<path d="M33.2767 112.795C44.4135 95.6549 52.331 76.6278 56.6406 56.6472L67.7517 76.4991L65.6776 104.795L57.3813 122.573H41.9739L29.2332 119.018L33.2767 112.795Z" fill="#E1EBFF"/>
<path d="M126.27 30.4252C126.27 41.8384 108.248 53.5363 92.0479 53.5363C75.8476 53.5363 57.5291 41.8384 57.5291 30.4252C57.5291 19.0119 80.5884 5.23999 96.7887 5.23999C112.989 5.23999 126.27 19.0119 126.27 30.4252Z" fill="#FFE4AF"/>
<path d="M67.1021 78.0532C66.957 75.2896 66.0835 72.6723 65.5022 69.909C64.9209 67.873 64.1935 65.8368 62.8849 64.0921C61.285 61.7649 59.5401 59.5838 57.6492 57.5477C55.7582 55.3666 53.2858 54.3481 50.9586 53.3306C48.6314 52.312 46.014 52.6032 43.3957 52.0219C43.6868 50.277 44.8677 48.5463 45.1588 47.0917C45.7401 43.4557 46.6485 40.0609 47.0848 36.425C47.521 32.9343 48.3368 29.3234 47.8996 25.8324C47.6084 22.9239 45.7229 20.3163 44.2681 17.6979C43.2496 16.0981 42.087 14.4983 40.1959 13.7709C36.1237 12.1711 32.0518 11.7348 27.8333 12.7524C27.106 12.8974 26.5247 13.1886 25.9424 13.4797C21.7252 15.5158 18.6706 19.0066 16.4895 23.0788C15.9082 24.2424 15.0348 25.1148 14.7446 26.4236C14.4535 27.7323 14.0172 28.8958 13.581 30.2046C12.2723 33.9857 11.5449 38.0577 11.2538 41.9847C10.9626 46.348 11.3989 50.7114 11.8351 55.0734C12.1262 58.8545 11.9802 62.4904 10.5264 65.9811C10.3813 66.5624 10.2352 66.9997 10.0902 67.581C9.50886 69.9082 8.49032 72.0893 6.89057 73.9804C5.72695 75.1441 4.41829 76.0165 2.96354 76.8889C1.65484 77.7614 1.36369 78.925 2.23615 80.2337C2.81745 81.2522 4.2722 81.3973 5.43574 80.5248C6.59936 79.7974 7.4718 78.925 8.19929 77.7613C9.94421 74.8528 11.8352 72.0893 13.1439 68.8897C13.7252 67.4349 14.4525 65.9812 14.7437 64.2352C15.0349 61.6179 15.325 58.9995 15.4711 56.3822C15.6162 55.5097 16.0524 54.6373 15.7623 53.7648C14.8898 49.5477 15.326 45.4745 16.0534 41.2573C16.4896 38.64 17.217 36.1666 17.7983 33.6944C18.3796 31.5133 19.107 29.4773 20.1255 27.5861C21.4342 25.2589 23.034 22.7867 25.0701 21.0417C27.3973 19.0057 30.0147 17.2606 33.5054 17.4058C37.7225 17.5509 41.6496 20.4605 42.2321 24.2413C42.8134 28.0224 42.8134 31.8043 41.9409 35.4402C40.9224 40.2395 39.9049 45.1844 39.0325 49.9838C38.8874 50.8562 39.3236 51.7287 38.8874 52.4561C38.3061 53.1834 37.2876 52.7472 36.4151 53.0374C33.6516 54.0559 31.0342 55.3646 29.7245 58.4182C28.8521 60.5994 27.3973 62.4904 26.8161 64.6715C25.9436 67.8711 25.5074 71.2158 24.6349 74.4157C24.1987 76.0155 24.1987 77.6153 23.6164 79.2151C23.1802 80.6699 23.0351 81.9786 22.7439 83.4322C22.3077 85.4683 22.1626 87.6493 21.8715 89.6854C21.4352 91.8666 21.1441 94.1937 20.8529 96.376C20.5618 99.1396 20.998 101.903 20.8529 104.666C20.7079 107.43 21.1441 109.902 22.1616 112.375C22.7429 113.538 23.3252 114.702 24.0526 115.865C25.6525 118.192 27.3974 120.373 30.1609 121.537C33.2156 122.846 36.4142 122.992 39.4688 123.718C42.6684 124.446 45.8683 124.155 49.0679 124.01C51.1039 124.01 53.1401 123.864 55.1762 122.846C59.3933 120.665 61.5756 117.029 63.1754 112.666C64.194 109.902 64.4841 106.994 65.2115 104.085C65.9389 100.886 66.6663 97.6857 66.8113 94.4861C66.9574 88.9614 67.3932 83.4348 67.1021 78.0532ZM40.7781 48.5296C41.3594 45.7661 41.7967 42.8576 42.378 40.0943C42.9593 37.6221 43.3965 35.1498 43.8327 32.6774C44.269 30.4962 44.269 28.4602 43.8327 26.2779C43.5416 24.533 43.2514 22.9331 42.378 21.1871C40.633 17.6964 37.5786 16.3877 33.9427 16.2426C29.8705 16.0975 26.962 17.8424 24.0535 20.4597C22.1626 22.2046 20.8539 24.2408 19.3991 26.4228C18.8178 27.2953 18.3805 28.3138 18.0904 29.3313C17.0718 32.386 15.9092 35.2944 15.1819 38.494C14.7457 40.2389 14.7457 41.9848 14.3094 43.7297C13.437 47.0745 14.0183 50.4203 14.1644 53.91C14.3095 55.6549 14.0193 57.4007 13.7281 59.1457C13.437 60.7455 13.437 62.3453 13.1468 63.9451C12.8557 66.4174 11.547 68.5996 10.5295 70.7806C9.51097 72.9617 8.05723 74.9977 6.89361 77.18C6.31231 78.1986 5.43884 78.925 4.5664 79.6523C4.13017 79.9435 3.54785 80.0885 2.96655 79.7974C2.53032 79.5062 2.53032 79.07 2.53032 78.6338C2.53032 78.1975 2.82148 78.0525 3.11162 77.7613C4.5664 76.5977 6.02009 75.7253 7.32875 74.2706C8.63742 72.8159 9.65596 71.071 10.0923 69.1798C10.5285 67.5799 11.1108 65.9802 11.6921 64.3804C12.7107 61.0356 13.0008 57.6898 12.5646 54.3451C12.2734 52.1639 11.9833 50.1279 11.8372 47.9456C11.8372 46.6369 12.1284 45.1821 12.1284 43.8734C11.9833 39.9464 12.7097 36.1653 13.7282 32.5294C14.8918 28.166 16.4918 23.9489 19.2551 20.313C22.891 15.3684 27.6904 12.7501 33.9438 13.0412C34.6712 13.0412 35.5437 13.1863 36.125 13.4774C37.5798 14.2048 39.1797 13.9137 40.4883 15.0773C42.8108 17.0908 46.4922 23.2132 46.4922 26.4236C46.4922 29.332 46.3358 32.5317 45.8996 35.4402C45.4634 38.0575 44.4134 44.4733 43.8321 47.0917C43.3958 48.8366 42.3792 48.9649 41.942 50.7099C41.7969 51.5824 41.3607 52.3098 40.3421 52.891C40.3421 51.2922 40.487 49.9845 40.7781 48.5296ZM24.0525 82.998C24.4887 79.7984 25.3611 76.5985 26.2336 73.399C26.961 70.9267 27.2521 68.3082 27.9785 65.6908C28.997 61.9098 30.5958 58.419 33.5053 55.6555C34.814 54.3468 36.56 54.2007 38.1598 53.9106C38.596 53.9106 38.8872 53.9106 39.1783 54.2017C39.6146 54.9291 39.9057 54.9291 40.6331 54.3468C41.0694 53.9106 41.6517 54.4919 41.7967 54.9281C42.0879 55.8006 42.233 56.673 42.3781 57.5454C43.2505 62.9263 43.1054 68.4531 43.1054 73.98V84.8877C43.1054 85.7601 42.9604 86.0513 41.9418 86.0513C38.8871 85.9062 35.8335 86.0513 32.7791 85.1788C31.9066 84.8877 30.8881 85.0338 30.0155 85.0338C28.4157 85.0338 26.9609 84.8887 25.3611 84.4525C24.0524 84.3064 23.9074 83.8705 24.0525 82.998ZM65.3563 96.8142V97.5416C65.3563 97.8327 65.3563 97.9778 65.0651 98.1229C65.0651 98.414 64.9201 98.7042 64.9201 99.1414C64.6289 101.759 64.0476 104.522 63.3202 107.141C62.884 109.177 62.3017 111.213 61.7204 113.394C61.4292 114.266 61.1391 114.994 60.5568 115.721C59.6843 117.612 58.5207 119.212 56.9209 120.52C56.0484 121.248 55.0299 122.12 53.7213 122.12C53.285 122.702 52.7027 122.702 52.1214 122.557C50.6666 122.557 49.3579 122.993 47.9043 122.557H47.1769C46.7407 122.848 46.1584 122.848 45.7221 122.557C44.8497 122.557 43.9772 122.848 43.1048 122.557C42.6686 122.848 42.3774 122.702 41.9412 122.411C41.3599 122.411 40.9226 122.411 40.3413 122.266C40.0502 122.411 39.9051 122.412 39.76 122.121C39.6149 122.266 39.4689 122.266 39.3238 122.121C37.4328 121.83 35.6879 121.54 33.797 121.249C31.1796 120.668 28.8524 119.504 27.2526 117.468C24.053 113.541 21.7258 109.033 22.308 103.652C22.4531 102.633 22.308 101.616 22.308 100.597C22.163 99.8696 22.163 99.1422 22.308 98.2698C22.163 94.925 22.7443 91.5792 23.3266 88.2344C23.4716 87.2159 23.7628 86.3434 23.9079 85.3259C28.5623 85.7622 33.3607 86.4896 38.0152 86.7807C42.6697 87.2169 47.1779 87.0719 51.8313 87.2169C56.4858 87.362 61.2842 86.7807 65.9387 86.4896C65.6465 90.2696 65.9376 93.6146 65.3563 96.8142ZM65.7925 85.4702C63.9016 85.4702 62.1566 85.9064 60.4117 86.0515C55.3209 86.4877 50.3763 86.3426 45.2868 86.1965C44.2683 86.1965 44.1232 85.9054 44.1232 85.0329C44.2683 81.8333 44.5594 78.4885 44.5594 75.2887C44.5594 73.2526 44.4144 71.2165 44.4144 69.1804C44.2693 66.4168 44.2693 63.6535 44.1232 60.89C43.9781 59.1451 43.5419 57.3993 43.2507 55.6543C43.2507 55.2181 43.1057 54.7818 42.9596 54.3456C42.8145 53.6182 43.1047 53.3271 43.8321 53.3271C46.5956 53.3271 49.2129 53.6182 51.8313 54.7818C53.2861 55.3631 54.5948 56.0905 55.6124 57.2541C58.9571 60.89 62.1567 64.6711 64.0477 69.4705C64.9201 71.6516 65.3564 74.125 65.6475 76.4512C65.9377 79.2158 66.2288 82.2703 65.7925 85.4702Z" fill="#202124" stroke="#202124"/>
<path d="M79.1748 58.4819L82.3358 55.6213L82.7625 55.2578H83.3314C96.1964 54.8152 117.896 50.0265 124.945 38.5839C127.853 33.8426 127.9 28.39 125.071 22.2894C119.287 9.62992 104.541 4.35119 90.9176 4.35119C89.197 4.34753 87.4773 4.43193 85.7654 4.60406C72.2524 5.93165 52.4335 15.7463 52.8602 32.4676V33.0049L52.5599 33.4316C52.4165 33.6381 52.3396 33.8835 52.3396 34.1349C52.3396 34.3864 52.4165 34.6318 52.5599 34.8382L52.8128 35.1543L52.8918 35.5336C52.9866 36.071 53.0815 36.5767 53.1605 37.1141C53.3297 38.5486 53.6966 39.9527 54.251 41.2865C55.4305 43.7915 57.2517 45.9398 59.5297 47.5135C60.2678 48.0843 61.0383 48.612 61.8372 49.094C63.9917 50.2139 65.8413 51.8411 67.2266 53.8354C69.2337 57.0911 69.0915 61.3267 68.6332 65.4201C68.6332 65.6414 68.8386 65.9259 69.1547 66.1155C69.2727 66.2051 69.412 66.2624 69.5589 66.2818C69.7058 66.3012 69.8552 66.282 69.9924 66.2262C73.2165 63.7764 76.251 61.0897 79.1748 58.4819ZM66.705 49.8684C65.5017 48.7643 64.1698 47.8092 62.7381 47.0236C61.3214 46.2093 59.9782 45.2733 58.7237 44.2262C56.1001 41.9029 55.5628 38.8526 55.0886 36.1658C54.9622 35.502 54.8516 34.8382 54.6935 34.1903L54.5829 33.6687L54.8042 33.1788C54.8309 33.0325 54.8309 32.8825 54.8042 32.7362C54.3458 16.5523 74.149 7.51211 87.6935 6.43739C101.57 5.37849 118.181 10.6098 124.044 24.6601C125.099 26.8455 125.563 29.2688 125.391 31.6892C125.219 34.1097 124.417 36.443 123.064 38.4575C115.383 49.7736 90.9176 53.3454 80.8975 53.2506C80.77 53.2532 80.6443 53.2811 80.5276 53.3326C80.411 53.3842 80.3057 53.4584 80.2179 53.5509C80.1195 53.6415 80.0406 53.7514 79.9863 53.8738C79.9319 53.9961 79.9032 54.1282 79.9018 54.2621V55.1629L77.9895 56.8698C76.409 58.2132 74.9708 59.5566 73.4378 60.8842L71.1303 62.923L70.909 59.7621C70.8072 56.0517 69.3053 52.5172 66.705 49.8684Z" fill="#202124" stroke="#202124" stroke-width="0.5"/>
<path d="M97.974 22.5521C92.6519 22.1112 85.1912 21.8509 80.5349 22.0706C78.5397 22.0706 75.3085 21.8115 73.6452 21.8115C71.9818 21.8115 71.5543 23.613 71.886 24.9341C72.2178 26.2553 73.8812 26.2553 75.2129 26.2553C81.5327 26.2553 87.852 26.475 94.1718 26.9159H97.974C99.6374 26.6962 100.013 25.5947 99.6815 24.2735C99.6815 22.9523 99.6374 22.7733 97.974 22.5521ZM84.5278 24.0539C86.523 24.0539 88.5182 23.613 90.8477 24.0539C88.5184 24.4948 86.5232 24.2735 84.5278 24.0539Z" fill="#202124"/>
<path d="M91.3045 36.9499C87.7803 36.509 80.6847 36.3069 77.6014 36.5266C76.2802 36.5266 75.1787 36.3069 74.0773 36.3069C72.9758 36.3069 71.6546 38.069 71.8743 39.3901C72.094 40.7113 73.1954 40.7113 74.0773 40.7113C78.2621 40.7113 86.0181 40.9134 90.2029 41.3543H91.3044C92.4059 41.1347 93.2862 40.0332 93.0665 38.712C93.0665 37.3908 92.406 37.1711 91.3045 36.9499Z" fill="#202124"/>
<path d="M73.905 29.323C77.4491 29.0929 80.9802 29.0836 84.0449 29.4867C85.3637 29.5654 86.4764 29.4117 87.5759 29.4774C88.6754 29.543 89.8892 31.3807 89.5912 32.6864C89.2932 33.9922 88.1936 33.9265 87.3134 33.874C83.136 33.6246 78.9458 33.5945 74.7421 33.7853L73.6425 33.7196C72.5561 33.4347 71.743 32.2827 72.0411 30.9769C72.1198 29.6581 72.7923 29.4782 73.905 29.323Z" fill="#202124"/>
</g>
<defs>
<clipPath id="clip0_341_20194">
<rect width="128" height="128" fill="white" transform="translate(0.0478516 0.499023)"/>
</clipPath>
</defs>
</svg>
