<svg width="129" height="129" viewBox="0 0 129 129" fill="none" xmlns="http://www.w3.org/2000/svg">
<g clip-path="url(#clip0_327_21693)">
<path d="M52.3516 34.2668L65.4834 34.2666L81.7783 37.9535L52.3516 76.5246V34.2668Z" fill="#9EBFFF"/>
<path d="M39.9753 34.2666L23.8733 34.2665L27.3651 12.9291H52.0977L39.9753 34.2666Z" fill="#1983FF"/>
<path d="M27.3598 15.7766C33.7503 18.3928 40.8669 16.1288 47.4979 16.0353C56.5449 15.9079 65.574 16.7746 74.6226 16.6445C77.678 16.6008 77.682 11.8968 74.6226 11.9404C66.0818 12.064 57.5599 11.3914 49.0223 11.3269C42.4415 11.2777 34.9053 13.8129 28.6202 11.2405C25.7941 10.0833 24.5745 14.6359 27.3604 15.7765L27.3598 15.7766Z" fill="#202124"/>
<path d="M20.2839 33.3026C21.0646 26.2734 25.28 20.4019 28.8516 14.4987C30.429 11.8913 26.3282 9.52776 24.7568 12.1248C20.6736 18.8746 16.43 25.3039 15.5413 33.303C15.2071 36.3161 19.9525 36.2839 20.2839 33.303V33.3026Z" fill="#202124"/>
<path d="M72.9293 15.5048C75.4964 22.0369 77.2683 28.8966 80.6777 35.0787C82.1453 37.7402 86.2407 35.3674 84.7726 32.7048C81.5638 26.8853 79.9202 20.4066 77.5032 14.255C76.4043 11.4612 71.8173 12.6752 72.9293 15.5046V15.5048Z" fill="#202124"/>
<path d="M15.8659 34.6845C18.3602 37.8972 21.4603 40.2969 23.708 43.7376C26.4939 48.0031 29.0769 52.3205 32.2118 56.3502C35.3092 60.3329 38.3063 64.3912 41.3248 68.4329C44.1046 72.1537 47.4865 75.3457 49.8523 79.3711C51.0421 81.3955 54.2708 80.5244 54.2708 78.1844V77.4002C54.2708 74.3668 49.5281 74.3668 49.5281 77.4002V78.1844C51.0008 77.7885 52.4739 77.3931 53.9466 76.9977C51.9193 73.5476 49.2475 70.5996 46.6569 67.564C43.3064 63.6381 40.3904 59.3027 37.2544 55.2063C34.1449 51.1448 31.3447 46.9811 28.6249 42.6545C27.5299 40.9117 26.4702 38.9807 25.0703 37.4544C23.4384 35.6738 21.4458 34.2236 19.9594 32.3107C18.1223 29.944 13.999 32.2812 15.8658 34.6846L15.8659 34.6845Z" fill="#202124"/>
<path d="M53.9464 78.5884C60.1936 70.5124 66.41 62.4177 72.1043 53.9425C74.8456 49.8629 77.4495 45.6981 80.017 41.5098C81.5592 38.9931 84.1735 37.0383 85.0116 34.124C85.8519 31.2005 81.2752 29.962 80.4384 32.8734C79.7134 35.3938 76.9153 37.5144 75.5403 39.7588C73.0995 43.7415 70.5899 47.6739 68.0101 51.5676C62.376 60.0739 56.0946 68.1442 49.8521 76.2135C47.9898 78.6212 52.1127 80.9595 53.9464 78.5885V78.5884Z" fill="#202124"/>
<path d="M18.4689 35.7677C23.6767 36.5131 28.8428 36.5202 34.0933 36.3824C40.0681 36.2249 45.9691 36.5344 51.9322 36.8417C57.1109 37.1091 62.2847 37.137 67.4663 37.2683C72.4862 37.3962 77.435 37.6954 82.3681 36.5508C85.3453 35.8601 84.0823 31.3251 81.1072 32.0157C76.6231 33.0558 72.0289 32.7189 67.4665 32.5647C62.2873 32.3892 57.1113 32.3908 51.9324 32.1382C46.9803 31.8965 42.053 31.5367 37.0927 31.6067C31.2905 31.6876 25.5009 32.0584 19.7295 31.2326C16.7395 30.8044 15.4516 35.3357 18.4691 35.7677L18.4689 35.7677Z" fill="#202124"/>
<path d="M34.9904 35.2994C38.0767 43.3737 41.0005 51.1943 42.5056 59.6961C43.2262 63.7657 43.465 71.7378 47.3436 74.3353C49.8864 76.0382 52.2566 71.9608 49.7369 70.2738C50.0853 70.5073 49.3416 68.8799 49.1971 68.4096C48.8107 67.1546 48.5366 65.8634 48.2549 64.5833C47.6275 61.7227 47.1462 58.8298 46.6384 55.9464C45.3025 48.3594 42.3076 41.2289 39.5642 34.05C38.4902 31.2414 33.9042 32.4581 34.9904 35.2995V35.2994Z" fill="#202124"/>
<path d="M61.8642 34.8356C60.0592 43.903 56.6431 52.4902 54.5795 61.4596C53.9559 64.1697 53.3671 66.886 52.727 69.5935C52.373 71.0924 51.9943 72.5853 51.5819 74.0684C51.2682 75.1966 50.1522 76.4406 51.4942 75.569C48.9482 77.2237 51.3216 81.2989 53.8876 79.6305C55.4803 78.5959 55.8668 76.3559 56.3388 74.6602C57.2667 71.3238 57.9845 67.9252 58.7399 64.5473C60.8857 54.9506 64.5113 45.7658 66.4382 36.0866C67.0276 33.1238 62.4564 31.861 61.8643 34.8359L61.8642 34.8356Z" fill="#202124"/>
<path d="M66.2233 34.7695C68.8316 31.8745 70.6312 27.9618 72.4975 24.5872C73.8434 22.1537 77.2738 17.605 75.8811 14.6723C74.5783 11.9293 70.4912 14.3185 71.7863 17.0462C71.1269 15.6577 71.7461 15.2831 71.2873 16.5218C71.08 17.0817 70.7939 17.6187 70.5342 18.1546C69.6598 19.9571 68.6855 21.713 67.7086 23.4612C66.3049 25.974 64.5566 29.5707 62.8701 31.4437C60.84 33.6983 64.1828 37.0369 66.2233 34.7697L66.2233 34.7695Z" fill="#202124"/>
<path d="M39.5464 34.3785C44.0485 28.6344 48.5404 22.8738 52.366 16.6553C53.9632 14.0588 49.8613 11.6964 48.2712 14.2814C44.6561 20.1573 40.4477 25.6237 36.1931 31.0526C34.3412 33.4167 37.6719 36.7711 39.5464 34.3786V34.3785Z" fill="#202124"/>
<path d="M24.7576 15.2827C26.9376 18.1236 28.5762 21.2637 30.2749 24.3993C31.9371 27.4671 34.3289 30.3748 35.4298 33.7028C36.2155 36.0767 39.1188 35.7924 40.0031 33.7028C40.0544 33.582 40.1056 33.4606 40.1575 33.3397C41.3417 30.5442 36.7502 29.3367 35.5842 32.0891C35.5335 32.2099 35.4822 32.3313 35.4309 32.4522H40.0042C38.885 29.0694 36.7067 26.1257 34.944 23.06C32.9663 19.6198 31.2821 16.0735 28.8534 12.9077C27.0263 10.5289 22.904 12.8683 24.7575 15.2827L24.7576 15.2827Z" fill="#202124"/>
<path d="M48.6666 16.0667C51.1696 20.1277 53.1897 24.4855 55.6371 28.5852C57.236 31.2643 59.9972 37.0084 63.9645 35.3334C66.7703 34.1489 64.351 30.0979 61.5712 31.2719C63.1458 30.6069 63.6238 31.659 62.5647 30.4571C62.0668 29.8911 61.6605 29.2354 61.2415 28.6131C59.9944 26.7593 58.8901 24.8075 57.7922 22.8651C56.0792 19.8349 54.589 16.6551 52.7624 13.6917C51.1685 11.1095 47.0666 13.4719 48.6664 16.0667L48.6666 16.0667Z" fill="#202124"/>
<path fill-rule="evenodd" clip-rule="evenodd" d="M101.275 77.248L93.8074 89.4663L90.1389 86.1388C89.0576 85.0751 83.0252 78.743 80.3016 76.8648C77.9579 75.2504 76.1522 76.1664 75.5463 76.8539L55.5875 98.1024L50.6225 102.98C48.2728 100.037 45.2963 94.9524 42.5457 92.1127C40.9174 90.4305 39.2851 89.4169 37.8498 89.1441C37.0336 88.9906 35.4622 89.3764 33.888 90.869C31.8619 92.7605 29.0136 96.6076 28.1918 97.4545C24.5827 101.172 20.8505 104.737 17.0236 108.17C13.1966 111.604 9.26145 114.945 5.2983 118.19C4.66663 118.707 4.24959 119.51 4.13893 120.42C4.02827 121.331 4.23306 122.275 4.70823 123.045C5.1834 123.815 5.89003 124.347 6.67268 124.525C7.45533 124.704 8.24987 124.513 8.88153 123.995C12.9074 120.696 16.8904 117.316 20.8016 113.817C24.7128 110.319 28.5572 106.646 32.2599 102.825C32.9948 102.063 36.7542 97.7422 37.9225 96.3963C38.5353 96.8413 39.1586 97.671 39.8679 98.5356C43.0428 102.412 46.4009 108.112 48.6994 110.124C49.2572 110.611 50.952 111.43 52.8991 110.029C54.8463 108.629 59.0397 104.107 59.6288 103.51L78.3035 83.6297C80.354 85.5762 85.6662 90.6295 86.4629 91.413C86.5646 91.5137 91.3985 96.0924 92.1827 96.8186C92.7388 97.3497 93.4116 97.6756 94.1101 97.7522C94.8086 97.8287 95.4989 97.6523 96.0875 97.2467C97.3333 96.1416 99.0149 92.8655 99.967 91.413C101.852 88.652 103.595 85.208 105.37 82.911L118.475 62.3021L118.475 70.0335C118.528 70.9611 118.891 71.8457 119.486 72.4926C120.081 73.1395 120.871 73.0581 121.659 73.0454C122.448 73.0327 123.171 73.0897 123.691 72.4248C124.212 71.76 124.475 70.8653 124.422 69.9377L124.422 61.0142C124.397 60.216 123.933 55.9425 123.691 54.4246C123.449 52.9066 123.321 52.2919 122.85 51.8848C121.608 50.7973 118.024 51.0929 115.761 50.4433C112.148 49.4084 109.441 49.2635 107.062 48.504C106.304 48.2969 105.521 48.4391 104.88 48.9007C104.239 49.3622 103.788 50.1074 103.622 50.9797C103.457 51.852 103.589 52.7836 103.992 53.579C104.395 54.3745 105.037 54.972 105.783 55.2461C108.204 56.0219 110.303 56.0499 113.973 57.1014L101.275 77.248Z" fill="#202124"/>
<path d="M44.5831 92.2966C44.5831 96.3151 41.1135 99.5727 36.8336 99.5727C32.5536 99.5727 29.084 96.3151 29.084 92.2966C29.084 88.2781 32.5536 85.0205 36.8336 85.0205C41.1135 85.0205 44.5831 88.2781 44.5831 92.2966Z" fill="white"/>
<path d="M94.0603 87.8417C98.0787 87.8417 101.336 91.3113 101.336 95.5913C101.336 99.8712 98.0787 103.341 94.0603 103.341C90.0418 103.341 86.7842 99.8712 86.7842 95.5913C86.7842 91.3113 90.0418 87.8417 94.0603 87.8417Z" fill="white"/>
<path fill-rule="evenodd" clip-rule="evenodd" d="M40.5742 90.9347C39.6691 88.448 37.205 87.4296 35.3124 88.1185C33.4198 88.8073 32.1868 91.1713 33.0919 93.6581C33.997 96.1448 36.4611 97.1632 38.3537 96.4743C40.2463 95.7855 41.4793 93.4215 40.5742 90.9347ZM33.0527 81.9099C38.7123 79.85 44.7439 83.124 46.7665 88.6809C48.789 94.2379 46.273 100.623 40.6134 102.683C34.9538 104.743 28.9222 101.469 26.8996 95.9119C24.877 90.3549 27.393 83.9698 33.0527 81.9099Z" fill="#202124"/>
<path fill-rule="evenodd" clip-rule="evenodd" d="M93.0692 90.1422C90.7774 91.4654 90.2024 94.0689 91.2094 95.8131C92.2165 97.5574 94.7587 98.3611 97.0505 97.0379C99.3423 95.7148 99.9173 93.1113 98.9103 91.367C97.9032 89.6228 95.361 88.819 93.0692 90.1422ZM85.4876 99.1166C82.4762 93.9007 84.6531 87.3922 89.7744 84.4354C94.8957 81.4786 101.621 82.8476 104.632 88.0635C107.644 93.2795 105.467 99.788 100.345 102.745C95.224 105.702 88.499 104.333 85.4876 99.1166Z" fill="#202124"/>
</g>
<defs>
<clipPath id="clip0_327_21693">
<rect width="128" height="128" fill="white" transform="translate(0.0478516 0.499023)"/>
</clipPath>
</defs>
</svg>
