<svg width="17" height="17" viewBox="0 0 17 17" fill="none" xmlns="http://www.w3.org/2000/svg">
<path opacity="0.5" fill-rule="evenodd" clip-rule="evenodd" d="M9.92601 4.07757C9.92601 4.07757 9.51282 8.20949 7.44686 8.49899C7.44686 8.49899 8.68644 3.66438 7.03367 1.18523C7.03367 1.18523 6.85841 3.84159 5.08752 7.02918C4.25742 8.52336 3.31494 9.53061 3.31494 11.515C3.31494 14.3484 6.21674 15.8128 8.27797 15.8128C10.3392 15.8128 13.2315 14.8211 13.2315 11.3501C13.2315 9.2093 9.92601 4.07757 9.92601 4.07757Z" fill="#FF3528"/>
<path fill-rule="evenodd" clip-rule="evenodd" d="M7.87461 4.40788C7.87461 4.40788 7.7835 5.78881 6.8629 7.4459C6.43136 8.22266 5.94141 8.74629 5.94141 9.7779C5.94141 11.2509 6.93905 12.29 8.01059 12.29C9.08214 12.29 10.4381 11.696 10.4381 9.88832C10.4381 8.08061 8.4367 7.65451 7.87461 4.40788Z" fill="#FF3528"/>
</svg>
