<svg width="17" height="17" viewBox="0 0 17 17" fill="none" xmlns="http://www.w3.org/2000/svg">
<path fill-rule="evenodd" clip-rule="evenodd" d="M5.15761 6.52383C4.32512 8.13737 4.26805 10.0411 5.00239 11.7016L5.92188 13.7808C6.00193 13.9618 6.18123 14.0786 6.37916 14.0786H10.153C10.3509 14.0786 10.5302 13.9618 10.6103 13.7808L11.5297 11.7016C12.2641 10.0411 12.207 8.13737 11.3745 6.52383L8.93286 1.7914V7.47023C8.93286 7.56417 8.91343 7.65357 8.87837 7.73463C9.3873 7.96722 9.74094 8.48075 9.74094 9.07687C9.74094 9.89149 9.08056 10.5519 8.26594 10.5519C7.45132 10.5519 6.79094 9.89149 6.79094 9.07687C6.79094 8.48058 7.14477 7.96693 7.65394 7.73444C7.61893 7.65342 7.59953 7.56409 7.59953 7.47023V1.79089L5.15761 6.52383Z" fill="#1983FF"/>
<path opacity="0.3" d="M4.91211 15.0784C4.91211 14.5261 5.35982 14.0784 5.91211 14.0784H10.5496C11.1019 14.0784 11.5496 14.5261 11.5496 15.0784V16.2909H4.91211V15.0784Z" fill="#1983FF"/>
</svg>
