<svg width="25" height="25" viewBox="0 0 25 25" fill="none" xmlns="http://www.w3.org/2000/svg">
  <path fill-rule="evenodd" clip-rule="evenodd"
    d="M11.5328 22.2807C9.20851 20.243 3.5 14.8007 3.5 10.5C3.5 5.1 7.1 1.5 12.5 1.5C17.9 1.5 21.5 6 21.5 10.5C21.5 14.1059 15.721 20.0235 13.4246 22.2326C12.8954 22.7417 12.085 22.7648 11.5328 22.2807ZM15.501 9.29981C15.501 10.9567 14.1578 12.2998 12.501 12.2998C10.8441 12.2998 9.50098 10.9567 9.50098 9.29981C9.50098 7.64295 10.8441 6.2998 12.501 6.2998C14.1578 6.2998 15.501 7.64295 15.501 9.29981Z"
    fill="#46A78B" />
</svg>
