<svg width="129" height="129" viewBox="0 0 129 129" fill="none" xmlns="http://www.w3.org/2000/svg">
<path d="M99.9827 72.366C87.6511 87.7179 70.0424 81.1471 57.0479 70.7091C54.6877 64.9253 52.2087 54.9284 64.5403 39.5765C76.8719 24.2246 91.0979 21.5983 104.092 32.0363C117.087 42.4744 112.314 57.0141 99.9827 72.366Z" fill="#FFD000"/>
<g clip-path="url(#clip0_312_35378)">
<path fill-rule="evenodd" clip-rule="evenodd" d="M51.5269 56.4087L53.8522 54.2222L60.4109 48.1233L61.4895 47.257C61.0982 46.5172 60.6031 45.5625 60.4663 45.2471C59.2716 42.4974 57.1454 39.6905 55.646 36.8352C54.8443 35.307 54.2037 33.765 53.8609 32.2212C53.4471 30.3603 54.4184 29.5286 55.3516 29.0747C55.7758 28.8685 57.67 29.1249 58.4959 29.3866L61.119 30.1871L69.5251 32.3875L70.2904 32.5798L77.0343 24.057C77.2801 23.7954 79.0652 22.0315 79.8305 21.3731C80.074 21.1585 80.3392 20.9697 80.6218 20.81C82.5506 19.7982 83.7262 21.0648 84.1383 21.6608C84.512 22.2301 84.7638 22.8708 84.8776 23.5424C85.1044 24.7344 84.978 26.4758 85.0819 27.3352L86.1208 38.554L90.8233 40.796L94.2135 42.2219C94.8922 42.5148 97.981 43.9251 98.9455 44.9006C99.799 45.7669 99.9964 46.7008 99.9497 47.4025C99.8918 47.9463 99.6849 48.4634 99.3519 48.897C99.0189 49.3305 98.5726 49.6636 98.0624 49.8594C97.427 50.1262 95.7665 50.6148 95.5744 50.6859L86.2731 53.9553L84.308 54.5548L83.2587 65.1031L82.393 69.0587C82.116 70.0896 81.2312 72.2814 80.7239 72.569C79.8132 73.0888 78.5683 73.4094 77.2438 72.0233C75.9793 70.6702 74.8384 69.2066 73.8346 67.6501C72.4007 65.4205 71.1138 63.0996 69.9822 60.7022L69.3398 59.3681L67.6084 60.1253C65.5512 60.8453 63.453 61.4423 61.325 61.9133C59.8473 62.2365 58.3479 62.4513 56.8389 62.5562C55.8001 62.6237 54.3768 62.745 53.1319 62.5804C52.3544 62.4886 51.5997 62.258 50.9036 61.8995C49.6275 61.2151 49.3661 60.2292 49.3713 59.3663C49.3782 58.7495 50.7668 57.1053 51.5269 56.4087ZM65.8683 55.0001L70.1086 53.3091C70.5743 53.2328 72.0824 53.2242 73.0953 54.8026C73.6701 55.6967 74.7696 58.1968 74.8509 58.3649C75.7148 60.1868 76.6712 61.9634 77.7164 63.6875L77.9398 64.0341L79.0929 52.3145C79.1639 51.7947 79.5154 50.6911 80.8763 50.0205C81.7662 49.5839 84.1764 48.9567 84.5123 48.8423L90.7558 46.6488L88.5257 45.7063L83.2068 43.1575C82.6596 42.8491 82.2375 42.3587 82.0138 41.7714L81.8078 41.6242C81.5038 41.3668 81.2564 41.0491 81.0812 40.6913C80.9059 40.3334 80.8067 39.9432 80.7897 39.545L79.8184 29.2202L73.4727 37.2631C73.1503 37.6387 72.7376 37.9259 72.2735 38.0975C71.8093 38.2691 71.3092 38.3195 70.8202 38.2438C70.2073 38.1693 68.7148 37.7413 68.4966 37.6997L61.2714 35.8147C62.705 38.2767 64.3879 40.7059 65.4268 43.0917C65.6692 43.6496 66.6059 45.1345 67.0093 46.1897C67.2846 46.8595 67.3973 47.5851 67.3383 48.3069C67.2491 48.9165 66.9925 49.4893 66.5972 49.9616C66.0397 50.6547 64.3827 51.8242 64.0538 52.1239L59.3512 56.5006L65.8683 55.0001Z" fill="#202124"/>
<path fill-rule="evenodd" clip-rule="evenodd" d="M9.49532 84.6099C9.51783 84.1127 10.6969 82.6053 11.3358 81.9868L13.0361 80.2888L18.781 75.401L33.9604 61.6092C31.7372 53.374 31.3286 44.3331 33.06 35.8069C34.9403 26.5632 39.3035 17.9434 46.4405 11.5811C51.8754 6.72977 58.7024 4.33183 65.9242 3.68209C76.2158 2.75513 87.3073 5.41472 95.961 9.34433C98.5755 10.5221 101.021 12.0441 103.233 13.87C105.412 15.6914 107.37 17.7628 109.066 20.0416C110.718 22.2369 112.399 24.4616 113.805 26.8335C114.819 28.5147 115.657 30.2967 116.303 32.151C120.374 44.1269 118.878 58.1266 113.073 69.7266C108.244 79.3739 100.454 87.3354 90.5174 91.1992L91.7899 113.99L92.46 120.15L92.4479 123.962C92.3717 124.135 90.6853 126.411 88.4847 125.11C88.1384 124.906 87.2934 124.351 87.245 124.318L83.2627 121.155L70.857 109.232L69.7576 110.146L59.8711 117.09L56.5641 119.24C55.759 119.722 53.9098 120.749 53.4198 120.694C52.2477 120.56 50.8833 120.018 50.9352 117.781L52.4814 108.143L52.6009 90.3155L37.7279 101.822L33.4721 105.783C33.4046 105.845 32.5856 106.673 32.2255 106.959C31.8561 107.269 31.4138 107.479 30.9406 107.57C30.4674 107.661 29.9787 107.63 29.521 107.479C29.4205 107.443 27.4831 106.613 27.7237 104.488C27.7566 104.203 27.8623 103.49 27.8675 103.432L27.9281 101.179L27.8571 90.1215L27.89 89.1478L26.091 89.0334L15.5674 87.8205L11.3046 87.3597C9.69616 86.7203 9.45203 85.5733 9.49532 84.6099ZM66.428 105.862C66.6012 105.726 68.4105 104.121 69.1983 103.589C70.9107 102.425 72.4257 103.302 72.7581 103.572L86.6788 116.936L86.3966 114.311L85.1846 92.7984C84.6651 92.9145 84.1457 93.0392 83.6021 93.1345C78.9653 93.9593 74.2229 93.6543 69.6242 92.5853C65.5762 91.6462 61.6597 90.1059 57.9977 88.278L57.8731 108.357L57.2342 112.31L66.428 105.862ZM57.5268 82.406C57.6857 82.465 57.8387 82.5386 57.9839 82.6261C58.4702 82.5979 58.955 82.7027 59.3863 82.9293C62.9479 84.7988 66.8315 86.3807 70.8501 87.3111C74.7372 88.2121 78.7419 88.5015 82.6636 87.805C94.2105 85.7535 103.094 77.5599 108.238 67.294C113.4 56.9779 114.804 44.5358 111.182 33.8853C110.656 32.3851 109.976 30.9439 109.151 29.585C107.847 27.3863 106.28 25.3279 104.746 23.2938C103.304 21.3551 101.639 19.5935 99.7839 18.0456C97.9409 16.5242 95.9028 15.2563 93.724 14.2754C87.1307 11.2866 78.9913 9.07751 71.018 8.91811C63.308 8.7691 55.7382 10.5381 50.0297 15.6251C43.7741 21.2007 40.0013 28.7827 38.3547 36.8863C36.6839 45.1042 37.1964 53.8661 39.5771 61.6872C40.9886 66.2702 43.2937 70.5278 46.3591 74.2141C49.4029 77.8457 53.1826 80.8207 57.5268 82.406ZM26.607 83.6414L31.6558 84.2634C31.9381 84.383 33.2903 85.1298 33.3596 86.9854C33.3873 87.8084 33.2574 89.8754 33.2591 90.0764L33.3128 98.5195L34.1214 97.7676L50.5976 85.0154C47.4282 83.044 44.5982 80.5725 42.2175 77.6968C39.5882 74.5324 37.4395 70.9973 35.8407 67.2056L22.2109 79.594L18.5316 82.7127L26.607 83.6414Z" fill="#202124"/>
<path fill-rule="evenodd" clip-rule="evenodd" d="M104.102 29.019C104.264 28.94 104.45 28.9286 104.62 28.987C104.79 29.0455 104.93 29.1692 105.009 29.3309C106.185 31.7203 107.088 34.2346 107.702 36.8262C108.312 39.4266 108.583 42.0951 108.508 44.7651C108.496 44.94 108.417 45.1033 108.287 45.221C108.157 45.3386 107.987 45.4014 107.812 45.3962C107.636 45.3911 107.47 45.3184 107.347 45.1933C107.225 45.0683 107.155 44.9006 107.153 44.7253C107.224 42.1717 106.964 39.6197 106.381 37.1329C105.789 34.6405 104.918 32.2231 103.783 29.9269C103.705 29.7642 103.695 29.5772 103.755 29.407C103.815 29.2367 103.94 29.0972 104.102 29.019Z" fill="#202124" stroke="#202124" stroke-width="2"/>
<path fill-rule="evenodd" clip-rule="evenodd" d="M107.882 49.6974C108.062 49.7086 108.229 49.7903 108.349 49.9247C108.468 50.0591 108.529 50.2352 108.519 50.4147L108.184 53.7518C108.173 53.8432 108.143 53.9314 108.097 54.0111C108.051 54.0908 107.99 54.1603 107.916 54.2154C107.842 54.2706 107.758 54.3101 107.669 54.3317C107.58 54.3533 107.487 54.3565 107.396 54.3411C107.305 54.3257 107.219 54.2921 107.142 54.2422C107.064 54.1923 106.998 54.1272 106.947 54.0508C106.895 53.9745 106.86 53.8885 106.843 53.7981C106.826 53.7076 106.827 53.6147 106.847 53.5248L107.164 50.335C107.175 50.1553 107.257 49.9872 107.391 49.8677C107.526 49.7482 107.703 49.687 107.882 49.6974Z" fill="#202124" stroke="#202124" stroke-width="2"/>
<path fill-rule="evenodd" clip-rule="evenodd" d="M98.0621 72.269C99.1995 70.9938 100.259 69.6509 101.234 68.2476C101.285 68.1743 101.35 68.1118 101.425 68.0636C101.5 68.0154 101.584 67.9825 101.672 67.9667C101.759 67.951 101.849 67.9527 101.937 67.9717C102.024 67.9908 102.106 68.0268 102.179 68.0778C102.253 68.1287 102.315 68.1936 102.363 68.2688C102.411 68.3439 102.444 68.4278 102.46 68.5156C102.476 68.6035 102.474 68.6935 102.455 68.7807C102.436 68.8679 102.4 68.9505 102.349 69.0238C100.334 71.9235 97.9727 74.5662 95.3178 76.8934C95.1812 77.0017 95.0083 77.0533 94.8347 77.0376C94.6612 77.0218 94.5004 76.9399 94.3856 76.8087C94.2708 76.6776 94.2107 76.5073 94.2179 76.3331C94.2252 76.1588 94.2991 75.9941 94.4243 75.8729C95.7081 74.7458 96.9229 73.5423 98.0621 72.269Z" fill="#202124" stroke="#202124" stroke-width="2"/>
<path fill-rule="evenodd" clip-rule="evenodd" d="M88.3461 80.2386L90.178 79.199C90.3325 79.1124 90.5147 79.0896 90.6857 79.1355C90.8567 79.1815 91.003 79.2925 91.0934 79.4449C91.1838 79.5973 91.2111 79.779 91.1694 79.9512C91.1278 80.1234 91.0205 80.2726 90.8705 80.3668L88.966 81.4393C88.8053 81.5218 88.6184 81.537 88.4465 81.4816C88.2745 81.4262 88.1316 81.3047 88.0492 81.1439C87.9668 80.983 87.9516 80.796 88.0069 80.624C88.0623 80.4519 88.1837 80.3089 88.3444 80.2265L88.3461 80.2386Z" fill="#202124" stroke="#202124" stroke-width="2"/>
</g>
<defs>
<clipPath id="clip0_312_35378">
<rect width="109.113" height="122" fill="white" transform="matrix(-1 0 0 1 118.604 3.49902)"/>
</clipPath>
</defs>
</svg>
