<svg width="129" height="129" viewBox="0 0 129 129" fill="none" xmlns="http://www.w3.org/2000/svg">
<g clip-path="url(#clip0_165_11649)">
<path d="M117.34 114.041C112.763 119.739 97.3834 110.196 84.2987 99.6853C80.7153 95.3639 75.7341 88.3913 80.311 82.6934C84.8879 76.9956 94.8501 79.7819 107.935 90.2923C121.019 100.803 121.917 108.343 117.34 114.041Z" fill="#FFD000"/>
<path d="M43.8088 96.7918C39.2319 102.49 23.8521 92.9467 10.7675 82.4363C7.18409 78.1148 2.20289 71.1423 6.77978 65.4444C11.3567 59.7465 21.3189 62.5328 34.4035 73.0432C47.4881 83.5536 48.3857 91.094 43.8088 96.7918Z" fill="#FFD000"/>
<path fill-rule="evenodd" clip-rule="evenodd" d="M115.882 94.8469C111.652 90.6793 107.047 86.8208 102.28 83.3087C97.8597 80.0215 93.8513 75.5386 87.3892 76.447C86.8897 76.5126 86.2622 76.01 85.7627 75.6666C78.773 70.4906 78.0487 68.2991 80.593 60.0887C80.7803 59.4894 80.9645 58.8931 81.183 58.2968C90.024 33.3161 66.42 12.4999 48.5508 11.81C30.1509 11.092 13.7551 24.8841 9.80604 43.0312C4.35224 67.9245 22.2527 87.4514 48.3323 89.1434C53.1305 89.4244 57.5478 87.9197 61.781 85.5689C64.447 84.0923 66.5761 80.3961 69.5855 81.1172C72.3452 81.8072 74.4462 84.9102 77.0154 86.6335C78.645 87.7011 79.3974 89.0154 78.5513 90.4858C76.5409 93.9978 78.5513 96.0988 80.8396 98.1342C83.7554 100.772 86.7305 103.31 89.6775 105.876C89.7711 105.751 89.8648 105.661 89.9928 105.536C92.562 107.54 95.2624 109.485 97.7348 111.645C100.335 113.934 103.345 115.629 106.257 117.418C108.767 118.95 110.928 118.666 113.247 117.168C121.748 111.773 123.062 101.962 115.882 94.8469ZM67.5189 74.0963C59.3366 83.4711 50.1804 86.2589 38.8357 82.3691C32.0302 80.0215 25.7616 77.2899 21.0602 71.6176C11.0922 59.6767 11.5324 42.3101 21.5315 30.3348C28.6493 21.8685 36.7972 16.321 48.3042 16.8236C62.9735 17.448 84.1019 35.005 76.4223 56.9794C74.1621 63.4072 71.5897 69.4885 67.5189 74.0963ZM81.1518 82.4315C80.3058 83.2775 79.4629 82.4315 78.7699 81.8633C77.9239 81.1734 77.1403 80.4242 76.2912 79.7343C76.2912 79.7343 76.2912 79.7343 76.2912 79.7624C75.3515 78.9164 74.3837 78.1671 73.5034 77.2868C72.6574 76.5063 72.9664 75.6291 73.5034 74.8112C74.0029 74.062 74.4118 73.1847 75.57 73.244C77.0466 73.3377 82.3069 78.4481 82.2163 79.9528C82.1882 80.8394 81.7481 81.8384 81.1518 82.4315ZM115.067 107.54C113.438 112.554 109.863 114.03 105.539 111.115C101.528 108.421 97.7973 105.317 93.9387 102.402C93.9731 102.367 94.0043 102.336 94.0324 102.311C91.3976 100.304 88.7659 98.359 86.2279 96.2923C82.4349 93.1861 83.6586 84.1579 88.0791 81.9039C89.6775 81.1204 91.0885 81.6199 92.4652 82.5283C99.8951 87.2297 106.604 92.8396 112.904 98.924C115.351 101.303 116.1 104.253 115.067 107.54Z" fill="#202124"/>
<path fill-rule="evenodd" clip-rule="evenodd" d="M57.9221 50.838C56.8232 49.6767 55.2561 49.2053 53.5641 49.018C53.2488 48.9524 52.9054 48.9243 52.5932 48.8931C51.0573 48.7339 49.4901 49.0492 47.9542 49.1741C47.9542 49.146 47.9542 49.146 47.923 49.146C47.5452 49.1741 47.1706 49.1741 46.796 49.2053C46.5743 49.2428 46.3246 49.2428 46.0748 49.2709C42.6284 49.583 39.3068 49.8359 39.2443 44.7879C39.2443 43.1833 39.4629 41.9346 40.0279 40.9575C40.7771 39.5464 42.1882 38.766 44.386 38.4819C44.8542 38.4195 45.3568 38.3914 45.9219 38.3914C48.335 38.3539 50.4672 39.3903 52.7243 39.9242C54.0105 40.2395 55.2967 40.1427 55.8586 38.638C56.3924 37.1957 55.6088 36.2279 54.4475 35.538C53.792 35.1291 53.0708 34.845 52.3153 34.5952C49.2747 33.5276 45.3256 33.6899 45.0103 28.9229C44.9167 27.8865 43.6648 27.2621 42.4098 27.5462C41.0956 27.8272 40.3744 28.8948 40.7178 29.9281C41.9104 33.3153 39.7157 34.5078 37.5211 36.1312C37.1746 36.384 36.8624 36.6993 36.5814 37.0115C34.0746 39.7681 33.4471 44.8473 34.9206 49.1116C36.3941 53.4072 39.7157 54.5654 43.7897 54.3781C45.5785 54.2845 47.3642 54.0972 49.1529 53.9723C50.0271 53.9067 50.8762 53.8786 51.7534 53.8786C54.229 53.8786 55.4528 55.4458 54.0386 57.5468C51.8783 60.7747 47.9261 61.6832 44.7949 63.6593C43.1029 64.7269 42.0352 62.1233 40.6866 61.2149C39.4972 60.3689 38.1798 59.6165 36.8624 60.7747C35.5481 61.9641 36.3286 63.1879 37.0497 64.5365C39.7157 69.394 45.2632 68.7072 49.2435 70.9643C49.9646 71.3701 51.2508 70.3368 51.1571 69.3628C51.0916 68.4887 51.2196 67.7644 51.5005 67.137C52.3153 64.8799 54.7004 63.8809 56.5766 62.4698C59.8358 60.0224 60.0574 56.6664 59.1802 53.1606C58.9242 52.1523 58.4871 51.3999 57.9221 50.838Z" fill="#202124"/>
</g>
<defs>
<clipPath id="clip0_165_11649">
<rect width="128" height="128" fill="white" transform="translate(0.0478516 0.499023)"/>
</clipPath>
</defs>
</svg>
