<svg width="129" height="129" viewBox="0 0 129 129" fill="none" xmlns="http://www.w3.org/2000/svg">
<path d="M87.0261 64.9679L88.6498 52.4094C89.3265 47.1756 96.8059 46.9078 97.8551 52.0798C98.1718 53.6407 98.3739 55.2226 98.4599 56.8129L99.1656 69.8663L98.5433 77.883C98.4141 79.5474 97.3143 80.9785 95.7393 81.5318C95.0535 81.7727 94.4374 82.1919 93.9591 82.7392C91.0824 86.0305 85.6178 83.8274 85.9433 79.4682L87.0261 64.9679Z" fill="#F3DEDE"/>
<path d="M32.4749 93.1114C31.1471 88.9602 31.2816 84.4795 32.8559 80.4155L36.1971 71.7907C37.7148 67.8731 43.5749 69.3348 43.075 73.5063L41.5388 86.3246C41.0691 90.2438 43.3389 93.9764 47.0348 95.3623L47.8183 95.6561C47.9561 95.7078 48.0998 95.7423 48.246 95.7589L57.2175 96.7757C58.3771 96.9071 58.3418 98.6035 57.1778 98.6867C56.83 98.7115 56.5231 98.923 56.376 99.2392L54.0239 104.295C53.0554 106.377 51.3908 108.056 49.3171 109.043C43.9224 111.609 37.5027 108.83 35.6826 103.14L32.4749 93.1114Z" fill="#F3DEDE"/>
<path d="M60.5344 5.1665L87.1784 8.36768C88.2682 8.49862 89.0488 9.48335 88.9276 10.5742L81.0785 81.2242L60.5344 81.9404L60.8656 79.116C63.7464 54.5435 63.6352 29.7122 60.5344 5.1665Z" fill="#E1EBFF"/>
<path d="M95.5378 42.5135C95.5378 42.5135 95.5378 42.3282 95.3524 42.3282L95.167 42.1428C95.3524 42.3269 95.5378 42.3269 95.5378 42.5135V42.5135Z" fill="#202124" stroke="#202124" stroke-width="0.75"/>
<path d="M102.227 58.3105C100.741 58.8679 99.0685 58.6825 97.5817 59.2399C95.7229 59.9826 93.8655 60.5413 92.0066 60.912C91.8213 61.284 91.2639 61.284 90.8919 61.284C90.3345 61.6561 89.9625 62.3988 89.2198 62.0268C89.4051 61.4694 89.9625 61.0974 90.5212 60.912C90.7065 60.7267 91.0786 60.54 91.4506 60.54C94.9816 57.5665 99.2552 55.3369 102.786 52.3634C105.759 49.7619 107.989 46.7884 107.617 42.5147C107.617 41.4 107.06 40.8426 105.945 40.656C104.086 40.2839 102.229 40.8413 100.557 41.3987C99.2552 41.7707 98.1405 42.3281 97.0256 42.8855C96.6536 43.0708 96.0962 43.2575 95.7242 43.0708C95.7242 43.2562 95.7242 43.4428 95.5388 43.6282C94.9815 44.0002 94.4241 44.5576 93.4947 44.1856C93.8667 43.6282 94.2374 43.0708 94.7961 42.6988C94.9815 42.5134 95.3535 42.6988 95.5388 42.8842C95.3535 42.3268 95.7242 41.9548 96.2816 41.5828C97.0243 41.0254 97.583 40.468 98.3257 39.9106C100.37 38.7959 101.857 37.1238 103.529 35.637C105.758 33.7782 106.502 31.3634 106.13 28.3899C105.945 26.5311 105.201 25.9738 103.529 26.1604C102.971 26.1604 102.414 26.3457 101.857 26.5324C99.4405 27.2751 97.2111 28.3912 95.167 29.8766C94.6096 30.2486 94.2376 30.6193 93.3082 30.4339C93.1229 28.0178 94.0509 25.6028 94.423 23.3723C95.3523 18.1692 96.6524 13.1516 97.2098 7.94887C97.3951 6.27675 97.0244 5.3474 95.5377 4.79003C94.7949 4.41802 93.8655 4.23265 92.9362 4.0473C88.1051 2.93255 83.0875 3.86194 78.0699 3.11791C74.5389 2.56054 71.0083 2.93255 67.4773 2.37518C60.9728 1.44579 54.4699 2.00316 47.9654 2.00316C46.4786 2.00316 45.1786 3.30456 44.9919 4.97665C44.4345 9.06478 43.8772 13.1532 42.9478 17.0546C41.461 23.5591 41.833 30.2487 41.089 36.9384C40.717 41.212 40.717 45.487 40.3463 49.7606C40.1609 50.69 39.9743 51.2474 39.2315 51.6194C35.1434 53.8489 31.7992 57.0076 29.1977 60.7251C27.5256 62.9546 26.4108 65.3707 26.2242 68.1574C26.0388 70.5735 25.4815 72.803 24.9228 75.2191C24.3654 79.122 23.2507 83.0237 23.2507 87.1118C23.2507 87.6692 23.2507 88.0412 23.0653 88.5986C22.5079 92.5015 22.3226 96.4032 22.88 100.119C23.252 102.349 22.88 104.207 22.1372 106.066C21.7652 106.996 21.2078 107.925 20.8358 108.853C20.2784 109.968 20.2785 111.083 21.0212 112.197C24.9242 117.958 30.1269 122.418 35.8875 126.32C37.5596 127.434 39.0463 127.434 40.905 126.32C43.6919 124.461 46.2933 122.232 48.7097 119.815C52.2407 116.284 56.3288 113.311 60.6024 110.896C65.4335 108.109 69.8936 104.949 74.3537 101.605C75.4685 99.3752 77.6979 99.0033 79.9288 98.4459C80.1142 98.4459 80.3008 98.2605 80.6715 98.2605C82.3436 97.8885 83.273 96.7738 83.8304 95.287C84.7598 93.4283 84.7598 91.1989 85.3171 89.1548C85.5025 88.0401 86.0599 87.4827 86.8039 86.9253C89.0334 85.6239 91.264 84.5092 93.6791 83.3944C95.7232 82.465 97.582 81.5356 99.0673 80.0502C100.182 79.1208 100.369 78.0061 100.182 76.5192C99.81 75.2178 98.8807 74.8471 97.7659 74.6604C95.9072 74.2884 93.863 74.4751 92.0057 74.8458C90.7043 75.0311 89.5896 75.2178 88.2896 74.8458C88.4749 73.9164 89.2189 74.1031 89.591 73.9164C91.8204 72.987 93.8646 72.0576 95.9087 70.9429C98.8821 69.4561 101.484 67.4119 103.528 64.8107C104.643 63.3239 105.015 61.8372 104.457 59.9796C103.714 58.4967 102.971 57.9385 102.227 58.3105ZM101.485 42.5161C102.042 42.3308 102.599 42.3308 103.157 42.3308C105.758 42.1454 106.316 42.8881 105.573 45.3043C105.201 46.791 104.458 48.2777 103.343 49.2072C99.4403 53.1102 94.6096 55.8969 89.592 59.0559C89.7773 55.1529 90.1494 51.9943 90.3347 48.6501C90.3347 47.7207 90.8921 47.1633 91.6361 46.7913C94.795 45.1179 98.1391 43.6309 101.485 42.5161ZM90.8919 45.1176C90.8919 44.9322 91.0773 44.9322 91.0773 44.7456L91.2626 44.9309C91.2639 45.1176 91.0786 45.1176 90.8919 45.1176ZM93.6801 32.1089C95.7242 30.9942 97.7682 30.0648 99.8123 28.7647C100.742 28.2074 102.042 28.2074 102.971 27.65C103.714 27.278 104.273 27.8354 104.273 28.5794C104.273 30.0661 104.272 31.5529 102.971 32.853C101.484 34.3398 99.9976 35.8265 98.3255 36.9411C97.3961 37.4985 96.4667 38.2425 95.5387 38.9853C94.9813 39.3573 94.6093 40.1 93.6799 39.728C93.8652 39.9134 93.8652 40.1 93.6799 40.4707C92.7505 41.2135 92.0078 42.1429 91.0784 43.0722C90.8931 41.4001 91.0784 40.0987 91.4504 38.7986C91.6358 37.6838 92.0078 36.5691 92.0078 35.2676C91.8211 33.9675 92.0066 33.0383 93.6801 32.1089ZM72.1241 100.121C68.408 102.907 64.505 105.696 60.4168 108.11C55.2138 111.084 50.383 114.986 46.108 119.26C44.4359 120.933 42.7639 122.234 40.905 123.534C39.7902 124.463 38.4889 124.463 37.374 123.719C34.0298 121.303 30.4988 119.259 27.7108 116.1C26.4094 114.614 25.1093 113.313 23.8078 111.827C22.6931 110.34 21.949 108.853 23.2504 106.996C24.3652 105.323 24.5518 103.279 25.4799 101.421C25.6653 100.863 25.6653 100.306 25.4799 99.7484C24.3652 97.3323 24.7372 94.9173 24.9226 92.3161C25.1079 88.6 25.2946 84.697 25.8519 80.9808C26.224 77.0779 26.9667 72.9911 27.8961 69.0881C28.2681 67.6013 28.6388 65.9292 29.0108 64.4425C29.1962 63.1411 29.9402 62.0264 30.6829 61.0983C31.6123 59.9836 32.3551 58.8688 33.2844 57.5673C33.8418 58.1247 34.2138 58.6821 34.7712 58.8687C35.3285 59.0541 35.8859 59.9835 36.4433 59.2407C36.8153 58.6834 36.2579 57.9393 35.7006 57.5686C34.2138 56.6392 34.7712 56.2672 35.8859 55.3391C38.4874 53.295 41.4635 51.2508 44.2502 49.7642C44.8076 49.3922 44.9904 50.3215 45.3624 50.6935C46.6638 52.3657 47.6734 53.6668 49.7174 52.9228C51.522 52.2005 53.0327 50.5619 55.0255 49.7642C54.6535 53.6671 52.5422 56.4644 50.126 59.0659C48.6392 60.738 46.0348 61.3262 44.5479 62.9995C43.2465 64.3009 42.2032 65.9303 41.6459 67.9746C41.4605 68.532 39.9743 68.7941 40.3463 69.3515C40.7183 69.9088 41.2757 70.6799 41.089 71.2373C40.5316 73.6534 41.0885 76.3366 40.7165 78.9378C40.1591 83.5834 39.9737 88.4965 40.7165 93.1421C41.0885 95.0009 42.2032 95.2896 43.5033 95.6616C46.1048 96.4043 48.8916 96.591 51.4931 97.3337C52.9799 97.7057 54.4666 97.3337 55.9532 97.5191C60.0413 98.2618 64.315 98.2618 68.4034 98.4484C69.8902 98.6338 71.3769 97.8911 72.8635 98.4484C73.0528 99.5632 72.4961 99.7485 72.1241 100.121ZM52.4271 45.1166C50.7549 45.4886 49.2682 46.046 47.596 46.7887C46.1092 47.5315 45.7372 47.1607 45.7372 45.4873C46.2946 40.4697 46.1092 35.6386 47.224 30.6211C48.1533 26.1609 48.7107 21.7018 49.4534 17.0562C49.8255 14.6401 50.3828 13.8974 52.9844 13.8974H61.7182C64.1343 13.8974 67.1064 13.5254 69.8948 13.8974C75.8418 14.4548 81.7875 15.1988 87.7346 16.3135C88.4773 16.4988 88.8493 16.6855 88.4773 17.6149C84.8083 32.8058 82.81 49.2729 81.3285 64.8107C80.7711 69.2708 80.6726 73.3544 79.1859 77.6293C78.6285 79.1161 79.3727 81.1667 77.7007 81.1667C72.6831 81.5387 67.48 81.7241 62.4624 81.1667C58.5594 80.7947 54.8433 80.2373 50.9416 79.8653C49.6402 79.6799 48.5255 79.4933 47.4106 78.9359C45.1811 78.1932 45.3652 76.89 45.7372 74.6604C46.2946 71.3163 47.0479 66.845 47.0479 63.4995C47.0479 62.3848 48.6185 62.2435 49.5479 61.4995C52.7067 59.0834 52.6123 58.345 54.6567 54.9995C55.5861 53.3274 56.5167 50.5034 56.702 48.4594C57.4435 45.6738 55.3993 44.5591 52.4271 45.1166ZM55.2139 47.7181C54.4671 48.9846 51.2071 51.062 48.7911 51.6194C48.0484 51.8047 47.2228 50.5049 46.8521 49.9475C46.6667 49.7622 46.2223 48.4594 46.5943 48.4594C49.1958 47.53 51.7284 45.2854 54.6567 47.1607L55.2139 47.7181ZM83.8315 83.5822C83.6461 87.1131 82.7168 90.4573 81.7874 93.988C81.4154 95.4747 80.1152 95.8467 79.1859 96.0321C75.4697 96.5895 71.7536 97.3335 67.8506 96.7748C67.2932 96.7748 66.9212 96.5895 66.3638 96.5895C62.0902 96.5895 57.6301 96.2175 53.3565 95.6601C50.0123 95.2881 46.6668 94.3587 43.5078 93.616C42.5784 93.4306 42.5719 92.8319 42.5719 92.0879C42.3866 90.9732 42.2064 90.0399 42.2064 88.9252C42.4556 83.4288 42.2733 77.6681 42.9491 72.2468C43.1626 70.8604 43.1128 68.9975 43.4505 67.5593C43.7012 66.4912 45.2557 64.72 46.0479 63.6909C45.7893 67.0347 44.4327 73.9203 44.6194 78.1939C44.6194 78.7513 44.4359 79.3088 45.1799 79.6808C47.4094 80.6102 49.4535 81.5395 51.8696 81.5395C54.6564 81.5395 57.4446 82.2823 60.2313 82.6543C63.0182 83.0263 65.8064 83.2117 68.5931 83.2117C71.752 83.2117 74.9108 83.2117 78.0698 83.0263C81.0433 82.841 80.0746 81.1662 81.0037 78.3794C82.4904 73.9193 82.9989 69.6441 83.1843 64.9985C83.9373 50.6547 85.8363 32.8426 89.9624 18.9176C91.2638 15.0147 90.5198 14.0865 86.4314 13.5294C82.7153 12.972 78.9991 12.7867 75.4681 12.228C72.124 11.856 68.7785 11.2986 65.4343 11.4853C61.5313 11.6706 57.8152 11.4853 53.9135 11.4853C52.4268 11.4853 51.1267 12.4146 49.6399 12.4146C49.0825 12.4146 48.8972 13.344 48.7105 13.9014C48.3385 15.3882 47.9678 16.6882 47.9678 18.175C47.9678 20.9619 46.6664 23.5633 46.481 26.1648C46.2957 29.881 45.1796 33.5971 45.1796 37.5001C45.1796 40.6589 44.4369 43.8178 44.2502 47.1633C44.2502 48.278 43.3208 48.278 42.3915 48.65C42.7635 45.8632 42.3915 43.075 42.9488 40.4734C43.3208 37.6866 43.3208 34.8984 43.3208 32.1117C43.5062 28.5807 43.8782 25.2365 44.2502 21.891C44.6222 17.2454 45.9223 12.7853 46.2944 8.13969C46.2944 7.2103 46.6664 6.28092 46.8517 5.35286C47.0371 4.61012 46.8517 3.68074 47.2237 3.30872C47.7811 2.75135 48.7105 2.93671 49.4532 2.93671C52.9842 2.93671 56.3284 2.5647 59.8591 2.75135C64.3192 2.93671 68.9648 3.68074 73.4239 4.05275C76.7681 4.23811 79.9284 4.61013 83.2726 4.61013C86.8036 4.42477 90.3343 4.79548 93.8652 5.53951C95.1666 5.72487 95.724 6.4689 95.724 7.58365C95.724 8.51303 95.724 9.25576 95.352 10.1851C93.6799 15.7602 92.9359 21.5204 91.6358 27.0955C91.4505 28.2102 90.8931 29.3249 90.7065 30.6264C89.7771 35.8295 89.2197 40.8471 88.8477 46.2353C88.6623 49.0222 88.8477 51.9956 87.9183 54.7839C87.5463 55.7133 87.5463 56.8281 87.5463 57.9428C87.5463 61.1016 86.6169 64.2605 86.2449 67.4195C85.6888 72.9919 84.0169 78.1939 83.8315 83.5822ZM96.4669 76.1498C97.0243 76.1498 97.7683 76.1499 97.9537 76.8926C98.139 77.45 97.7683 78.0073 97.2109 78.3793C95.3521 79.6807 93.6799 81.1662 91.0787 80.7954C90.8934 80.7954 90.7067 80.6101 90.7067 80.7954C90.3347 82.0968 89.2199 82.4676 88.2906 82.6542C87.3612 83.0262 86.6185 83.9556 85.5038 84.141C85.6891 82.0968 85.6891 80.0528 85.8758 78.1939C85.8758 77.2645 86.2478 76.5218 87.3625 76.5218C90.5201 76.3352 93.4934 76.1498 96.4669 76.1498ZM101.298 63.8851C99.6259 65.7439 97.5818 67.4161 95.3509 68.5307C92.9348 69.6455 90.7053 71.3175 87.7318 71.6896C87.5465 69.2734 88.6612 67.044 88.6612 64.8144C88.6612 64.0717 89.2186 64.257 89.5906 64.0717C92.9348 63.1423 96.0951 62.0275 99.4393 60.9128C100.369 60.5408 101.855 60.1701 102.413 60.9128C102.971 61.8409 101.855 62.9557 101.298 63.8851Z" fill="#202124" stroke="#202124" stroke-width="0.75"/>
<path d="M40.9047 55.3369C40.9047 54.7795 40.3473 54.5941 39.9753 54.4075C39.6033 54.5928 39.418 54.7795 39.418 55.1502C39.6033 55.5222 39.79 56.0796 40.3474 56.0796C40.7194 55.8955 40.9047 55.7089 40.9047 55.3369Z" fill="#202124" stroke="#202124" stroke-width="0.75"/>
<path d="M33.0998 62.0259C32.5424 62.0259 32.1704 62.2112 32.1704 62.5833C32.1704 63.1406 32.7278 63.326 33.0998 63.326C33.4718 63.326 33.6572 63.1406 33.6572 62.7686C33.8438 62.3979 33.4718 62.2125 33.0998 62.0259Z" fill="#202124" stroke="#202124" stroke-width="0.75"/>
<path d="M58.5568 86.558C57.2554 87.8594 57.07 89.5315 57.6274 91.2036C58.1848 93.0624 60.9716 94.7346 62.8305 94.3625C64.3172 93.9905 65.2466 92.5037 65.2466 90.4595C65.2466 88.7874 65.0612 88.23 64.1318 87.1154C63.2024 85.814 59.6717 85.2566 58.5568 86.558V86.558ZM62.2729 91.9463C60.6008 91.9463 59.2994 90.8315 59.2994 89.3448C59.2994 88.0434 59.6715 87.858 61.3436 87.6727C62.8303 87.6727 63.945 88.6021 63.945 90.0888C63.945 91.2035 63.2023 91.9463 62.2729 91.9463Z" fill="#202124" stroke="#202124" stroke-width="0.75"/>
<path d="M94.1638 35.7161C94.1638 35.5307 93.7918 35.3441 93.6064 35.5307C93.421 35.5307 93.2344 35.7161 93.2344 36.0881C93.2344 37.2028 93.9771 38.1322 94.7212 39.0616C95.0919 37.5748 94.3491 36.6455 94.1638 35.7161Z" fill="#202124" stroke="#202124" stroke-width="0.75"/>
<path d="M76.2118 5.72387C73.2383 5.35186 70.2647 5.1665 67.6632 5.35186C66.5485 5.35186 65.6191 5.1665 64.6897 5.1665C63.7604 5.1665 62.6456 6.65327 62.8309 7.76798C63.0163 8.88273 63.9457 8.88273 64.6897 8.88273C68.2207 8.88273 71.7514 9.06809 75.2824 9.44011H76.2118C77.1411 9.25475 77.8839 8.32536 77.6985 7.21061C77.6985 6.09586 77.1411 5.9105 76.2118 5.72384L76.2118 5.72387ZM69.8941 7.02528C71.0088 7.02528 72.1236 6.65326 73.4251 7.02528C72.1237 7.39729 71.009 7.21063 69.8941 7.02528Z" fill="#202124"/>
</svg>
