<svg width="25" height="25" viewBox="0 0 25 25" fill="none" xmlns="http://www.w3.org/2000/svg">
<rect x="11.3672" y="6.125" width="2.26488" height="2.6843" rx="1" fill="#46A78B"/>
<rect x="11.3672" y="15.5195" width="2.26488" height="3.35537" rx="1" fill="#46A78B"/>
<path fill-rule="evenodd" clip-rule="evenodd" d="M14.559 10.1811C14.372 9.94305 14.1276 9.75392 13.8258 9.61366C13.5241 9.47341 13.2329 9.40328 12.9524 9.40328C12.8079 9.40328 12.6613 9.41603 12.5125 9.44153C12.3638 9.46703 12.2299 9.51591 12.1109 9.58816C11.9919 9.66041 11.892 9.75391 11.8112 9.86867C11.7305 9.98342 11.6901 10.1301 11.6901 10.3086C11.6901 10.4616 11.722 10.5891 11.7857 10.6911C11.8495 10.7931 11.943 10.8823 12.0663 10.9588C12.1895 11.0353 12.3361 11.1055 12.5061 11.1692C12.6762 11.233 12.8674 11.2988 13.0799 11.3668C13.3859 11.4688 13.7047 11.5815 14.0362 11.7047C14.3677 11.828 14.6695 11.9916 14.9415 12.1956C15.2135 12.3996 15.4387 12.6525 15.6172 12.9543C15.7958 13.256 15.885 13.6322 15.885 14.0827C15.885 14.6012 15.7894 15.0496 15.5981 15.4279C15.4069 15.8061 15.1497 16.1185 14.8267 16.365C14.5037 16.6115 14.134 16.7943 13.7174 16.9133C13.3009 17.0323 12.8717 17.0918 12.4296 17.0918C11.7836 17.0918 11.1589 16.9792 10.5553 16.7539C9.95181 16.5286 9.4503 16.2078 9.05078 15.7912L10.4788 14.3377C10.6998 14.6097 10.991 14.8371 11.3522 15.0198C11.7135 15.2026 12.0726 15.294 12.4296 15.294C12.5911 15.294 12.7484 15.277 12.9014 15.243C13.0544 15.209 13.1883 15.1537 13.303 15.0772C13.4178 15.0007 13.5092 14.8987 13.5772 14.7712C13.6452 14.6437 13.6792 14.4907 13.6792 14.3122C13.6792 14.1422 13.6367 13.9977 13.5517 13.8787C13.4667 13.7597 13.3455 13.6513 13.1883 13.5535C13.031 13.4558 12.8355 13.3665 12.6018 13.2858C12.368 13.205 12.1024 13.1179 11.8049 13.0244C11.5159 12.9309 11.2332 12.8204 10.957 12.6929C10.6807 12.5654 10.4342 12.4018 10.2174 12.202C10.0007 12.0022 9.82643 11.76 9.69468 11.4752C9.56292 11.1905 9.49705 10.8441 9.49705 10.4361C9.49705 9.93454 9.59905 9.50528 9.80306 9.14827C10.0071 8.79126 10.2748 8.498 10.6063 8.26849C10.9378 8.03898 11.3119 7.8711 11.7284 7.76485C12.1449 7.65859 12.5656 7.60547 12.9907 7.60547C13.5007 7.60547 14.0213 7.69897 14.5526 7.88598C15.0839 8.07299 15.5492 8.34924 15.9488 8.71476L14.559 10.1811Z" fill="#46A78B"/>
<path opacity="0.3" fill-rule="evenodd" clip-rule="evenodd" d="M12.5 23.5C18.5751 23.5 23.5 18.5751 23.5 12.5C23.5 6.42487 18.5751 1.5 12.5 1.5C6.42487 1.5 1.5 6.42487 1.5 12.5C1.5 18.5751 6.42487 23.5 12.5 23.5Z" fill="#46A78B"/>
</svg>
