<svg width="26" height="25" viewBox="0 0 26 25" fill="none" xmlns="http://www.w3.org/2000/svg">
  <path
    d="M12.0034 16.3699C12.5502 16.8046 13.3246 16.8044 13.8711 16.3693L20.2975 11.2534L20.4557 11.1281C21.213 10.5284 21.2143 9.37952 20.4582 8.77817L13.8712 3.53945C13.3246 3.10476 12.5504 3.10476 12.0038 3.53945L5.41233 8.78176C4.65765 9.38197 4.65716 10.5281 5.41133 11.1289L5.5675 11.2534L12.0034 16.3699Z"
    fill="#46A78B" />
  <path opacity="0.4" fill-rule="evenodd" clip-rule="evenodd"
    d="M13.8605 18.9671C13.314 19.4017 12.5399 19.4018 11.9934 18.9672L6.27536 14.4214C5.88012 14.1072 5.30429 14.1766 4.99513 14.5759C4.68744 14.9732 4.76189 15.545 5.16105 15.8503L12.0243 21.0997C12.5621 21.511 13.3088 21.5111 13.8466 21.0998L20.7066 15.855C21.1092 15.5472 21.184 14.9705 20.8734 14.5701C20.5617 14.1684 19.9818 14.0987 19.5838 14.4152L13.8605 18.9671Z"
    fill="#46A78B" />
</svg>
