<svg width="17" height="17" viewBox="0 0 17 17" fill="none" xmlns="http://www.w3.org/2000/svg">
<path opacity="0.65" fill-rule="evenodd" clip-rule="evenodd" d="M8.27686 13.1324L8.27739 13.1321L11.4506 14.8004C11.6019 14.8799 11.7751 14.9073 11.9435 14.8784C12.3664 14.8059 12.6504 14.4043 12.5779 13.9814L11.9719 10.4479L14.5391 7.94551C14.6614 7.82625 14.7411 7.66997 14.7656 7.50089C14.8273 7.07627 14.5331 6.68202 14.1085 6.62032L10.5607 6.1048L8.97408 2.88995C8.89846 2.73673 8.77445 2.61271 8.62123 2.5371C8.51032 2.48236 8.39268 2.45653 8.27686 2.4567V13.1324Z" fill="#FFC800"/>
<path fill-rule="evenodd" clip-rule="evenodd" d="M8.27734 2.45667C7.9912 2.45696 7.71608 2.61595 7.58087 2.88992L5.99424 6.10477L2.44645 6.62029C2.27736 6.64486 2.12109 6.72448 2.00183 6.84684C1.70232 7.1541 1.70861 7.64598 2.01587 7.94548L4.58308 10.4479L3.97704 13.9813C3.94816 14.1497 3.9756 14.323 4.05511 14.4742C4.25478 14.854 4.72452 15 5.10432 14.8004L8.27734 13.1322V2.45667Z" fill="#FFC800"/>
</svg>
