<svg width="129" height="129" viewBox="0 0 129 129" fill="none" xmlns="http://www.w3.org/2000/svg">
<g clip-path="url(#clip0_407_33101)">
<path d="M54.0479 40.999L68.5479 10.499L75.5479 3.49902L82.0479 10.999L83.0479 18.499L72.5479 53.499L95.5479 52.499L105.548 59.499L99.0479 70.499L107.048 77.999L82.0479 121.499L55.0479 126.999L34.0479 124.499L23.5479 110.499L23.0479 72.999L28.0479 70.499L54.0479 40.999Z" fill="white"/>
<path d="M72.2802 24.9723L73.904 12.4138C74.5806 7.18001 82.06 6.91223 83.1093 12.0842C83.4259 13.6451 83.6281 15.227 83.714 16.8173L84.4198 29.8707L83.7975 37.8874C83.6683 39.5518 82.5685 40.9829 80.9934 41.5362C80.3077 41.7771 79.6915 42.1963 79.2132 42.7435C76.3365 46.0349 70.872 43.8318 71.1975 39.4726L72.2802 24.9723Z" fill="#F3DEDE"/>
<path d="M28.9803 112.761C24.5167 106.476 22.532 98.7626 23.4074 91.1031L25.0488 76.7408C25.618 71.7601 29.8334 67.999 34.8466 67.999H48.8397C51.0581 67.999 53.2669 67.7079 55.4095 67.133C65.7657 64.3545 76.7502 68.3914 82.8426 77.2149L84.2452 79.2462C86.1701 82.034 88.783 84.2768 91.8304 85.7569C110.593 94.8699 104.104 123.083 83.2452 123.083H73.4856C71.9628 123.083 70.4441 123.242 68.9543 123.557L60.9507 125.251C48.7573 127.83 36.1964 122.923 28.9803 112.761Z" fill="#F3DEDE"/>
<g clip-path="url(#clip1_407_33101)">
<path d="M103.47 91.0178C102.741 90.5314 102.012 90.0467 101.284 89.3163C111.73 82.2716 111.488 73.5254 100.555 68.4226C102.012 67.2075 103.47 65.9924 104.685 64.779C108.086 61.3778 107.844 56.5191 104.198 53.8467C100.797 51.1742 96.9095 49.9591 92.2935 50.4455C86.7061 50.9319 81.3612 50.9319 76.0158 52.147C74.8008 52.3893 74.3144 52.147 74.072 50.6895C74.072 49.2321 74.5584 48.2593 75.0431 47.046C77.7156 40.9722 80.388 34.8984 82.0878 28.3384C83.3029 23.7219 84.2739 19.1058 83.7892 14.0047C83.3029 10.1171 82.3318 6.71579 79.1728 4.04334C77.2289 2.34186 74.3142 1.85717 72.3702 3.55696C70.6687 5.0144 68.9689 6.71583 67.9979 8.90186C64.5967 15.7045 62.4105 22.993 59.0092 29.7956C55.8503 36.3557 52.4491 42.914 47.348 48.0168C41.5168 53.8481 35.9294 59.9218 29.3693 65.2672C27.9119 66.4823 26.6968 68.4261 24.5107 67.9397C23.782 67.9397 23.2956 68.6684 23.2956 69.3972C22.8093 70.8546 22.3246 72.556 22.3246 74.2557C22.0822 80.572 22.5669 86.8896 21.5959 93.2059C20.8671 99.5221 20.8671 106.082 23.5397 112.156C25.4835 117.015 28.6425 121.145 33.0147 124.303C34.9585 125.761 37.387 126.005 39.5748 126.734C44.9197 128.191 50.265 129.164 55.8525 127.949C63.8698 126.247 71.8876 125.276 80.1475 123.819C86.9501 122.604 93.7522 122.117 99.5839 117.745C103.471 114.83 104.442 112.642 102.743 108.27C102.256 107.055 102.256 106.326 103.229 105.597C105.659 103.654 106.144 100.981 106.63 98.0665C106.871 95.1482 105.898 92.7176 103.47 91.0178ZM68.2425 14.9744C69.6999 11.8155 71.1574 8.65809 73.5874 6.22815C74.0738 5.74177 74.8025 5.49943 75.5312 5.25709C76.0176 5.25709 77.6816 6.75668 77.6816 6.99902C75.9802 10.6426 75.0407 14.0035 72.3683 17.1605C72.126 17.4029 71.8819 17.6469 71.1532 17.4029C70.6685 17.1605 67.5138 16.4318 68.2425 14.9744ZM101.284 103.408C99.8262 104.623 98.1248 105.594 96.1809 105.594C95.2098 105.594 94.4794 105.837 94.4794 107.052C94.4794 108.267 95.4505 108.753 96.4232 108.509C97.3943 108.509 98.367 107.781 99.0957 108.752C99.8245 109.48 100.311 110.209 100.553 111.182C101.04 113.126 99.8245 114.341 98.367 115.554C94.9658 118.469 90.836 119.198 86.7059 119.926C78.9306 121.384 70.915 122.599 63.1397 123.814C59.9808 124.3 56.5796 125.271 53.4226 125.515C44.4339 126.002 35.6877 125.029 29.3701 117.498C24.9979 112.395 23.2963 106.321 23.7827 99.5193C24.025 93.9318 24.7537 88.3427 24.5114 82.7553C24.5114 80.0827 24.5114 77.4104 24.9978 74.7379C25.2401 72.7941 26.6992 71.3367 28.399 70.1214C29.6141 69.3927 31.5578 69.1504 30.8292 66.9625C30.5868 66.4762 31.3155 66.4762 31.5579 66.2338C36.6607 62.8326 40.3041 57.9739 44.9206 53.8438C49.5371 49.9562 53.1805 45.3397 56.0972 40.239C59.9847 33.4364 64.1145 26.8763 66.3011 18.859C67.0298 19.1013 67.5162 19.3453 68.0025 19.5877C69.704 20.8028 72.6147 20.8028 73.5874 19.5877C75.7736 17.4015 75.724 16.1715 77.1816 13.499C77.5601 12.8051 78.6816 10.7414 78.6816 10.499C78.924 9.7703 79.1816 8.90186 79.6816 8.90186C80.4104 8.90186 80.9376 11.0126 81.1816 11.499C82.8831 16.1155 81.8517 19.3436 80.3942 23.9597C78.2081 31.977 75.2914 39.9948 71.8901 47.7684C71.4037 48.7394 71.1614 49.7122 71.1614 50.9273C70.9191 54.3285 72.6188 56.0301 76.02 55.2995C82.0937 54.0844 88.1675 53.842 94.4837 53.842C97.8849 53.842 100.557 55.2995 102.744 57.7296C104.201 59.4311 104.445 60.6445 103.23 62.3461C100.8 65.9897 97.3987 67.9336 93.2686 68.6624C91.8111 68.9048 90.8384 69.1488 89.8674 70.3639C89.1387 71.3349 89.8674 72.55 90.8384 72.3077C93.2686 71.579 95.697 72.55 98.1274 72.55C101.286 72.3077 104.687 75.4649 105.416 78.1375C106.145 81.0523 104.201 85.4264 101.286 86.6416C99.1002 87.6127 97.1564 89.3141 94.7263 89.5565C93.9976 89.5565 93.5112 90.0428 93.7552 91.0139C93.9976 91.7426 94.4839 92.229 95.2127 91.985C97.6429 91.2563 99.3426 92.7137 101.286 93.9288C105.171 95.3913 104.2 100.736 101.285 103.409L101.284 103.408Z" fill="#202124" stroke="#202124" stroke-width="0.75"/>
</g>
</g>
<defs>
<clipPath id="clip0_407_33101">
<rect width="128" height="128" fill="white" transform="translate(0.0478516 0.499023)"/>
</clipPath>
<clipPath id="clip1_407_33101">
<rect width="128" height="128" fill="white" transform="translate(1.15723 0.999023)"/>
</clipPath>
</defs>
</svg>
