<svg width="129" height="129" viewBox="0 0 129 129" fill="none" xmlns="http://www.w3.org/2000/svg">
<path d="M105.229 82.9096L38.8957 78.9031C58.5072 60.0016 62.9453 40.0217 78.3552 15.1082L110.253 19.3618L105.229 82.9096Z" fill="#D3EDE5"/>
<path fill-rule="evenodd" clip-rule="evenodd" d="M113.218 18.7811C113.21 18.109 112.818 17.2309 111.644 16.6877C109.85 15.8613 104.656 15.4372 103.811 15.316L76.1788 11.2547C67.7192 10.067 59.2541 8.79885 50.7681 7.72901C45.0883 7.01615 39.3987 6.39363 33.6903 5.9463L23.4061 5.5761C22.9654 5.5761 20.7056 5.43176 19.7933 5.65542C19.2707 5.76575 18.8059 6.06215 18.4855 6.48949C17.8542 7.38415 17.4509 8.88258 17.2944 10.6322C17.0443 13.4341 17.3275 16.9708 17.2338 18.6676C17.0655 18.9372 16.9766 19.2488 16.9771 19.5667C16.9661 25.4392 16.6786 31.3041 16.2059 37.1546C15.4908 45.9613 14.3482 54.7393 13.0713 63.4732L11.9078 74.2994C11.9078 74.544 11.7976 76.5151 11.8218 77.3051C11.8703 78.6405 12.8829 79.1374 13.0757 79.198C15.4423 79.9395 18.653 80.3582 22.1809 80.5796C29.2831 81.0281 37.7162 80.7074 42.7514 81.0126L47.2809 81.2859C46.243 84.7257 45.0575 88.1104 43.7849 91.4621C40.2492 100.776 36.1285 109.868 33.0677 119.337C32.9982 119.553 32.9717 119.779 32.9898 120.005C33.0079 120.23 33.0702 120.449 33.1731 120.651C33.276 120.852 33.4176 121.031 33.5897 121.177C33.7618 121.324 33.9611 121.435 34.1761 121.505C34.3912 121.574 34.6179 121.601 34.8432 121.583C35.0685 121.565 35.2881 121.502 35.4893 121.399C35.6906 121.296 35.8696 121.155 36.0161 120.983C36.1626 120.811 36.2738 120.611 36.3434 120.396C38.1734 114.734 40.3869 109.209 42.6236 103.689C46.3774 104.419 50.1356 105.011 53.9027 105.498C59.4337 106.217 64.9834 106.735 70.5629 107.224C71.0797 113.152 71.5909 119.08 72.274 124.981C72.2899 125.213 72.3527 125.44 72.4587 125.647C72.5647 125.854 72.7116 126.038 72.8906 126.187C73.0695 126.335 73.2768 126.446 73.4999 126.513C73.723 126.579 73.9572 126.6 74.1884 126.573C74.4196 126.546 74.643 126.473 74.8451 126.357C75.0472 126.242 75.2237 126.087 75.3641 125.901C75.5044 125.715 75.6056 125.503 75.6615 125.277C75.7175 125.051 75.727 124.816 75.6896 124.586C74.9745 118.398 74.4467 112.18 73.9047 105.966C73.9157 105.908 73.9322 105.856 73.9377 105.792C73.9612 105.53 73.9235 105.266 73.8275 105.021C73.5135 101.439 73.194 97.8591 72.8227 94.2848C72.4238 90.4433 71.9486 86.6127 71.397 82.7932C74.1977 82.9827 76.9974 83.1799 79.796 83.3848C88.0043 83.993 96.2127 84.6926 104.41 85.5564C104.439 85.5564 106.117 85.3603 106.349 83.7407C106.472 82.8901 106.752 80.7658 106.776 80.595L108.347 68.6538C109.534 58.958 111.121 48.9152 112.158 38.9054C112.86 32.1481 113.308 25.3963 113.218 18.7811ZM54.3511 102.091C50.8761 101.638 47.4098 101.099 43.9457 100.438C44.9869 97.8635 46.0204 95.2842 47.0054 92.6883C48.4025 89.0072 49.6982 85.2887 50.8121 81.504C56.5106 81.8463 62.2032 82.2015 67.89 82.5695C68.4904 86.5811 68.9807 90.6126 69.3983 94.6473C69.7134 97.6762 69.99 100.707 70.2599 103.745C64.9338 103.279 59.6342 102.782 54.3511 102.091ZM108.736 38.5616C107.702 48.5494 106.117 58.5757 104.932 68.2462L103.367 80.1378L103.119 81.9734C95.4315 81.1834 87.7454 80.5333 80.0527 79.9626C67.7071 79.0481 55.3482 78.3353 42.9619 77.585C37.9333 77.2798 29.499 77.6004 22.4002 77.1519C19.7448 76.9845 17.2834 76.7113 15.2936 76.2386L15.352 74.392L16.4791 63.9789C17.7671 55.1723 18.9185 46.3215 19.6402 37.4422C20.1184 31.5542 20.4114 25.653 20.4224 19.7452C20.5703 19.5056 20.6563 19.233 20.6725 18.9519C20.7618 17.503 20.5525 14.6075 20.6604 12.0106C20.7089 10.8537 20.7706 9.76071 21.045 9.00598L23.3741 9.02251L33.4269 9.3828C39.0758 9.82352 44.7126 10.4427 50.3395 11.1457C58.8079 12.2089 67.2553 13.4738 75.6995 14.6604L103.324 18.7205C103.945 18.8098 108.374 19.5182 109.78 19.7441C109.822 25.9395 109.389 32.2428 108.736 38.5616Z" fill="#202124" stroke="#202124" stroke-width="1.6"/>
<path fill-rule="evenodd" clip-rule="evenodd" d="M79.3975 50.859L75.1257 54.8706L74.7927 54.4715C74.2911 53.8916 71.5252 50.4685 70.1952 49.3873C69.0506 48.4579 67.9897 48.7645 67.6022 49.0474L54.9544 57.7042L51.842 59.6643C50.8042 58.1055 49.6019 55.4881 48.3368 53.9497C47.588 53.0385 46.7816 52.4436 46.0213 52.2134C45.5888 52.0832 44.6997 52.1553 43.7173 52.7513C42.4554 53.5043 40.5829 55.1255 40.0645 55.4687C37.7878 56.9748 35.4566 58.4002 33.0845 59.7568C30.7125 61.1133 28.2891 62.4183 25.8584 63.6758C25.471 63.8766 25.177 64.2272 25.0412 64.6505C24.9054 65.0739 24.9388 65.5353 25.1342 65.9334C25.3296 66.3314 25.671 66.6333 26.0831 66.7729C26.4952 66.9124 26.9444 66.878 27.3319 66.6773C29.8013 65.3982 32.254 64.0782 34.6774 62.6969C37.1008 61.3156 39.5021 59.8471 41.8386 58.298C42.3025 57.9893 44.7112 56.2078 45.46 55.6527C45.7574 55.9066 46.0287 56.3433 46.3439 56.8027C47.7545 58.8617 49.1139 61.7975 50.2009 62.912C50.4649 63.182 51.3215 63.6888 52.4997 63.1627C53.6778 62.6366 56.34 60.7906 56.7107 60.5496L68.5447 52.4501C69.5019 53.5162 71.9808 56.2831 72.3505 56.7102C72.3976 56.765 73.2627 57.8387 73.6302 58.2378C73.8896 58.5284 74.2296 58.7301 74.6043 58.8155C74.9789 58.901 75.3701 58.866 75.7248 58.7154C76.4959 58.2798 77.2099 57.7451 77.8497 57.1243C79.1064 55.9496 80.2992 54.4403 81.4575 53.4775L91.0462 46.444L90.178 53.6517C90.1298 54.0947 90.2549 54.5391 90.5257 54.8874C90.7966 55.2356 91.191 55.459 91.6222 55.5085C92.0534 55.558 92.4861 55.4295 92.8251 55.1513C93.164 54.8731 93.3816 54.468 93.4298 54.025L94.4592 45.4672C94.5116 45.0875 94.9012 43.3522 94.8949 42.6164C94.8886 41.8806 94.5807 41.3889 94.3576 41.163C93.7701 40.5606 92.7805 39.9958 91.6002 39.5289C89.7151 38.7845 87.2844 38.2272 86.0497 37.7001C85.653 37.5486 85.2146 37.5609 84.8265 37.7343C84.4384 37.9077 84.1307 38.2288 83.9681 38.6302C83.8055 39.0316 83.8006 39.4821 83.9544 39.8872C84.1082 40.2922 84.4088 40.6203 84.793 40.8026C86.0497 41.3405 88.516 41.9128 90.4304 42.6691L79.3975 50.859Z" fill="#202124" stroke="#202124" stroke-width="1.6"/>
</svg>
