<svg width="25" height="25" viewBox="0 0 25 25" fill="none" xmlns="http://www.w3.org/2000/svg">
  <path opacity="0.4"
    d="M12.2734 11.499C10.0643 11.499 8.27344 9.70816 8.27344 7.49902C8.27344 5.28988 10.0643 3.49902 12.2734 3.49902C14.4826 3.49902 16.2734 5.28988 16.2734 7.49902C16.2734 9.70816 14.4826 11.499 12.2734 11.499Z"
    fill="#46A78B" />
  <path
    d="M3.27409 20.6982C3.6617 15.9255 7.53535 13.499 12.2568 13.499C17.0447 13.499 20.9783 15.7922 21.2714 20.699C21.283 20.8945 21.2714 21.499 20.5201 21.499C16.8146 21.499 11.3082 21.499 4.00094 21.499C3.75015 21.499 3.25298 20.9582 3.27409 20.6982Z"
    fill="#46A78B" />
</svg>
