<svg width="241" height="237" viewBox="0 0 241 237" fill="none" xmlns="http://www.w3.org/2000/svg">
  <path fill-rule="evenodd" clip-rule="evenodd"
    d="M70.6412 163.862C70.8808 164.027 71.2691 163.902 71.7066 163.519C72.3686 162.939 72.3853 162.944 72.138 163.653C71.9969 164.059 72.015 164.279 72.1787 164.141C72.3511 163.997 72.6057 164.147 72.7825 164.496C73.0374 165.001 73.1938 165.013 73.7228 164.57C74.3108 164.078 74.329 164.084 73.9681 164.656C73.7539 164.996 73.4093 165.354 73.2022 165.453C72.6778 165.704 72.7514 166.386 73.3057 166.41C73.5575 166.421 74.2772 167.002 74.9054 167.7C75.5336 168.397 76.1518 169.073 76.2796 169.202C76.4074 169.33 76.6895 169.279 76.9065 169.089C77.3554 168.695 77.9053 169.138 77.5696 169.622C77.4202 169.837 77.7075 170.101 78.4625 170.441C79.0917 170.724 79.9065 171.412 80.3357 172.021C80.792 172.669 81.2033 173.006 81.3653 172.864C81.5245 172.725 81.7486 172.901 81.9125 173.293C82.1249 173.803 82.424 173.93 83.1878 173.835C84.1793 173.711 85.0759 174.152 84.629 174.544C84.2803 174.849 84.9236 175.421 85.6681 175.467C86.0266 175.489 86.449 175.762 86.6065 176.074C86.7641 176.385 87.1825 176.619 87.5364 176.592C87.9619 176.56 88.1936 176.718 88.2201 177.057C88.2703 177.706 89.3253 177.581 89.7803 176.873C90.0718 176.419 90.103 176.447 90.1047 177.16C90.1068 178.091 91.1499 178.604 91.8362 178.011C92.2061 177.692 92.2308 177.714 92.0344 178.187C91.8525 178.625 91.9034 178.702 92.3027 178.593C92.5742 178.518 92.9603 178.585 93.1613 178.741C93.3621 178.897 93.6974 178.981 93.906 178.927C94.4971 178.773 95.1408 179.142 95.1558 179.642C95.1737 180.257 97.5607 180.861 98.5854 180.511C99.0275 180.36 99.5318 180.399 99.7057 180.598C99.8795 180.797 100.139 180.858 100.282 180.733C100.425 180.607 100.91 180.45 101.359 180.384C101.963 180.294 102.127 180.376 101.986 180.697C101.836 181.039 101.935 181.155 102.454 181.24C103.006 181.33 103.052 181.427 102.739 181.833C102.392 182.283 102.4 182.29 102.846 181.937C103.187 181.667 103.473 181.725 103.832 182.137C104.11 182.455 104.631 182.694 104.991 182.668C105.35 182.641 105.716 182.7 105.803 182.8C105.89 182.9 106.338 182.935 106.799 182.879C107.26 182.822 107.742 182.896 107.87 183.042C107.998 183.189 108.22 183.205 108.365 183.078C108.51 182.951 108.745 182.981 108.887 183.145C109.03 183.308 109.264 183.338 109.409 183.211C109.554 183.084 109.823 183.153 110.007 183.365C110.459 183.883 111.072 183.662 111.304 182.898C111.408 182.555 111.974 181.837 112.561 181.304C113.148 180.77 113.837 180.035 114.092 179.669C114.379 179.258 114.626 179.085 114.74 179.215C114.842 179.332 114.685 179.637 114.392 179.893C114.021 180.218 113.96 180.564 114.189 181.031C114.43 181.52 114.358 181.856 113.925 182.272C113.513 182.666 113.3 182.719 113.231 182.443C113.176 182.224 113.256 181.915 113.409 181.755C113.562 181.596 113.221 181.769 112.65 182.139C112.08 182.509 111.565 182.896 111.505 182.998C111.295 183.361 112.688 184.18 113.02 183.889C113.204 183.727 113.556 183.674 113.801 183.772C114.137 183.907 114.443 183.732 115.044 183.06C115.756 182.264 115.908 182.208 116.47 182.538C116.881 182.779 117.036 183.087 116.917 183.429C116.767 183.86 116.869 183.985 117.505 184.149C117.928 184.258 118.188 184.244 118.081 184.118C117.975 183.992 118.002 183.711 118.141 183.494C118.324 183.209 118.523 183.305 118.862 183.842C119.241 184.441 119.514 184.534 120.291 184.326C120.82 184.184 121.326 183.903 121.416 183.7C121.505 183.498 121.7 183.471 121.848 183.64C122.02 183.838 122.354 183.741 122.775 183.373C123.136 183.056 123.363 182.717 123.278 182.62C123.193 182.523 123.262 182.228 123.431 181.965C123.662 181.605 123.815 181.615 124.044 182.002C124.265 182.376 124.469 182.399 124.785 182.087C125.025 181.85 125.329 181.78 125.461 181.931C125.593 182.082 125.819 182.102 125.964 181.975C126.109 181.849 126.344 181.879 126.486 182.042C126.628 182.205 126.627 182.443 126.482 182.569C125.99 183.001 127.016 183.758 127.619 183.409C128.081 183.141 128.095 183.014 127.69 182.776C127.19 182.481 127.194 182.476 128.083 182.357C128.577 182.291 129.009 182.11 129.042 181.954C129.074 181.798 128.963 181.792 128.795 181.94C128.382 182.302 128.03 181.846 127.91 180.794C127.818 179.978 127.736 179.933 126.538 180.036C125.837 180.096 125.351 180.069 125.457 179.976C126.021 179.482 124.535 179.975 123.917 180.488C123.512 180.823 123.02 181.004 122.817 180.892C122.535 180.735 122.557 180.699 122.915 180.735C123.289 180.772 123.394 180.664 123.45 180.184C123.606 178.857 122.039 179.336 121.27 180.85C120.851 181.678 120.078 181.336 119.788 180.195C119.642 179.621 119.479 179.43 119.239 179.552C119.052 179.649 118.794 179.607 118.666 179.461C118.538 179.314 118.142 179.399 117.787 179.649C117.27 180.013 117.06 179.982 116.741 179.494C116.521 179.158 116.229 178.982 116.092 179.102C115.787 179.369 113.366 178.703 112.963 178.242C112.803 178.058 112.481 178.076 112.247 178.281C111.951 178.54 111.969 178.737 112.305 178.929C112.588 179.091 112.637 179.248 112.423 179.311C112.222 179.37 111.945 179.149 111.808 178.82C111.636 178.406 111.366 178.286 110.931 178.431C110.585 178.546 110.332 178.497 110.37 178.321C110.406 178.146 110.114 178.011 109.721 178.021C109.099 178.038 108.605 177.838 108.038 177.342C107.955 177.27 107.71 177.367 107.493 177.557C107.091 177.909 106.82 177.788 106.333 177.04C106.135 176.734 105.973 176.756 105.738 177.122C105.56 177.398 105.411 177.485 105.406 177.316C105.388 176.681 104.034 176.49 102.96 176.97C101.79 177.492 100.025 177.815 100.47 177.425C100.613 177.3 100.92 177.183 101.151 177.166C101.383 177.149 101.788 176.856 102.051 176.515C102.452 175.996 102.435 175.902 101.945 175.938C101.623 175.962 100.997 176.196 100.554 176.458C99.7358 176.94 98.9211 177.037 99.4306 176.59C99.5836 176.456 99.5995 176.22 99.4653 176.067C99.3077 175.886 99.0058 176.01 98.6115 176.418C97.8704 177.183 97.8316 177.155 98.1036 176.051C98.3162 175.189 97.5634 174.385 97.0035 174.876C96.8685 174.994 96.6415 174.957 96.4991 174.794C96.3567 174.631 96.3822 174.373 96.5558 174.22C96.8012 174.005 96.7551 173.953 96.3486 173.983C96.0611 174.004 95.5695 173.728 95.2562 173.369C94.9428 173.01 94.5555 172.83 94.3953 172.971C94.2351 173.111 94.0557 173.033 93.9967 172.796C93.9374 172.56 93.7743 172.467 93.6344 172.59C93.4942 172.713 93.1559 172.557 92.8827 172.244C92.6096 171.931 92.1118 171.719 91.7765 171.773C91.4413 171.828 90.9729 171.65 90.7355 171.378C90.3714 170.96 90.2758 170.976 90.1243 171.475C89.9545 172.035 89.5513 171.989 89.6706 171.424C89.7808 170.903 88.3466 169.354 87.6636 169.256C87.2811 169.201 86.4518 168.67 85.8209 168.077C84.3773 166.718 83.6273 166.343 83.1638 166.749C82.95 166.937 82.62 166.861 82.3631 166.567C82.1226 166.291 81.7038 166.17 81.4322 166.298C80.6927 166.645 80.4944 166.185 81.206 165.772C81.5449 165.576 81.7805 165.348 81.7292 165.267C80.9432 164.018 78.5502 161.76 77.8974 161.652C77.6923 161.618 77.1515 161.007 76.6954 160.296C75.8158 158.922 75.3263 158.305 74.0556 156.968C73.3311 156.205 73.224 156.189 72.7712 156.767C72.3096 157.356 72.2933 157.352 72.522 156.705C72.7175 156.153 72.6397 155.983 72.1371 155.863C71.4796 155.706 71.1117 154.962 71.5167 154.607C71.6459 154.494 71.6351 154.267 71.4927 154.104C71.3502 153.941 71.129 153.899 71.0015 154.011C70.5901 154.371 69.8155 153.692 69.9883 153.123C70.1934 152.447 69.7958 151.925 69.3644 152.302C69.119 152.517 69.0729 152.465 69.1572 152.065C69.3287 151.252 68.8301 150.937 67.6491 151.11C67.0484 151.199 66.6247 151.192 66.7075 151.095C66.7905 150.998 66.9573 150.793 67.0783 150.639C67.1993 150.485 67.4661 150.193 67.6711 149.989C68.2597 149.404 66.6167 147.923 65.8213 148.322C65.6173 148.424 65.8093 148.26 66.2472 147.957C67.1137 147.36 67.0361 146.813 66.1572 147.322C65.6437 147.62 65.6388 147.615 66.0583 147.209C66.3003 146.974 66.4126 146.684 66.3075 146.563C66.2023 146.443 65.9778 146.56 65.8085 146.824C65.5645 147.204 65.4579 147.178 65.2965 146.699C65.1843 146.366 65.1701 145.973 65.2645 145.826C65.3591 145.679 65.2597 145.53 65.0435 145.496C64.8271 145.462 64.4167 145.248 64.1321 145.022C63.8473 144.795 63.409 144.658 63.1585 144.717C62.8868 144.781 62.9705 144.674 63.3664 144.451C64.255 143.951 64.0546 143.076 63.0957 143.271C62.7126 143.349 62.2935 143.5 62.1645 143.607C62.0352 143.715 61.9569 143.567 61.9907 143.28C62.0243 142.993 61.9231 142.767 61.7654 142.779C61.3443 142.811 61.9339 142.351 62.9012 141.895C63.57 141.579 63.6917 141.436 63.4895 141.205C63.3495 141.044 63.1202 141.013 62.98 141.136C62.6575 141.419 62.4283 140.562 62.6013 139.722C62.7176 139.157 62.6749 139.121 62.2317 139.408C61.7783 139.702 61.7387 139.641 61.8181 138.763C61.8663 138.23 61.7609 137.627 61.5838 137.424C61.4067 137.221 61.3794 136.952 61.523 136.826C61.6666 136.7 61.4626 136.265 61.0695 135.859C60.5012 135.272 60.2886 135.219 60.0338 135.599C59.8571 135.862 59.8577 135.616 60.0344 135.053C60.2722 134.296 60.2099 133.929 59.7955 133.642C59.4873 133.43 59.1888 133.018 59.1327 132.728C59.0764 132.438 58.9096 132.11 58.7618 132C58.6139 131.889 58.6165 131.691 58.7675 131.558C58.9185 131.426 58.971 131.262 58.8842 131.194C58.5833 130.959 58.3317 129.845 58.5384 129.664C58.6526 129.564 58.5439 129.367 58.2967 129.226C58.027 129.072 57.9714 128.776 58.1579 128.485C58.3574 128.175 58.2578 127.759 57.8806 127.326C57.5569 126.955 57.3697 126.396 57.4647 126.083C57.5596 125.77 57.4794 125.451 57.2863 125.374C57.0933 125.297 56.9069 124.685 56.8717 124.014C56.8368 123.343 56.6282 122.722 56.4087 122.635C56.1891 122.547 56.0927 122.281 56.1945 122.045C56.3765 121.622 56.4884 121.465 56.9669 120.959C57.0997 120.818 57.0918 120.57 56.9494 120.407C56.807 120.243 56.5721 120.214 56.4274 120.34C56.2828 120.467 56.0479 120.437 55.9055 120.274C55.7631 120.111 55.7986 119.844 55.9842 119.681C56.4619 119.263 56.3254 117.194 55.8369 117.444C55.2476 117.746 55.0677 117.291 55.6142 116.881C56.4282 116.271 57.1216 115.5 56.6746 115.703C56.1879 115.923 55.477 115.237 55.8518 114.909C55.9917 114.786 55.9217 114.612 55.6962 114.521C55.4227 114.412 55.448 114.213 55.7716 113.926C56.1024 113.633 56.1123 113.536 55.8023 113.623C55.453 113.721 55.2692 113.522 55.0102 112.765C54.8243 112.222 54.7974 111.742 54.9501 111.697C55.1027 111.652 55.0183 111.497 54.7626 111.351C54.395 111.141 54.4426 110.935 54.9903 110.365C55.4744 109.862 55.5808 109.55 55.3442 109.33C55.1581 109.158 55.14 108.897 55.3039 108.752C55.4681 108.607 55.6059 107.897 55.61 107.175C55.6144 106.452 55.7009 105.534 55.8026 105.135C56.0177 104.289 55.7454 103.841 55.2538 104.232C55.0657 104.382 55.1803 104.099 55.5089 103.603C56.112 102.694 56.4346 101.729 56.2187 101.481C56.1543 101.407 55.9419 101.583 55.7465 101.871C55.461 102.292 55.4423 102.245 55.65 101.63C55.8719 100.974 55.8296 100.887 55.3522 101.022C54.8971 101.151 54.8934 101.093 55.3325 100.704C56.0827 100.04 56.8935 98.5401 56.6537 98.2603C56.2861 97.8309 56.318 96.0251 56.7064 95.2591C56.9179 94.8424 56.9653 94.3574 56.8117 94.1812C56.5439 93.8742 56.8551 93.4452 58.2337 92.2206C58.5574 91.9332 58.7453 91.6101 58.6514 91.5025C58.5574 91.3948 58.6581 91.1512 58.8751 90.961C59.0921 90.7709 59.192 90.5263 59.0971 90.4175C59.0021 90.3086 59.1099 90.0571 59.3366 89.8585C59.6296 89.6018 59.6005 89.4247 59.2353 89.2471C58.873 89.0705 58.8317 88.8381 59.0952 88.4571C60.074 87.0427 62.0928 83.2122 61.9474 83.0456C61.8575 82.9425 62.1551 82.4272 62.6089 81.9004C63.0631 81.3737 63.4985 80.577 63.5771 80.1297C63.6814 79.5355 63.8824 79.262 64.3225 79.1155C64.9945 78.8921 66.9921 76.5934 66.7528 76.3191C66.6738 76.2284 66.8367 75.9551 67.115 75.7113C67.3933 75.4675 67.773 74.7654 67.9585 74.1514C68.1443 73.5372 68.4828 72.941 68.7108 72.8269C68.9389 72.7128 69.2123 72.333 69.3182 71.9832C69.4814 71.4457 69.5969 71.3605 70.0632 71.4328C70.5048 71.5013 70.7301 71.3489 71.1887 70.6724C71.5039 70.207 71.7114 69.7677 71.6497 69.6965C71.5878 69.6254 72.476 68.7882 73.6233 67.8362C74.7703 66.8844 76.0357 65.8215 76.4346 65.4744C76.8336 65.1276 77.2583 64.9479 77.3779 65.0754C77.4978 65.2028 77.6466 64.878 77.7088 64.3536C77.7848 63.714 77.9484 63.4212 78.2065 63.4639C78.8057 63.563 81.5399 60.6783 81.0374 60.4771C80.8116 60.3869 80.814 60.2758 81.0432 60.2088C81.258 60.1459 81.4763 60.2644 81.528 60.4715C81.5802 60.6787 81.8355 60.7485 82.0956 60.6265C82.3557 60.5044 82.5026 60.3286 82.4217 60.2358C82.1434 59.9167 83.1667 58.913 84.1208 58.5694C85.2369 58.1674 85.8053 57.7312 85.5676 57.4586C85.3466 57.2053 87.137 56.0383 87.9342 55.916C88.6683 55.8032 89.9003 54.9532 90.1487 54.3878C90.2467 54.1651 90.5107 54.0564 90.7357 54.1463C90.9929 54.2491 91.4931 54.0044 92.0841 53.4866C92.6669 52.9759 93.3769 52.6249 93.9532 52.562C94.7392 52.4768 95.1472 52.2105 96.6023 50.8336C98.3203 49.2081 98.3227 49.2066 98.785 49.7366C99.2216 50.2372 99.3184 50.2055 100.499 49.1753C102.799 47.1688 102.949 47.0739 103.066 47.5443C103.246 48.2634 104.653 48.0583 105.372 47.2082C105.774 46.7327 106.24 46.4543 106.688 46.4208C107.07 46.3922 107.613 46.167 107.894 45.92C108.176 45.6729 108.671 45.4754 108.994 45.4808C109.316 45.4863 109.73 45.359 109.914 45.1981C110.098 45.0371 110.433 44.9792 110.659 45.0694C110.884 45.1599 111.24 45.0835 111.45 44.9001C111.659 44.7165 111.931 44.602 112.054 44.6451C112.314 44.7368 114.626 44.2123 114.858 44.0093C114.944 43.9338 114.846 43.679 114.64 43.4431C114.435 43.2074 114.377 43.006 114.511 42.9962C114.646 42.9861 115.068 43.3231 115.45 43.7451C116.065 44.4249 116.291 44.4601 117.431 44.0534C118.138 43.801 118.972 43.569 119.285 43.5377C119.597 43.5066 119.917 43.3349 119.996 43.1564C120.075 42.9782 120.291 43.0051 120.475 43.2165C120.827 43.6201 122.264 43.0181 122.117 42.5283C122.073 42.38 122.205 42.1118 122.41 41.9323C122.657 41.7159 122.976 41.8282 123.358 42.2658C123.78 42.7496 124.268 42.8824 125.184 42.7634C125.872 42.6744 126.514 42.6918 126.61 42.8024C126.707 42.9133 127.156 42.8292 127.607 42.6159C128.059 42.4025 128.548 42.3638 128.692 42.5296C128.842 42.701 129.187 42.6291 129.49 42.3634C129.784 42.1058 130.234 41.9794 130.491 42.0821C130.991 42.2824 131.893 42.3128 134.57 42.2206C135.498 42.1884 136.464 42.2634 136.718 42.3866C136.971 42.51 137.263 42.5367 137.367 42.4457C137.47 42.3549 137.992 42.3627 138.525 42.4633C139.16 42.5827 139.599 42.4842 139.796 42.1775C139.994 41.8693 140.272 41.8095 140.611 42.0024C140.894 42.1636 141.23 42.2039 141.357 42.0919C141.485 41.9802 141.861 42.2002 142.194 42.5812C142.607 43.0544 142.919 43.1681 143.179 42.9398C143.666 42.5132 144.558 42.6996 144.79 43.276C144.907 43.5668 145.19 43.5918 145.61 43.3486C145.991 43.1273 146.392 43.1381 146.598 43.375C147.099 43.9488 147.764 44.1605 148.112 43.8563C148.277 43.7113 148.621 43.7974 148.875 44.0474C149.129 44.2975 150.071 44.6899 150.968 44.92C151.864 45.1496 152.906 45.4202 153.282 45.5211C153.659 45.6218 154.052 45.6308 154.157 45.5403C154.261 45.4501 154.397 45.5745 154.457 45.8168C154.591 46.3513 156.734 47.2579 157.55 47.1249C157.873 47.0721 158.394 47.3225 158.707 47.6813C159.02 48.0399 159.875 48.5415 160.607 48.7958C161.339 49.0502 162.165 49.5183 162.442 49.8358C162.719 50.1533 163.041 50.33 163.157 50.2281C163.273 50.1265 163.92 50.3847 164.595 50.8015C165.804 51.5491 166.173 51.8157 168.035 53.2871C168.553 53.697 169.159 53.9793 169.382 53.9145C169.605 53.8496 170.123 54.242 170.538 54.7894C170.979 55.3712 171.468 55.7301 171.721 55.6561C171.958 55.587 172.632 56.0063 173.221 56.588C174.474 57.8266 175.949 58.9516 176.424 59.0311C176.955 59.12 177.806 60.08 177.655 60.4211C177.579 60.5919 177.949 61.0906 178.476 61.53C179.003 61.9694 180.025 62.9584 180.745 63.7278C181.68 64.7255 182.214 65.0817 182.609 64.9701C183.038 64.8486 183.083 64.8843 182.808 65.1293C182.596 65.3185 182.624 65.513 182.878 65.6148C183.122 65.7124 183.147 65.8305 182.938 65.8916C182.57 65.9992 182.783 66.4358 183.555 67.153C183.784 67.3659 183.896 67.7111 183.803 67.9197C183.711 68.1283 183.793 68.3252 183.987 68.3571C184.762 68.4856 185.956 69.4668 186.224 70.1966C186.415 70.7132 186.604 70.8873 186.795 70.7202C186.952 70.5826 187.027 70.802 186.962 71.2074C186.876 71.7348 186.976 71.9346 187.313 71.9095C187.646 71.8847 187.801 72.0602 187.846 72.5112C187.881 72.8615 188.794 74.3172 189.875 75.7467C190.956 77.1758 191.965 78.5112 192.117 78.7143C192.269 78.9173 192.288 79.1756 192.159 79.2888C192.03 79.4019 192.109 79.5685 192.335 79.6587C192.56 79.7492 192.66 79.8975 192.556 79.9885C192.452 80.0798 192.604 80.4571 192.894 80.8272C193.184 81.1972 193.726 82.0183 194.1 82.6515C194.473 83.2847 195.167 84.2958 195.642 84.8983C196.117 85.5007 196.43 86.1694 196.337 86.3838C196.149 86.8211 197.186 89.2002 197.594 89.2678C197.738 89.2918 197.731 89.4212 197.578 89.5553C197.425 89.6894 197.532 90.0665 197.817 90.3931C198.102 90.7196 198.453 90.8831 198.598 90.7564C198.743 90.6296 198.939 90.615 199.034 90.7239C199.129 90.8327 199.022 91.0835 198.796 91.281C198.571 91.4785 198.527 91.6635 198.698 91.6921C198.87 91.7203 198.942 91.898 198.858 92.0868C198.775 92.2755 198.893 92.5045 199.121 92.5958C199.349 92.6872 199.436 93.0385 199.313 93.3767C199.191 93.7147 199.348 94.3941 199.663 94.8865C200.571 96.3057 200.983 97.4357 200.674 97.658C200.517 97.7706 200.421 98.043 200.461 98.2628C200.501 98.4827 200.571 98.9758 200.616 99.3584C200.661 99.7415 200.884 100.407 201.112 100.838C201.34 101.268 201.503 101.88 201.475 102.196C201.386 103.177 201.526 104.22 201.786 104.519C201.923 104.676 201.902 105.206 201.74 105.698C201.446 106.591 201.771 108.429 202.236 108.506C202.371 108.528 202.351 109.107 202.192 109.792C202.033 110.476 201.969 111.113 202.051 111.207C202.133 111.301 202.084 111.843 201.942 112.412C201.784 113.05 201.874 113.667 202.179 114.021C202.856 114.809 202.808 115.267 201.956 116.153C201.383 116.748 201.31 117.008 201.62 117.362C201.837 117.611 201.944 117.988 201.86 118.2C201.775 118.412 201.804 119.016 201.923 119.542C202.176 120.652 201.733 122.228 200.984 122.884C200.592 123.228 200.582 123.41 200.945 123.617C201.211 123.768 201.315 123.991 201.178 124.111C201.04 124.232 200.826 124.812 200.701 125.401C200.577 125.99 200.303 126.623 200.093 126.807C199.882 126.992 199.797 127.242 199.902 127.363C200.015 127.492 199.758 127.819 199.28 128.152C198.484 128.708 198.102 129.555 198.462 129.967C198.561 130.081 198.401 130.385 198.106 130.643C197.643 131.049 197.66 131.133 198.236 131.27C198.703 131.381 198.78 131.463 198.494 131.547C198.27 131.612 198.173 131.764 198.278 131.885C198.383 132.005 198.046 132.846 197.53 133.755C196.603 135.386 196.581 135.407 195.718 135.501C194.657 135.616 194.439 135.784 194.586 136.37C194.663 136.68 194.488 136.93 194.021 137.176C193.589 137.405 193.47 137.554 193.692 137.591C193.884 137.623 193.969 137.81 193.881 138.007C193.793 138.206 193.564 138.184 193.367 137.958C193.166 137.728 192.84 137.701 192.617 137.896C192.4 138.086 192.119 138.136 191.992 138.007C191.865 137.878 191.891 138.209 192.049 138.743C192.302 139.594 192.228 139.808 191.448 140.491C190.355 141.449 190.228 142.62 191.246 142.346C191.792 142.199 191.775 142.327 191.129 143.275C190.537 144.144 190.184 144.457 189.447 144.768C188.574 145.136 187.789 144.919 188.318 144.456C188.45 144.341 188.339 144.123 188.074 143.971C187.613 143.709 187.748 143.399 188.591 142.784C189.073 142.434 188.747 141.562 188.191 141.715C187.805 141.82 187.752 141.748 187.922 141.347C188.038 141.072 187.962 140.778 187.753 140.694C187.543 140.611 187.388 140.229 187.409 139.846C187.43 139.463 187.532 139.223 187.636 139.313C187.901 139.54 187.196 137.835 186.623 136.863C185.676 135.255 185.506 134.699 185.864 134.385C186.073 134.202 186.062 133.998 185.838 133.908C185.622 133.821 185.409 133.091 185.364 132.284C185.319 131.478 185.154 130.669 184.996 130.489C184.838 130.308 184.79 129.774 184.89 129.303C184.989 128.832 184.993 128.357 184.898 128.248C184.803 128.139 184.824 127.964 184.944 127.859C185.064 127.754 185.116 127.276 185.059 126.798C185.002 126.319 185.044 125.58 185.153 125.153C185.273 124.678 185.16 124.271 184.86 124.1C184.548 123.922 184.515 123.779 184.769 123.705C185.018 123.632 185.002 123.522 184.726 123.411C184.395 123.279 184.424 123.168 184.841 122.969C185.327 122.737 185.315 122.701 184.746 122.686C184.19 122.671 184.15 122.619 184.474 122.335C185.323 121.59 185.074 118.233 184.158 118.082C183.972 118.051 183.8 117.777 183.776 117.473C183.747 117.097 183.554 116.935 183.171 116.964C182.711 116.998 182.508 117.192 182.06 118.026C181.758 118.587 181.622 119.173 181.758 119.328C181.893 119.483 181.811 119.78 181.575 119.986C181.033 120.461 180.297 124.57 180.676 125.004C180.86 125.215 180.735 125.523 180.315 125.891C179.551 126.56 179.154 127.886 179.805 127.592C180.035 127.488 180.006 127.603 179.741 127.851C179.378 128.19 179.392 128.385 179.8 128.667C180.136 128.899 180.2 129.102 179.971 129.209C179.77 129.304 179.439 129.961 179.236 130.671C178.935 131.723 179 132.151 179.592 132.989C180.009 133.581 180.262 134.362 180.187 134.828C180.064 135.592 180.071 136.551 180.208 137.579C180.241 137.83 180.225 138.359 180.172 138.756C180.086 139.403 180.196 139.71 180.901 140.789C181.011 140.959 180.922 141.33 180.702 141.615C180.318 142.113 180.385 142.296 181.451 143.663C182.136 144.541 182.351 145.494 181.944 145.85C181.456 146.278 181.916 147.269 182.48 147.004C182.837 146.837 182.9 146.98 182.779 147.675C182.693 148.16 182.733 148.819 182.866 149.138C182.999 149.458 182.943 149.863 182.742 150.04C182.54 150.216 182.495 150.497 182.64 150.663C182.786 150.83 182.778 151.163 182.624 151.403C182.455 151.666 182.558 152.02 182.885 152.298C183.183 152.55 183.453 153.005 183.487 153.307C183.523 153.635 183.768 153.913 184.095 153.996C184.395 154.073 184.991 154.271 185.418 154.436C185.846 154.6 186.259 154.59 186.338 154.413C186.416 154.236 186.881 153.903 187.37 153.672C188.007 153.371 188.306 153.095 188.427 152.698C188.519 152.394 188.719 152.135 188.871 152.124C189.023 152.113 189.214 151.884 189.295 151.615C189.377 151.347 189.626 151.012 189.849 150.871C190.079 150.726 190.108 150.479 189.916 150.301C189.73 150.128 189.697 149.882 189.844 149.753C190.003 149.614 190.271 149.837 190.508 150.306C190.726 150.739 190.903 150.91 190.902 150.687C190.901 150.463 191.161 149.983 191.48 149.621C191.799 149.258 191.945 149.129 191.805 149.334C191.665 149.539 191.622 149.789 191.71 149.89C191.927 150.138 192.893 149.266 192.881 148.833C192.875 148.643 193.035 148.439 193.236 148.38C193.837 148.204 194.99 147.266 194.83 147.083C194.618 146.84 195.631 146.006 196.053 146.076C196.297 146.116 196.453 145.975 196.562 145.616C196.678 145.235 196.821 145.128 197.099 145.215C197.4 145.308 197.466 145.253 197.417 144.951C197.327 144.401 197.881 144.006 199.053 143.787C199.94 143.62 200.207 143.435 201.041 142.403C202.322 140.819 202.343 140.804 202.701 141.195C202.982 141.501 203.016 141.465 203.063 140.811C203.105 140.214 203.162 140.144 203.392 140.408C203.566 140.607 204.035 140.498 204.645 140.115C205.181 139.779 205.84 139.465 206.109 139.418C206.378 139.37 206.714 139.157 206.856 138.945C206.999 138.732 207.587 138.383 208.164 138.168C209.064 137.834 209.161 137.856 208.844 138.324C208.517 138.809 208.578 138.834 209.391 138.549C209.895 138.373 210.381 138.312 210.471 138.416C210.692 138.669 214.942 138.239 215.298 137.927C215.484 137.765 215.401 137.692 215.059 137.718C214.772 137.739 214.457 137.662 214.359 137.546C214.262 137.429 214.409 137.369 214.688 137.412C215.064 137.47 215.219 137.367 215.295 137.004C215.355 136.721 215.864 136.187 216.516 135.722C217.421 135.077 217.581 134.863 217.353 134.602C217.198 134.424 216.879 134.448 216.644 134.654C216.309 134.947 216.138 134.869 215.856 134.296C215.597 133.769 215.396 133.652 215.137 133.878C214.94 134.051 214.881 134.299 215.007 134.429C215.132 134.56 215.358 134.845 215.508 135.063C215.756 135.424 215.718 135.464 215.096 135.511C214.719 135.539 214.255 135.699 214.064 135.866C213.873 136.034 213.532 136.097 213.306 136.007C213.015 135.89 213.07 135.689 213.495 135.318C214.112 134.777 214.876 133.091 214.274 133.599C214.09 133.754 213.831 133.757 213.699 133.605C213.567 133.454 213.102 133.54 212.665 133.798C212.165 134.093 211.835 134.122 211.774 133.876C211.72 133.661 210.718 133.518 209.539 133.558C207.861 133.614 207.218 133.784 206.546 134.347C206.076 134.741 205.631 134.995 205.557 134.91C205.483 134.825 205.102 134.927 204.711 135.137C202.868 136.128 202.224 135.293 203.492 133.554C203.942 132.938 204.364 132.095 204.431 131.683C204.497 131.27 204.841 130.678 205.196 130.367C205.662 129.959 205.727 129.756 205.431 129.638C205.134 129.519 205.201 129.316 205.67 128.905C206.027 128.592 206.22 128.222 206.099 128.083C205.852 127.8 206.422 125.447 206.744 125.423C206.857 125.415 206.941 125.085 206.931 124.691C206.919 124.199 207.185 123.736 207.779 123.216C208.653 122.45 208.671 122.336 208.1 121.102C207.926 120.726 207.942 120.28 208.135 120.111C208.633 119.674 209.083 117.672 208.764 117.307C208.617 117.138 208.685 116.835 208.916 116.633C209.146 116.431 209.243 116.037 209.13 115.756C209.017 115.475 209.254 114.685 209.657 114.001C210.106 113.236 210.262 112.658 210.061 112.503C209.489 112.062 209.151 110.841 209.513 110.523C209.963 110.13 210.41 108.554 210.155 108.262C210.047 108.139 210.137 107.882 210.354 107.692C210.571 107.502 210.662 107.248 210.557 107.127C210.452 107.007 210.233 107.115 210.071 107.368C209.909 107.62 209.692 107.731 209.59 107.614C209.477 107.484 209.71 107.22 210.186 106.94C210.897 106.52 210.91 106.465 210.331 106.327C209.808 106.202 209.773 106.106 210.135 105.789C210.7 105.294 210.777 104.226 210.29 103.646C210.067 103.38 210.073 103.05 210.304 102.847C210.556 102.626 210.532 102.311 210.238 101.973C209.984 101.682 209.831 101.107 209.897 100.696C210.01 99.9906 209.74 99.2633 208.969 98.2016C208.786 97.9488 208.767 97.7034 208.927 97.6564C209.088 97.6094 208.948 97.4118 208.617 97.2175C208.187 96.9646 208.061 96.5986 208.177 95.9364C208.267 95.4263 208.277 94.9369 208.2 94.8484C208.123 94.7602 208.213 94.5538 208.4 94.39C208.587 94.2261 208.537 93.5787 208.29 92.951C208.042 92.3231 207.885 91.5541 207.939 91.2418C207.994 90.9297 207.982 90.5708 207.912 90.4445C207.842 90.3181 207.583 89.857 207.337 89.4197C207.09 88.9823 206.972 88.4365 207.074 88.2065C207.176 87.9765 206.91 87.339 206.483 86.7902C206.055 86.2413 205.809 85.6428 205.936 85.4603C206.062 85.278 205.989 85.0579 205.773 84.9714C205.557 84.885 205.511 84.6996 205.671 84.5595C205.832 84.4191 205.708 84.0167 205.397 83.665C204.839 83.0342 204.262 82.1529 203.144 80.2265C202.83 79.6854 202.716 79.1178 202.891 78.965C203.337 78.574 201.862 75.9478 201.116 75.8051C200.7 75.7255 200.611 75.5915 200.792 75.3172C200.93 75.1094 200.9 74.7759 200.726 74.5764C200.552 74.3769 200.222 74.2984 199.994 74.4017C199.737 74.518 199.742 74.4361 200.007 74.1865C200.563 73.6639 200.259 72.7605 199.464 72.5715C199.005 72.4621 198.746 72.1038 198.473 71.1992C198.27 70.5259 197.903 69.7781 197.657 69.5378C197.412 69.2976 197.086 68.7771 196.933 68.3812C196.701 67.783 196.6 67.7447 196.337 68.155C195.937 68.777 195.621 68.4532 195.859 67.6668C196.066 66.9876 195.426 66.1023 194.851 66.2705C194.612 66.3404 194.478 66.2148 194.503 65.9438C194.524 65.7016 194.426 65.37 194.284 65.2065C194.142 65.043 193.808 64.5098 193.543 64.022C193.246 63.4748 192.958 63.2259 192.791 63.3722C192.616 63.5252 192.498 63.4113 192.46 63.0512C192.427 62.7442 191.723 61.7892 190.896 60.9291C190.029 60.0271 189.499 59.2728 189.643 59.1465C189.795 59.0131 189.661 58.8719 189.299 58.7859C188.868 58.683 188.749 58.5004 188.866 58.1161C188.981 57.7367 188.666 57.2385 187.751 56.3503C187.049 55.6699 186.237 54.8572 185.947 54.5443C185.404 53.96 184.799 53.8791 183.939 54.2761C183.631 54.4182 183.566 54.3896 183.764 54.1988C183.938 54.0317 183.963 53.7615 183.82 53.5982C183.678 53.4349 183.687 53.1914 183.84 53.0573C183.993 52.9232 183.972 52.789 183.793 52.7593C183.614 52.7297 182.687 51.8994 181.733 50.9143C180.779 49.9289 179.856 49.0994 179.681 49.0704C179.507 49.0417 178.968 48.6818 178.483 48.2709C176.19 46.3275 175.628 45.9362 175.407 46.13C175.276 46.2447 175.015 46.1634 174.829 45.9491C174.612 45.7007 174.391 45.7115 174.219 45.9789C173.963 46.3779 172.805 46.0259 172.899 45.5778C172.922 45.4695 173.031 45.4847 173.142 45.6116C173.253 45.7386 173.521 45.687 173.738 45.4969C174.193 45.0985 173.988 44.7004 173.465 44.9683C173.272 45.0673 172.644 44.7022 172.069 44.1568C171.494 43.6116 170.877 43.2405 170.698 43.3325C170.518 43.4245 170.145 43.2398 169.868 42.9224C169.591 42.6047 169.271 42.4275 169.156 42.5284C169.04 42.6294 168.183 42.1175 167.25 41.3909C166.308 40.657 165.257 40.0918 164.886 40.1195C164.519 40.1469 163.992 39.9084 163.714 39.5898C163.435 39.2709 163.09 39.1138 162.945 39.2405C162.8 39.3672 162.452 39.2077 162.172 38.8861C161.891 38.5645 160.834 38.0371 159.823 37.7142C158.812 37.3912 157.274 36.8852 156.406 36.5895C155.538 36.2938 154.713 36.1001 154.573 36.1588C154.432 36.2176 154.167 36.0921 153.982 35.88C153.797 35.668 153.423 35.5987 153.151 35.7263C152.88 35.8536 152.516 35.7956 152.343 35.5973C152.17 35.3992 151.722 35.2598 151.347 35.2878C150.972 35.3158 150.393 35.1435 150.061 34.905C149.729 34.6667 148.878 34.3936 148.17 34.2978C147.461 34.2025 146.779 34.0064 146.653 33.8621C146.527 33.7178 145.747 33.6606 144.918 33.7348C144.09 33.8091 143.35 33.7994 143.275 33.7131C143.037 33.4405 141.552 33.541 141.195 33.854C141.007 34.019 140.525 34.0214 140.124 33.8591C139.723 33.697 138.927 33.6164 138.355 33.6798C137.783 33.7436 137.271 33.7455 137.218 33.6845C137.165 33.6234 136.179 33.6461 135.027 33.735C133.876 33.8239 132.888 33.7488 132.832 33.5679C132.776 33.387 132.543 33.4033 132.314 33.604C132.085 33.8048 131.781 33.8352 131.639 33.672C131.494 33.5059 131.146 33.5804 130.848 33.8408C130.533 34.1171 130.011 34.2098 129.567 34.0686C129.11 33.9233 128.491 34.0395 127.981 34.3668C127.521 34.6619 127.038 34.7808 126.907 34.6312C126.777 34.4815 126.552 34.4627 126.407 34.5895C126.262 34.7162 126.027 34.6863 125.885 34.523C125.655 34.26 125.254 34.4046 124.769 34.9255C124.681 35.0193 124.252 34.9368 123.816 34.7426C123.285 34.5065 122.627 34.563 121.835 34.9122C121.182 35.1999 120.58 35.357 120.497 35.2614C120.413 35.1658 119.969 35.3155 119.511 35.5941C118.48 36.22 116.323 37.0614 116.015 36.9577C115.89 36.9157 115.723 37.0919 115.645 37.3494C115.556 37.6412 115.297 37.8758 114.957 37.9721C114.586 38.0769 114.516 38.033 114.737 37.8352C114.917 37.6751 114.875 37.3557 114.645 37.1256C114.329 36.8106 114.271 36.8187 114.408 37.1587C114.656 37.7771 114.182 38.1292 113.757 37.6417C113.565 37.4218 113.236 37.3996 113.017 37.5916C112.8 37.7817 112.547 37.8509 112.455 37.7454C112.363 37.6401 112.155 37.7606 111.993 38.0133C111.777 38.3494 111.576 38.3342 111.247 37.957C110.756 37.3941 110.419 37.5546 109.978 38.5617C109.748 39.0852 109.489 39.2599 108.676 39.4398C107.577 39.6832 107.094 39.4384 107.494 38.8407C107.633 38.6336 107.604 38.4699 107.431 38.4765C107.257 38.4833 107.05 38.8005 106.969 39.1815C106.858 39.7071 106.657 39.9323 106.137 40.1144C105.76 40.2468 105.346 40.2348 105.218 40.088C104.915 39.7404 103.833 40.372 103.706 40.9704C103.636 41.3041 103.477 41.2843 103.142 40.9004C102.886 40.6065 102.538 40.4874 102.368 40.6358C102.199 40.7842 101.752 40.9436 101.376 40.9896C101 41.0356 100.395 41.2787 100.033 41.5299C99.6696 41.7808 99.2117 41.9613 99.0149 41.9309C98.8176 41.9005 98.3254 42.1666 97.9207 42.5225C97.5157 42.8784 96.7642 43.2138 96.2505 43.2676C95.574 43.3389 95.0559 43.6232 94.372 44.2984C93.6516 45.0099 93.0637 45.3126 91.8937 45.5752C91.0497 45.7646 90.2314 46.0314 90.0752 46.1683C89.6554 46.5361 89.4916 47.6021 89.8569 47.588C90.0302 47.5813 89.956 47.6872 89.692 47.8235C89.4281 47.9598 89.1012 47.9106 88.9652 47.7142C88.6911 47.3181 88.276 47.547 88.2918 48.0855C88.2973 48.2758 88.1361 48.4799 87.9332 48.5393C87.7306 48.5985 87.5465 48.9536 87.5247 49.3281C87.4917 49.8898 87.3843 50.0167 86.9122 50.0537C86.4392 50.0902 86.4396 50.0508 86.915 49.8266C87.3046 49.6428 87.4068 49.4594 87.2315 49.2585C86.9066 48.886 85.7205 49.5711 84.7932 50.6667C84.3153 51.2317 84.0179 51.426 83.8775 51.265C83.7382 51.1053 83.4557 51.2868 83.0225 51.8137C81.4379 53.7422 79.3401 55.5692 78.6518 55.6205C78.1033 55.6615 77.659 55.991 76.3822 57.3052C75.5088 58.2037 74.863 59.0178 74.9468 59.1138C75.0307 59.21 74.7743 59.5746 74.3771 59.9236C73.9801 60.2728 73.4319 60.9887 73.1594 61.5142C72.5234 62.7411 72.0867 63.1129 71.4448 62.9744C71.0636 62.8922 70.8004 63.0495 70.4383 63.5755C70.1684 63.9677 69.7588 64.41 69.5279 64.5592C69.1457 64.8057 68.7009 65.4751 67.855 67.0759C67.6626 67.44 67.4839 67.5815 67.3745 67.456C67.2788 67.3463 66.9638 67.4639 66.6744 67.7174C66.3822 67.9734 66.2635 68.3102 66.4073 68.4751C66.5498 68.6384 66.4658 68.9609 66.2203 69.1917C65.0174 70.3241 64.6321 70.8324 64.6452 71.2699C64.6539 71.5613 64.3168 72.0032 63.7825 72.4018C63.2295 72.8143 62.8277 73.3543 62.6948 73.8632C62.5724 74.3336 62.0777 75.0257 61.5099 75.5217C60.974 75.9899 60.4776 76.6406 60.407 76.9677C60.3149 77.3931 60.1707 77.5448 59.9012 77.5002C59.6415 77.4572 59.3783 77.67 59.0561 78.1831C58.7987 78.5929 58.044 79.6668 57.3791 80.5691C56.4353 81.8496 56.2344 82.3199 56.4639 82.7118C56.6494 83.0287 56.5598 83.4287 56.2215 83.7957C55.9182 84.1242 55.802 84.5298 55.9541 84.7282C56.1023 84.921 56.079 85.0256 55.9025 84.9606C55.4169 84.7816 54.7214 85.8515 54.9235 86.4667C55.067 86.9025 54.9289 87.1187 54.2143 87.5768C53.1831 88.2384 52.5563 89.3025 52.9396 89.7419C53.1459 89.9784 53.0023 90.174 52.3033 90.6084C51.5976 91.0468 51.46 91.2375 51.6732 91.482C51.823 91.6537 51.8274 91.8982 51.6827 92.0249C51.5381 92.1516 51.5727 92.4307 51.7596 92.645C52.0034 92.9245 51.947 93.1062 51.5606 93.2872C51.1913 93.4607 51.1365 93.5936 51.3863 93.7098C51.7793 93.8928 51.6953 94.8072 51.2497 95.1976C51.0993 95.3294 51.1608 95.5112 51.3864 95.6016C51.6122 95.6919 51.6579 95.8874 51.488 96.0363C50.9094 96.5433 50.3022 98.8497 50.5753 99.5043C50.7973 100.037 50.7147 100.236 50.1269 100.583C49.6413 100.869 49.4414 101.148 49.5143 101.439C49.5737 101.677 49.3972 102.22 49.1223 102.646C48.8474 103.071 48.6972 103.475 48.7887 103.544C49.2977 103.922 49.4523 104.454 49.1346 104.732C48.5186 105.272 48.5605 106.128 49.1979 106.024C49.5005 105.975 49.7748 105.808 49.8075 105.653C49.8403 105.498 50.0037 105.528 50.1709 105.719C50.338 105.911 50.2732 106.329 50.0265 106.648C49.7662 106.985 49.732 107.29 49.945 107.375C50.1466 107.456 50.2522 107.803 50.18 108.146C50.1073 108.489 50.2144 108.961 50.418 109.195C50.7665 109.594 50.7452 109.622 50.0449 109.674C49.447 109.719 49.3259 109.803 49.4248 110.105C49.4923 110.312 49.4483 110.695 49.3271 110.957C49.1792 111.275 49.2739 111.469 49.6127 111.541C50.3107 111.692 50.5948 112.525 50.0374 112.787C49.5886 112.998 49.1329 114.28 49.5169 114.251C49.6269 114.243 49.6204 114.606 49.5023 115.057C49.3847 115.509 49.4387 116.052 49.6229 116.263C49.8123 116.48 49.7684 116.891 49.5217 117.211C49.1801 117.653 49.2312 117.942 49.7587 118.547C50.1288 118.971 50.4607 119.565 50.4967 119.867C50.5324 120.169 50.6475 120.779 50.7527 121.223C50.9117 121.894 50.8321 122.067 50.2749 122.263C49.6824 122.47 49.6681 122.608 50.1507 123.476C50.45 124.014 50.6685 124.681 50.6361 124.957C50.6038 125.233 50.8518 125.672 51.1874 125.933C51.6033 126.256 51.714 126.598 51.5347 127.006C51.261 127.631 52.1102 129.36 52.516 129.005C52.6438 128.893 52.7935 128.958 52.8491 129.149C52.9043 129.341 52.7429 129.635 52.4899 129.804C51.9313 130.176 52.2021 130.861 53.108 131.367C53.6213 131.653 53.6853 131.821 53.3826 132.086C53.1653 132.277 52.9242 132.734 52.8464 133.102C52.7282 133.661 52.8266 133.801 53.442 133.947C53.8474 134.044 54.4394 133.972 54.7574 133.787C55.0755 133.603 55.4304 133.58 55.5467 133.736C55.7057 133.95 55.6715 133.988 55.4096 133.889C54.7865 133.655 54.5667 134.167 55.0496 134.728C55.3922 135.127 55.3902 135.256 55.0423 135.203C54.7796 135.163 54.5179 134.944 54.4609 134.717C54.3758 134.377 54.2614 134.488 53.8111 135.351C53.1812 136.557 53.299 136.889 54.1769 136.38C54.5158 136.183 54.8881 136.15 55.0043 136.306C55.1633 136.52 55.1292 136.558 54.8672 136.459C54.6753 136.387 54.4102 136.423 54.2777 136.539C53.9094 136.862 55.158 138.13 55.632 137.915C55.8805 137.802 55.8679 137.896 55.6011 138.146C55.3555 138.376 55.2322 138.654 55.3271 138.762C55.4221 138.871 55.3301 139.109 55.1229 139.291C54.8743 139.508 54.9302 139.817 55.2862 140.195C55.8266 140.769 56.5687 140.523 56.4087 139.823C56.3628 139.623 56.5486 139.696 56.821 139.985C57.3121 140.507 57.1312 140.996 56.4863 140.889C55.9195 140.796 55.5707 141.305 56.0662 141.504C56.4766 141.668 56.6304 142.18 56.9407 144.419C57.003 144.868 57.1384 144.857 57.7084 144.358C58.2807 143.856 58.3889 143.849 58.3347 144.312C58.2986 144.62 58.0448 145.137 57.7708 145.46L57.273 146.047L58.0057 145.669C58.7252 145.297 58.7335 145.303 58.458 146.019C58.2769 146.489 58.3715 146.953 58.7246 147.328C59.0252 147.648 59.2245 148.132 59.1672 148.403C59.1098 148.675 59.441 149.331 59.9029 149.861C60.3649 150.39 60.7715 151.111 60.8062 151.463C60.8412 151.814 61.2496 152.664 61.7135 153.351C62.6585 154.749 70.0546 163.457 70.6412 163.862ZM74.9435 165.894C75.0556 165.81 75.4431 165.483 75.8047 165.166C76.1664 164.849 76.54 164.679 76.6349 164.788C76.7299 164.896 76.3836 165.357 75.8651 165.811C75.3099 166.298 74.8851 166.515 74.8313 166.342C74.7811 166.179 74.8315 165.978 74.9435 165.894ZM59.338 145.723C59.5634 145.526 59.7525 145.52 59.7583 145.71C59.7638 145.9 59.6137 146.101 59.4243 146.157C58.9116 146.307 58.8759 146.128 59.338 145.723ZM83.0457 170.549C83.3276 170.528 83.297 170.673 82.9564 170.971C82.6158 171.27 82.4685 171.281 82.527 171.003C82.5856 170.726 82.7634 170.57 83.0457 170.549ZM74.999 162.38C75.1437 162.253 75.3444 162.244 75.4448 162.359C75.5453 162.474 75.4613 162.617 75.258 162.677C75.0546 162.736 74.8541 162.746 74.8121 162.698C74.7702 162.65 74.8543 162.507 74.999 162.38ZM79.9272 166.966C80.0131 166.772 80.1658 166.708 80.2663 166.823C80.3668 166.938 80.3308 167.136 80.1861 167.263C80.0414 167.39 79.8889 167.454 79.847 167.406C79.805 167.358 79.8412 167.16 79.9272 166.966ZM68.7143 153.047C68.8002 152.853 68.9918 152.833 69.1397 153.002C69.2877 153.172 69.2905 153.415 69.1458 153.541C69.0012 153.668 68.8098 153.688 68.7204 153.586C68.6309 153.483 68.6283 153.241 68.7143 153.047ZM89.0531 174.199C89.5909 174.289 89.5785 174.554 89.0292 174.715C88.8092 174.779 88.6243 174.673 88.6185 174.479C88.6117 174.25 88.7649 174.152 89.0531 174.199ZM58.4088 138.507C58.8831 138.091 58.9566 138.109 58.8966 138.62C58.8401 139.101 58.7373 139.208 58.3855 139.155C57.7798 139.062 57.7799 139.058 58.4088 138.507ZM88.84 172.6C88.8952 172.552 89.0961 172.69 89.286 172.908C89.4759 173.126 89.5239 173.398 89.3929 173.513C89.2617 173.628 89.0611 173.489 88.9467 173.205C88.8325 172.921 88.7845 172.649 88.84 172.6ZM87.8227 170.698C87.9673 170.572 88.1199 170.507 88.1618 170.555C88.2038 170.603 88.1676 170.801 88.0816 170.995C87.9957 171.189 87.8429 171.254 87.7425 171.138C87.642 171.023 87.678 170.825 87.8227 170.698ZM63.6032 142.611C63.9281 142.575 64.1178 142.457 64.0246 142.35C63.8454 142.145 63.0856 142.285 63.0397 142.533C63.0247 142.613 63.2783 142.648 63.6032 142.611ZM95.9838 177.291C96.5233 177.37 96.3855 177.61 95.5475 178.052C94.8411 178.424 94.8262 178.415 95.211 177.839C95.4392 177.497 95.7736 177.26 95.9838 177.291ZM60.3298 138.22C60.7225 137.876 61.5171 137.961 61.6166 138.358C61.7537 138.906 61.3674 139.178 60.8616 138.889C60.1745 138.497 60.1086 138.414 60.3298 138.22ZM94.7854 176.819C95.0024 176.629 95.2576 176.562 95.3525 176.671C95.4475 176.78 95.3476 177.025 95.1306 177.215C94.9136 177.405 94.6584 177.471 94.5635 177.363C94.4685 177.254 94.5684 177.009 94.7854 176.819ZM58.481 133.555C58.9105 133.179 59.148 133.891 58.783 134.46C58.6083 134.732 58.4609 134.701 58.3254 134.364C58.2154 134.09 58.2855 133.726 58.481 133.555ZM52.3478 126.586C52.5066 126.339 52.781 126.16 52.9573 126.189C53.1335 126.218 53.0339 126.456 52.7362 126.717C52.101 127.273 51.9411 127.219 52.3478 126.586ZM98.131 177.729C98.2756 177.602 98.4717 177.587 98.5666 177.696C98.6616 177.805 98.6209 177.998 98.4762 178.125C98.3316 178.251 98.1355 178.266 98.0406 178.157C97.9456 178.048 97.9863 177.855 98.131 177.729ZM101.652 178.574C101.94 178.195 101.953 178.21 101.768 178.706C101.582 179.203 101.622 179.248 102.123 179.114C102.602 178.986 102.615 179.028 102.211 179.386C101.636 179.897 101.166 179.214 101.652 178.574ZM102.656 178.129C102.742 177.935 102.895 177.87 102.995 177.986C103.096 178.101 103.06 178.299 102.915 178.426C102.77 178.552 102.618 178.617 102.576 178.569C102.534 178.521 102.57 178.323 102.656 178.129ZM104.29 177.874C104.196 177.767 104.308 177.623 104.539 177.556C104.81 177.477 104.815 177.717 104.554 178.231C104.331 178.67 103.978 179.075 103.769 179.131C103.559 179.188 103.63 178.972 103.925 178.652C104.219 178.332 104.384 177.982 104.29 177.874ZM108.765 178.649C109.03 178.528 109.008 178.63 108.71 178.908C108.44 179.159 108.244 179.248 108.274 179.106C108.304 178.964 108.525 178.758 108.765 178.649ZM111.418 180.727C111.33 180.626 111.495 180.336 111.784 180.083C112.074 179.829 112.382 179.703 112.469 179.803C112.556 179.903 112.851 180.077 113.124 180.189C113.566 180.371 113.544 180.407 112.924 180.513C112.423 180.599 112.198 180.765 112.128 181.097C112.058 181.429 111.878 181.577 111.492 181.622C111.056 181.672 111.013 181.61 111.265 181.297C111.438 181.084 111.506 180.828 111.418 180.727ZM119.743 182.611C120.068 182.574 120.322 182.609 120.307 182.689C120.261 182.937 119.501 183.078 119.322 182.872C119.229 182.765 119.418 182.648 119.743 182.611ZM121.394 181.79C121.872 181.371 122.192 181.65 121.879 182.213C121.754 182.436 121.879 182.357 122.156 182.038C122.512 181.628 122.688 181.574 122.759 181.855C122.882 182.35 122.288 182.901 121.821 182.725C121.157 182.475 121.001 182.134 121.394 181.79ZM120.81 179.998C121.199 179.815 121.224 179.702 120.905 179.574C120.665 179.478 120.437 179.363 120.397 179.317C120.357 179.272 120.207 179.338 120.062 179.465C119.633 179.84 120.234 180.268 120.81 179.998ZM124.749 183.706C125.256 183.65 125.74 183.448 125.825 183.256C125.91 183.063 125.538 183.065 124.997 183.259C124.232 183.533 124.061 183.501 124.227 183.117C124.366 182.795 124.33 182.717 124.124 182.894C123.525 183.409 123.83 183.805 124.749 183.706ZM55.9 98.4559C56.0447 98.3292 56.1972 98.2646 56.2391 98.3127C56.2811 98.3608 56.2449 98.5587 56.1589 98.7528C56.073 98.9468 55.9203 99.0111 55.8198 98.8959C55.7193 98.7807 55.7553 98.5826 55.9 98.4559ZM130.487 182.266C130.834 182.284 131.365 182.134 131.666 181.931C132.083 181.651 132.112 181.405 131.788 180.899C131.405 180.298 130.801 180.202 130.266 180.656C130.156 180.75 130.177 180.953 130.312 181.109C130.447 181.264 130.4 181.581 130.206 181.812C129.912 182.164 129.958 182.239 130.487 182.266ZM129.194 180.891C129.339 180.764 129.341 180.527 129.198 180.364C129.056 180.201 128.821 180.171 128.677 180.297C128.532 180.424 128.53 180.661 128.672 180.825C128.815 180.988 129.05 181.018 129.194 180.891ZM135.959 180.901C136.184 180.703 136.218 180.517 136.033 180.486C135.849 180.456 135.587 180.528 135.451 180.647C135.314 180.767 135.281 180.953 135.376 181.062C135.471 181.171 135.733 181.098 135.959 180.901ZM135.951 179.86C136.192 179.649 136.263 179.417 136.11 179.346C135.956 179.274 135.717 179.314 135.58 179.434C135.443 179.555 135.371 179.786 135.422 179.948C135.472 180.111 135.71 180.071 135.951 179.86ZM140.798 179.738C141.663 178.859 141.691 178.147 140.839 178.659C139.985 179.173 139.478 179.914 139.76 180.237C139.945 180.449 140.236 180.31 140.798 179.738ZM141.86 180.684C141.811 180.475 141.653 180.313 141.508 180.323C141.363 180.334 141.403 180.505 141.596 180.704C141.81 180.924 141.913 180.916 141.86 180.684ZM142.497 179.828C142.657 179.816 142.91 179.699 143.059 179.568C143.224 179.424 143.128 179.345 142.816 179.369C142.532 179.39 142.279 179.507 142.253 179.628C142.227 179.75 142.337 179.84 142.497 179.828ZM57.5438 80.9542C57.6077 80.8982 57.8106 80.8776 57.995 80.9081C58.1794 80.9386 58.2047 81.0735 58.0516 81.2076C57.8985 81.3417 57.6954 81.3626 57.6004 81.2537C57.5055 81.1449 57.4799 81.0102 57.5438 80.9542ZM79.9795 61.0597C80.2442 60.9392 80.2227 61.0407 79.9246 61.3187C79.6548 61.5701 79.4589 61.6593 79.4889 61.5171C79.5189 61.3749 79.7397 61.1689 79.9795 61.0597ZM85.5944 50.183C85.7331 49.9829 85.9053 50.0611 86.0349 50.3826C86.1515 50.6733 86.0909 50.9565 85.9001 51.0123C85.4728 51.1373 85.2855 50.6289 85.5944 50.183ZM181.698 138.844C181.963 138.723 181.942 138.825 181.643 139.103C181.374 139.354 181.178 139.443 181.208 139.301C181.238 139.159 181.458 138.953 181.698 138.844ZM180.919 138.019C181.055 137.9 181.244 137.891 181.339 138C181.434 138.109 181.327 138.36 181.102 138.557C180.876 138.755 180.687 138.763 180.682 138.576C180.676 138.389 180.783 138.138 180.919 138.019ZM190.299 145.47C190.727 145.44 190.717 145.489 190.248 145.71C189.924 145.863 189.682 145.88 189.709 145.748C189.737 145.617 190.002 145.491 190.299 145.47ZM191.9 139.637C191.852 139.428 191.693 139.265 191.549 139.276C191.404 139.287 191.444 139.458 191.637 139.657C191.851 139.876 191.954 139.868 191.9 139.637ZM204.174 129.866C204.324 129.372 204.413 129.343 204.714 129.688C204.964 129.975 204.923 130.173 204.582 130.334C204.31 130.461 204.066 130.541 204.041 130.512C204.015 130.482 204.075 130.192 204.174 129.866ZM211.167 134.325C211.431 134.205 211.41 134.306 211.112 134.584C210.842 134.836 210.646 134.925 210.676 134.783C210.706 134.641 210.927 134.435 211.167 134.325ZM151.549 39.9074C151.814 39.7869 151.793 39.8884 151.495 40.1664C151.225 40.4178 151.029 40.507 151.059 40.3648C151.089 40.2226 151.31 40.0166 151.549 39.9074ZM208.876 96.4095C208.977 96.0787 208.969 95.8147 208.86 95.8226C208.557 95.8454 208.302 96.5614 208.51 96.8005C208.625 96.9319 208.763 96.7846 208.876 96.4095ZM177.598 58.7003C177.684 58.5063 177.876 58.4865 178.024 58.6561C178.172 58.8258 178.174 59.0684 178.03 59.1951C177.885 59.3219 177.694 59.3418 177.604 59.2393C177.515 59.1368 177.512 58.8944 177.598 58.7003ZM162.744 40.6616C162.821 40.4876 163.061 40.4167 163.278 40.5038C163.542 40.6092 163.515 40.7362 163.196 40.8856C162.643 41.1451 162.55 41.099 162.744 40.6616ZM181.849 51.7699C182.114 51.6494 182.092 51.7509 181.794 52.0288C181.524 52.2802 181.328 52.3695 181.358 52.2273C181.388 52.0851 181.609 51.8791 181.849 51.7699Z"
    fill="#F0F0F0" />
  <path fill-rule="evenodd" clip-rule="evenodd"
    d="M30.7164 95.0905C30.6693 95.4598 30.9516 95.7734 31.4907 95.9508C32.3066 96.2194 32.309 96.2406 31.5546 96.4977C31.123 96.6452 30.9302 96.8235 31.1265 96.8942C31.3329 96.969 31.3063 97.3428 31.0637 97.7806C30.7134 98.4119 30.7699 98.5838 31.4033 98.8131C32.1074 99.0681 32.1094 99.0917 31.431 99.131C31.0283 99.1543 30.5516 99.0558 30.3718 98.9117C29.9162 98.5476 29.3256 99.1188 29.5429 99.714C29.6418 99.9841 29.4234 101.155 29.0581 102.315C28.6928 103.476 28.3433 104.61 28.2814 104.836C28.22 105.062 28.3882 105.319 28.6556 105.407C29.209 105.589 29.0433 106.482 28.4559 106.484C28.1945 106.485 28.0779 106.976 28.0942 108.008C28.1081 108.869 27.8332 110.216 27.4623 111.105C27.0685 112.05 26.9389 112.723 27.1386 112.789C27.3347 112.853 27.2709 113.215 26.9833 113.67C26.6101 114.261 26.6236 114.665 27.041 115.391C27.5828 116.334 27.5681 117.587 27.0173 117.406C26.5874 117.265 26.344 118.349 26.6241 119.158C26.759 119.547 26.6925 120.185 26.4764 120.575C26.2601 120.965 26.2281 121.57 26.4052 121.92C26.6185 122.34 26.5748 122.695 26.2769 122.969C25.7064 123.492 26.2767 124.5 27.1203 124.46C27.6606 124.434 27.6487 124.487 26.9979 125.006C26.1491 125.684 26.1323 127.142 26.9702 127.427C27.4216 127.58 27.4123 127.622 26.8957 127.761C26.4172 127.889 26.369 127.998 26.6416 128.334C26.827 128.563 26.9328 129.014 26.8774 129.336C26.8217 129.658 26.8907 130.068 27.0302 130.246C27.4259 130.75 27.3683 131.688 26.9181 132.066C26.3646 132.531 26.8457 135.455 27.6089 136.268C27.9383 136.619 28.1206 137.172 28.0139 137.498C27.9072 137.824 27.9641 138.138 28.1405 138.196C28.3165 138.254 28.6699 138.645 28.9253 139.064C29.2683 139.628 29.2641 139.858 28.9105 139.944C28.5332 140.036 28.4707 140.223 28.6174 140.826C28.7735 141.466 28.7057 141.584 28.1994 141.553C27.6383 141.518 27.6347 141.531 28.15 141.74C28.544 141.899 28.615 142.239 28.3946 142.911C28.224 143.432 28.2316 144.148 28.4116 144.503C28.5916 144.858 28.6951 145.282 28.6417 145.445C28.5883 145.607 28.75 146.1 29.0012 146.539C29.2523 146.978 29.3936 147.534 29.3151 147.773C29.2367 148.012 29.3185 148.256 29.4968 148.315C29.6751 148.373 29.7494 148.64 29.662 148.906C29.5745 149.173 29.6489 149.439 29.8272 149.498C30.0055 149.557 30.0588 149.887 29.9456 150.232C29.6683 151.079 30.135 151.557 30.9325 151.244C31.2915 151.103 32.1914 151.171 32.9321 151.396C33.6732 151.62 34.6429 151.804 35.0871 151.804C35.5862 151.805 35.8517 151.937 35.7818 152.15C35.7196 152.34 35.3734 152.398 35.0122 152.279C34.5555 152.129 34.2129 152.316 33.886 152.894C33.5432 153.499 33.2054 153.669 32.6389 153.519C32.101 153.376 31.9604 153.192 32.1823 152.921C32.3584 152.704 32.6753 152.564 32.887 152.607C33.0985 152.651 32.793 152.421 32.2083 152.095C31.6236 151.77 31.0478 151.514 30.9284 151.526C30.5067 151.57 30.3617 153.615 30.7708 153.749C30.9987 153.824 31.1988 154.153 31.2155 154.479C31.238 154.926 31.5299 155.117 32.4039 155.256C33.4386 155.42 33.5552 155.538 33.4974 156.362C33.4549 156.965 33.2404 157.35 32.8773 157.474C32.4186 157.63 32.3486 157.827 32.4743 158.609C32.5577 159.129 32.6826 159.389 32.7519 159.186C32.8212 158.984 33.0891 158.808 33.3471 158.796C33.6865 158.78 33.685 159.057 33.3418 159.799C32.9581 160.628 32.992 160.981 33.5184 161.639C33.8762 162.086 34.3523 162.409 34.576 162.355C34.7997 162.302 34.9084 162.485 34.8176 162.762C34.712 163.084 34.9448 163.363 35.4628 163.533C35.9086 163.68 36.3159 163.67 36.3679 163.511C36.42 163.352 36.7191 163.21 37.0324 163.195C37.4605 163.175 37.518 163.34 37.2635 163.86C37.018 164.361 37.0847 164.591 37.5068 164.693C37.8271 164.772 38.0226 165.037 37.9417 165.284C37.8607 165.531 37.9403 165.781 38.1186 165.84C38.2969 165.899 38.3713 166.165 38.2838 166.432C38.1964 166.699 37.979 166.869 37.8007 166.81C37.1938 166.611 36.9467 168.229 37.5265 168.603C37.9707 168.89 38.0926 168.813 38.1351 168.218C38.1879 167.483 38.1933 167.484 38.6869 168.324C38.9614 168.79 39.3138 169.108 39.4699 169.029C39.6262 168.95 39.5838 168.83 39.376 168.762C38.867 168.594 39.1308 167.898 40.0397 167.009C40.744 166.321 40.7498 166.204 40.1375 165.03C39.7795 164.344 39.5938 163.818 39.7248 163.861C40.4199 164.09 39.3265 162.901 38.5908 162.629C38.1099 162.45 37.732 162.069 37.7466 161.777C37.7672 161.369 37.8093 161.366 37.9321 161.765C38.0597 162.181 38.2038 162.212 38.6666 161.922C39.9453 161.122 38.8302 159.837 37.1154 160.136C36.178 160.299 36.1553 159.248 37.0718 158.117C37.5325 157.548 37.6365 157.24 37.4208 157.08C37.252 156.955 37.1782 156.656 37.2568 156.416C37.3353 156.177 37.0864 155.826 36.7039 155.638C36.1482 155.363 36.0857 155.122 36.3933 154.435C36.6047 153.963 36.6397 153.531 36.4704 153.476C36.0944 153.352 35.6543 150.348 35.9017 149.593C35.9999 149.293 35.8445 148.971 35.556 148.876C35.1916 148.756 35.0191 148.917 34.9896 149.406C34.9646 149.819 34.8417 149.984 34.6917 149.807C34.5509 149.64 34.6332 149.192 34.8742 148.81C35.1775 148.33 35.1701 147.962 34.8493 147.614C34.5947 147.338 34.5304 147.039 34.7066 146.95C34.8826 146.862 34.8793 146.46 34.6998 146.057C34.416 145.421 34.3843 144.763 34.5918 143.812C34.6216 143.674 34.4276 143.489 34.1601 143.401C33.6644 143.238 33.6573 142.867 34.1297 141.818C34.3232 141.389 34.2328 141.236 33.7979 141.257C33.4689 141.273 33.3248 141.181 33.4771 141.053C34.0484 140.573 33.6375 139.025 32.7346 138.254C31.7512 137.415 30.6926 135.811 31.2411 135.992C31.4175 136.05 31.6566 136.285 31.7727 136.513C31.8888 136.742 32.3317 136.951 32.7568 136.978C33.4039 137.019 33.4821 136.933 33.2369 136.449C33.0757 136.131 32.5915 135.649 32.1609 135.377C31.3664 134.875 30.9259 134.097 31.5538 134.304C31.7425 134.366 31.9644 134.211 32.0468 133.96C32.1436 133.665 31.8996 133.44 31.3568 133.326C30.3373 133.109 30.3461 133.049 31.472 132.531C32.3511 132.126 32.7589 130.76 32.0687 130.532C31.9024 130.478 31.8378 130.215 31.9253 129.948C32.0127 129.681 32.2593 129.52 32.4733 129.591C32.7757 129.69 32.804 129.604 32.6004 129.203C32.4564 128.919 32.496 128.207 32.6884 127.62C32.8807 127.033 32.8767 126.499 32.6792 126.434C32.4818 126.369 32.4759 126.126 32.6661 125.893C32.856 125.66 32.8701 125.423 32.6977 125.366C32.5249 125.309 32.5208 124.844 32.6886 124.332C32.8562 123.82 32.834 123.148 32.6392 122.839C32.4443 122.529 32.4041 121.912 32.5498 121.468C32.7733 120.786 32.7179 120.697 32.1966 120.902C31.6121 121.131 31.4794 120.678 32.0472 120.392C32.5707 120.129 33.3642 117.511 33.158 116.729C33.0427 116.291 33.1681 115.043 33.437 113.955C34.0528 111.466 34.0703 110.413 33.4991 110.225C33.2356 110.138 33.1613 109.74 33.319 109.259C33.4667 108.809 33.396 108.285 33.1621 108.094C32.5253 107.576 32.8592 107.036 33.5438 107.478C33.8699 107.688 34.1794 107.768 34.2313 107.656C35.032 105.931 36.0578 101.801 35.8738 101.043C35.8161 100.805 36.1394 99.7986 36.5918 98.8072C37.4655 96.8944 37.8166 95.9374 38.4874 93.644C38.8701 92.3363 38.8392 92.2126 38.1153 92.1606C37.3778 92.1074 37.3742 92.0876 38.0638 91.8563C38.6528 91.659 38.7744 91.4547 38.6663 90.8445C38.5246 90.0462 39.0452 89.1228 39.5445 89.2871C39.7037 89.3395 39.9055 89.1641 39.993 88.8974C40.0804 88.6306 40.0229 88.3699 39.8657 88.3181C39.3587 88.1512 39.6433 86.8521 40.2381 86.6187C40.9436 86.3421 41.2485 85.549 40.7168 85.374C40.4143 85.2745 40.4426 85.1881 40.844 84.986C41.66 84.575 41.7321 83.827 41.0628 82.723C40.7225 82.1614 40.5455 81.7152 40.6696 81.7313C40.7939 81.7475 41.0533 81.7723 41.2461 81.7867C41.439 81.8011 41.8216 81.8665 42.0964 81.9322C42.8846 82.121 43.5256 79.3357 42.8178 78.7964C42.6366 78.6579 42.8693 78.7388 43.3348 78.9755C44.2555 79.444 44.7213 78.9664 43.8757 78.4209C43.3814 78.1024 43.3844 78.0933 43.9365 78.2356C44.2551 78.3176 44.5689 78.2238 44.6334 78.0269C44.698 77.83 44.4939 77.6811 44.1797 77.6963C43.7273 77.7179 43.7048 77.588 44.0724 77.0724C44.3274 76.7142 44.68 76.4144 44.8551 76.4061C45.0306 76.3976 45.1232 76.1862 45.0607 75.9364C44.9984 75.6862 45.0157 75.1041 45.0997 74.643C45.1837 74.1817 45.1191 73.6259 44.9567 73.4081C44.7802 73.1719 44.9143 73.1813 45.2891 73.4318C46.13 73.9945 46.8427 73.1504 46.2493 72.2937C46.0124 71.9514 45.6928 71.6248 45.5393 71.5682C45.3856 71.5112 45.4861 71.3228 45.7631 71.1496C46.0397 70.9763 46.2018 70.7072 46.1229 70.5515C45.9118 70.136 46.5862 70.4167 47.4217 71.0926C47.9993 71.56 48.1821 71.5832 48.3062 71.2046C48.3921 70.9423 48.3212 70.6811 48.1484 70.6242C47.7509 70.4934 48.4332 69.6336 49.2755 69.2039C49.8418 68.9149 49.8563 68.8441 49.4019 68.5914C48.9372 68.3328 48.976 68.247 49.8117 67.6927C50.3197 67.3559 50.8245 66.8087 50.9332 66.477C51.0419 66.1452 51.2758 65.9216 51.4528 65.9799C51.6298 66.0381 51.9387 65.51 52.1392 64.8061C52.4288 63.7887 52.3855 63.5287 51.9286 63.5388C51.612 63.5457 51.8365 63.3681 52.4269 63.1436C53.2207 62.8421 53.5295 62.5106 53.6115 61.8712C53.6725 61.3959 53.9189 60.7866 54.1593 60.5179C54.3997 60.2488 54.627 59.8371 54.6638 59.6031C54.7007 59.3688 54.8832 59.2275 55.0692 59.2887C55.2553 59.35 55.4275 59.2859 55.4522 59.1461C55.5368 58.662 56.4446 57.5919 56.6994 57.6758C56.8401 57.7221 56.9734 57.4657 56.995 57.106C57.0187 56.7137 57.2651 56.4408 57.611 56.4243C57.9806 56.4069 58.3175 56.0012 58.5491 55.2947C58.7478 54.6883 59.1775 54.0875 59.5043 53.9593C59.8307 53.8314 60.0873 53.5164 60.0743 53.2592C60.0612 53.0023 60.5394 52.364 61.1365 51.8408C61.7339 51.3177 62.2102 50.6502 62.1953 50.358C62.1806 50.0655 62.3811 49.7725 62.6411 49.7069C63.1058 49.5897 63.2979 49.592 63.9668 49.7233C64.1524 49.7597 64.3757 49.5713 64.4632 49.3046C64.5506 49.0378 64.4763 48.7715 64.298 48.7128C64.1197 48.6541 64.0453 48.3879 64.1328 48.1211C64.2202 47.8543 64.4791 47.6977 64.708 47.773C65.2967 47.9668 67.1265 46.3235 66.6863 45.9967C66.1554 45.6023 66.4937 45.0842 67.1042 45.3561C68.0134 45.761 69.0169 45.924 68.6387 45.6053C68.2269 45.2585 68.5454 44.0206 69.0074 44.1726C69.1798 44.2294 69.3088 44.03 69.2938 43.7295C69.2752 43.3655 69.4675 43.2475 69.8696 43.3763C70.2809 43.5077 70.3734 43.4479 70.1596 43.1884C69.919 42.8957 70.0212 42.5599 70.6008 41.7405C71.0156 41.1533 71.4424 40.7769 71.5493 40.9034C71.6562 41.0299 71.7619 40.829 71.7843 40.457C71.8167 39.922 72.0255 39.822 72.7825 39.9791C73.4518 40.1177 73.7822 40.0025 73.8804 39.5967C73.9577 39.2775 74.1874 39.0698 74.3908 39.1353C74.5945 39.2009 75.302 38.8294 75.9634 38.3094C76.6251 37.7896 77.5006 37.2136 77.9093 37.0296C78.7747 36.6399 79.0658 36.0314 78.4958 35.8033C78.2777 35.7161 78.5857 35.6301 79.1804 35.6127C80.2715 35.581 81.292 35.2168 81.4245 34.8123C81.4641 34.6917 81.2122 34.5977 80.8645 34.6033C80.3565 34.6116 80.3918 34.5576 81.0427 34.328C81.738 34.0829 81.7984 33.9763 81.4684 33.5772C81.1539 33.1967 81.2052 33.1509 81.7505 33.3258C82.6819 33.6248 84.4016 33.3811 84.5532 32.9284C84.7862 32.2341 86.4485 30.957 87.3159 30.8058C87.7878 30.7236 88.2512 30.4211 88.3455 30.1333C88.5099 29.6318 89.0362 29.6445 90.7507 30.1916C91.1532 30.3202 91.5294 30.2813 91.587 30.1054C91.6447 29.9295 91.9107 29.8576 92.1781 29.9457C92.4456 30.0337 92.7121 29.9602 92.7704 29.7823C92.8287 29.6045 93.1049 29.5342 93.3844 29.6262C93.7455 29.745 93.8945 29.5863 93.8987 29.0772C93.9031 28.5717 94.0974 28.3602 94.5593 28.3581C96.274 28.3511 100.645 27.674 100.734 27.4018C100.789 27.2333 101.388 27.1694 102.065 27.2597C102.743 27.3504 103.659 27.2259 104.101 26.9831C104.689 26.6606 105.025 26.6715 105.349 27.0236C105.844 27.5611 108.807 27.9734 108.954 27.5253C109.002 27.3772 109.322 27.3485 109.665 27.4614C110.008 27.5743 110.814 27.4603 111.454 27.208C112.096 26.9558 112.786 26.8757 112.989 27.0303C113.192 27.1851 113.657 27.1942 114.022 27.0507C114.584 26.8306 114.711 26.8891 114.847 27.4271C114.976 27.9366 115.212 28.0607 116.028 28.0473C116.59 28.0379 117.08 27.9354 117.119 27.8194C117.157 27.7033 118.305 28.0208 119.671 28.5247C121.036 29.0285 122.554 29.575 123.044 29.7385C123.533 29.9025 123.881 30.2143 123.816 30.4313C123.752 30.6486 124.112 30.5679 124.618 30.2521C125.235 29.8672 125.573 29.8252 125.646 30.125C125.815 30.8207 129.631 31.5749 129.597 30.9057C129.582 30.6051 129.684 30.527 129.845 30.717C129.995 30.8951 129.982 31.2084 129.815 31.4125C129.648 31.6171 129.695 31.9337 129.919 32.116C130.143 32.2983 130.367 32.3236 130.417 32.172C130.588 31.6507 131.947 31.988 132.673 32.7323C133.523 33.6027 134.167 33.8782 134.313 33.4329C134.449 33.019 136.289 34.0366 136.746 34.778C137.166 35.4606 138.475 36.1268 139.099 35.9752C139.345 35.9157 139.558 36.1117 139.573 36.4112C139.591 36.7536 140.031 37.0969 140.759 37.3366C141.478 37.5731 142.105 38.0577 142.412 38.6121C142.83 39.3687 143.25 39.6003 145.136 40.1166C147.364 40.7261 147.366 40.7276 147.082 41.5936C146.814 42.4114 146.885 42.4891 148.336 42.9715C151.163 43.9105 151.315 43.9971 150.936 44.4608C150.358 45.1703 151.153 46.4858 152.241 46.618C152.849 46.692 153.304 46.9749 153.529 47.4174C153.72 47.7939 154.161 48.1957 154.508 48.31C154.856 48.4244 155.25 48.796 155.385 49.1359C155.519 49.4757 155.815 49.8148 156.041 49.8892C156.268 49.9638 156.465 50.2707 156.481 50.5713C156.496 50.8718 156.72 51.1873 156.978 51.2722C157.236 51.3573 157.458 51.5572 157.472 51.7165C157.501 52.0534 158.98 54.0807 159.266 54.1747C159.372 54.2097 159.562 53.923 159.688 53.5375C159.815 53.1524 159.973 52.9456 160.04 53.0784C160.108 53.2113 159.983 53.8956 159.763 54.5996C159.409 55.7335 159.474 55.9944 160.339 56.8858C160.875 57.4392 161.448 58.1397 161.612 58.4422C161.775 58.7446 162.07 58.9536 162.268 58.9064C162.464 58.8593 162.533 59.1033 162.42 59.4487C162.204 60.108 163.375 61.1674 163.759 60.6596C163.875 60.5062 164.177 60.4482 164.429 60.5313C164.734 60.6315 164.77 61.046 164.535 61.7609C164.276 62.5512 164.366 63.1554 164.871 64.0234C165.25 64.6752 165.512 65.356 165.453 65.5367C165.393 65.7178 165.664 66.124 166.055 66.4398C166.445 66.7557 166.691 67.2359 166.603 67.5069C166.511 67.7869 166.726 68.0937 167.099 68.2167C167.462 68.336 167.772 68.7132 167.79 69.0554C167.823 69.7213 168.186 70.6828 169.428 73.4027C169.859 74.346 170.209 75.4068 170.206 75.7598C170.203 76.1131 170.305 76.4365 170.433 76.4786C170.561 76.5207 170.779 77.0694 170.918 77.6976C171.084 78.4454 171.363 78.8309 171.729 78.8135C172.096 78.796 172.271 79.0428 172.241 79.5349C172.216 79.9466 172.325 80.3256 172.482 80.3774C172.64 80.4292 172.602 80.9809 172.398 81.6034C172.144 82.3765 172.176 82.7841 172.497 82.8899C173.097 83.0874 173.313 84.1514 172.887 84.8109C172.672 85.1435 172.772 85.4569 173.175 85.7172C173.542 85.9537 173.706 86.3787 173.579 86.7657C173.272 87.7032 173.366 88.5497 173.794 88.6909C173.998 88.758 174.068 89.178 173.95 89.6241C173.832 90.0703 173.881 91.3357 174.059 92.4364C174.238 93.5369 174.441 94.8177 174.512 95.2826C174.583 95.7477 174.745 96.1639 174.873 96.2075C175 96.2509 174.945 96.4821 174.75 96.721C174.32 97.2483 174.42 100.137 174.894 100.89C175.083 101.189 175.079 101.912 174.887 102.499C174.695 103.085 174.607 104.339 174.692 105.286C174.776 106.233 174.706 107.433 174.536 107.951C174.366 108.47 174.344 108.933 174.488 108.98C174.631 109.027 174.675 109.888 174.586 110.894C174.427 112.695 174.343 113.273 173.806 116.279C173.656 117.116 173.66 117.953 173.816 118.137C173.971 118.322 173.838 119.146 173.517 119.976C173.177 120.857 173.061 121.627 173.238 121.836C173.403 122.033 173.313 123.039 173.036 124.074C172.448 126.278 172.059 128.63 172.192 129.182C172.341 129.8 171.832 131.382 171.455 131.472C171.267 131.517 170.971 132.264 170.799 133.132C170.625 134 170.165 135.781 169.774 137.09C169.268 138.787 169.174 139.602 169.446 139.932C169.743 140.291 169.73 140.363 169.387 140.255C169.123 140.171 168.957 140.341 168.974 140.68C168.991 141.004 168.894 141.116 168.747 140.943C168.49 140.637 168.184 141.177 167.863 142.5C167.768 142.894 167.501 143.26 167.27 143.316C167.04 143.371 166.896 143.599 166.95 143.824C167.169 144.724 166.789 146.679 166.239 147.488C165.85 148.061 165.773 148.385 166.008 148.462C166.202 148.526 166.034 148.763 165.636 148.99C165.117 149.284 164.978 149.533 165.147 149.865C165.313 150.193 165.22 150.483 164.828 150.856C164.523 151.147 163.589 153.154 162.752 155.317C161.915 157.48 161.133 159.499 161.013 159.805C160.894 160.11 160.666 160.317 160.507 160.265C160.348 160.213 160.23 160.416 160.245 160.716C160.26 161.017 160.168 161.228 160.04 161.186C159.911 161.144 159.633 161.576 159.42 162.146C159.208 162.717 158.693 163.877 158.277 164.725C157.86 165.574 157.237 167.03 156.893 167.961C156.548 168.893 156.073 169.704 155.838 169.764C155.357 169.885 153.633 172.69 153.748 173.165C153.789 173.332 153.668 173.419 153.479 173.356C153.29 173.294 152.993 173.68 152.818 174.214C152.643 174.747 152.646 175.232 152.824 175.29C153.002 175.349 153.1 175.543 153.042 175.72C152.984 175.898 152.709 175.969 152.431 175.877C152.153 175.786 151.965 175.874 152.013 176.073C152.062 176.273 151.931 176.477 151.722 176.527C151.514 176.576 151.356 176.866 151.371 177.169C151.386 177.473 151.103 177.818 150.741 177.936C150.38 178.054 149.827 178.711 149.514 179.396C148.611 181.371 147.758 182.62 147.421 182.459C147.251 182.377 146.961 182.475 146.777 182.677C146.594 182.878 146.174 183.308 145.844 183.633C145.514 183.957 145.003 184.673 144.708 185.223C144.414 185.773 143.926 186.386 143.625 186.586C142.691 187.204 141.799 188.107 141.639 188.595C141.555 188.851 141.062 189.215 140.543 189.403C139.601 189.745 138.064 191.416 138.194 191.956C138.232 192.113 137.696 192.512 137.001 192.843C136.307 193.175 135.698 193.571 135.648 193.724C135.598 193.877 135.082 194.219 134.501 194.485C133.85 194.782 133.326 195.324 133.134 195.899C132.708 197.176 132.269 197.458 131.092 197.213C130.3 197.048 130.032 197.161 129.842 197.741C129.709 198.146 129.412 198.532 129.182 198.598C128.951 198.664 128.413 199.132 127.984 199.638C127.08 200.706 125.449 201.389 124.526 201.085C124.043 200.926 123.873 201.048 123.841 201.576C123.817 201.962 123.659 202.233 123.49 202.177C123.32 202.121 122.697 202.319 122.106 202.617C121.514 202.915 120.818 203.089 120.559 203.003C120.3 202.918 120.034 203.01 119.969 203.208C119.9 203.419 119.491 203.388 118.98 203.133C118.128 202.707 117.189 202.924 116.968 203.598C116.908 203.783 116.561 203.837 116.198 203.718C115.626 203.529 115.557 203.608 115.682 204.307C115.782 204.874 115.74 205.014 115.54 204.777C115.384 204.592 115.203 204.601 115.138 204.797C115.074 204.994 114.16 205.254 113.108 205.376C111.217 205.594 111.188 205.586 110.729 204.755C110.165 203.735 109.918 203.629 109.446 204.207C109.197 204.512 108.892 204.511 108.466 204.204C108.07 203.919 107.882 203.904 107.945 204.162C107.999 204.385 107.864 204.609 107.647 204.661C107.427 204.714 107.348 204.459 107.469 204.09C107.592 203.714 107.476 203.355 107.201 203.264C106.933 203.176 106.766 202.919 106.829 202.694C106.892 202.468 106.601 202.735 106.182 203.287C105.514 204.168 105.287 204.247 104.326 203.93C102.979 203.487 101.855 204.204 102.545 205.066C102.915 205.527 102.791 205.603 101.646 205.618C100.597 205.631 100.158 205.491 99.5554 204.949C98.8417 204.307 98.7006 203.333 99.3525 203.547C99.5143 203.6 99.6654 203.328 99.689 202.941C99.7294 202.271 100.071 202.187 100.996 202.619C101.525 202.866 102.179 201.895 101.8 201.426C101.536 201.1 101.579 200.992 102.019 200.879C102.32 200.8 102.556 200.508 102.541 200.229C102.527 199.95 102.809 199.512 103.167 199.256C103.526 199 103.789 198.932 103.752 199.105C103.659 199.546 104.911 197.574 105.551 196.273C106.608 194.121 107.043 193.54 107.485 193.685C107.742 193.77 107.924 193.61 107.908 193.311C107.894 193.024 108.469 192.272 109.186 191.64C109.903 191.008 110.569 190.249 110.666 189.954C110.763 189.658 111.229 189.221 111.702 188.983C112.175 188.745 112.61 188.404 112.669 188.226C112.727 188.048 112.896 187.943 113.044 187.992C113.192 188.04 113.651 187.748 114.063 187.342C114.475 186.936 115.168 186.442 115.604 186.246C116.09 186.027 116.413 185.614 116.44 185.177C116.467 184.723 116.583 184.584 116.761 184.795C116.935 185.002 117.028 184.905 117.01 184.538C116.987 184.097 117.101 184.047 117.463 184.337C117.885 184.675 117.913 184.636 117.681 184.032C117.454 183.442 117.484 183.363 117.884 183.494C118.931 183.839 121.888 181.144 121.63 180.08C121.577 179.863 121.753 179.486 122.02 179.241C122.351 178.938 122.415 178.619 122.223 178.24C121.993 177.786 121.728 177.715 120.773 177.854C120.13 177.947 119.536 178.231 119.453 178.484C119.37 178.738 119.064 178.867 118.773 178.772C118.106 178.552 114.036 180.767 113.804 181.476C113.69 181.822 113.355 181.914 112.837 181.744C111.896 181.434 110.514 181.982 111.064 182.447C111.259 182.61 111.141 182.664 110.8 182.568C110.334 182.436 110.161 182.592 110.08 183.222C110.014 183.74 109.857 183.954 109.66 183.794C109.486 183.653 108.743 183.785 108.007 184.088C106.916 184.538 106.554 184.917 106.044 186.141C105.685 187.004 105.081 187.834 104.624 188.094C103.873 188.521 103 189.225 102.121 190.113C101.907 190.329 101.416 190.696 101.031 190.929C100.403 191.309 100.17 191.646 99.49 193.163C99.3832 193.401 99.0056 193.578 98.6505 193.555C98.0294 193.516 97.8908 193.719 97.1044 195.821C96.5995 197.171 95.8225 198.086 95.3217 197.922C94.72 197.724 94.0137 198.922 94.4993 199.317C94.8063 199.567 94.7031 199.737 94.0168 200.114C93.5364 200.378 92.9519 200.897 92.7182 201.267C92.4843 201.637 92.0898 201.873 91.8418 201.792C91.5935 201.71 91.3175 201.866 91.2283 202.138C91.139 202.411 90.8321 202.645 90.5464 202.658C90.2327 202.673 89.9541 203.038 89.8422 203.58C89.7403 204.072 89.4429 204.684 89.1814 204.938C88.8978 205.214 88.7498 205.671 88.815 206.071C88.8747 206.44 88.9519 207.204 88.9868 207.768C89.0212 208.333 89.2096 208.756 89.4049 208.709C89.6005 208.663 90.106 208.904 90.5285 209.246C91.0792 209.692 91.4599 209.803 91.8746 209.641C92.1923 209.516 92.515 209.536 92.5908 209.686C92.667 209.836 92.9587 209.869 93.239 209.759C93.5192 209.649 93.9326 209.665 94.1578 209.796C94.3896 209.93 94.6278 209.781 94.7073 209.452C94.7846 209.133 94.9955 208.92 95.1764 208.979C95.3726 209.044 95.2849 209.484 94.9584 210.072C94.6578 210.613 94.5784 210.922 94.7818 210.759C94.9856 210.595 95.536 210.518 96.0051 210.587C96.4745 210.656 96.6557 210.714 96.4077 210.717C96.1601 210.72 95.9129 210.857 95.859 211.021C95.7259 211.427 96.941 211.801 97.3305 211.474C97.5019 211.33 97.757 211.348 97.8974 211.515C98.3185 212.014 99.6732 212.534 99.7715 212.233C99.9015 211.837 101.102 212.287 101.22 212.777C101.289 213.06 101.486 213.12 101.861 212.973C102.258 212.817 102.417 212.889 102.459 213.242C102.504 213.622 102.583 213.652 102.837 213.381C103.301 212.888 103.9 213.179 104.608 214.24C105.144 215.043 105.429 215.186 106.732 215.306C108.732 215.49 108.755 215.501 108.553 216.158C108.395 216.673 108.443 216.682 109.06 216.256C109.623 215.867 109.712 215.876 109.57 216.306C109.463 216.633 109.766 217.041 110.379 217.399C110.919 217.713 111.49 218.172 111.65 218.417C111.81 218.663 112.15 218.858 112.405 218.852C112.661 218.846 113.234 219.206 113.679 219.651C114.375 220.345 114.396 220.461 113.832 220.472C113.248 220.483 113.251 220.565 113.863 221.205C114.242 221.601 114.507 222.064 114.452 222.232C114.316 222.647 116.548 226.76 116.987 226.905C117.215 226.98 117.246 226.841 117.074 226.504C116.93 226.22 116.865 225.836 116.929 225.65C116.993 225.464 117.112 225.574 117.193 225.895C117.303 226.33 117.464 226.415 117.828 226.232C118.113 226.089 118.82 226.23 119.527 226.573C120.507 227.047 120.772 227.058 120.911 226.632C121.007 226.341 120.847 226.026 120.558 225.931C120.145 225.795 120.142 225.561 120.543 224.851C120.912 224.199 120.932 223.904 120.614 223.8C120.37 223.719 120.119 223.838 120.054 224.063C119.989 224.288 119.827 224.73 119.693 225.044C119.47 225.565 119.417 225.555 119.106 224.941C118.917 224.569 118.57 224.202 118.334 224.124C118.099 224.047 117.893 223.737 117.878 223.437C117.859 223.049 118.066 222.961 118.589 223.133C119.35 223.383 121.219 222.956 120.495 222.697C120.274 222.618 120.16 222.351 120.241 222.103C120.322 221.856 120.041 221.434 119.617 221.167C119.131 220.86 118.962 220.538 119.16 220.295C119.333 220.083 119.03 218.936 118.484 217.737C117.706 216.031 117.273 215.484 116.468 215.194C115.905 214.99 115.481 214.71 115.526 214.572C115.572 214.433 115.314 214.111 114.953 213.856C113.251 212.655 113.735 211.379 115.871 211.438C116.628 211.459 117.58 211.288 117.985 211.058C118.391 210.827 119.08 210.756 119.517 210.9C120.091 211.089 120.305 211.01 120.285 210.615C120.265 210.221 120.479 210.142 121.057 210.332C121.497 210.477 121.919 210.41 121.993 210.183C122.145 209.72 124.54 208.607 124.7 208.924C124.757 209.036 125.094 208.885 125.45 208.589C125.894 208.219 126.432 208.16 127.164 208.401C128.241 208.756 128.353 208.691 129.232 207.201C129.5 206.747 129.914 206.441 130.152 206.519C130.766 206.721 132.788 205.736 132.984 205.14C133.074 204.864 133.381 204.716 133.665 204.809C133.949 204.903 134.351 204.716 134.558 204.395C134.766 204.074 135.589 203.748 136.389 203.67C137.281 203.584 137.876 203.327 137.931 203.005C138.086 202.089 139.055 200.851 139.501 200.998C140.055 201.18 141.687 200.503 141.843 200.025C141.909 199.824 142.182 199.731 142.45 199.819C142.717 199.907 142.989 199.818 143.053 199.621C143.118 199.424 142.924 199.275 142.623 199.289C142.322 199.303 142.127 199.159 142.19 198.967C142.26 198.755 142.602 198.806 143.064 199.098C143.755 199.534 143.811 199.508 143.686 198.804C143.574 198.17 143.647 198.064 144.092 198.21C144.789 198.439 145.797 197.745 146.116 196.816C146.262 196.392 146.566 196.158 146.851 196.252C147.162 196.354 147.44 196.101 147.621 195.549C147.776 195.073 148.235 194.497 148.639 194.267C149.332 193.873 149.879 193.064 150.515 191.491C150.666 191.117 150.882 190.919 150.994 191.052C151.107 191.186 151.227 190.897 151.261 190.411C151.305 189.779 151.585 189.382 152.24 189.023C152.744 188.746 153.195 188.402 153.243 188.257C153.29 188.113 153.517 188.057 153.748 188.133C153.978 188.209 154.548 187.687 155.014 186.974C155.48 186.261 156.114 185.539 156.423 185.37C156.731 185.2 157.054 184.927 157.139 184.762C157.224 184.598 157.533 183.994 157.826 183.42C158.118 182.846 158.565 182.327 158.819 182.266C159.073 182.205 159.54 181.466 159.856 180.623C160.173 179.78 160.613 179.089 160.834 179.089C161.055 179.088 161.224 178.852 161.21 178.564C161.195 178.277 161.345 178.095 161.542 178.16C161.739 178.225 162.053 177.804 162.24 177.225C162.574 176.187 163.129 174.946 164.404 172.385C164.762 171.665 165.231 171.134 165.446 171.205C165.996 171.386 167.756 167.945 167.563 167.065C167.455 166.573 167.539 166.383 167.868 166.373C168.117 166.366 168.409 166.093 168.516 165.767C168.623 165.441 168.552 165.041 168.358 164.877C168.141 164.694 168.218 164.64 168.561 164.735C169.278 164.935 169.972 163.963 169.8 162.998C169.701 162.441 169.916 161.911 170.624 160.97C171.151 160.27 171.675 159.346 171.788 158.916C171.901 158.486 172.235 157.769 172.53 157.322C172.976 156.646 172.967 156.514 172.479 156.537C171.738 156.573 171.897 156.008 172.718 155.686C173.427 155.408 173.959 154.1 173.556 153.623C173.389 153.425 173.446 153.194 173.704 153.023C173.934 152.87 174.194 152.527 174.282 152.26C174.37 151.993 174.713 151.26 175.043 150.63C175.414 149.923 175.517 149.442 175.311 149.374C175.095 149.304 175.149 149.099 175.461 148.797C175.727 148.54 176.294 147.114 176.721 145.629C177.169 144.072 177.629 142.973 177.807 143.031C177.994 143.093 178.065 142.851 177.987 142.412C177.894 141.887 178.009 141.632 178.411 141.474C178.807 141.319 179.126 140.629 179.54 139.032C179.858 137.808 180.249 136.373 180.409 135.843C180.707 134.854 180.519 134.165 179.785 133.558C179.522 133.34 179.52 133.252 179.78 133.32C180.007 133.379 180.265 133.209 180.352 132.942C180.44 132.676 180.666 132.508 180.854 132.57C181.043 132.632 181.157 132.513 181.106 132.305C181.056 132.097 181.413 130.53 181.899 128.821C182.386 127.113 182.744 125.55 182.695 125.347C182.646 125.145 182.741 124.322 182.906 123.52C183.688 119.721 183.802 118.852 183.529 118.763C183.368 118.71 183.33 118.38 183.444 118.029C183.577 117.624 183.472 117.402 183.154 117.417C182.678 117.439 182.499 115.978 182.948 115.751C183.057 115.696 183.091 115.821 183.023 116.028C182.955 116.236 183.118 116.478 183.385 116.566C183.946 116.75 184.22 116.248 183.75 115.898C183.576 115.769 183.637 114.85 183.887 113.856C184.135 112.861 184.207 111.949 184.046 111.829C183.884 111.71 183.891 111.187 184.061 110.668C184.231 110.149 184.254 109.687 184.112 109.64C183.97 109.594 184.067 108.329 184.326 106.83C184.589 105.317 184.65 103.813 184.464 103.447C184.28 103.085 184.27 102.362 184.44 101.841C184.611 101.321 184.605 100.846 184.427 100.788C184.248 100.729 184.243 100.251 184.416 99.7254C184.588 99.2 184.612 97.7165 184.469 96.4293C184.327 95.1421 184.123 93.1736 184.017 92.0551C183.912 90.9366 183.732 89.9369 183.617 89.8338C183.503 89.7302 183.502 89.3625 183.616 89.0159C183.73 88.6696 183.631 88.2302 183.397 88.04C183.163 87.8495 183.059 87.4285 183.165 87.1045C183.271 86.7808 183.204 86.2129 183.017 85.8427C182.829 85.4724 182.736 84.745 182.81 84.2263C182.884 83.7075 182.765 82.6229 182.546 81.8161C182.326 81.0095 182.21 80.1566 182.287 79.9209C182.365 79.6851 182.079 78.8306 181.653 78.0218C181.226 77.2131 180.915 76.4361 180.962 76.2951C181.108 75.8499 180.373 74.3766 179.933 74.2317C179.701 74.1553 179.49 73.6549 179.465 73.1196C179.439 72.5846 179.168 71.6973 178.863 71.1475C178.557 70.598 178.334 70.0667 178.367 69.9671C178.399 69.8672 177.952 68.8574 177.373 67.7227C176.793 66.5884 176.434 65.5052 176.576 65.3159C176.716 65.1262 176.601 64.8953 176.318 64.8024C176.036 64.7094 175.877 64.4152 175.964 64.1484C176.053 63.8771 175.834 63.5683 175.468 63.4478C175.079 63.3198 174.769 62.8441 174.705 62.2787C174.64 61.6973 174.267 61.1376 173.747 60.8437C173.278 60.5789 172.961 60.1619 173.041 59.9174C173.121 59.673 173.041 59.4248 172.862 59.3661C172.684 59.3074 172.61 59.0412 172.697 58.7744C172.838 58.3447 172.533 58.032 171.847 57.9041C171.723 57.881 171.613 57.3747 171.601 56.7791C171.587 56.0551 171.251 55.411 170.589 54.8393C170.044 54.3687 169.641 53.8556 169.692 53.6994C169.743 53.5432 169.414 53.1896 168.961 52.9142C167.944 52.2945 166.242 50.6595 166.204 50.2634C166.188 50.1024 165.955 50.0569 165.686 50.1622C165.381 50.2819 165.055 50.182 164.82 49.8975C164.564 49.5876 164.574 49.4825 164.85 49.5696C165.074 49.6404 165.347 49.365 165.458 48.9581C165.609 48.4014 165.576 48.3462 165.325 48.7353C164.868 49.4433 164.341 49.2044 164.602 48.4079C164.72 48.0487 164.598 47.69 164.328 47.6012C164.06 47.5131 163.888 47.3001 163.944 47.1278C164.001 46.9557 163.801 46.8265 163.5 46.8407C163.099 46.8597 163.027 46.6402 163.229 46.0239C163.53 45.1042 163.237 44.8693 162.127 45.1405C161.55 45.2811 161.278 45.1384 160.762 44.4226C160.064 43.4542 160.079 42.7741 160.798 42.7566C161.047 42.7508 161.184 42.6021 161.103 42.4264C161.021 42.2506 160.642 42.2648 160.259 42.4573C159.732 42.7231 159.439 42.6774 159.048 42.2677C158.764 41.9707 158.596 41.5313 158.674 41.2914C158.86 40.7236 157.815 40.0552 157.215 40.3578C156.879 40.5266 156.829 40.347 157.034 39.7196C157.192 39.2394 157.15 38.7903 156.941 38.7216C156.732 38.6529 156.393 38.3035 156.189 37.9453C155.984 37.587 155.5 37.1337 155.114 36.9382C154.728 36.7423 154.365 36.3965 154.308 36.1694C154.25 35.942 153.794 35.6225 153.294 35.4594C152.794 35.2958 152.163 34.7566 151.891 34.2607C151.533 33.6081 151.05 33.2748 150.137 33.0526C149.176 32.8187 148.645 32.4262 147.899 31.3982C147.361 30.6569 146.764 29.9984 146.571 29.935C146.054 29.7648 145.009 30.3676 145.18 30.7377C145.262 30.9134 145.133 30.9129 144.894 30.737C144.655 30.561 144.559 30.185 144.679 29.9008C144.922 29.328 144.534 29.0618 144.049 29.469C143.878 29.6129 143.622 29.5931 143.48 29.4249C143.338 29.2568 142.934 29.3228 142.583 29.5718C142.056 29.945 141.893 29.9252 141.655 29.4604C141.417 28.9944 141.453 28.9662 141.864 29.2986C142.2 29.5709 142.412 29.5442 142.519 29.216C142.719 28.6074 141.58 27.8694 140.179 27.6987C139.456 27.611 139.15 27.4422 139.236 27.1793C139.322 26.9184 139.034 26.7559 138.365 26.6871C135.919 26.4362 133.344 25.5774 132.999 24.8979C132.724 24.3565 132.231 24.1329 130.479 23.7569C129.281 23.4994 128.258 23.4175 128.207 23.5743C128.155 23.7315 127.711 23.7291 127.221 23.5687C126.73 23.4087 125.839 23.3574 125.242 23.4548C123.846 23.6827 123.318 23.4977 123.167 22.7289C123.077 22.2723 122.819 22.1123 122.183 22.1169C121.708 22.1204 121.127 22.0148 120.891 21.8826C120.5 21.6635 119.697 21.686 117.869 21.9666C117.453 22.0304 117.247 21.947 117.314 21.742C117.373 21.5629 117.129 21.32 116.773 21.2027C116.413 21.0841 116.054 21.205 115.965 21.4743C115.878 21.7411 115.547 21.8877 115.23 21.7995C113.676 21.3685 113.045 21.3361 112.651 21.6673C112.389 21.8876 111.84 21.8573 111.245 21.5901C110.629 21.3136 109.962 21.2869 109.44 21.5178C108.958 21.7316 108.112 21.7186 107.413 21.4873C106.754 21.2689 105.945 21.2241 105.616 21.388C105.188 21.6007 104.987 21.5607 104.911 21.2477C104.838 20.946 104.53 20.8263 103.922 20.863C103.436 20.8924 102.129 20.8857 101.018 20.8481C99.4405 20.7943 98.9242 20.9263 98.6657 21.4496C98.4567 21.8727 98.0527 22.0697 97.5713 21.9836C97.1402 21.9062 96.7196 22.0794 96.6043 22.3818C96.4924 22.676 96.3868 22.7276 96.3698 22.4967C96.3231 21.8612 95.0454 21.9132 94.5712 22.57C94.2355 23.0355 93.9783 23.0487 93.2509 22.637C92.2007 22.0431 90.9581 22.1625 90.7228 22.8804C90.5961 23.2668 90.3555 23.2592 89.6564 22.8465C88.9508 22.4297 88.7172 22.4248 88.5863 22.8242C88.4943 23.1049 88.273 23.2868 88.0947 23.2281C87.9164 23.1694 87.6766 23.4079 87.5618 23.7581C87.4122 24.2147 87.2219 24.2878 86.8895 24.0168C86.5713 23.7581 86.4263 23.7974 86.4282 24.142C86.4313 24.6839 85.5601 25.2598 85.0109 25.0791C84.8255 25.0181 84.6862 25.214 84.7012 25.5145C84.7165 25.8151 84.5578 26.0047 84.3484 25.9358C83.6351 25.701 81.2668 26.7422 80.7874 27.5015C80.397 28.1193 80.1802 28.1772 79.609 27.8169C79.1374 27.5191 78.7958 27.5138 78.5617 27.8007C78.3707 28.0348 77.7987 28.2449 77.2909 28.2677C76.7831 28.2904 76.3494 28.4271 76.3267 28.5719C76.2012 29.3768 75.7828 29.9233 75.3912 29.7945C74.632 29.5446 73.8685 30.2093 74.2392 30.7978C74.4152 31.0771 74.6863 31.2416 74.842 31.1631C74.9978 31.0847 75.0412 31.2767 74.9386 31.5897C74.836 31.9027 74.4265 32.1383 74.0282 32.1133C73.6076 32.087 73.3149 32.2722 73.3293 32.5557C73.343 32.8242 73.0717 33.186 72.7271 33.3599C72.3822 33.5333 71.9978 33.9872 71.8729 34.3684C71.6589 35.0213 71.6243 35.0192 71.2738 34.3278C70.9741 33.7376 70.845 33.6726 70.6118 33.9949C70.4524 34.2151 70.0836 34.4473 69.7923 34.5108C69.4377 34.5879 69.3019 34.827 69.3819 35.2327C69.5463 36.0688 68.9086 36.9692 68.4285 36.5787C68.0421 36.2641 66.6745 36.7197 66.8671 37.0986C66.922 37.2073 66.5879 37.4639 66.1242 37.6688C65.6608 37.8742 65.189 38.324 65.0759 38.669C64.9597 39.0237 64.5651 39.2765 64.1667 39.2514C63.615 39.2167 63.3738 39.4791 63.0499 40.4673C62.8227 41.1606 62.4237 41.9374 62.1636 42.1939C61.9032 42.4503 61.3964 43.0126 61.037 43.4438C60.4926 44.0968 60.3001 44.1395 59.8807 43.7009C59.4348 43.2346 59.3028 43.3198 58.7194 44.4519C58.3574 45.1542 57.8435 45.8652 57.5773 46.032C57.3111 46.1987 57.0175 46.7756 56.9246 47.3143C56.8096 47.9818 56.546 48.3446 56.0956 48.4543C55.4069 48.6225 54.1954 50.7615 54.6956 50.9262C54.8532 50.978 54.8585 51.1811 54.7077 51.378C54.5568 51.5744 54.2179 51.6201 53.9545 51.479C53.3728 51.1675 52.8651 51.9462 52.7955 53.2563C52.7562 53.9986 52.6305 54.1872 52.2573 54.0644C51.9896 53.9763 51.4679 54.0568 51.098 54.2431C50.5363 54.5257 50.4516 54.7293 50.5841 55.4765C50.6713 55.9688 50.9932 56.5329 51.2991 56.7303C51.6051 56.9277 51.7796 57.2807 51.6873 57.5151C51.561 57.8357 51.5116 57.8277 51.4884 57.4833C51.4328 56.6643 50.8703 56.807 50.5666 57.7173C50.3509 58.3631 50.2322 58.4548 50.1301 58.054C50.0534 57.7511 50.1398 57.3199 50.3224 57.096C50.5961 56.7604 50.4449 56.7221 49.4625 56.8792C48.0887 57.0984 47.8367 57.4619 48.6813 58.0067C49.0075 58.2169 49.1986 58.5807 49.1063 58.8151C48.98 59.1357 48.9306 59.1277 48.9073 58.7833C48.8901 58.5311 48.7425 58.2812 48.5791 58.2275C48.1253 58.0781 47.5083 60.2979 47.9094 60.6358C48.1196 60.8129 48.0292 60.8673 47.6855 60.771C47.3691 60.6823 47.0621 60.7553 47.0038 60.9332C46.9455 61.111 46.6887 61.1877 46.4333 61.1037C46.1269 61.0028 45.8697 61.2847 45.6783 61.9299C45.3878 62.9094 45.9336 63.5035 46.5039 62.8286C46.6667 62.6357 46.6803 62.8823 46.534 63.3758C46.2703 64.2656 45.7452 64.4324 45.5636 63.6834C45.4041 63.0251 44.7877 63.0318 44.8211 63.6916C44.8488 64.2381 44.4475 64.7702 42.5377 66.7177C42.1551 67.1081 42.2235 67.2413 42.926 67.4725C43.6314 67.7046 43.6854 67.8116 43.2389 68.0913C42.942 68.2773 42.3605 68.388 41.9469 68.3371L41.1953 68.2448L41.8581 68.7331C42.5086 69.2127 42.5065 69.2259 41.7344 69.4579C41.2268 69.6104 40.8438 70.0458 40.6543 70.6855C40.4925 71.2306 40.137 71.7892 39.8643 71.9266C39.5911 72.0642 39.1357 72.8848 38.8521 73.7501C38.5685 74.6154 38.0862 75.5619 37.7803 75.8531C37.4747 76.1444 36.8758 77.1861 36.4492 78.1677C35.5815 80.1663 30.8323 94.1858 30.7164 95.0905ZM30.7228 101.045C30.8478 101.101 31.3146 101.267 31.7604 101.413C32.2061 101.56 32.5231 101.825 32.4649 102.003C32.4066 102.181 31.8363 102.155 31.1973 101.944C30.513 101.719 30.1303 101.435 30.2658 101.253C30.3923 101.083 30.5978 100.989 30.7228 101.045ZM42.3845 70.1602C42.6623 70.2516 42.7497 70.4441 42.5786 70.5881C42.4072 70.7319 42.1588 70.7215 42.0265 70.5643C41.6676 70.1392 41.8149 69.9727 42.3845 70.1602ZM29.9792 112.859C30.1203 113.137 29.9749 113.21 29.5551 113.072C29.1353 112.934 29.0615 112.789 29.3399 112.649C29.6186 112.508 29.8378 112.58 29.9792 112.859ZM33.9549 98.553C34.1332 98.6117 34.2285 98.814 34.1668 99.0022C34.1052 99.1904 33.9382 99.2067 33.7959 99.0381C33.6536 98.8695 33.5582 98.6675 33.584 98.589C33.6097 98.5104 33.7766 98.4944 33.9549 98.553ZM31.9006 107.012C32.1149 106.961 32.2397 107.073 32.178 107.261C32.1163 107.45 31.9199 107.556 31.7416 107.497C31.5633 107.438 31.4384 107.326 31.4642 107.248C31.4899 107.169 31.6862 107.063 31.9006 107.012ZM39.7561 85.237C39.9704 85.1857 40.0714 85.3708 39.9805 85.648C39.8897 85.9251 39.6694 86.1041 39.4911 86.0454C39.3128 85.9867 39.2118 85.8019 39.2667 85.6344C39.3216 85.4669 39.5418 85.2882 39.7561 85.237ZM29.2462 121.763C29.3973 122.388 29.1494 122.568 28.765 122.112C28.6111 121.93 28.628 121.66 28.8029 121.513C29.0087 121.34 29.1647 121.428 29.2462 121.763ZM48.5707 63.9566C49.1552 64.149 49.1713 64.2381 48.6788 64.5463C48.2151 64.8365 48.0723 64.8078 47.9692 64.4024C47.7913 63.7047 47.7956 63.7015 48.5707 63.9566ZM30.6136 120.381C30.6816 120.403 30.6423 120.713 30.5257 121.069C30.4092 121.424 30.1815 121.672 30.0201 121.619C29.8583 121.565 29.8979 121.256 30.1075 120.931C30.3175 120.606 30.5452 120.358 30.6136 120.381ZM31.9098 117.942C32.0881 118 32.213 118.112 32.1873 118.191C32.1615 118.269 31.9652 118.375 31.7508 118.427C31.5365 118.478 31.4117 118.366 31.4734 118.177C31.5351 117.989 31.7315 117.883 31.9098 117.942ZM47.0712 72.3436C47.2453 72.6552 47.4348 72.7674 47.492 72.5928C47.602 72.2571 47.1447 71.5682 46.899 71.6997C46.8194 71.7423 46.8968 72.0322 47.0712 72.3436ZM29.4228 131.223C29.5841 131.842 29.3049 131.873 28.5392 131.321C27.8937 130.855 27.896 130.833 28.5879 130.816C28.9986 130.806 29.36 130.981 29.4228 131.223ZM49.6633 65.7491C50.1473 65.9084 50.4137 66.7975 50.0947 67.1887C49.654 67.729 49.2385 67.5241 49.2829 66.7882C49.3434 65.7882 49.3907 65.6594 49.6633 65.7491ZM29.3349 129.633C29.6023 129.721 29.7735 129.938 29.7152 130.116C29.6569 130.294 29.3904 130.367 29.1229 130.279C28.8555 130.191 28.6843 129.974 28.7426 129.796C28.8009 129.618 29.0674 129.545 29.3349 129.633ZM53.1223 60.4392C53.6517 60.6134 53.1042 61.3776 52.4274 61.4099C52.1034 61.4254 52.0676 61.2496 52.3169 60.8637C52.519 60.5508 52.8814 60.3599 53.1223 60.4392ZM56.8309 48.9962C57.1254 48.9821 57.4072 49.1382 57.4568 49.343C57.5064 49.5477 57.2465 49.6163 56.8795 49.4955C56.0966 49.2378 56.0768 49.0321 56.8309 48.9962ZM29.952 133.776C30.1303 133.835 30.2285 134.029 30.1702 134.207C30.1119 134.384 29.9184 134.482 29.7401 134.423C29.5618 134.364 29.4636 134.171 29.5219 133.993C29.5802 133.815 29.7737 133.718 29.952 133.776ZM30.704 138.057C31.1748 138.081 31.1669 138.105 30.6333 138.272C30.0999 138.439 30.0756 138.513 30.4149 138.939C30.7388 139.345 30.7068 139.388 30.2042 139.228C29.4894 138.999 29.9097 138.015 30.704 138.057ZM31.5449 138.779C31.7592 138.727 31.884 138.84 31.8223 139.028C31.7606 139.216 31.5642 139.322 31.3859 139.264C31.2076 139.205 31.0827 139.093 31.1084 139.014C31.1342 138.936 31.3305 138.83 31.5449 138.779ZM32.4843 140.296C32.542 140.12 32.7213 140.132 32.8828 140.324C33.0721 140.548 32.8552 140.727 32.2728 140.829C31.7757 140.916 31.2526 140.842 31.111 140.665C30.9689 140.488 31.1963 140.404 31.6159 140.479C32.0357 140.554 32.4265 140.472 32.4843 140.296ZM33.7136 145.517C33.9382 145.705 33.8362 145.757 33.4535 145.648C33.1072 145.549 32.941 145.41 33.0838 145.338C33.2266 145.266 33.5102 145.347 33.7136 145.517ZM32.9645 149.788C33.0186 149.623 33.3545 149.584 33.7112 149.702C34.0678 149.819 34.3157 150.049 34.2622 150.212C34.2087 150.375 34.1777 150.808 34.1935 151.174C34.2189 151.766 34.1766 151.769 33.8107 151.2C33.5157 150.742 33.2674 150.627 32.934 150.795C32.6006 150.963 32.3868 150.883 32.179 150.514C31.9447 150.096 31.9826 150.006 32.3775 150.043C32.6464 150.067 32.9106 149.953 32.9645 149.788ZM34.8467 159.823C35.0212 160.135 35.0986 160.425 35.0189 160.467C34.7732 160.599 34.3159 159.91 34.4259 159.574C34.4831 159.4 34.6726 159.512 34.8467 159.823ZM36.3107 160.946C36.9001 161.14 36.7837 161.676 36.1344 161.758C35.8771 161.79 36.0026 161.863 36.4135 161.92C36.9426 161.994 37.0675 162.138 36.8414 162.415C36.4434 162.903 35.6833 162.684 35.6416 162.069C35.5825 161.197 35.8267 160.787 36.3107 160.946ZM37.6942 159.039C38.0287 159.311 38.1433 159.255 38.1216 158.83C38.1056 158.511 38.1124 158.189 38.1368 158.115C38.1611 158.04 38.0352 157.931 37.8569 157.873C37.3288 157.699 37.1983 158.635 37.6942 159.039ZM36.0133 165.83C36.283 166.318 36.6773 166.675 36.8897 166.624C37.1021 166.574 36.9398 166.187 36.5285 165.764C35.9477 165.167 35.9024 164.965 36.325 164.859C36.6792 164.771 36.7346 164.677 36.4841 164.591C35.7548 164.341 35.5248 164.946 36.0133 165.83ZM84.0485 32.2855C84.2268 32.3442 84.3517 32.4562 84.326 32.5348C84.3002 32.6133 84.1039 32.7193 83.8895 32.7705C83.6752 32.8218 83.5504 32.7094 83.6121 32.5212C83.6738 32.333 83.8702 32.2268 84.0485 32.2855ZM39.8101 170.761C39.944 171.136 40.3112 171.579 40.6261 171.746C41.0626 171.976 41.2997 171.828 41.6218 171.124C42.0042 170.288 41.8309 169.59 41.1843 169.362C41.0516 169.316 40.8747 169.485 40.7915 169.739C40.7084 169.992 40.3986 170.173 40.1035 170.139C39.6545 170.088 39.6064 170.19 39.8101 170.761ZM40.5064 168.417C40.6847 168.476 40.9021 168.306 40.9895 168.039C41.077 167.772 41.0026 167.506 40.8243 167.447C40.646 167.388 40.4286 167.559 40.3411 167.825C40.2537 168.092 40.3281 168.359 40.5064 168.417ZM43.4244 175.468C43.7022 175.559 43.8873 175.459 43.8354 175.245C43.7835 175.031 43.6039 174.81 43.436 174.755C43.2681 174.7 43.0832 174.8 43.0249 174.978C42.9667 175.156 43.1465 175.376 43.4244 175.468ZM44.3716 174.705C44.6688 174.803 44.9108 174.709 44.9095 174.497C44.9083 174.285 44.7687 174.065 44.5994 174.009C44.4302 173.954 44.188 174.047 44.0615 174.218C43.935 174.388 44.0743 174.607 44.3716 174.705ZM46.5796 179.663C47.7571 179.927 48.4188 179.439 47.5828 178.923C46.7444 178.406 45.8486 178.416 45.6756 178.945C45.5618 179.291 45.8148 179.493 46.5796 179.663ZM46.1753 181.455C46.3454 181.253 46.4252 180.97 46.3528 180.828C46.2803 180.685 46.1413 180.85 46.0435 181.196C45.9356 181.578 45.9873 181.679 46.1753 181.455ZM47.2332 181.498C47.3129 181.655 47.5291 181.834 47.7136 181.895C47.9165 181.962 47.9468 181.805 47.7904 181.496C47.6483 181.216 47.4321 181.038 47.3099 181.099C47.1874 181.161 47.153 181.34 47.2332 181.498ZM100.738 21.2989C100.816 21.3248 100.923 21.5211 100.975 21.7353C101.027 21.9494 100.915 22.0737 100.726 22.0116C100.537 21.9495 100.43 21.7531 100.489 21.5752C100.547 21.3974 100.659 21.273 100.738 21.2989ZM128.608 30.2268C128.832 30.4149 128.73 30.4663 128.348 30.3575C128.001 30.259 127.835 30.1197 127.978 30.0478C128.121 29.9758 128.404 30.0563 128.608 30.2268ZM140.967 28.182C141.21 28.1813 141.213 28.4173 140.975 28.7856C140.76 29.1179 140.476 29.2602 140.342 29.102C140.043 28.7478 140.426 28.1839 140.967 28.182ZM101.611 192.582C101.836 192.77 101.734 192.822 101.351 192.713C101.005 192.614 100.839 192.475 100.981 192.403C101.124 192.331 101.408 192.412 101.611 192.582ZM102.027 191.172C102.195 191.228 102.284 191.418 102.226 191.596C102.168 191.774 101.892 191.845 101.615 191.753C101.337 191.662 101.247 191.471 101.416 191.329C101.584 191.188 101.859 191.117 102.027 191.172ZM99.2831 206.346C99.4961 206.77 99.4468 206.794 99.0422 206.467C98.7624 206.24 98.6418 206 98.7743 205.934C98.9064 205.867 99.1355 206.052 99.2831 206.346ZM105.301 203.781C105.472 203.578 105.551 203.296 105.479 203.153C105.406 203.01 105.267 203.176 105.17 203.521C105.062 203.903 105.113 204.005 105.301 203.781ZM119.532 209.472C120.048 209.27 120.114 209.341 119.929 209.906C119.775 210.374 119.577 210.475 119.282 210.236C119.048 210.045 118.87 209.85 118.885 209.802C118.901 209.754 119.192 209.606 119.532 209.472ZM118.487 219.989C118.712 220.177 118.61 220.229 118.227 220.12C117.881 220.021 117.715 219.882 117.857 219.81C118 219.738 118.284 219.819 118.487 219.989ZM178.887 89.4054C179.111 89.5936 179.01 89.6449 178.627 89.5362C178.281 89.4376 178.114 89.2983 178.257 89.2264C178.4 89.1545 178.683 89.2349 178.887 89.4054ZM152.111 190.095C152.456 189.959 152.694 189.76 152.639 189.651C152.488 189.353 151.723 189.606 151.595 189.997C151.525 190.212 151.719 190.248 152.111 190.095ZM173.002 130.165C173.216 130.114 173.317 130.299 173.226 130.576C173.136 130.853 172.915 131.032 172.737 130.973C172.559 130.915 172.458 130.73 172.513 130.562C172.567 130.395 172.788 130.216 173.002 130.165ZM183.042 101.609C183.234 101.563 183.403 101.762 183.418 102.052C183.436 102.402 183.308 102.466 183.034 102.243C182.557 101.855 182.559 101.725 183.042 101.609ZM181.168 129.563C181.393 129.751 181.291 129.803 180.908 129.694C180.562 129.595 180.396 129.456 180.538 129.384C180.681 129.312 180.965 129.392 181.168 129.563Z"
    fill="#F0F0F0" />
</svg>
