<svg width="90" height="108" viewBox="0 0 90 108" fill="none" xmlns="http://www.w3.org/2000/svg">
  <g clip-path="url(#clip0_5402_11519)">
    <path
      d="M77.6128 33.7427C83.3394 30.3256 88.5086 39.2789 82.6851 42.5282C76.959 45.9461 71.7898 36.9928 77.6128 33.7427Z"
      fill="white" />
    <path
      d="M82.2405 41.5303C81.8514 41.8199 81.2275 42.239 80.9568 42.1836C80.969 42.0767 80.9445 42.1098 80.931 42.1985C80.9055 42.1543 80.7103 42.2051 80.8335 42.0891C80.6775 42.0413 80.3395 42.3004 80.41 42.1458C80.2099 42.0497 80.0322 42.4778 79.9162 42.3311C79.5798 42.5053 80.1038 42.2338 79.8136 42.5301C79.5503 42.5383 79.4571 42.3715 79.2114 42.5224C79.1893 42.4123 79.1857 42.3465 79.1372 42.4534C79.0871 42.3405 78.8573 42.4662 78.9965 42.3429C78.7551 42.3575 78.9269 42.1944 78.753 42.2838C78.8988 42.4383 78.4736 42.4342 78.6931 42.3184C78.5493 42.3795 78.3396 42.2669 78.2912 42.169C78.1304 42.19 78.2249 42.2293 78.169 42.3305C78.1379 42.1977 77.9928 42.3863 77.8933 42.263C77.9135 42.2314 77.9627 42.208 77.9816 42.26C78.3208 42.0012 78.0905 42.0403 77.9232 42.2148C77.8311 42.2061 77.9353 42.101 77.9009 42.1359C77.7868 42.1608 77.6782 42.1286 77.7686 42.1293C77.3938 41.8306 77.9168 41.9918 77.5594 41.7669L77.5269 41.8386C77.2575 41.9272 77.6226 41.7205 77.4744 41.6513C77.3996 41.7284 77.2205 41.5233 77.3215 41.3601C76.9263 41.1101 77.4249 41.3903 77.2011 41.4546C77.0814 41.37 76.5465 41.1407 76.845 41.2269C76.7601 40.9764 76.8208 41.1411 76.619 40.8722C76.555 40.7035 76.1133 40.8197 76.2892 40.6742C76.3169 40.8359 76.3106 40.5131 76.4073 40.5371C76.2947 40.5382 76.3231 40.6067 76.2502 40.4401C76.1776 40.6648 75.9662 40.2337 76.153 40.3296C76.154 40.1842 76.0589 40.291 76.0021 40.2329C75.9697 40.2048 75.9316 40.1738 75.9066 40.2252C75.9266 40.1757 75.8914 40.0762 75.9604 40.1572C75.9967 40.0973 75.8068 40.0522 75.8903 39.9411C75.8465 39.8126 75.6166 39.6738 75.946 39.6364C75.5665 39.6238 76.144 39.4801 75.9202 39.2519C75.8256 39.3964 75.5884 39.1729 75.5474 39.0388C75.2468 39.1016 75.9129 38.5403 75.449 38.7422C75.3728 38.6454 75.5699 38.5067 75.4582 38.4464C75.4802 38.4337 75.6867 38.2675 75.5346 38.3843C75.3355 38.1568 75.5473 38.1014 75.3615 38.018C75.5681 37.9676 75.4371 37.6968 75.592 37.7601C75.3642 37.681 75.5059 37.4604 75.6412 37.3933C75.5364 37.296 75.4902 37.0811 75.6917 37.1305C75.6075 37.0283 75.9472 36.8931 75.7434 36.7662C75.8695 36.7323 75.5033 36.4345 75.8912 36.5141C75.8478 36.4513 75.4084 36.2438 75.7486 36.2829L75.6674 36.1931C75.8328 35.8979 76.0961 36.5695 76.0435 36.1876C76.2405 36.2485 76.2572 36.146 76.0535 36.1698C76.0657 36.028 75.858 35.8154 76.004 35.7441C76.02 35.8577 75.8557 35.4224 75.9043 35.4682C75.6735 35.4188 75.941 35.3881 76.0172 35.3571C75.9005 35.3616 75.9137 35.2671 76.006 35.2448C76.1113 35.3397 76.1043 35.4536 76.1526 35.285C76.2008 35.1163 75.9592 35.2478 76.0257 35.1126C76.0041 34.9384 76.2732 34.9807 76.1767 34.8327C76.3982 34.7048 77.1111 34.8254 77.0507 34.4509C77.0538 34.507 77.2397 34.4366 77.1571 34.5582L77.2137 34.4916C77.3066 34.5158 77.1455 34.6308 77.2782 34.654C77.3433 34.5915 77.3021 34.4326 77.4227 34.4049C77.4522 34.5086 77.4732 34.3278 77.5159 34.4349C77.5288 34.4784 77.4313 34.5127 77.4937 34.5156C77.6776 34.4225 77.4728 34.3849 77.523 34.2651C77.6702 34.1382 77.6732 34.4429 77.7708 34.2318C77.4786 34.3476 77.7711 34.1518 77.7868 34.0299C77.5111 34.0483 77.5294 34.0607 77.4021 34.2291C77.4097 34.0899 77.3349 34.2389 77.2822 34.2843C77.2219 34.1624 77.0992 34.1284 77.2173 34.3068C77.1471 34.2605 77.0155 34.2656 77.1222 34.1211C76.8724 34.1246 76.9232 34.7102 76.8308 34.3802C76.7206 34.5047 76.6617 34.5637 76.6426 34.366C76.662 34.4767 76.2493 34.2787 76.2444 34.1407L76.1177 34.2977C76.0706 34.225 75.9574 34.3004 76.0763 34.2717C75.9532 34.5315 75.8161 34.5218 75.703 34.8357C75.7191 34.6656 75.513 34.9094 75.5724 34.7583C75.5205 34.8752 75.7505 35.4312 75.6867 35.1456C75.6836 35.3031 75.6537 35.3214 75.5165 35.3536C75.5833 35.4149 75.5875 35.4065 75.5078 35.4366C75.5546 35.4195 75.5426 35.5512 75.5009 35.5334C75.2021 35.3205 75.2104 35.7011 75.3809 35.7704C75.1996 35.8961 75.2545 35.9702 75.1294 36.2511C75.006 36.0707 74.9735 36.5907 74.7208 36.6278C74.7066 36.9302 74.7577 37.3089 74.6878 37.6043C74.5178 37.6725 74.623 37.8284 74.6471 38.0331C74.5505 37.9131 74.6385 38.1479 74.5651 38.1503C74.5286 38.0136 74.5194 38.2166 74.6117 38.1663C74.5764 38.2506 74.5167 38.4029 74.5594 38.2754C74.638 38.2241 74.6864 38.4218 74.6095 38.3623C74.6138 38.4677 74.6874 38.7267 74.5553 38.6362C74.5887 38.8535 74.6846 38.904 74.5801 39.0751C74.7418 39.0048 74.5327 39.6606 74.7076 39.8092C74.5709 39.8283 74.8045 39.8931 74.6346 39.9053L74.7587 39.9275C74.6539 40.0369 74.402 40.2376 74.366 40.4171C74.6642 40.649 74.4271 41.299 74.731 41.3172C74.5431 41.4367 75.0086 41.5983 75.1263 41.734C74.8987 41.7286 75.3122 41.9262 75.3364 42.0979C75.5304 42.1466 75.9586 42.167 75.8487 42.1256C76.2667 42.5622 76.622 42.6995 77.0052 43.0443C77.0136 43.2042 77.2061 42.9753 77.3286 43.24C77.6118 43.7305 78.689 44.2297 79.1055 44.4765C80.3427 44.6168 81.5634 44.1137 82.9701 43.4912C83.254 43.1717 83.6063 42.9195 84.0007 42.7534C83.8156 42.7605 84.1528 42.5807 84.1876 42.5307C84.1383 42.4453 84.262 42.5247 84.2799 42.5153C84.2696 42.3416 84.7958 42.0178 84.6689 42.0292C84.5167 41.7656 84.8189 41.4304 84.592 41.3089C86.7357 38.9181 86.8053 35.3246 83.9619 32.9277C82.1443 30.7927 76.968 33.1821 77.8644 33.9332C78.3783 33.7981 78.6025 33.1598 79.1442 33.2522C79.1745 33.3046 79.0359 33.2888 79.1104 33.3337C79.2446 33.2701 79.3882 33.4418 79.6927 33.5066C81.0959 33.9345 82.7027 34.1949 83.7562 36.0317C83.9514 35.9459 84.0249 37.0227 84.2733 37.3216C84.182 37.3124 84.2335 37.7678 84.3531 37.7367C84.3471 37.8401 84.2799 37.8359 84.3842 37.9184C84.3173 37.9182 84.3187 37.9643 84.3255 38.0182C84.4016 38.6931 83.9105 39.7135 84.0502 39.8365C83.685 39.7119 83.8944 40.5125 83.5239 40.4139C83.4855 40.5489 83.624 40.456 83.6628 40.5564C83.6414 40.6526 83.5576 40.6091 83.527 40.5649C83.5083 40.5937 83.4712 40.6889 83.4641 40.6012C83.4583 40.7663 82.9787 40.9344 83.2207 40.9664C83.1933 41.094 82.9612 41.1651 82.9728 41.0975C82.9959 41.2689 82.8015 41.2633 82.9071 41.0905C82.7334 41.3925 82.6425 41.4749 82.2405 41.5303Z"
      fill="white" />
  </g>
  <path fill-rule="evenodd" clip-rule="evenodd"
    d="M29.4002 34.0417C29.2721 33.2195 29.1778 32.4071 29.1201 31.595C29.0331 30.377 29.1092 29.1517 29.0872 27.9344C29.0774 27.418 29.0313 26.0714 29.0582 25.8781C29.3015 24.194 30.6569 23.9531 31.053 23.912C31.2447 23.8868 33.2123 23.6907 33.6116 25.89C34.1014 28.5791 34.2377 31.2821 34.0238 33.9254C34.4279 36.1801 35.137 38.4294 36.0839 40.4697C39.8518 48.5847 47.196 49.4618 55.1635 49.4895C56.389 49.4866 57.3954 50.4674 57.4457 51.6943C57.4959 52.9303 56.5718 53.988 55.3508 54.0831C50.8928 54.4597 42.9515 57.9543 40.1777 61.6622C39.5975 62.4384 39.2438 64.324 38.7834 66.1712C38.1409 68.7353 37.3824 71.2702 36.5526 72.3291C36.428 72.4935 34.9172 74.1707 34.4693 74.4139C33.3931 74.9902 32.5408 74.6382 32.0581 74.3186C31.5754 73.999 31.032 73.3744 30.8238 72.3484C30.606 71.2761 30.8249 69.0846 30.7945 68.6141C30.6837 66.907 30.3826 63.5566 29.7237 60.6717C29.3684 59.1183 28.9871 57.6844 28.3376 56.9663C25.9333 54.3081 22.0372 54.6458 18.755 55.0374C18.3781 55.0787 18.0011 55.1292 17.6252 55.1705C16.2865 55.5499 14.8665 55.8268 13.3674 55.9829C11.1035 56.2215 10.7553 54.1242 10.7367 53.9857C10.698 53.681 10.5591 52.1119 12.2703 51.5068C12.4569 51.4446 13.8321 51.1578 14.3618 51.0447C15.0999 50.8882 15.8458 50.7686 16.5944 50.6583C24.3401 48.3413 28.6088 41.61 29.4002 34.0417ZM31.9549 42.4548C34.8003 48.5574 39.1892 51.545 44.4157 52.9391L44.4148 52.9391C41.1226 54.6213 38.1213 56.7405 36.5191 58.8867C35.911 59.6995 35.343 61.3425 34.8267 63.189C34.5778 61.4618 34.2359 59.6227 33.7747 58.0496C33.25 56.2543 32.5332 54.7609 31.7245 53.8656C30.1633 52.1401 28.1905 51.1654 26.0631 50.6681C28.6418 48.4237 30.6097 45.6092 31.9549 42.4548Z"
    fill="white" stroke="white" stroke-width="1.09679" />
  <g clip-path="url(#clip1_5402_11519)">
    <path
      d="M6.70423 95.6454C7.81401 89.9851 31.6679 95.6478 30.1112 101.202C29.0034 106.863 5.14957 101.2 6.70423 95.6454Z"
      fill="white" />
    <path
      d="M27.6268 100.511C27.6603 100.947 27.6283 101.605 27.1641 101.679C26.9773 101.578 27.0077 101.618 27.1581 101.704C27.0404 101.676 26.8779 101.81 26.821 101.65C26.5235 101.678 26.5669 102.064 26.3671 101.893C25.9191 101.898 26.496 102.362 26.0637 102.284C25.9482 102.593 26.1278 102.111 26.3054 102.508C25.9718 102.635 25.5314 102.529 25.4918 102.775C25.2536 102.687 25.1239 102.629 25.2624 102.747C24.9818 102.669 24.9155 102.886 24.8661 102.712C24.5735 102.835 24.4919 102.611 24.4309 102.77C24.9175 102.842 24.3457 103.032 24.4171 102.828C24.3423 102.948 23.8504 102.943 23.6004 102.877C23.4269 102.969 23.6269 102.961 23.7447 103.077C23.4514 102.973 23.6169 103.207 23.251 103.142C23.2177 103.105 23.2385 103.061 23.3623 103.099C23.3211 102.714 23.0898 102.853 23.1991 103.085C23.0604 103.119 22.9991 102.978 23.0196 103.025C22.9156 103.099 22.7105 103.12 22.8318 103.079C21.7674 102.982 22.7674 102.889 21.8662 102.85L21.9592 102.929C21.7701 103.131 21.8618 102.78 21.5339 102.785C21.5811 102.888 20.9542 102.786 20.7784 102.594C19.7795 102.55 20.9728 102.574 20.7981 102.733C20.4786 102.712 19.3337 102.75 19.8934 102.691C19.3052 102.506 19.6983 102.626 18.9202 102.477C18.515 102.355 18.1497 102.66 18.1069 102.449C18.4506 102.582 17.8294 102.296 18.0033 102.273C17.8561 102.325 18.0237 102.374 17.6108 102.258C17.9409 102.492 16.8422 102.202 17.2719 102.203C16.9973 102.072 17.0739 102.211 16.8883 102.185C16.7918 102.175 16.6825 102.164 16.7469 102.221C16.6795 102.168 16.444 102.095 16.6892 102.136C16.6236 102.066 16.2861 102.112 16.1859 101.975C15.884 101.88 15.3154 101.86 15.6814 101.677C15.1542 101.838 15.6474 101.447 14.9173 101.344C15.0661 101.517 14.3272 101.424 14.0183 101.323C13.7386 101.516 13.5567 100.711 13.3246 101.102C13.0398 101.05 13.0379 100.837 12.7752 100.833C12.7803 100.812 12.7388 100.57 12.7587 100.743C12.0627 100.63 12.2385 100.484 11.8337 100.494C12.0121 100.355 11.3242 100.172 11.6499 100.159C11.1975 100.191 10.9667 99.9295 11.0188 99.8079C10.6952 99.7685 10.2258 99.5971 10.5869 99.5498C10.2813 99.4967 10.4752 99.2213 9.96389 99.2003C10.0669 99.1127 9.01585 99.0126 9.68143 98.9076C9.50465 98.8711 8.52773 98.8851 9.05346 98.7655L8.77508 98.722C8.43415 98.3827 10.0585 98.864 9.26359 98.5461C9.64069 98.5112 9.46828 98.4119 9.24315 98.5257C8.99009 98.3933 8.31107 98.2975 8.36936 98.1673C8.60617 98.2617 7.56189 97.9468 7.71336 97.9657C7.31331 98.0264 7.61001 97.8773 7.65221 97.815C7.50589 97.8721 7.34405 97.7815 7.42409 97.7196C7.74405 97.7566 7.9509 97.8618 7.69479 97.6889C7.43869 97.516 7.3678 97.7436 7.19929 97.5923C6.83987 97.4463 7.27721 97.3618 6.86832 97.2733C6.91938 97.0581 8.0939 96.842 7.30289 96.5344C7.41353 96.5832 7.52653 96.4357 7.64775 96.582L7.59634 96.4967C7.76559 96.4761 7.77013 96.6523 7.99027 96.6127C7.95788 96.5272 7.60156 96.4037 7.70896 96.3242C7.9451 96.4036 7.62963 96.2322 7.88965 96.3087C7.98929 96.3417 7.9251 96.4167 8.0134 96.391C8.08043 96.224 7.73757 96.2835 7.57666 96.1535C7.531 95.973 8.11354 96.2443 7.84227 96.0111C7.67446 96.2475 7.69074 95.9393 7.48017 95.8232C7.14939 95.9649 7.1972 95.9677 7.3479 96.1762C7.09379 96.0482 7.27745 96.2155 7.29373 96.2801C6.98227 96.1983 6.75495 96.2238 7.25034 96.3297C7.06925 96.3202 6.90434 96.3845 6.77164 96.2067C6.4468 96.3234 7.62604 96.8243 6.87694 96.571C6.96715 96.7325 7.00094 96.8121 6.60043 96.6439C6.83612 96.7341 5.91274 96.7445 5.64439 96.6232L5.77436 96.8213C5.57399 96.7777 5.56684 96.8966 5.67007 96.8168C5.9999 97.1052 5.79961 97.1589 6.24547 97.4912C5.94404 97.3317 6.13344 97.6436 5.92539 97.4813C6.07831 97.6095 7.43909 98.0025 6.8122 97.7759C7.10715 97.9183 7.10215 97.9482 6.98145 98.0394C7.18637 98.0639 7.17598 98.0545 7.12727 98.1176C7.15701 98.0811 7.39116 98.2044 7.30195 98.2073C6.50146 98.1527 7.23498 98.4895 7.59269 98.474C7.59069 98.6689 7.80425 98.7102 8.17154 99.0184C7.66548 98.9131 8.6094 99.3932 8.34455 99.5412C8.89999 99.8183 9.6867 100.134 10.1546 100.43C10.0585 100.568 10.494 100.66 10.9147 100.832C10.5588 100.769 11.1212 100.939 11.0285 100.974C10.7206 100.869 11.0937 101.055 11.1207 100.968C11.2339 101.059 11.4437 101.222 11.2584 101.089C11.2651 101.007 11.7046 101.162 11.4898 101.144C11.6955 101.236 12.2848 101.435 11.9378 101.414C12.3947 101.593 12.6177 101.595 12.804 101.795C12.8849 101.659 13.8526 102.341 14.3667 102.394C14.2215 102.473 14.6544 102.425 14.4522 102.513L14.659 102.477C14.7277 102.622 14.7745 102.916 15.0676 103.093C15.9033 103.165 16.8228 103.855 17.2606 103.733C17.2381 103.925 18.1623 103.858 18.5761 103.926C18.2639 104.025 19.1875 104.014 19.5456 104.156C19.8955 104.112 20.5021 103.935 20.2778 103.948C21.6611 104.149 22.3931 104.11 23.5561 104.245C23.8707 104.384 23.6914 104.092 24.3565 104.273C25.6632 104.583 28.04 104.54 29.061 104.572C30.9686 104.135 31.6328 103.13 32.3172 101.934C32.0873 101.519 32.0758 101.133 32.2837 100.805C32.0515 100.896 32.1577 100.582 32.1089 100.521C31.8814 100.467 32.1961 100.482 32.2021 100.465C31.8586 100.315 31.942 99.7858 31.7952 99.8536C31.093 99.6869 30.8576 99.2496 30.3258 99.244C28.6309 96.1303 21.9015 92.883 13.5794 92.0304C7.11511 90.9459 4.78448 95.4365 7.39951 95.7013C7.82471 95.3469 6.91039 94.6737 7.80447 94.5103C7.94412 94.5434 7.73021 94.5922 7.91417 94.5985C7.97165 94.4807 8.48808 94.569 9.01504 94.4887C11.6887 94.2339 14.3145 93.7366 19.199 94.9016C19.2952 94.7361 21.4368 95.6662 22.3336 95.8208C22.1951 95.854 23.1281 96.2382 23.2277 96.156C23.4158 96.2512 23.3188 96.278 23.6139 96.3045C23.5246 96.3346 23.614 96.3753 23.7255 96.4205C25.1076 96.9898 26.3932 98.1261 26.812 98.1726C26.091 98.2271 27.8886 98.8484 27.21 98.9286C27.4153 99.0668 27.4226 98.9207 27.6647 98.9929C27.8189 99.0887 27.6253 99.0879 27.5007 99.0622C27.5305 99.0965 27.6622 99.1986 27.4862 99.1233C27.7919 99.2737 27.4748 99.642 27.8565 99.5607C28.0625 99.6874 27.8896 99.8565 27.7766 99.7907C28.1326 99.9336 27.8641 100.017 27.6762 99.8144C28.019 100.163 28.0549 100.279 27.6268 100.511Z"
      fill="white" />
  </g>
  <g clip-path="url(#clip2_5402_11519)">
    <path
      d="M70.3513 20.8644C67.4422 2.95452 78.3953 1.23916 81.0991 19.1812C84.0091 37.091 73.056 38.8064 70.3513 20.8644Z"
      fill="white" />
    <path
      d="M79.8999 19.0553C80.1623 20.3412 80.5321 22.3486 80.4249 22.9348C80.3064 22.7772 80.3396 22.8757 80.4374 23.0148C80.3834 23.0233 80.4085 23.555 80.2979 23.1187C80.2183 23.4376 80.4547 24.5635 80.292 24.2078C80.1506 24.5749 80.6041 25.5173 80.4195 25.621C80.5605 26.6412 80.3407 25.0518 80.627 26.1072C80.5929 26.7519 80.3893 26.7765 80.5189 27.55C80.3911 27.4711 80.3163 27.4008 80.4288 27.6462C80.2932 27.6312 80.3971 28.3363 80.281 27.8527C80.2576 28.4523 80.102 27.8421 80.1741 28.3689C80.3724 28.2027 80.2976 29.2229 80.2033 28.5549C80.2484 28.9749 80.0868 29.3452 79.9684 29.3444C79.9655 29.7575 80.0254 29.5768 80.1303 29.833C79.9754 29.7487 80.1642 30.3247 80.0087 30.4166C79.9763 30.33 79.9581 30.1833 80.0198 30.2001C79.784 29.0717 79.7901 29.674 79.9593 30.2868C79.9342 30.4982 79.8328 30.1208 79.8665 30.2459C79.8758 30.5508 79.8216 30.774 79.8373 30.5568C79.4384 31.1019 79.7067 30.0344 79.3939 30.6263L79.4694 30.7906C79.525 31.5467 79.352 30.4181 79.2494 30.6923C79.3241 30.9653 79.0632 31.151 78.8958 30.7115C78.5485 31.3643 78.9469 30.4984 78.9825 31.1153C78.8673 31.3023 78.5203 32.3169 78.6668 31.7004C78.3703 31.6045 78.566 31.6559 78.2294 31.8196C78.0285 31.7714 78.0867 32.9759 77.9516 32.377C78.1386 32.5045 77.7734 32.1323 77.8165 31.9277C77.7992 32.2006 77.8811 32.2143 77.6811 32.1901C77.9225 32.6349 77.4014 32.6272 77.5403 32.2918C77.3765 32.1148 77.4813 32.4724 77.4065 32.5396C77.3693 32.584 77.3281 32.6387 77.3819 32.7606C77.3294 32.653 77.2114 32.6184 77.3141 32.5492C77.2526 32.39 77.1703 32.7937 77.0588 32.4589C76.9066 32.4104 76.7121 32.7979 76.7243 31.9588C76.6475 32.8587 76.5807 31.2937 76.2863 31.5593C76.4336 31.9609 76.1424 32.2647 75.9844 32.2025C76.0055 33.0027 75.4823 30.7226 75.6336 32.0838C75.5118 32.1511 75.3878 31.5094 75.3014 31.7063C75.2907 31.638 75.1373 30.9407 75.2439 31.4475C74.9544 31.6545 74.9269 31.0774 74.8021 31.425C74.7794 30.8664 74.4523 30.8573 74.5493 30.5599C74.4224 31.014 74.197 30.4075 74.1436 30.0009C74.0166 30.1366 73.7665 29.99 73.8555 29.5635C73.7264 29.644 73.63 28.6627 73.4531 29.0016C73.4357 28.6569 73.0394 29.1822 73.1932 28.3426C73.1152 28.3718 72.8085 29.1822 72.9089 28.4089L72.7941 28.4968C72.4884 27.7437 73.2895 27.915 72.85 27.5833C72.9513 27.1814 72.8384 27.0181 72.8316 27.5379C72.6736 27.3383 72.3996 27.5839 72.3433 27.1464C72.474 27.2441 71.9559 27.1178 72.0155 27.0553C71.9217 27.5526 71.9313 26.8707 71.9089 26.6498C71.8947 26.9367 71.7903 26.7914 71.7803 26.5421C71.9048 26.4019 72.0321 26.5557 71.8498 26.2368C71.6676 25.9179 71.776 26.6586 71.6344 26.3357C71.4344 26.1789 71.5265 25.5806 71.3437 25.6357C71.236 24.9481 71.4897 23.3739 71.0573 23.07C71.1211 23.13 71.0724 22.5972 71.1959 22.9422L71.1301 22.7257C71.1727 22.5308 71.2759 23.0575 71.324 22.7653C71.2642 22.5334 71.0781 22.4419 71.0668 22.1179C71.1887 22.1712 70.9882 21.9034 71.1161 21.9293C71.1672 21.9502 71.1898 22.2265 71.2034 22.0796C71.1287 21.5244 71.0525 21.973 70.9257 21.7082C70.8068 21.2008 71.1511 21.5595 70.9291 21.0707C71.0114 21.9143 70.8388 20.9738 70.704 20.7899C70.6792 21.4765 70.6962 21.4473 70.8651 21.9565C70.7093 21.771 70.8651 22.1302 70.9076 22.3118C70.7601 22.3107 70.7015 22.566 70.9222 22.4952C70.8584 22.609 70.8424 22.9324 70.697 22.5015C70.6597 23.1082 71.3287 23.6886 70.9412 23.5153C71.0635 23.9304 71.1203 24.1435 70.8942 23.9521C71.0222 24.0382 70.7307 24.7956 70.5742 24.6416L70.7304 25.1358C70.6407 25.1619 70.707 25.5255 70.6942 25.2042C70.9669 25.8129 70.9334 26.1319 71.2688 26.7814C71.0796 26.5384 71.3206 27.3282 71.16 27.0035C71.2832 27.2689 71.9484 27.3819 71.6157 27.1927C71.7929 27.3894 71.8085 27.4834 71.8223 27.8528C71.9025 27.7655 71.8936 27.7451 71.9144 27.9735C71.9029 27.8402 72.0495 28.0272 72.0224 28.1062C71.733 28.5713 72.1637 29.0081 72.27 28.6802C72.3818 29.2683 72.4745 29.2249 72.7707 29.8637C72.5469 29.9446 73.128 30.6473 73.1281 31.3012C73.467 31.6985 73.9026 32.0297 74.2242 32.553C74.2731 33.0448 74.4663 32.9783 74.7012 33.1659C74.55 33.2547 74.8293 33.3244 74.82 33.5044C74.6597 33.4282 74.8872 33.6941 74.8457 33.4111C74.9349 33.5974 75.0969 33.9243 74.9601 33.6682C74.9151 33.4171 75.1461 33.5378 75.0664 33.6516C75.186 33.768 75.4902 33.9013 75.3664 34.1113C75.6171 34.2916 75.6898 34.1209 75.8656 34.5783C75.8129 34.1041 76.5182 35.3954 76.7148 35.1523C76.7137 35.5047 76.8253 35.0192 76.8111 35.4436L76.8566 35.1711C76.9627 35.555 77.1475 36.4034 77.3441 36.7055C77.6549 36.2651 78.349 37.6169 78.4197 36.9061C78.5235 37.5027 78.7826 36.5744 78.9551 36.4533C78.9115 36.9957 79.2026 36.2359 79.4003 36.3835C79.4873 35.9742 79.5809 34.9664 79.5161 35.1816C80.0776 34.698 80.2911 34.0059 80.7434 33.496C80.9252 33.6678 80.6987 32.9287 81.0175 32.9512C81.6175 32.8572 82.3586 30.8593 82.7057 30.1511C83.0682 27.3366 82.7023 23.7893 82.2324 19.6503C81.9189 18.5822 81.6925 17.4298 81.5703 16.2797C81.5477 16.7344 81.4006 15.7055 81.3499 15.5614C81.2455 15.5778 81.3554 15.3748 81.3478 15.3205C81.1501 15.1367 80.8718 13.4794 80.8637 13.7991C80.5412 13.8496 80.213 12.7184 80.0384 13.1197C77.6954 5.08077 73.6534 0.59884 70.4802 4.57732C67.7717 6.3969 69.6123 21.746 70.6076 20.4865C70.5401 19.0853 69.8571 17.7783 70.0508 16.5831C70.1149 16.573 70.0741 16.8882 70.1371 16.7626C70.0875 16.3626 70.3049 16.2224 70.4283 15.5661C71.1427 12.6965 71.7016 9.13466 73.9476 8.79981C73.8831 8.22604 75.1099 9.34161 75.488 9.10143C75.4626 9.3105 75.9848 9.73295 75.9695 9.40723C76.0851 9.54596 76.0693 9.70285 76.1796 9.55045C76.1682 9.71147 76.2205 9.7636 76.2825 9.8118C77.0564 10.4385 78.1263 12.8477 78.2881 12.6583C78.0872 13.3895 79.0249 13.8458 78.8526 14.6207C78.9985 14.8753 78.9165 14.4298 79.0362 14.4569C79.1411 14.6238 79.0783 14.7736 79.0233 14.7943C79.0527 14.8741 79.1541 15.0778 79.0539 14.9897C79.2392 15.202 79.3496 16.5599 79.4256 16.0148C79.5651 16.2342 79.607 16.8791 79.5327 16.7701C79.7298 16.9202 79.6914 17.3822 79.5139 16.9202C79.8258 17.7013 79.9038 18.0197 79.8999 19.0553Z"
      fill="white" />
  </g>
  <circle cx="34.6351" cy="51.9013" r="8.73573" fill="white" />
  <defs>
    <clipPath id="clip0_5402_11519">
      <rect width="13.6552" height="13.6552" fill="white" transform="translate(77.6274 47.2393) rotate(-120)" />
    </clipPath>
    <clipPath id="clip1_5402_11519">
      <rect width="32.3825" height="11.8032" fill="white" transform="translate(32.3449 107.716) rotate(-166.646)" />
    </clipPath>
    <clipPath id="clip2_5402_11519">
      <rect width="14.6434" height="37.1577" fill="white" transform="translate(85.5781 37.0317) rotate(171.099)" />
    </clipPath>
  </defs>
</svg>
