<svg width="173" height="97" viewBox="0 0 173 97" fill="none" xmlns="http://www.w3.org/2000/svg">
  <path d="M85.9953 90.5615L73.6202 89.7001L75.4159 42.3975L86.7452 45.2799L85.9953 90.5615Z" fill="#305F47" />
  <path d="M57.464 91.4121L75.4146 89.9418L74.7573 36.3145L58.2377 40.0374L57.464 91.4121Z" fill="#D3EDE5" />
  <path
    d="M74.1558 90.5756C74.1447 90.5756 74.1336 90.5756 74.1241 90.5756C73.4682 90.5591 72.9485 90.0455 72.9675 89.4241L74.3301 37.7418L66.481 37.4423C59.1278 37.1623 52.101 36.8958 45.0743 36.6082C44.0793 36.5663 43.3821 36.7191 43.005 37.062C42.6105 37.4214 42.4125 38.1222 42.4172 39.1479C42.441 43.9861 42.4347 48.8273 42.4267 53.6685C42.4172 60.4473 42.4077 67.4598 42.4869 74.3524C42.5202 77.4431 42.7911 80.6042 43.0542 83.6619C43.1793 85.11 43.3029 86.5595 43.4059 88.006C43.4471 88.6244 42.9528 89.1605 42.2984 89.2009C41.671 89.2249 41.0768 88.7727 41.034 88.1542C40.9342 86.7182 40.8075 85.2807 40.6871 83.8431C40.4193 80.7494 40.1436 77.5449 40.1103 74.3749C40.0327 67.4718 40.0422 60.4518 40.0501 53.664C40.0565 48.8288 40.0644 43.9921 40.0406 39.1569C40.0327 37.4708 40.4637 36.2549 41.3573 35.4433C42.2334 34.6496 43.4677 34.2992 45.1772 34.3636C52.2024 34.6496 59.2245 34.9176 66.5776 35.1992L75.5944 35.5436C76.2425 35.569 76.7495 36.0812 76.7352 36.6936L75.3409 89.4794C75.3267 90.0904 74.7975 90.5756 74.1558 90.5756Z"
    fill="#202124" />
  <path
    d="M86.7355 90.5752C86.0795 90.5752 85.5472 90.0721 85.5472 89.4522V45.9968L75.941 44.8408C75.2898 44.7614 74.8287 44.1999 74.9127 43.5844C74.9967 42.969 75.6003 42.5452 76.242 42.6126L86.886 43.8929C87.4801 43.9648 87.9237 44.4425 87.9237 45.007V89.4522C87.9237 90.0721 87.3914 90.5752 86.7355 90.5752Z"
    fill="#202124" />
  <path
    d="M54.7999 90.5758C54.1773 90.5758 53.6544 90.1176 53.6148 89.5231L52.905 78.7806C52.8828 78.4706 53.0001 78.1666 53.2235 77.9405C53.45 77.7144 53.7637 77.5856 54.0917 77.5856H61.3086C61.9345 77.5856 62.4526 78.0453 62.4953 78.6353L63.2495 89.3793C63.2923 89.9978 62.7964 90.5339 62.1436 90.5743C61.5114 90.6072 60.922 90.146 60.8777 89.5276L60.198 79.8332H55.3545L55.9851 89.3838C56.0263 90.0038 55.5288 90.5368 54.8728 90.5743C54.8491 90.5743 54.8253 90.5758 54.7999 90.5758Z"
    fill="#202124" />
  <path
    d="M67.7754 91.4999C61.029 91.4999 54.2827 91.4939 47.5395 91.4685C44.8746 91.458 42.1811 91.3262 39.5779 91.1989C38.3469 91.139 37.1158 91.0791 35.8863 91.0312C35.2304 91.0058 34.7202 90.4832 34.7471 89.8647C34.774 89.2448 35.3191 88.7342 35.9814 88.7866C37.2204 88.8345 38.4578 88.8959 39.6983 88.9558C42.2762 89.0816 44.9411 89.2119 47.5474 89.2208C58.3387 89.2583 69.1269 89.2523 79.9182 89.2478L92.0578 89.2433C92.7137 89.2433 93.2461 89.7464 93.2461 90.3664C93.2461 90.9863 92.7137 91.4894 92.0578 91.4894L79.9198 91.4939C75.8701 91.4969 71.8219 91.4999 67.7754 91.4999Z"
    fill="#202124" />
  <path
    d="M79.9597 71.8278C79.9121 71.8278 79.8598 71.8248 79.8091 71.8173C79.158 71.7395 78.6969 71.1779 78.7809 70.5625L79.2657 66.9073C79.3465 66.2918 79.9406 65.8561 80.5918 65.9325C81.243 66.0088 81.7041 66.5703 81.6233 67.1858L81.1369 70.844C81.0624 71.413 80.5506 71.8278 79.9597 71.8278Z"
    fill="#202124" />
  <path
    d="M79.7187 87.0318C79.6696 87.0318 79.6189 87.0288 79.5666 87.0228C78.917 86.945 78.4559 86.3834 78.5383 85.768L79.0232 82.1113C79.1055 81.4973 79.7029 81.0691 80.3493 81.1379C81.0005 81.2143 81.4615 81.7759 81.3807 82.3913L80.8959 86.048C80.8199 86.617 80.3097 87.0318 79.7187 87.0318Z"
    fill="#202124" />
  <path
    d="M80.205 55.4549C80.1559 55.4549 80.1052 55.4519 80.0545 55.4459C79.4033 55.3681 78.9423 54.8065 79.0247 54.1911L79.5111 50.5344C79.5919 49.9189 80.1924 49.4832 80.8372 49.561C81.4884 49.6374 81.9495 50.1989 81.8671 50.8144L81.3822 54.4711C81.3062 55.0371 80.7944 55.4549 80.205 55.4549Z"
    fill="#202124" />
  <path
    d="M47.4212 86.0029C47.3721 86.0029 47.3214 86 47.2691 85.994C46.6179 85.9146 46.1569 85.353 46.2408 84.7391L46.7257 81.0824C46.8065 80.467 47.4101 80.0372 48.0518 80.1076C48.703 80.1839 49.164 80.7455 49.0832 81.3609L48.5968 85.0191C48.5239 85.5882 48.0122 86.0029 47.4212 86.0029Z"
    fill="#202124" />
  <path
    d="M47.665 73.325C47.6159 73.325 47.5652 73.322 47.5145 73.3145C46.8633 73.2367 46.4022 72.6751 46.4846 72.0597L46.971 68.4045C47.0518 67.789 47.6523 67.3578 48.2972 67.4297C48.9484 67.506 49.4094 68.0676 49.327 68.683L48.8422 72.3412C48.7662 72.9102 48.2544 73.325 47.665 73.325Z"
    fill="#202124" />
  <path
    d="M47.9072 59.4834C47.8581 59.4834 47.8074 59.4804 47.7567 59.4744C47.1055 59.3951 46.6444 58.8335 46.7268 58.2181L47.2116 54.5629C47.294 53.9474 47.8929 53.5177 48.5378 53.588C49.189 53.6644 49.65 54.2259 49.5692 54.8414L49.0844 58.4996C49.0083 59.0686 48.4966 59.4834 47.9072 59.4834Z"
    fill="#202124" />
  <path
    d="M47.665 46.6773C47.6159 46.6773 47.5652 46.6743 47.5145 46.6683C46.8633 46.5905 46.4022 46.0289 46.4846 45.4135L46.971 41.7582C47.0518 41.1428 47.6523 40.7145 48.2972 40.7834C48.9484 40.8598 49.4094 41.4213 49.327 42.0367L48.8422 45.695C48.7662 46.264 48.2544 46.6773 47.665 46.6773Z"
    fill="#202124" />
  <path
    d="M67.4648 86.0029C67.4157 86.0029 67.365 86 67.3143 85.994C66.6631 85.9146 66.202 85.353 66.2844 84.7391L66.7708 81.0824C66.8516 80.467 67.4553 80.0372 68.097 80.1076C68.7482 80.1839 69.2092 80.7455 69.1268 81.3609L68.642 85.0191C68.566 85.5882 68.0542 86.0029 67.4648 86.0029Z"
    fill="#202124" />
  <path
    d="M67.7089 73.325C67.6598 73.325 67.6091 73.322 67.5584 73.3145C66.9072 73.2367 66.4462 72.6751 66.5286 72.0597L67.0134 68.4045C67.0958 67.789 67.6963 67.3578 68.3395 67.4297C68.9907 67.506 69.4518 68.0676 69.371 68.683L68.8862 72.3412C68.8101 72.9102 68.2983 73.325 67.7089 73.325Z"
    fill="#202124" />
  <path
    d="M67.9494 59.4834C67.9019 59.4834 67.8496 59.4804 67.7989 59.4744C67.1477 59.3951 66.6866 58.8335 66.7706 58.2181L67.2554 54.5629C67.3362 53.9474 67.9351 53.5177 68.5816 53.588C69.2328 53.6644 69.6938 54.2259 69.613 54.8414L69.1266 58.4996C69.0521 59.0686 68.5404 59.4834 67.9494 59.4834Z"
    fill="#202124" />
  <path
    d="M67.7089 46.6773C67.6598 46.6773 67.6091 46.6743 67.5584 46.6683C66.9072 46.5905 66.4462 46.0289 66.5286 45.4135L67.0134 41.7582C67.0958 41.1428 67.6963 40.7145 68.3395 40.7834C68.9907 40.8598 69.4518 41.4213 69.371 42.0367L68.8862 45.695C68.8101 46.264 68.2983 46.6773 67.7089 46.6773Z"
    fill="#202124" />
  <path
    d="M57.7121 73.325C57.6646 73.325 57.6123 73.322 57.5616 73.3145C56.9104 73.2367 56.4493 72.6751 56.5333 72.0597L57.0181 68.4045C57.0989 67.789 57.6978 67.3578 58.3443 67.4297C58.9955 67.506 59.4565 68.0676 59.3757 68.683L58.8893 72.3412C58.8148 72.9102 58.3031 73.325 57.7121 73.325Z"
    fill="#202124" />
  <path
    d="M57.955 59.4834C57.9059 59.4834 57.8552 59.4804 57.8045 59.4744C57.1533 59.3951 56.6923 58.8335 56.7747 58.2181L57.2611 54.5629C57.3435 53.9474 57.9392 53.5177 58.5872 53.588C59.2384 53.6644 59.6979 54.2259 59.6171 54.8414L59.1322 58.4996C59.0562 59.0686 58.5444 59.4834 57.955 59.4834Z"
    fill="#202124" />
  <path
    d="M57.7121 46.6773C57.6646 46.6773 57.6123 46.6743 57.5616 46.6683C56.9104 46.5905 56.4493 46.0289 56.5333 45.4135L57.0181 41.7582C57.0989 41.1428 57.6978 40.7145 58.3443 40.7834C58.9955 40.8598 59.4565 41.4213 59.3757 42.0367L58.8893 45.695C58.8148 46.264 58.3031 46.6773 57.7121 46.6773Z"
    fill="#202124" />
  <path d="M85 23.699L98.4333 7.49902L116 23.699V88.499H85V23.699Z" fill="white" />
  <path d="M149.618 90.8116L131.829 89.5674L134.41 25.0495L150.696 46.6309L149.618 90.8116Z" fill="#81D5BC" />
  <path d="M108.604 92.0399L134.408 89.9161L133.463 42.8233L109.716 17.832L108.604 92.0399Z" fill="#D3EDE5" />
  <path
    d="M132.598 90.831C132.582 90.831 132.566 90.831 132.553 90.831C131.61 90.8072 130.863 90.0654 130.89 89.1677L132.849 14.5156L121.566 14.083C110.996 13.6786 100.895 13.2935 90.7936 12.8782C89.3633 12.8177 88.3612 13.0383 87.8191 13.5336C87.252 14.0527 86.9673 15.065 86.9741 16.5466C87.0083 23.5351 86.9992 30.5279 86.9878 37.5208C86.9741 47.3124 86.9605 57.4416 87.0743 67.3976C87.1222 71.862 87.5116 76.4279 87.8897 80.8447C88.0696 82.9363 88.2473 85.03 88.3953 87.1194C88.4545 88.0127 87.7439 88.7871 86.8033 88.8455C85.9014 88.8801 85.0473 88.2268 84.9858 87.3335C84.8423 85.2593 84.6601 83.1828 84.487 81.1064C84.1021 76.6378 83.7058 72.009 83.658 67.4301C83.5464 57.4589 83.56 47.3189 83.5714 37.5143C83.5805 30.5301 83.5919 23.5438 83.5578 16.5596C83.5464 14.1241 84.1659 12.3678 85.4504 11.1955C86.7099 10.0491 88.4841 9.54299 90.9416 9.636C101.04 10.0491 111.135 10.4363 121.705 10.8429L134.666 11.3404C135.598 11.3772 136.327 12.1169 136.306 13.0015L134.302 89.2477C134.281 90.1302 133.521 90.831 132.598 90.831Z"
    fill="#202124" />
  <path
    d="M150.68 90.8303C149.737 90.8303 148.972 90.1036 148.972 89.2081V26.4393L135.163 24.7695C134.227 24.6549 133.564 23.8437 133.685 22.9547C133.805 22.0658 134.673 21.4537 135.595 21.551L150.896 23.4003C151.75 23.5041 152.388 24.1941 152.388 25.0096V89.2081C152.388 90.1036 151.623 90.8303 150.68 90.8303Z"
    fill="#202124" />
  <path
    d="M104.774 90.8312C103.879 90.8312 103.128 90.1694 103.071 89.3107L102.05 73.7937C102.018 73.3459 102.187 72.9068 102.508 72.5802C102.834 72.2536 103.285 72.0676 103.756 72.0676H114.13C115.03 72.0676 115.775 72.7316 115.836 73.5838L116.92 89.103C116.982 89.9963 116.269 90.7706 115.331 90.829C114.422 90.8766 113.575 90.2105 113.511 89.3172L112.534 75.3142H105.571L106.478 89.1095C106.537 90.005 105.822 90.775 104.879 90.829C104.845 90.829 104.811 90.8312 104.774 90.8312Z"
    fill="#202124" />
  <path
    d="M123.426 92.1661C113.728 92.1661 104.03 92.1574 94.3368 92.1206C90.506 92.1055 86.6341 91.9152 82.8921 91.7313C81.1224 91.6448 79.3527 91.5583 77.5853 91.4891C76.6424 91.4523 75.909 90.6974 75.9478 89.8041C75.9865 88.9087 76.77 88.1711 77.722 88.2468C79.503 88.316 81.2818 88.4047 83.0651 88.4912C86.7707 88.6729 90.6016 88.8611 94.3482 88.8741C109.861 88.9281 125.369 88.9195 140.881 88.913L158.332 88.9065C159.275 88.9065 160.04 89.6333 160.04 90.5287C160.04 91.4242 159.275 92.1509 158.332 92.1509L140.883 92.1574C135.062 92.1617 129.243 92.1661 123.426 92.1661Z"
    fill="#202124" />
  <path
    d="M142.158 46.2341C142.099 46.238 142.033 46.2402 141.969 46.2389C141.147 46.236 140.51 45.8675 140.548 45.4152L140.76 42.7302C140.795 42.2781 141.49 41.914 142.312 41.9159C143.134 41.9177 143.771 42.2862 143.737 42.7382L143.523 45.4256C143.492 45.8435 142.897 46.1857 142.158 46.2341Z"
    fill="#202124" />
  <path
    d="M141.354 58.13C141.28 58.1349 141.204 58.1375 141.125 58.1378C140.141 58.1391 139.382 57.7328 139.432 57.2296L139.721 54.24C139.771 53.738 140.615 53.3346 141.593 53.3264C142.579 53.3237 143.338 53.73 143.291 54.2331L143.002 57.2226C142.956 57.6879 142.241 58.0718 141.354 58.13Z"
    fill="#202124" />
  <path
    d="M142.055 33.8714C141.981 33.8762 141.905 33.8788 141.828 33.879C140.842 33.8805 140.084 33.4742 140.133 32.9712L140.425 29.9823C140.472 29.4794 141.32 29.0698 142.297 29.0689C143.283 29.0662 144.041 29.4724 143.992 29.9755L143.703 32.9642C143.657 33.4269 142.939 33.8133 142.055 33.8714Z"
    fill="#202124" />
  <path
    d="M95.3839 61.6541C95.31 61.6578 95.2335 61.6584 95.1568 61.6541C94.1723 61.619 93.4472 61.046 93.537 60.3736L94.0662 56.3801C94.1536 55.7077 95.0335 55.1955 96.0081 55.2246C96.9925 55.2581 97.7176 55.8311 97.6278 56.5036L97.1012 60.5002C97.0183 61.1219 96.2711 61.6096 95.3839 61.6541Z"
    fill="#202124" />
  <path
    d="M94.7279 48.8731C94.6539 48.8768 94.5775 48.8777 94.5008 48.8744C93.5168 48.8486 92.7951 48.3431 92.8888 47.7447L93.4405 44.1908C93.5317 43.5926 94.4143 43.1322 95.3884 43.1527C96.3723 43.177 97.094 43.6824 97.0004 44.2809L96.4512 47.8375C96.3648 48.3908 95.615 48.8286 94.7279 48.8731Z"
    fill="#202124" />
  <path
    d="M94.182 38.223C94.1081 38.2267 94.0316 38.2273 93.9549 38.2247C92.9702 38.188 92.245 37.6149 92.3349 36.9424L92.8617 32.9488C92.9516 32.2764 93.8292 31.7659 94.8039 31.7933C95.7884 31.8268 96.5136 32.3999 96.4261 33.0722L95.8994 37.0691C95.8166 37.6908 95.0692 38.1785 94.182 38.223Z"
    fill="#202124" />
  <path
    d="M93.5631 26.1527C93.4892 26.1564 93.4127 26.157 93.3361 26.1544C92.3516 26.1193 91.6264 25.546 91.7163 24.8733L92.2454 20.8784C92.3328 20.2058 93.2128 19.6967 94.1873 19.7226C95.1716 19.7561 95.8968 20.3294 95.807 21.002L95.2804 25C95.1976 25.622 94.4503 26.1082 93.5631 26.1527Z"
    fill="#202124" />
  <path
    d="M124.098 60.2126C124.024 60.2163 123.947 60.2169 123.87 60.2126C122.886 60.1775 122.161 59.6045 122.25 58.932L122.777 54.9386C122.867 54.2662 123.747 53.754 124.719 53.7832C125.704 53.8167 126.429 54.3897 126.342 55.062L125.815 59.0587C125.732 59.6804 124.985 60.168 124.098 60.2126Z"
    fill="#202124" />
  <path
    d="M123.442 47.4329C123.368 47.4366 123.292 47.4375 123.215 47.4342C122.231 47.4084 121.509 46.903 121.603 46.3045L122.152 42.7508C122.246 42.1524 123.128 41.692 124.1 41.7126C125.084 41.7369 125.806 42.2424 125.715 42.8407L125.165 46.3973C125.079 46.9506 124.329 47.3884 123.442 47.4329Z"
    fill="#202124" />
  <path
    d="M123.313 36.7613C123.253 36.7643 123.188 36.7643 123.124 36.761C122.302 36.7161 121.693 36.1372 121.764 35.4657L122.169 31.4782C122.236 30.8069 122.964 30.3039 123.778 30.3394C124.599 30.3811 125.209 30.96 125.142 31.6313L124.735 35.6221C124.673 36.2428 124.054 36.7241 123.313 36.7613Z"
    fill="#202124" />
  <path
    d="M122.276 24.7118C122.202 24.7155 122.126 24.7162 122.049 24.7135C121.065 24.6784 120.339 24.1051 120.429 23.4324L120.956 19.4376C121.046 18.765 121.926 18.2558 122.898 18.2818C123.883 18.3153 124.608 18.8886 124.52 19.5611L123.994 23.5592C123.911 24.1811 123.163 24.6673 122.276 24.7118Z"
    fill="#202124" />
  <path
    d="M109.738 60.9331C109.667 60.9367 109.588 60.9374 109.511 60.9331C108.527 60.898 107.802 60.325 107.894 59.6524L108.421 55.659C108.508 54.9867 109.386 54.4746 110.363 54.5036C111.347 54.5371 112.072 55.1101 111.985 55.7824L111.456 59.7792C111.375 60.4008 110.628 60.8885 109.738 60.9331Z"
    fill="#202124" />
  <path
    d="M109.083 48.1534C109.012 48.157 108.933 48.1581 108.856 48.1547C107.872 48.129 107.151 47.6235 107.247 47.0249L107.796 43.4712C107.887 42.8729 108.767 42.4127 109.744 42.433C110.728 42.4573 111.45 42.9628 111.358 43.5611L110.807 47.1179C110.723 47.671 109.973 48.1088 109.083 48.1534Z"
    fill="#202124" />
  <path
    d="M108.958 37.4816C108.896 37.4847 108.832 37.4847 108.768 37.4814C107.947 37.4365 107.338 36.8576 107.407 36.1862L107.814 32.1986C107.883 31.5271 108.607 31.0244 109.423 31.0598C110.244 31.1015 110.852 31.6804 110.785 32.3518L110.38 36.3425C110.316 36.9633 109.697 37.4445 108.958 37.4816Z"
    fill="#202124" />
  <path
    d="M107.918 25.4324C107.846 25.436 107.767 25.4367 107.691 25.434C106.706 25.3989 105.981 24.8256 106.073 24.1529L106.6 20.1581C106.687 19.4855 107.565 18.9765 108.542 19.0023C109.526 19.0358 110.251 19.609 110.164 20.2816L109.635 24.2797C109.555 24.9015 108.807 25.3877 107.918 25.4324Z"
    fill="#202124" />
  <path
    d="M89.5075 91.2248C100.548 91.2248 111.592 91.2227 122.633 91.2207L158 91.2166C158.5 91.2166 159 90.2153 159 89.363C159 88.5106 158.73 88.1283 157.5 88.1283L122.633 88.1324C91.1697 88.1427 59.7066 88.1447 28.235 88.0995C22.6287 88.0912 16.876 87.91 11.3128 87.735C8.68192 87.6506 4.64505 87.5668 2.00986 87.5009C0.373627 87.4597 0.108948 88.1098 0.0142212 88.9621C-0.0762024 89.8145 0.227219 91.1798 2.00986 91.2251C4.61061 91.291 8.6172 91.3749 11.2223 91.4572C16.8759 91.6363 22.4048 91.1816 28.2091 91.1898C48.6448 91.2166 69.0804 91.2248 89.5075 91.2248Z"
    fill="#202124" />
</svg>
