<svg width="192" height="267" viewBox="0 0 192 267" fill="none" xmlns="http://www.w3.org/2000/svg">
  <path
    d="M121.083 145.383L121.08 145.383C116.118 146.253 101.634 146.982 95.1877 146.838C94.5286 146.824 93.8638 146.817 92.9141 146.811C92.7523 146.81 92.6227 146.809 92.3309 146.808C86.0217 146.774 83.3472 146.549 80.4082 145.452C76.4242 143.965 73.8563 141.001 72.7464 136.1C71.5577 130.85 70.7085 125.194 69.9424 118.036C69.6567 115.367 69.5081 113.818 68.9903 108.255C68.8844 107.118 68.8093 106.316 68.7335 105.52C68.0579 98.3974 67.4479 90.5327 66.574 78.1727C66.6568 79.3438 65.7491 66.4265 65.5068 63.0642C65.1694 58.3819 64.8801 54.554 64.5995 51.1056C63.9019 42.4191 63.7989 33.7314 64.9606 30.2482C66.3749 25.8996 70.1782 22.7609 74.6947 22.199C86.1751 20.4779 100.603 19.1764 108.257 19.3357C108.941 19.3501 109.547 19.3562 110.861 19.3649C114.737 19.3907 116.542 19.4369 118.825 19.6238C126.053 20.2158 131.101 22.0686 134.003 26.0518C135.585 28.2275 136.521 31.3691 137.106 35.6043C137.252 36.6646 137.374 37.7727 137.493 39.058C137.538 39.5507 137.581 40.0463 137.635 40.6887C137.625 40.5701 137.734 41.877 137.762 42.2101C137.797 42.6264 137.828 42.973 137.859 43.2951C137.883 43.5507 137.883 43.5507 137.906 43.8065C138.872 54.3512 138.9 54.6553 139.299 58.5946C139.571 61.278 139.839 63.76 140.115 66.1311C142.628 87.3724 144.134 105.29 144.696 122.669C144.953 130.512 143.782 135.845 139.713 139.337C137.782 140.985 134.638 142.307 130.513 143.419C128.814 143.877 127.022 144.28 125.077 144.659C124.344 144.802 123.624 144.934 122.811 145.079C122.477 145.138 121.319 145.341 121.083 145.383Z"
    fill="#305F47" />
  <path
    d="M118.949 141.373C113.251 142.005 107.52 142.285 101.788 142.209C93.4213 142.027 86.3811 143.141 84.108 133.108C82.0848 124.175 81.3399 112.605 80.4701 103.451C79.0573 88.5625 77.9231 67.9108 76.7073 52.9454C76.3805 48.9111 75.4338 35.0456 76.9956 31.4099C78.5575 27.7743 82.3876 26.6456 85.1412 26.1269C91.7586 24.8494 99.8224 23.8552 107.391 24.0137C114.278 24.1578 125.542 23.4422 130.136 29.777C132.837 33.4943 133.063 42.5715 133.5 46.966C134.154 53.8003 134.764 60.8459 135.586 67.7811C137.604 84.85 139.19 104.282 139.753 121.572C139.911 126.375 139.608 132.551 135.519 136.057C131.698 139.318 122.25 140.97 118.949 141.373Z"
    fill="white" />
  <path
    d="M73.2931 25.1017C70.9394 26.6748 70.1831 30.6838 70.29 37.0122C70.3171 38.6181 70.3939 40.2052 70.5345 42.4105C70.5544 42.723 70.6391 44.0223 70.6596 44.3456C70.7032 45.0352 70.7325 45.5467 70.7528 45.995C70.9424 50.0985 71.2291 54.8587 71.667 61.4253C71.7286 62.3494 71.7937 63.3167 71.8681 64.4169C71.9172 65.1419 72.2101 69.4504 72.2918 70.6606C72.4491 72.9921 72.5698 74.8198 72.676 76.4906C73.665 92.2111 75.1601 108.981 77.1633 127.562C77.7122 132.696 78.86 137.505 80.5949 140.867C80.8383 141.338 81.4179 141.523 81.8897 141.28C82.3615 141.037 82.5467 140.457 82.3034 139.986C80.6984 136.876 79.6005 132.276 79.0745 127.357C77.0741 108.802 75.5815 92.0593 74.5944 76.3695C74.488 74.6951 74.3671 72.8651 74.2097 70.5314C74.128 69.3205 73.835 65.0117 73.786 64.2873C73.7116 63.1876 73.6465 62.2209 73.585 61.2975C73.1479 54.743 72.8618 49.9938 72.673 45.9072C72.6521 45.4461 72.6223 44.9243 72.578 44.2243C72.5574 43.8987 72.4726 42.5988 72.4528 42.2883C72.314 40.1105 72.2385 38.5492 72.212 36.9798C72.117 31.3553 72.7984 27.7435 74.3617 26.6985C74.803 26.4036 74.9214 25.8071 74.6263 25.3661C74.3313 24.9252 73.7343 24.8067 73.2931 25.1017Z"
    fill="#0D323F" />
  <path
    d="M69.1689 58.2682C68.9853 55.5787 68.8473 52.9107 68.7572 50.2896C68.739 49.7595 68.2942 49.3444 67.7637 49.3626C67.2332 49.3809 66.8179 49.8254 66.8361 50.3556C66.927 52.9985 67.066 55.6882 67.2511 58.399C67.2872 58.9282 67.7458 59.328 68.2754 59.2919C68.805 59.2558 69.205 58.7975 69.1689 58.2682Z"
    fill="#0D323F" />
  <path
    d="M70.1425 71.4955C69.9045 68.9253 69.7191 66.1961 69.5784 63.2723C69.5529 62.7424 69.1024 62.3335 68.5722 62.359C68.042 62.3845 67.6328 62.8348 67.6583 63.3646C67.8004 66.3153 67.9877 69.0724 68.2284 71.6725C68.2773 72.2007 68.7454 72.5893 69.274 72.5405C69.8025 72.4916 70.1914 72.0237 70.1425 71.4955Z"
    fill="#0D323F" />
  <path
    d="M89.8134 115.794C95.3522 121.649 106.96 113.995 116.251 105.206C118.443 101.424 121.255 95.2473 115.716 89.3924C110.177 83.5375 101.83 85.2613 92.5384 94.051C83.247 102.841 84.2746 109.939 89.8134 115.794Z"
    fill="#FFD000" />
  <path
    d="M112.584 79.0847C116.189 82.8951 123.194 78.4326 128.729 73.1967C129.988 70.8943 131.566 67.1128 127.961 63.3024C124.357 59.492 119.214 60.3392 113.68 65.575C108.145 70.8109 108.979 75.2742 112.584 79.0847Z"
    fill="#E1EBFF" />
  <path
    d="M100.696 54.8576L111.891 59.7916C112.165 59.9123 112.474 59.9276 112.758 59.8346L122.262 56.7282C123.008 56.4843 123.786 57.0019 123.85 57.7844L123.911 58.5405C123.957 59.1015 123.611 59.6203 123.075 59.7939L113.227 62.9882C112.525 63.2086 111.768 63.1799 111.084 62.907L100.182 58.1029C99.7442 57.9099 99.2336 57.9922 98.8784 58.313L87.247 68.8184C86.9666 69.0717 86.82 69.4411 86.8506 69.8178L87.2993 75.3498C87.3894 76.4607 88.8032 76.8736 89.477 75.9859L97.5107 65.4028C97.7675 65.0617 98.0881 64.7795 98.4519 64.5694C98.7655 64.3879 99.1104 64.2603 99.4728 64.1949C100.256 64.0534 101.063 64.2121 101.734 64.6394L112.931 72.205C113.321 72.469 113.829 72.483 114.234 72.2409L122.847 67.0864C123.619 66.6243 124.608 67.1333 124.681 68.0303L124.747 68.8489C124.785 69.3111 124.556 69.7544 124.157 69.9912L115.102 75.3704C114.601 75.6526 114.033 75.795 113.458 75.782C112.883 75.7693 112.322 75.6017 111.834 75.2972L100.951 67.9439C100.416 67.5823 99.6915 67.7029 99.3022 68.2183L88.2197 82.8918C88.0402 83.1295 87.9543 83.4249 87.9784 83.7219L88.2986 87.6705C88.3827 88.7072 89.646 89.1654 90.3751 88.4237L99.3057 79.339C99.7047 78.9245 100.209 78.6263 100.766 78.4773C101.321 78.3283 101.908 78.3339 102.461 78.4935L113.591 82.0393C113.832 82.1162 114.092 82.1156 114.333 82.0375L124.063 78.8871C124.808 78.6457 125.584 79.1632 125.647 79.9443L125.709 80.701C125.754 81.263 125.407 81.7825 124.87 81.9552L114.868 85.1737C114.275 85.3607 113.64 85.3696 113.042 85.1989L102.253 81.7617C101.816 81.6224 101.337 81.7415 101.016 82.0695L91.9349 91.3516C91.1492 92.1546 91.7814 93.5022 92.9011 93.4114L125.308 90.7828C125.976 90.7286 126.562 91.2266 126.617 91.8951L126.677 92.6415C126.731 93.31 126.233 93.8959 125.565 93.9501L89.0482 96.9121C88.2082 96.9802 87.3757 96.7118 86.7336 96.1661C86.0909 95.6201 85.6922 94.8417 85.624 94.0017L82.3824 54.0371C82.3282 53.3686 82.8262 52.7827 83.4947 52.7285L84.2411 52.6679C84.9096 52.6137 85.4955 53.1117 85.5497 53.7802L86.2811 62.7969C86.3623 63.7985 87.5556 64.2737 88.3032 63.6021L97.373 55.4539C97.5201 55.3207 97.679 55.2023 97.8469 55.0995C98.1835 54.8936 98.5573 54.7506 98.9495 54.6804C99.5368 54.5748 100.142 54.6364 100.696 54.8576Z"
    fill="#305F47" />
</svg>
