<svg width="106" height="151" viewBox="0 0 106 151" fill="none" xmlns="http://www.w3.org/2000/svg">
  <path
    d="M44.8751 104.978C45.3694 107.913 44.0512 114.896 46.457 115.421C46.5559 116.143 47.5116 115.895 45.2211 116.336C46.2345 116.83 47.6928 116.662 45.8391 116.457C46.5229 116.339 49.2582 117.104 47.6928 116.991C47.5116 117.234 48.0224 117.28 46.9348 117.28C46.391 117.222 47.6022 116.838 45.8721 116.882C43.5899 116.304 45.872 117.222 46.9843 117.56C47.1738 117.288 48.9699 117.234 47.8906 117.421C48.8298 117.664 47.1409 117.508 46.9019 117.632C46.6136 118.226 49.4807 118.091 46.9925 118.838C45.7155 119.017 49.6207 119.568 47.594 120.206C48.6897 120.711 45.8968 121.086 49.0605 121.415C44.4879 122.177 51.2274 121.507 48.352 121.851C51.8123 122.188 48.2201 122.272 47.8658 122.771C49.0687 122.541 49.25 122.901 48.146 122.959C48.7886 123.216 48.9699 123.144 49.8432 123.291C50.3787 123.461 49.2747 123.628 48.8216 123.45C50.0821 123.767 49.0605 124.168 48.4014 123.856C49.0934 124.344 48.1789 123.96 47.9812 124.298C48.5167 124.298 50.7577 124.437 50.5682 124.705C48.5414 124.604 50.5682 124.768 51.491 124.826C51.9606 124.442 49.5219 124.385 49.6702 123.799C51.112 123.931 49.3242 124.157 51.5157 124.26C50.2057 123.943 51.8865 123.914 51.2274 123.856C50.1975 123.455 53.1141 123.473 48.9617 122.93C49.2912 122.959 51.1614 122.93 50.906 123.181C52.0101 123.155 50.1892 122.832 51.4168 122.722C51.5816 122.451 51.9853 122.5 50.873 122.515C54.9019 121.937 49.4065 122.359 51.8947 121.559C53.7319 121.634 50.8648 121.458 52.4961 121.271C51.7546 121.271 51.7958 120.835 51.6722 121.176C49.9503 121.023 51.6722 120.913 52.01 121.046C52.9987 120.907 51.3015 120.974 51.6476 120.826C52.8834 120.596 52.2984 120.951 53.2459 121.262C53.6908 120.829 53.2458 119.834 52.1995 119.756C51.1532 119.678 55.0337 118.262 53.2459 118.435C51.5852 118.359 55.2382 117.812 52.8339 115.649C54.9431 115.214 51.9194 115.413 53.6578 114.521C54.4485 113.972 52.7674 110.412 53.1552 110.798C56.3767 110.345 53.4354 110.824 52.5373 110.544C53.3612 110.316 56.146 110.449 54.4735 110.311C54.0368 110.192 52.0677 109.511 54.5806 109.644C55.0337 109.379 52.1666 109.644 52.5126 109.139C53.2047 109.027 53.1223 109.26 53.8062 109.214C53.353 108.839 51.804 108.842 51.6969 108.363C54.803 108.074 52.1583 108.097 51.6969 107.434C49.2253 107.064 52.4302 106.946 51.8288 107.33C54.2098 108.221 52.6527 107.592 54.6794 107.884C54.5394 107.757 53.3695 107.791 53.9298 107.636C55.3633 107.058 53.5919 107.529 53.3447 107.079C55.0667 107.237 53.18 107.012 53.0399 106.862C51.7052 107.058 52.3232 106.591 51.5487 106.597C51.3674 106.79 51.3674 106.937 52.1006 106.969C49.0713 107.11 51.3864 106.104 51.3015 106.161C52.3478 105.425 52.6691 106.45 52.3972 105.743C53.4601 105.898 54.9596 106.048 54.6383 105.702C54.2511 105.76 52.8504 105.855 53.5342 105.59C53.7013 105.602 50.6976 104.324 53.8638 104.337C52.043 104.152 54.4735 103.471 52.7845 103.708C52.1584 103.304 53.1388 103.596 53.6826 103.523C54.1686 103.267 52.1336 103.362 52.7268 103.114C53.2953 103.619 55.4457 101.452 53.6578 101.391C56.3025 100.814 53.3777 99.0187 54.284 98.3636C55.9318 98.1905 52.9493 97.7663 53.4601 97.4979C54.63 97.4979 54.3334 97.9019 54.49 97.4979C56.1954 97.4979 52.8422 97.3883 53.4601 96.9381C52.4797 97.1459 52.8422 96.6087 54.3663 96.7563C53.3035 95.7693 50.9143 94.5516 52.8422 95.2961C52.8433 95.2716 52.8597 95.2476 52.8902 95.2256C52.9208 95.2036 52.9647 95.1843 53.0189 95.1688C53.0731 95.1534 53.1361 95.1424 53.2038 95.1365C53.2715 95.1305 53.3422 95.1298 53.4107 95.1345C50.041 94.4736 54.2346 94.7305 50.939 94.4102C53.4931 94.3322 52.1337 94.3467 50.939 94.0869C52.9905 94.263 50.2305 93.6541 51.7629 93.0625C49.9339 93.1981 46.4158 94.2803 48.2943 95.2932C46.9678 95.0825 45.9791 96.9092 47.2726 96.964C47.94 97.8702 44.628 99.541 46.976 100.185C46.8854 99.7921 47.7506 99.8152 47.5363 100.185C46.5724 100.415 47.7423 101.249 45.9792 100.623C45.5013 100.718 45.3942 100.724 46.0285 100.727C45.9544 101.016 45.6743 100.874 46.0285 101.016C44.2242 101.039 46.1439 101.483 45.2047 101.769C46.8524 101.789 45.386 102.011 45.8721 102.086C44.2737 102.326 46.2346 102.894 44.8339 102.816C44.4385 102.958 46.0121 102.923 45.6578 103.079C47.4869 102.79 47.2315 103.627 45.9462 103.336C46.9184 103.564 45.6084 103.598 45.6578 103.769C47.1738 104.202 44.0512 104.161 44.8751 104.978ZM47.9318 120.624L48.0471 120.604C48.1872 120.65 48.3108 120.676 47.9071 120.624H47.9318ZM48.1543 119.378C47.9318 119.788 48.2448 118.971 47.594 119.164C49.1017 118.743 47.9071 119.435 48.1543 119.378ZM52.0678 122.183C52.0088 122.179 51.9508 122.173 51.8947 122.165L52.0678 122.183ZM51.3591 121.441C51.4823 121.437 51.5982 121.419 51.6887 121.389C51.4827 121.404 51.3014 121.418 51.3591 121.441ZM52.3396 119.964C52.6692 119.929 52.5702 119.851 52.4961 119.793C52.4055 119.845 52.3518 119.903 52.3396 119.964ZM51.9853 110.634C52.2736 110.79 52.9987 110.671 52.4632 110.547C52.3092 110.571 52.1627 110.6 52.0265 110.634H51.9853Z"
    fill="#D4D7E2" />
  <path
    d="M49.987 105.178C47.3461 105.589 45.626 105.77 44.0306 106.876C44.3919 105.296 43.762 107.272 43.7109 106.876C43.2185 106.764 43.6917 106.256 43.2313 106.368C43.145 107.397 43.2313 106.201 43.0522 106.25C43.0298 106.486 42.7005 106.437 42.6462 105.902C41.9683 106.103 42.79 105.742 42.6078 106.298C41.7094 106.855 42.2401 106.444 41.5239 106.361C40.8845 107.244 41.1211 106.319 40.9708 106.549C40.8653 106.43 40.5104 107.307 40.6031 106.611C40.2578 107.001 40.2163 106.827 39.6696 106.89C39.6312 106.236 39.7207 106.444 39.5449 106.723C39.6344 106.166 38.9822 105.742 39.2667 106.437C38.6816 107.766 38.3075 106.02 38.413 107.133C37.4123 106.764 36.3061 107.133 35.5579 106.716C35.2702 108.573 35.3214 106.903 34.9569 106.277C35.2958 107.877 33.9977 107.07 34.3622 106.535C33.9466 107.599 33.7227 106.841 32.7316 107.063C32.658 107.759 32.5014 107.147 32.5877 106.646C32.1305 107.509 32.2456 105.916 32.0506 107.091C31.782 106.813 31.8779 106.396 31.9067 107.154C31.1681 107.015 32.5973 107.912 32.3799 107.481C32.4662 108.719 32.674 107.397 33.0193 108.003C33.0513 108.622 36.367 110.696 39.2667 111.174C49.1078 111.278 57.6379 114.284 67.869 108.907C64.4352 103.787 53.6734 106.361 49.987 105.178Z"
    fill="#D4D7E2" />
  <path
    d="M102.412 58.8242C102.588 71.5202 83.6606 71.5202 83.8395 58.8242C83.6622 46.1283 102.59 46.1283 102.412 58.8242Z"
    fill="#D4D7E2" />
  <path
    d="M85.8291 59.0413C85.7262 58.124 85.6328 56.6962 85.9684 56.3026C86.1267 56.4244 86.0966 56.3527 85.9684 56.2459C86.0618 56.2459 86.1599 55.8756 86.2312 56.1892C86.4496 55.9774 86.3483 55.1735 86.5288 55.437C86.8643 55.1985 86.3483 54.498 86.6871 54.4463C86.7187 53.7257 86.6696 54.8482 86.4654 54.0877C86.6934 53.6457 87.0432 53.6507 87.029 53.1019C87.2237 53.1703 87.3313 53.227 87.2063 53.0452C87.431 53.0702 87.4421 52.5716 87.5102 52.9185C87.7081 52.5065 87.8094 52.9452 87.8268 52.5732C87.4484 52.6666 87.8442 51.9694 87.8268 52.4415C87.8616 52.1462 88.232 51.9077 88.4315 51.9211C88.5455 51.6359 88.3967 51.7543 88.2874 51.5658C88.5265 51.6409 88.3602 51.2222 88.6468 51.1755C88.6784 51.2389 88.6705 51.3423 88.5708 51.324C88.6705 52.1296 88.8193 51.7126 88.6958 51.2706C88.794 51.1272 88.8652 51.399 88.8415 51.309C88.9064 51.0971 89.0567 50.9487 88.9728 51.0971C89.7897 50.7636 89.0552 51.4724 89.739 51.0971L89.6551 50.9754C89.7612 50.4467 89.7548 51.2456 90.0002 51.0671C89.9464 50.8703 90.4355 50.7702 90.6017 51.0921C91.36 50.6785 90.4593 51.2339 90.5621 50.8036C90.8059 50.6868 91.6591 50.023 91.2491 50.4333C91.724 50.5317 91.4074 50.475 92.0185 50.3983C92.3446 50.4533 92.5646 49.6144 92.6342 50.043C92.3525 49.9346 92.8701 50.2315 92.7435 50.3683C92.8448 50.1815 92.7102 50.1631 93.0411 50.2015C92.7514 49.8679 93.6283 49.9296 93.3054 50.1464C93.5349 50.2865 93.4526 50.028 93.5967 49.9897C93.6711 49.963 93.755 49.9296 93.6964 49.8395C93.7566 49.9196 93.9465 49.9563 93.755 49.993C93.8167 50.1097 94.0621 49.8395 94.1618 50.0831C94.4056 50.1331 94.8361 49.8862 94.594 50.465C94.9612 49.8512 94.6604 50.9404 95.2271 50.7886C95.0847 50.495 95.6561 50.3166 95.9062 50.3766C96.0819 49.8212 96.3621 51.4541 96.4666 50.4967C96.6898 50.4633 96.7294 50.9203 96.9272 50.7936C96.9272 50.8419 97.0017 51.3406 96.9557 50.9787C97.4987 50.867 97.3927 51.2689 97.695 51.0421C97.5858 51.4307 98.1351 51.4724 97.8929 51.6676C98.2269 51.3673 98.4469 51.811 98.4295 52.0979C98.6796 52.0178 99.0627 52.1462 98.7999 52.4314C99.0389 52.3897 98.9424 53.0786 99.3302 52.8634C99.2685 53.1036 100.076 52.7834 99.5946 53.3471C99.7339 53.3354 100.465 52.8084 100.092 53.3321L100.308 53.2837C100.625 53.8375 99.3191 53.6323 99.9729 53.9092C99.6958 54.1761 99.8431 54.3011 99.9919 53.9426C100.206 54.0977 100.733 53.9576 100.712 54.2661C100.517 54.1844 100.603 54.4813 100.486 54.518C100.775 54.1844 100.579 54.6547 100.559 54.8099C100.658 54.613 100.796 54.7248 100.747 54.8983C100.5 54.9816 100.326 54.8616 100.549 55.1017C100.772 55.3419 100.785 54.8182 100.938 55.0567C101.235 55.1868 100.921 55.5904 101.244 55.5721C101.244 56.0591 101.155 56.9664 101.804 57.2233C101.713 57.1749 101.654 57.5485 101.537 57.2967L101.591 57.4535C101.467 57.5836 101.432 57.2083 101.274 57.4051C101.314 57.5719 101.603 57.6553 101.537 57.8804C101.345 57.8304 101.613 58.0372 101.404 58.0055C101.323 57.9855 101.358 57.792 101.296 57.8921C101.276 58.2841 101.523 57.9822 101.667 58.179C101.733 58.5426 101.247 58.2574 101.493 58.6193C101.576 58.0272 101.619 58.696 101.798 58.8378C102.021 58.3658 101.985 58.3841 101.834 58.0139C102.048 58.159 101.88 57.8938 101.857 57.7637C102.105 57.7804 102.271 57.6102 101.88 57.6353C102.018 57.5635 102.13 57.3417 102.262 57.6553C102.485 57.24 101.51 56.7663 102.118 56.9281C102.021 56.6279 101.982 56.4744 102.312 56.6312C102.119 56.5578 102.056 56.2192 102.279 56.3426L102.146 55.984C102.305 55.9757 102.289 55.7172 102.225 55.9407C101.926 55.4904 102.067 55.2735 101.673 54.7882C101.928 54.9766 101.73 54.4046 101.915 54.6464C101.777 54.4496 101.44 54.146 101.952 54.3128C101.705 54.1577 101.703 54.091 101.777 53.8341C101.619 53.8858 101.629 53.9009 101.654 53.7407C101.638 53.8341 101.44 53.689 101.507 53.6373C101.428 53.6257 101.507 52.9985 101.241 53.2137C101.208 52.795 101.04 52.8151 100.709 52.3414C101.108 52.3097 100.104 51.841 100.277 51.389C99.8102 51.0777 99.3719 50.7215 98.9677 50.3249C99.0152 49.9797 98.6717 50.0047 98.325 49.8496C98.6036 49.8045 98.1509 49.7261 98.2142 49.6027C98.4643 49.6728 98.1509 49.4643 98.1461 49.6644C98.0448 49.526 97.858 49.2825 98.0211 49.4743C98.0306 49.6527 97.6728 49.5443 97.8374 49.4743C97.6665 49.3809 97.1884 49.2558 97.4528 49.124C97.0776 48.9722 96.9098 49.0823 96.7341 48.7471C96.6977 49.0807 95.8493 48.1116 95.4535 48.2584C95.5485 48.0149 95.2319 48.3384 95.368 48.0466L95.2192 48.23C95.1417 47.9532 94.8567 47.9882 94.605 47.758C94.3898 48.5386 92.9524 47.3477 92.6453 47.8314C92.6279 47.4078 92.5931 47.8498 92.2702 47.9148C92.487 47.5445 91.7731 48.0482 91.4787 47.9248C91.2238 48.1983 90.5701 48.0766 90.7363 47.9348C89.6614 48.2084 89.1185 48.6637 88.2209 48.9672C87.9597 48.8288 88.1465 49.3642 87.6147 49.3142C86.5778 49.3142 85.7151 50.7669 84.9426 51.2189C83.5876 53.1253 82.3529 55.4653 82.0521 58.3775C82.2988 59.1498 82.3762 59.9709 82.2785 60.7792C82.4368 60.4673 82.413 61.1945 82.4605 61.2996C82.641 61.2996 82.402 61.428 82.4004 61.4664C82.6853 61.6148 82.717 62.7907 82.8151 62.5705C83.3723 62.5705 82.584 63.1626 82.9845 62.9041C84.8128 68.715 91.2555 72.0141 97.6586 69.6074C101.151 68.9402 106.186 60.7676 102.813 58.9996L102.787 58.8595C102.703 58.8295 102.879 59.0513 102.727 59.0146L102.947 59.058C102.618 59.3015 103.245 59.5583 103.007 59.6484C102.925 59.962 102.795 59.6567 102.691 59.9236C102.778 59.7985 102.612 59.565 102.616 59.6801C102.537 59.9186 102.675 59.6217 102.689 59.8085C102.662 59.9753 102.425 59.7785 102.493 60.067C102.295 59.7952 102.556 60.5507 102.297 60.6358C101.917 60.4006 102.208 61.358 101.789 61.4014C101.6 61.6449 101.972 61.5865 101.789 61.8167C101.678 61.8167 101.83 61.6032 101.69 61.6832C101.668 61.9651 101.265 62.0385 100.883 62.4788C98.9202 64.3852 97.0365 66.787 93.1598 66.7753C93.1171 67.1789 91.3425 66.2749 90.6413 66.4C90.7394 66.2582 89.9701 65.9097 89.91 66.1365C89.7517 66.0281 89.8197 65.9213 89.5934 66.0147C89.6551 65.9047 89.5807 65.863 89.4889 65.8229C88.3492 65.3059 87.1809 63.5246 86.858 63.638C87.3899 63.1543 85.9288 62.7373 86.4243 62.2203C86.2454 62.0285 86.266 62.3454 86.0713 62.3137C85.9383 62.1869 86.0839 62.0902 86.1821 62.0818C86.1536 62.0235 86.0364 61.8717 86.1821 61.9434C85.9256 61.7766 86.0982 60.8259 85.8259 61.1945C85.6486 61.0277 85.7483 60.5774 85.8449 60.6608C85.5521 60.5357 85.7389 60.2205 85.9161 60.5591C85.5964 59.9853 85.5489 59.7568 85.8291 59.0413Z"
    fill="#D4D7E2" />
  <g clip-path="url(#clip0_767_56178)">
    <path fill-rule="evenodd" clip-rule="evenodd"
      d="M13.7983 11.647C10.9207 9.28154 8.58899 6.46458 6.83681 3.18262C6.48638 2.52893 5.67097 2.27957 5.01054 2.63001C4.35684 2.98044 4.10745 3.79589 4.45788 4.45633C6.38527 8.04829 8.93271 11.1348 12.0866 13.7294C12.6594 14.2011 13.5153 14.1202 13.987 13.5474C14.4588 12.9678 14.3711 12.1187 13.7983 11.647Z"
      fill="#D4D7E2" />
    <path fill-rule="evenodd" clip-rule="evenodd"
      d="M12.2637 2.43436C12.412 5.15697 12.5468 7.87958 12.7153 10.6022C12.7624 11.3435 13.4026 11.9096 14.1439 11.8624C14.8853 11.8152 15.4513 11.175 15.4042 10.4337C15.2357 7.71784 15.1009 5.00198 14.9526 2.27937C14.9122 1.54009 14.272 0.970631 13.5307 1.01241C12.7894 1.0542 12.2165 1.69103 12.2637 2.43436Z"
      fill="#D4D7E2" />
    <path fill-rule="evenodd" clip-rule="evenodd"
      d="M22.2686 2.98692C20.5434 5.58822 18.5891 7.98733 16.6213 10.4134C16.1496 10.993 16.2371 11.8421 16.8167 12.3071C17.3962 12.7789 18.2454 12.6913 18.7104 12.1117C20.7321 9.62495 22.7404 7.15168 24.5195 4.47624C24.9306 3.85624 24.7554 3.02062 24.1354 2.60953C23.5221 2.19844 22.6797 2.36692 22.2686 2.98692Z"
      fill="#D4D7E2" />
    <path fill-rule="evenodd" clip-rule="evenodd"
      d="M28.9516 12.6576C24.2746 12.8665 19.3079 12.8733 14.6309 12.5768C13.8896 12.5363 13.2494 13.0957 13.2022 13.8437C13.155 14.585 13.7211 15.2252 14.4624 15.2724C19.2337 15.5689 24.3016 15.5622 29.0729 15.3533C29.8142 15.3196 30.3937 14.6861 30.36 13.9448C30.3263 13.2035 29.6929 12.6239 28.9516 12.6576Z"
      fill="#D4D7E2" />
    <path fill-rule="evenodd" clip-rule="evenodd"
      d="M12.083 13.5138C14.9673 17.0451 17.9528 20.5091 20.6282 24.2021C21.0663 24.8019 21.9087 24.9366 22.5152 24.4986C23.115 24.0605 23.2497 23.2181 22.8117 22.6183C20.1026 18.8849 17.0835 15.3805 14.1654 11.8088C13.6937 11.236 12.8445 11.1484 12.2717 11.6201C11.6921 12.0919 11.6112 12.941 12.083 13.5138Z"
      fill="#D4D7E2" />
    <path fill-rule="evenodd" clip-rule="evenodd"
      d="M12.9565 14.5379C13.7113 18.2175 13.9202 21.7353 13.9741 25.4621C13.9808 26.2034 14.5941 26.7964 15.3354 26.7897C16.0835 26.7762 16.6765 26.1696 16.663 25.4216C16.6091 21.5196 16.3867 17.8468 15.5983 13.9921C15.4433 13.2642 14.7357 12.7925 14.0011 12.9475C13.2733 13.0957 12.8015 13.8101 12.9565 14.5379Z"
      fill="#D4D7E2" />
    <path fill-rule="evenodd" clip-rule="evenodd"
      d="M13.0782 14.2416C10.8947 18.6085 9.76925 23.4607 7.43077 27.7333C7.0736 28.3803 7.31616 29.2024 7.96985 29.5596C8.62355 29.9168 9.43904 29.6741 9.79621 29.0272C12.1482 24.7276 13.287 19.8485 15.4907 15.4479C15.821 14.7807 15.5514 13.972 14.891 13.635C14.2238 13.3048 13.4151 13.5744 13.0782 14.2416Z"
      fill="#D4D7E2" />
    <path fill-rule="evenodd" clip-rule="evenodd"
      d="M14.2798 13.2508C9.9331 14.019 5.5931 14.3694 1.2194 14.8884C0.478098 14.976 -0.0475543 15.6432 0.0400544 16.3845C0.127663 17.1258 0.794899 17.6514 1.5362 17.5638C5.95707 17.0449 10.351 16.681 14.7516 15.906C15.4795 15.7712 15.9714 15.0703 15.8434 14.3425C15.7086 13.6079 15.0144 13.116 14.2798 13.2508Z"
      fill="#D4D7E2" />
    <path fill-rule="evenodd" clip-rule="evenodd"
      d="M17.3046 11.2025C16.4083 11.162 15.5591 11.1014 14.6831 10.9733C13.9417 10.8655 13.2611 11.3777 13.1533 12.1122C13.0454 12.8468 13.5576 13.5342 14.2921 13.642C15.2626 13.7836 16.1993 13.8509 17.1832 13.8914C17.9245 13.9251 18.558 13.3522 18.585 12.6042C18.6186 11.8629 18.0459 11.2362 17.3046 11.2025Z"
      fill="#D4D7E2" />
  </g>
  <defs>
    <clipPath id="clip0_767_56178">
      <rect width="31" height="31" fill="white" transform="translate(0.000244141)" />
    </clipPath>
  </defs>
</svg>
