<svg width="237" height="196" viewBox="0 0 237 196" fill="none" xmlns="http://www.w3.org/2000/svg">
  <path fill-rule="evenodd" clip-rule="evenodd"
    d="M190.342 154.092C189.067 167.895 175.407 177.021 162.167 172.915L41.3545 135.445C31.2323 132.305 24.8325 122.343 26.1853 111.832L29.3092 87.5596C30.8748 75.3951 42.1605 66.9138 54.2804 68.7933L175.929 87.6587C187.314 89.4243 195.361 99.7417 194.302 111.214L190.342 154.092Z"
    fill="#202124" />
  <path fill-rule="evenodd" clip-rule="evenodd"
    d="M22.9498 132.357C22.673 132.964 21.8963 133.257 21.2151 133.01C20.5339 132.763 20.2061 132.07 20.483 131.463C24.1824 123.347 27.4027 117.545 31.6524 112.43C37.7415 105.1 44.5944 101.376 52.3564 102.433C58.5964 103.282 62.6538 106.954 67.0989 114.013C67.6731 114.925 69.4937 117.934 69.7348 118.323C72.3663 122.57 74.8837 125.771 77.6828 127.883C81.2907 130.606 84.6307 130.883 88.097 128.182C91.085 125.853 92.608 122.497 93.7915 116.833C93.9579 116.037 93.9853 115.896 94.3778 113.838C94.7866 111.694 95.0351 110.523 95.3673 109.296C95.65 108.252 96.853 103.571 97.1718 102.373C97.9979 99.2685 98.758 96.6726 99.5992 94.1766C103.071 83.8771 107.399 77.0225 113.588 74.101C118.886 71.6003 123.458 72.9749 127.011 77.4593C129.757 80.925 131.891 86.1465 133.669 92.9541C134.937 97.8097 137.307 110.47 137.346 110.628C139.23 118.122 144.165 123.889 150.501 124.806C156.407 125.66 162.432 122.473 168.561 116.316C175.517 109.326 181.3 101.411 185.658 92.9159C186.178 91.9017 188.977 86.0881 189.873 84.3629C194.946 74.5923 200.178 69.2315 208.225 68.0183C208.95 67.909 209.637 68.3444 209.759 68.9909C209.882 69.6374 209.394 70.2502 208.669 70.3595C201.746 71.4033 197.025 76.2397 192.289 85.3605C191.414 87.0468 188.618 92.8538 188.079 93.9036C183.612 102.613 177.684 110.726 170.552 117.892C163.876 124.599 157.126 128.17 150.075 127.15C142.458 126.048 136.844 119.487 134.748 111.147C134.686 110.901 132.318 98.2534 131.075 93.4926C129.369 86.9603 127.336 81.9839 124.836 78.8295C122.003 75.2539 118.848 74.3051 114.834 76.1996C109.468 78.7322 105.429 85.1293 102.149 94.86C101.325 97.3049 100.578 99.8584 99.7627 102.921C99.4476 104.105 98.243 108.793 97.9558 109.854C97.6421 111.012 97.4019 112.144 97.003 114.236C96.6072 116.311 96.5795 116.454 96.4093 117.268C95.1247 123.416 93.4098 127.195 89.8492 129.97C85.2958 133.518 80.5007 133.12 75.9625 129.695C72.8497 127.346 70.1818 123.955 67.4039 119.471C67.1524 119.065 65.3378 116.066 64.777 115.176C60.6998 108.701 57.1486 105.487 51.9546 104.78C45.3616 103.883 39.3554 107.146 33.7922 113.843C29.7114 118.755 26.5703 124.414 22.9498 132.357Z"
    fill="#FFC800" />
  <g clip-path="url(#clip0_5402_11467)">
    <path
      d="M218.282 78.4008C201.55 82.6285 194.571 59.4127 211.435 55.62C228.167 51.3904 235.145 74.6062 218.282 78.4008Z"
      fill="#FFC800" />
    <path
      d="M211.881 58.129C213.057 57.7129 214.912 57.1472 215.556 57.4344C215.453 57.667 215.537 57.6075 215.631 57.4165C215.666 57.531 216.192 57.5344 215.803 57.7209C216.164 57.9219 217.19 57.5436 216.908 57.8482C217.347 58.1844 218.084 57.3301 218.277 57.7293C219.242 57.5404 217.739 57.8349 218.67 57.3441C219.339 57.484 219.461 57.9147 220.182 57.7238C220.163 57.9842 220.128 58.1342 220.322 57.9234C220.372 58.207 221.036 58.063 220.602 58.2561C221.22 58.3686 220.677 58.6315 221.176 58.5353C220.913 58.1008 221.981 58.3658 221.35 58.4937C221.753 58.4431 222.206 58.822 222.261 59.0709C222.681 59.1206 222.469 58.9755 222.678 58.7819C222.667 59.0988 223.16 58.7627 223.327 59.0994C223.255 59.1582 223.115 59.1812 223.103 59.0531C222.074 59.43 222.68 59.4807 223.22 59.1896C223.445 59.2646 223.112 59.4379 223.222 59.3803C223.527 59.393 223.778 59.5305 223.551 59.4745C224.294 60.371 223.085 59.6941 223.834 60.4143L223.964 60.2729C224.702 60.2359 223.643 60.4806 223.97 60.7252C224.21 60.5969 224.523 61.1653 224.158 61.4709C224.985 62.2702 223.918 61.3409 224.526 61.3312C224.77 61.5933 225.963 62.43 225.269 62.0568C225.314 62.6704 225.272 62.2641 225.599 62.9893C225.646 63.4067 226.837 63.4115 226.296 63.6324C226.335 63.2525 226.133 63.9812 225.906 63.8691C226.19 63.9344 226.165 63.7635 226.236 64.1814C226.571 63.7207 226.812 64.8158 226.406 64.4883C226.306 64.8141 226.617 64.6314 226.721 64.796C226.784 64.8788 226.859 64.9712 226.957 64.8709C226.873 64.97 226.894 65.2146 226.775 64.9912C226.643 65.1038 227.091 65.3194 226.806 65.5187C226.83 65.8335 227.315 66.2836 226.46 66.1694C227.407 66.4259 225.856 66.4012 226.265 67.0483C226.601 66.7808 227.048 67.4253 227.061 67.7511C227.86 67.7911 225.803 68.6508 227.108 68.4764C227.235 68.7396 226.645 68.9325 226.886 69.1352C226.822 69.1505 226.189 69.3993 226.651 69.2286C226.999 69.8593 226.428 69.8562 226.84 70.1554C226.285 70.1442 226.433 70.8312 226.085 70.5958C226.606 70.9106 226.1 71.3206 225.714 71.3899C225.912 71.6714 225.883 72.1819 225.409 71.9497C225.552 72.2297 224.605 72.3289 225.033 72.7366C224.692 72.7368 225.414 73.6258 224.49 73.2137C224.557 73.3809 225.524 74.1114 224.694 73.8186L224.838 74.0694C224.222 74.6327 224.012 72.966 223.886 73.8554C223.431 73.5999 223.32 73.82 223.849 73.8892C223.723 74.2004 224.102 74.8027 223.687 74.8749C223.723 74.6103 223.362 74.809 223.27 74.6769C223.818 74.9268 223.123 74.8346 222.911 74.8584C223.208 74.9185 223.111 75.1228 222.863 75.1174C222.662 74.8409 222.756 74.5893 222.521 74.939C222.285 75.2887 222.983 75.1387 222.724 75.4024C222.661 75.8066 222.011 75.5497 222.155 75.94C221.51 76.0939 220.277 76.2719 220.177 77.1491C220.207 77.0212 219.691 77.0675 219.981 76.8442L219.793 76.9598C219.576 76.8494 220.059 76.6881 219.741 76.5562C219.535 76.6574 219.531 77.0391 219.209 77.0287C219.204 76.7779 219.029 77.1714 218.994 76.9051C218.991 76.7998 219.26 76.7814 219.105 76.7373C218.578 76.8359 219.069 77.0434 218.862 77.2822C218.405 77.4787 218.603 76.7925 218.215 77.2078C219.029 77.1236 218.16 77.3874 218.038 77.6516C218.745 77.7762 218.707 77.7373 219.142 77.4359C219.029 77.7438 219.318 77.4542 219.481 77.384C219.551 77.6941 219.837 77.8442 219.66 77.3725C219.805 77.5188 220.14 77.5865 219.774 77.8468C220.406 77.9893 220.673 76.6436 220.683 77.4403C221.045 77.227 221.233 77.1299 221.147 77.5853C221.173 77.3252 221.598 77.1406 221.517 77.4533L221.942 77.1769C222.012 77.3684 222.348 77.2673 222.029 77.2603C222.514 76.751 222.853 76.8553 223.35 76.2185C223.195 76.5906 223.879 76.1671 223.627 76.4707C223.837 76.2396 224.114 75.7301 224.082 76.4099C224.196 76.058 224.284 76.035 224.651 76.0451C224.524 75.8673 224.508 75.8837 224.729 75.8641C224.6 75.8742 224.719 75.5857 224.812 75.6509C224.798 75.5501 225.657 75.449 225.274 75.1908C225.816 75.0178 225.727 74.8183 226.232 74.2628C226.421 74.7421 226.671 73.363 227.333 73.4318C227.573 72.761 227.882 72.1109 228.258 71.4898C228.732 71.4389 228.572 71.0255 228.65 70.5513C228.812 70.8788 228.749 70.2987 228.936 70.3374C228.935 70.6663 229.095 70.216 228.829 70.2734C228.975 70.1054 229.228 69.7993 229.034 70.0599C228.802 70.128 228.813 69.6549 228.967 69.8347C229.027 69.5955 229.016 68.9696 229.288 69.2522C229.351 68.7441 229.143 68.573 229.522 68.2516C229.067 68.3123 230.036 66.9654 229.696 66.5264C230.054 66.5659 229.509 66.2799 229.945 66.3546L229.648 66.2301C229.985 66.0474 229.834 65.709 230.046 65.3276C228.933 65.3102 229.979 63.1709 229.226 62.9471C229.78 62.7918 229.182 62.8888 228.977 62.5133C229.547 62.6622 228.618 61.9458 228.672 61.5456C228.216 61.3195 228.136 60.4791 228.385 60.6382C227.627 59.4062 226.824 58.8842 226.092 57.8792C226.179 57.5151 225.539 57.9134 225.409 57.2452C225.027 55.9735 222.787 55.3744 221.904 54.5697C218.882 53.5101 215.331 52.7352 211.367 53.2866C210.436 53.8332 209.378 54.1876 208.273 54.3232C208.744 54.4188 207.773 54.6195 207.652 54.7109C207.718 54.9323 207.46 54.6797 207.409 54.6899C207.317 55.0863 205.773 55.4967 206.101 55.5475C206.306 56.2309 205.232 55.4511 205.722 55.8607C198.708 59.9396 196.718 68.8844 202.263 75.9776C204.433 80.05 217.103 83.6435 218.198 78.9473L218.374 78.8719C218.383 78.7595 218.154 79.0452 218.147 78.8472L218.171 79.1308C217.727 78.8039 217.618 79.6539 217.412 79.3911C216.967 79.3893 217.322 79.1336 216.931 79.0898C217.129 79.157 217.376 78.8794 217.226 78.9216C216.881 78.8999 217.324 78.975 217.083 79.0515C216.852 79.0712 217.025 78.7177 216.668 78.8924C216.955 78.5638 216.052 79.1229 215.843 78.8314C216.014 78.2911 214.855 78.9509 214.643 78.4501C214.251 78.296 214.466 78.7338 214.094 78.5813C214.053 78.4454 214.391 78.5643 214.234 78.4188C213.853 78.4807 213.607 78.0087 212.884 77.6799C209.638 75.8748 205.765 74.3233 204.352 69.5646C203.802 69.6398 204.344 67.1775 203.92 66.3569C204.143 66.4325 204.321 65.3787 203.999 65.3766C204.084 65.1482 204.25 65.198 204.043 64.9499C204.211 64.9908 204.239 64.8863 204.258 64.7611C204.522 63.1997 206.448 61.2039 206.179 60.8437C207.015 61.3432 207.028 59.4193 207.895 59.8637C208.083 59.5836 207.671 59.709 207.641 59.4602C207.76 59.257 207.941 59.4051 207.989 59.5228C208.055 59.4694 208.213 59.2778 208.172 59.4791C208.298 59.1118 209.619 59.023 209.031 58.8056C209.187 58.5354 209.819 58.5154 209.745 58.6602C209.802 58.2615 210.288 58.391 209.905 58.7154C210.547 58.1419 210.831 58.0115 211.881 58.129Z"
      fill="#FFC800" />
  </g>
  <defs>
    <clipPath id="clip0_5402_11467">
      <rect width="32.0194" height="35.3674" fill="white"
        transform="matrix(0.287869 0.95767 -0.97264 0.232316 227.356 48.0847)" />
    </clipPath>
  </defs>
</svg>
