<svg width="86" height="92" viewBox="0 0 86 92" fill="none" xmlns="http://www.w3.org/2000/svg">
  <path fill-rule="evenodd" clip-rule="evenodd"
    d="M34.8269 19.3742C34.5982 17.922 34.4297 16.487 34.3267 15.0526C34.1713 12.9011 34.3072 10.7368 34.268 8.58671C34.2505 7.67455 34.1681 5.29598 34.2161 4.95461C34.6507 1.97997 37.0711 1.55441 37.7784 1.48189C38.1207 1.43734 41.6343 1.0909 42.3473 4.97563C43.222 9.72548 43.4653 14.4999 43.0833 19.1688C43.805 23.1513 45.0713 27.1244 46.7622 30.7283C53.4905 45.0621 66.6053 46.6113 80.8331 46.6601C83.0213 46.6551 84.8186 48.3876 84.9084 50.5546C84.998 52.7378 83.3478 54.6061 81.1675 54.7741C73.2068 55.4393 59.0258 61.6119 54.0726 68.1612C53.0365 69.5323 52.4049 72.8628 51.5827 76.1257C50.4353 80.6547 49.0809 85.1321 47.5991 87.0025C47.3766 87.2929 44.6787 90.2553 43.879 90.685C41.9572 91.703 40.4352 91.0812 39.5732 90.5167C38.7112 89.9522 37.7409 88.8489 37.369 87.0366C36.9801 85.1427 37.371 81.2718 37.3167 80.4406C37.1188 77.4254 36.5812 71.5073 35.4045 66.4117C34.7702 63.6679 34.0893 61.1352 32.9295 59.8667C28.636 55.1715 21.6786 55.768 15.8175 56.4596C15.1445 56.5325 14.4713 56.6218 13.8 56.6948C11.4095 57.365 8.87383 57.8541 6.19675 58.1298C2.15405 58.5512 1.53234 54.8467 1.49915 54.602C1.43005 54.0638 1.18195 51.2923 4.23769 50.2234C4.57093 50.1136 7.02661 49.6071 7.97254 49.4073C9.29058 49.1307 10.6226 48.9196 11.9593 48.7247C25.7911 44.6322 33.4136 32.7424 34.8269 19.3742ZM39.3889 34.2346C44.47 45.0138 52.3073 50.2909 61.6405 52.7534L61.6389 52.7533C55.76 55.7246 50.4004 59.4679 47.5394 63.2588C46.4534 64.6944 45.4391 67.5965 44.5171 70.8582C44.0727 67.8073 43.4622 64.5589 42.6385 61.7801C41.7016 58.6091 40.4216 55.9713 38.9776 54.3898C36.1895 51.3421 32.6668 49.6204 28.8679 48.7421C33.4727 44.7777 36.9867 39.8063 39.3889 34.2346Z"
    fill="#202124" stroke="#202124" stroke-width="1.5" />
</svg>
