<svg width="49" height="51" viewBox="0 0 49 51" fill="none" xmlns="http://www.w3.org/2000/svg">
  <path fill-rule="evenodd" clip-rule="evenodd"
    d="M18.2831 13.3137C18.039 12.6405 17.8252 11.9698 17.6426 11.2934C17.3683 10.2789 17.2315 9.23102 17.0127 8.20633C16.9195 7.77168 16.6587 6.64174 16.6498 6.47398C16.5798 5.0107 17.6926 4.58129 18.0227 4.4806C18.1815 4.42735 19.8222 3.93377 20.5233 5.72526C21.3821 7.91542 21.9424 10.1763 22.1952 12.445C22.9095 14.2824 23.8824 16.0645 25.023 17.6304C29.5611 23.8582 35.9498 23.3753 42.7286 22.071C43.7701 21.8644 44.7871 22.5253 45.0316 23.5533C45.2776 24.5892 44.6658 25.6368 43.6433 25.9206C39.9148 26.9816 33.7374 31.2572 31.9888 34.8519C31.6231 35.6044 31.6324 37.2562 31.5447 38.8935C31.42 41.1668 31.192 43.4347 30.6606 44.4675C30.5817 44.6271 29.5729 46.2958 29.2321 46.5759C28.4119 47.2422 27.6293 47.0868 27.1663 46.8972C26.7034 46.7077 26.1386 46.2705 25.7929 45.4385C25.4314 44.5689 25.2571 42.681 25.1538 42.2885C24.7789 40.8649 23.972 38.0845 22.9373 35.7572C22.3798 34.504 21.8198 33.3562 21.1495 32.8577C18.6681 31.0128 15.411 31.9473 12.6847 32.825C12.371 32.9227 12.0588 33.0282 11.7459 33.1258C10.6701 33.6694 9.50837 34.14 8.25938 34.5216C6.37373 35.1004 5.73283 33.3867 5.69425 33.2727C5.61123 33.0217 5.23509 31.7193 6.59052 30.9229C6.73896 30.8393 7.86105 30.3679 8.29283 30.1841C8.89466 29.9288 9.50921 29.7035 10.1275 29.4856C16.3323 26.2374 18.8548 19.8394 18.2831 13.3137ZM21.8387 19.9955C25.2616 24.6769 29.4845 26.4695 34.1576 26.7763L34.1569 26.7764C31.6343 28.7462 29.4309 31.0366 28.4216 33.1168C28.0382 33.9048 27.8254 35.3875 27.6901 37.0335C27.1945 35.6158 26.6014 34.1191 25.9505 32.8669C25.2092 31.4377 24.3541 30.2955 23.5193 29.6739C21.9081 28.4763 20.0705 27.9816 18.1799 27.916C20.0034 25.5902 21.2137 22.8845 21.8387 19.9955Z"
    fill="#202124" stroke="#202124" stroke-width="1.5" />
</svg>
