<svg width="118" height="129" viewBox="0 0 118 129" fill="#fff" xmlns="http://www.w3.org/2000/svg">
<path fill-rule="evenodd" clip-rule="evenodd" d="M14.4508 16.728C14.3333 16.9098 14.4458 17.2044 14.7595 17.5364C15.2342 18.0389 15.2308 18.0515 14.6735 17.8638C14.3547 17.7566 14.186 17.7703 14.2987 17.8945C14.4172 18.0253 14.3122 18.2185 14.0498 18.3526C13.6713 18.5458 13.6682 18.6645 14.0319 19.0659C14.436 19.5122 14.4318 19.526 13.9757 19.2521C13.7049 19.0894 13.4139 18.8279 13.3292 18.6707C13.1143 18.2728 12.5915 18.3284 12.5952 18.749C12.5972 18.94 12.1793 19.4859 11.6669 19.9624C11.1546 20.4389 10.6588 20.9078 10.5651 21.0047C10.4717 21.1016 10.5224 21.3157 10.678 21.4803C10.9999 21.8211 10.6816 22.2382 10.2941 21.9834C10.1218 21.8699 9.93007 22.0879 9.69903 22.6606C9.50678 23.1379 9.01029 23.756 8.55778 24.0815C8.07707 24.4275 7.83416 24.7395 7.95034 24.8625C8.06444 24.9833 7.93783 25.1533 7.64169 25.2776C7.2575 25.4386 7.17195 25.6655 7.27691 26.245C7.41315 26.9974 7.10994 27.6775 6.7895 27.3383C6.53942 27.0736 6.12515 27.5616 6.12039 28.1265C6.11812 28.3985 5.92493 28.7189 5.69124 28.8383C5.45741 28.9578 5.29471 29.2752 5.32955 29.5437C5.37178 29.8666 5.25973 30.0423 4.99943 30.0623C4.50116 30.1003 4.64092 30.9008 5.20606 31.2462C5.56804 31.4675 5.54788 31.4912 4.99748 31.4922C4.27966 31.4936 3.9272 32.2849 4.41262 32.8058C4.67406 33.0865 4.65813 33.1053 4.28538 32.9561C3.9401 32.818 3.88285 32.8566 3.98363 33.1596C4.05227 33.3656 4.01647 33.6586 3.90447 33.811C3.79229 33.9633 3.74187 34.2177 3.79209 34.376C3.93476 34.8245 3.67728 35.3128 3.2921 35.324C2.8186 35.3375 2.45106 37.1484 2.76359 37.926C2.89852 38.2615 2.88904 38.6441 2.74249 38.776C2.59594 38.9078 2.55996 39.1045 2.66256 39.2131C2.76497 39.3215 2.90627 39.6897 2.97625 40.0307C3.07038 40.4886 3.01361 40.6131 2.76051 40.5062C2.49052 40.392 2.4054 40.4675 2.3611 40.8612C2.31404 41.2798 2.24171 41.315 1.91549 41.0774C1.55388 40.8141 1.54844 40.8197 1.8392 41.1582C2.06151 41.4169 2.02868 41.6341 1.72612 41.9063C1.49183 42.1171 1.3291 42.5128 1.36463 42.7855C1.40017 43.0582 1.36914 43.3354 1.2958 43.4014C1.22245 43.4674 1.21363 43.8077 1.2763 44.1575C1.33896 44.5074 1.30206 44.873 1.19437 44.9699C1.08667 45.0668 1.0835 45.2358 1.18723 45.3456C1.29097 45.4554 1.27761 45.6336 1.15755 45.7416C1.03748 45.8497 1.02413 46.0279 1.12786 46.1377C1.23159 46.2474 1.18942 46.4516 1.03399 46.5914C0.653147 46.9341 0.848713 47.3992 1.44738 47.5752C1.71687 47.6545 2.29376 48.0838 2.72919 48.5293C3.16495 48.9749 3.76073 49.498 4.05341 49.6915C4.38207 49.9092 4.52608 50.0972 4.43003 50.1836C4.34461 50.2605 4.10293 50.1415 3.89283 49.9191C3.62709 49.6378 3.3576 49.5911 3.00697 49.7651C2.63937 49.9474 2.37718 49.893 2.03907 49.5642C1.71805 49.2518 1.6685 49.0899 1.87828 49.0378C2.04487 48.9961 2.28662 49.0571 2.41588 49.1731C2.54499 49.2893 2.39771 49.0299 2.08863 48.5971C1.77956 48.1642 1.46016 47.7731 1.37866 47.7279C1.09042 47.5684 0.516279 48.6249 0.754298 48.8769C0.886886 49.0172 0.941848 49.2843 0.87648 49.4701C0.786603 49.7249 0.934192 49.9566 1.47756 50.4132C2.12082 50.9539 2.16999 51.0692 1.93903 51.4952C1.7699 51.8069 1.53854 51.9242 1.27022 51.834C0.931329 51.7201 0.839145 51.7975 0.73897 52.2802C0.672212 52.6014 0.693629 52.7981 0.786676 52.7174C0.879721 52.6366 1.09735 52.6572 1.27013 52.7629C1.49764 52.9017 1.43166 53.053 1.03186 53.31C0.585035 53.5968 0.524807 53.8046 0.717565 54.3942C0.848522 54.7953 1.08668 55.1793 1.2466 55.2474C1.40652 55.3155 1.43521 55.4633 1.31049 55.5755C1.16555 55.7059 1.25374 55.9596 1.55512 56.2787C1.81446 56.5531 2.08514 56.7251 2.15659 56.6608C2.22804 56.5965 2.45843 56.6489 2.66832 56.7773C2.95518 56.9524 2.95432 57.068 2.66497 57.2419C2.38586 57.4096 2.3761 57.5642 2.63014 57.8043C2.82283 57.9866 2.88947 58.2173 2.77829 58.3173C2.6671 58.4174 2.66102 58.589 2.76475 58.6988C2.86848 58.8086 2.85513 58.9868 2.73506 59.0948C2.615 59.2029 2.4319 59.2014 2.32817 59.0916C1.9751 58.7179 1.43338 59.4967 1.72778 59.9542C1.95341 60.3044 2.05173 60.3153 2.21887 60.0084C2.42579 59.6287 2.4291 59.6316 2.55771 60.3066C2.62934 60.6816 2.78713 61.0091 2.90842 61.034C3.02985 61.0588 3.03007 60.9744 2.90918 60.8464C2.61307 60.533 2.94987 60.2666 3.75669 60.1759C4.38182 60.1058 4.41311 60.044 4.28451 59.1345C4.20922 58.6028 4.21007 58.2339 4.28627 58.3145C4.69063 58.7425 4.24849 57.6154 3.82764 57.1457C3.55265 56.8384 3.3928 56.4652 3.47082 56.3116C3.57993 56.0971 3.60832 56.114 3.5958 56.386C3.58249 56.6694 3.67024 56.7489 4.04295 56.7917C5.07281 56.9103 4.63885 55.7212 3.43917 55.1379C2.78336 54.8191 3.01463 54.2332 3.88313 54.0132C4.31974 53.9025 4.46051 53.7788 4.35586 53.5971C4.27395 53.4551 4.29527 53.2594 4.40311 53.1624C4.51094 53.0653 4.42903 52.7649 4.2212 52.4951C3.91934 52.1026 3.93468 51.9433 4.29793 51.7015C4.54777 51.535 4.67191 51.3136 4.57346 51.2094C4.35468 50.9779 4.76809 49.1409 5.10776 48.8353C5.24251 48.714 5.21571 48.4697 5.04785 48.292C4.83586 48.0676 4.68443 48.0809 4.55051 48.3358C4.43741 48.5509 4.31771 48.5881 4.26056 48.4253C4.20672 48.2728 4.36588 48.0632 4.61395 47.9593C4.92628 47.8282 5.00743 47.6237 4.87755 47.2933C4.7746 47.031 4.80213 46.8393 4.93898 46.8676C5.07564 46.8957 5.16757 46.6742 5.14361 46.3755C5.10551 45.9035 5.23883 45.5291 5.59816 45.0987C5.65001 45.0362 5.56547 44.8504 5.40987 44.6857C5.1215 44.3804 5.20358 44.1744 5.76037 43.8057C5.98834 43.6548 5.96451 43.5319 5.67319 43.3538C5.45271 43.219 5.37928 43.106 5.50966 43.102C5.99839 43.0881 6.09009 42.0613 5.67559 41.2462C5.22414 40.3583 4.90213 39.0189 5.22125 39.3567C5.32385 39.4653 5.42652 39.6979 5.44944 39.8738C5.47235 40.0496 5.71517 40.3571 5.98899 40.5568C6.40583 40.861 6.47745 40.8479 6.42918 40.4762C6.39734 40.2319 6.19124 39.757 5.97116 39.4206C5.56523 38.7998 5.4572 38.1816 5.82253 38.5683C5.93229 38.6845 6.11467 38.6965 6.22775 38.5948C6.36061 38.4753 6.25239 38.2462 5.9217 37.9469C5.30063 37.3844 5.32069 37.3549 6.18367 37.5616C6.85752 37.7232 7.44616 37.1522 7.04462 36.7272C6.94786 36.6248 6.96688 36.4526 7.08694 36.3445C7.207 36.2365 7.40708 36.2559 7.53156 36.3877C7.70753 36.574 7.74638 36.539 7.70619 36.2306C7.67776 36.0124 7.87061 35.6395 8.13474 35.4018C8.39888 35.1642 8.52106 34.8704 8.4062 34.7488C8.29134 34.6272 8.3445 34.4911 8.52434 34.4464C8.704 34.4015 8.76885 34.2777 8.66852 34.1715C8.56799 34.0651 8.67422 33.8085 8.90459 33.6013C9.13481 33.3941 9.27746 33.0165 9.22155 32.7621C9.16563 32.5078 9.28354 32.1524 9.48364 31.9724C9.79056 31.6962 9.77476 31.6237 9.38338 31.5086C8.94465 31.3796 8.96331 31.0737 9.40436 31.1644C9.81086 31.2481 10.9464 30.1603 10.9937 29.6421C11.0202 29.352 11.3951 28.7229 11.8269 28.2443C12.8153 27.1493 13.0734 26.5804 12.741 26.2286C12.5877 26.0663 12.632 25.816 12.8485 25.6212C13.0513 25.4388 13.1274 25.121 13.0178 24.9149C12.7196 24.3537 13.066 24.2034 13.4136 24.7435C13.5793 25.0006 13.7644 25.1794 13.8249 25.1405C14.7562 24.5445 16.3989 22.7294 16.4552 22.2341C16.4729 22.0785 16.9214 21.6684 17.4516 21.3225C18.475 20.6555 18.9303 20.2842 19.9092 19.3204C20.4675 18.7709 20.4761 18.6897 20.0113 18.3459C19.5379 17.9956 19.5401 17.9832 20.0486 18.1569C20.4829 18.3054 20.6108 18.2464 20.6824 17.8651C20.7759 17.3662 21.3351 17.0873 21.6256 17.3947C21.7182 17.4927 21.8922 17.4846 22.0123 17.3766C22.1324 17.2686 22.1555 17.1007 22.0641 17.0039C21.7691 16.6917 22.2608 16.1042 22.7073 16.2354C23.2368 16.3912 23.6233 16.0896 23.314 15.7623C23.138 15.576 23.1769 15.541 23.4887 15.6051C24.1225 15.7354 24.3451 15.3572 24.1626 14.4611C24.0699 14.0053 24.0577 13.6838 24.1357 13.7467C24.2138 13.8097 24.3789 13.9363 24.5026 14.0282C24.6262 14.12 24.863 14.3225 25.0287 14.4781C25.5038 14.9248 26.5782 13.6786 26.2381 13.075C26.1511 12.9202 26.2855 13.0659 26.5368 13.3983C27.0336 14.0558 27.4523 13.9971 27.023 13.3301C26.7719 12.9404 26.776 12.9367 27.1064 13.2551C27.2971 13.4388 27.5258 13.5241 27.6144 13.4443C27.703 13.3646 27.6034 13.1942 27.3929 13.0657C27.0897 12.8804 27.1054 12.7995 27.4683 12.6773C27.7201 12.5922 28.0226 12.5815 28.1399 12.6532C28.2575 12.725 28.368 12.6496 28.3853 12.4856C28.4028 12.3214 28.5505 12.0101 28.7137 11.7942C28.8771 11.5781 28.9647 11.2456 28.9087 11.0556C28.8477 10.8494 28.9338 10.9129 29.1221 11.2133C29.5444 11.8878 30.2116 11.7359 30.0211 11.0083C29.9452 10.7176 29.8111 10.3996 29.7232 10.3017C29.6353 10.2035 29.7456 10.1442 29.9686 10.1699C30.1915 10.1955 30.3613 10.1187 30.3457 9.99908C30.3039 9.67956 30.6825 10.127 31.0747 10.8611C31.3459 11.3686 31.4608 11.4609 31.6313 11.3076C31.7493 11.2014 31.7637 11.0275 31.6632 10.9211C31.4319 10.6763 32.0827 10.5026 32.7382 10.6341C33.179 10.7225 33.2051 10.6901 32.9649 10.3537C32.7193 10.0097 32.7649 9.97965 33.4453 10.0401C33.8588 10.0768 34.3195 9.99701 34.4688 9.86267C34.6181 9.72834 34.8245 9.70772 34.9275 9.81672C35.0304 9.92571 35.3576 9.77099 35.6545 9.47285C36.0835 9.04183 36.1158 8.88054 35.8124 8.68708C35.6022 8.55299 35.7917 8.5535 36.2332 8.6877C36.8268 8.86829 37.1078 8.82119 37.3115 8.50679C37.463 8.27301 37.768 8.04666 37.9892 8.00417C38.2107 7.96154 38.4568 7.83504 38.5358 7.72293C38.615 7.61069 38.7683 7.61277 38.8765 7.72736C38.9848 7.84194 39.1132 7.88186 39.1622 7.816C39.3313 7.58779 40.1799 7.39712 40.3281 7.55402C40.41 7.64066 40.5578 7.55829 40.6563 7.37072C40.7637 7.16617 40.9899 7.12405 41.2217 7.26564C41.4692 7.41706 41.7862 7.34164 42.1042 7.05556C42.3771 6.81006 42.8008 6.66814 43.0461 6.74029C43.2911 6.81237 43.5339 6.75162 43.5855 6.60508C43.637 6.45868 44.1015 6.3174 44.6174 6.29092C45.1334 6.26463 45.6035 6.10649 45.6621 5.94C45.7209 5.77338 45.9216 5.70028 46.1082 5.77758C46.4418 5.91581 46.5679 6.00075 46.9778 6.36394C47.0915 6.4647 47.2828 6.45882 47.4029 6.3508C47.5229 6.24279 47.5363 6.06458 47.4326 5.95478C47.3288 5.84499 47.3422 5.66678 47.4622 5.55876C47.5823 5.45074 47.7895 5.47775 47.9227 5.61868C48.2652 5.9812 49.8554 5.87819 49.6419 5.50744C49.3845 5.06027 49.7286 4.92385 50.0672 5.33864C50.5714 5.95638 51.1944 6.48274 51.0198 6.14348C50.8297 5.77418 51.3294 5.23494 51.5981 5.5194C51.6985 5.6256 51.8301 5.57256 51.8905 5.40146C51.9635 5.194 52.1179 5.21319 52.3526 5.45882C52.5928 5.7099 52.6678 5.71744 52.5877 5.48222C52.4977 5.21713 52.6436 5.07775 53.2173 4.8814C53.628 4.74049 53.9974 4.72024 54.0382 4.83608C54.0789 4.95191 54.1956 4.88791 54.2975 4.69396C54.4441 4.4151 54.605 4.45125 55.067 4.86696C55.4755 5.23436 55.7202 5.31522 55.8798 5.13574C56.0055 4.99461 56.2055 4.98087 56.3241 5.10531C56.443 5.22996 56.9961 5.33467 57.5536 5.33797C58.1112 5.34147 58.8228 5.40735 59.1352 5.48459C59.7966 5.64808 60.1308 5.44158 59.8087 5.06845C59.6854 4.92568 59.9084 5.01271 60.3043 5.26219C61.0306 5.72002 61.7882 5.96504 61.9702 5.80125C62.0245 5.75241 61.8806 5.59125 61.6502 5.44287C61.3135 5.22615 61.3494 5.21197 61.832 5.36975C62.3475 5.53829 62.4122 5.50625 62.2883 5.14394C62.1701 4.79859 62.2146 4.79584 62.533 5.12911C63.0766 5.69849 64.2666 6.31407 64.4725 6.13218C64.7885 5.8534 66.1827 5.87801 66.7895 6.17295C67.1197 6.33348 67.4958 6.36962 67.6253 6.2531C67.851 6.05002 68.1948 6.28621 69.1963 7.33255C69.4314 7.57825 69.6883 7.72083 69.7675 7.64961C69.8466 7.57838 70.0387 7.65486 70.1943 7.81955C70.3499 7.98425 70.5427 8.06007 70.6227 7.98807C70.7028 7.91605 70.9012 7.99787 71.0638 8.16995C71.2739 8.39233 71.4092 8.37029 71.5312 8.09328C71.6524 7.81838 71.83 7.78717 72.1347 7.98718C73.2661 8.73017 76.304 10.2629 76.4265 10.1527C76.5023 10.0844 76.9121 10.3104 77.3371 10.6548C77.7622 10.9996 78.3946 11.3302 78.7429 11.3899C79.2056 11.4692 79.4248 11.6217 79.5559 11.9558C79.756 12.4656 81.6115 13.9819 81.8132 13.8004C81.8799 13.7405 82.0975 13.8642 82.297 14.0754C82.4966 14.2866 83.0538 14.5749 83.535 14.7158C84.0165 14.8569 84.4902 15.1139 84.5877 15.2869C84.6851 15.46 84.9894 15.6675 85.2636 15.748C85.6849 15.872 85.7553 15.9596 85.7188 16.3134C85.6843 16.6484 85.8111 16.8194 86.3519 17.1675C86.7239 17.4068 87.0712 17.5644 87.1236 17.5176C87.1759 17.4706 87.8583 18.1448 88.64 19.0155C89.4216 19.886 90.2937 20.8464 90.5778 21.1491C90.8618 21.452 91.018 21.7743 90.9246 21.865C90.8312 21.956 91.0879 22.0689 91.495 22.1162C91.9914 22.1741 92.224 22.2983 92.2018 22.4941C92.1501 22.9487 94.4881 25.024 94.6224 24.6428C94.6827 24.4715 94.7685 24.4733 94.8297 24.6472C94.887 24.8102 94.8047 24.9759 94.647 25.015C94.4894 25.0545 94.4461 25.2483 94.551 25.4457C94.6559 25.6431 94.7975 25.7545 94.8658 25.6931C95.1004 25.4821 95.9168 26.2587 96.2212 26.9827C96.5774 27.8297 96.9374 28.2611 97.1378 28.0808C97.324 27.9132 98.2981 29.2719 98.4254 29.8768C98.5427 30.4338 99.2492 31.3688 99.6956 31.5574C99.8714 31.6319 99.9661 31.8322 99.9061 32.0029C99.8374 32.198 100.047 32.5776 100.471 33.0261C100.889 33.4685 101.189 34.0073 101.261 34.4445C101.359 35.0409 101.581 35.3506 102.704 36.455C104.028 37.7589 104.03 37.7607 103.64 38.1114C103.272 38.4425 103.3 38.5159 104.144 39.4123C105.786 41.1578 105.866 41.2711 105.508 41.3601C104.96 41.4968 105.177 42.5638 105.862 43.1097C106.245 43.4152 106.479 43.7686 106.524 44.1087C106.562 44.3982 106.758 44.81 106.96 45.024C107.162 45.238 107.335 45.6133 107.344 45.858C107.353 46.1028 107.468 46.4172 107.6 46.5565C107.732 46.696 107.79 46.9503 107.73 47.1216C107.67 47.2927 107.743 47.5629 107.893 47.7218C108.044 47.8809 108.143 48.0872 108.115 48.1805C108.055 48.3774 108.555 50.132 108.721 50.3079C108.783 50.3733 108.976 50.2992 109.149 50.1431C109.322 49.9872 109.475 49.943 109.488 50.045C109.502 50.1471 109.259 50.4675 108.95 50.7572C108.451 51.2239 108.433 51.3954 108.794 52.26C109.018 52.7968 109.231 53.4299 109.268 53.6668C109.305 53.9036 109.45 54.1467 109.591 54.2067C109.732 54.2667 109.72 54.4303 109.565 54.5701C109.268 54.8371 109.792 55.9274 110.163 55.8164C110.276 55.7831 110.488 55.8827 110.635 56.0382C110.812 56.2257 110.739 56.4682 110.417 56.7577C110.062 57.0777 109.979 57.4476 110.109 58.1431C110.206 58.6651 110.219 59.1519 110.138 59.2251C110.056 59.2984 110.14 59.6389 110.323 59.9819C110.506 60.3248 110.556 60.6953 110.434 60.805C110.308 60.9184 110.378 61.1799 110.595 61.4101C110.806 61.6333 110.922 61.975 110.854 62.17C110.72 62.5493 110.734 63.2338 110.915 65.2644C110.978 65.9687 110.96 66.7021 110.876 66.8941C110.791 67.0863 110.783 67.3078 110.857 67.3866C110.931 67.4653 110.947 67.8609 110.891 68.2655C110.826 68.7472 110.92 69.0802 111.164 69.2298C111.41 69.38 111.468 69.5915 111.333 69.848C111.22 70.0627 111.203 70.3175 111.295 70.4145C111.386 70.5114 111.232 70.797 110.952 71.0491C110.604 71.3621 110.529 71.599 110.716 71.7968C111.065 72.1663 110.958 72.843 110.523 73.0187C110.304 73.1072 110.296 73.3224 110.501 73.6407C110.688 73.9301 110.696 74.234 110.522 74.3907C110.1 74.7703 109.964 75.2751 110.213 75.539C110.332 75.6645 110.279 75.925 110.097 76.1178C109.915 76.3107 109.651 77.0251 109.51 77.7055C109.37 78.3859 109.205 79.176 109.142 79.4614C109.08 79.747 109.09 80.0455 109.164 80.1251C109.238 80.2045 109.147 80.3072 108.963 80.3531C108.556 80.4546 107.945 82.0799 108.082 82.6992C108.136 82.9445 107.964 83.3393 107.7 83.5767C107.437 83.814 107.085 84.4626 106.919 85.0182C106.753 85.5737 106.426 86.2003 106.193 86.4103C105.959 86.6203 105.836 86.8643 105.92 86.9525C106.003 87.0405 105.83 87.5314 105.537 88.0433C105.01 88.9608 104.82 89.2406 103.762 90.6527C103.467 91.046 103.274 91.506 103.334 91.6747C103.393 91.8437 103.112 92.237 102.706 92.5517C102.276 92.8862 102.019 93.2575 102.087 93.4489C102.15 93.6285 101.854 94.1404 101.43 94.5868C100.526 95.5372 99.7196 96.656 99.6779 97.0163C99.6313 97.4197 98.926 98.0647 98.6566 97.9499C98.5218 97.8925 98.1523 98.1728 97.8352 98.5729C97.5181 98.9728 96.7975 99.7474 96.2338 100.294C95.5028 101.003 95.2501 101.408 95.3525 101.708C95.464 102.034 95.4383 102.067 95.2379 101.859C95.0833 101.698 94.9344 101.719 94.8664 101.912C94.8012 102.097 94.7111 102.116 94.6553 101.957C94.5571 101.678 94.2292 101.84 93.7079 102.425C93.5532 102.599 93.2915 102.683 93.1268 102.613C92.962 102.543 92.8136 102.606 92.797 102.752C92.7299 103.34 92.0224 104.246 91.4706 104.449C91.08 104.594 90.9535 104.737 91.0903 104.882C91.2029 105.001 91.0368 105.058 90.7214 105.009C90.3111 104.944 90.1611 105.02 90.1944 105.275C90.2273 105.527 90.0983 105.646 89.7523 105.679C89.4836 105.706 88.3984 106.398 87.3405 107.218C86.2829 108.038 85.2945 108.803 85.1442 108.918C84.9939 109.034 84.7954 109.048 84.7028 108.95C84.6102 108.852 84.485 108.912 84.4247 109.083C84.3643 109.254 84.254 109.33 84.1795 109.251C84.1048 109.172 83.82 109.287 83.5466 109.507C83.2731 109.727 82.6622 110.138 82.1892 110.421C81.7162 110.704 80.965 111.231 80.52 111.591C80.075 111.951 79.5721 112.189 79.4029 112.118C79.0578 111.975 77.2656 112.761 77.2303 113.071C77.2178 113.181 77.1177 113.175 77.0079 113.059C76.8982 112.943 76.6118 113.024 76.3716 113.24C76.1315 113.456 76.0199 113.723 76.1237 113.833C76.2274 113.942 76.2468 114.091 76.1667 114.163C76.0867 114.235 75.8888 114.154 75.7272 113.983C75.5655 113.812 75.421 113.778 75.4061 113.908C75.3914 114.039 75.2573 114.093 75.1083 114.03C74.9592 113.966 74.7875 114.056 74.7264 114.229C74.6654 114.402 74.398 114.467 74.1321 114.374C73.8664 114.281 73.3488 114.401 72.982 114.639C71.9248 115.328 71.0703 115.64 70.8861 115.406C70.7927 115.287 70.5787 115.214 70.4108 115.244C70.2429 115.275 69.8654 115.327 69.5721 115.361C69.2785 115.395 68.7743 115.565 68.4515 115.738C68.1288 115.911 67.664 116.034 67.4186 116.012C66.6587 115.944 65.8596 116.05 65.6401 116.248C65.5249 116.351 65.1145 116.336 64.7284 116.213C64.0281 115.99 62.6239 116.235 62.5836 116.588C62.5719 116.691 62.1249 116.676 61.59 116.555C61.0552 116.434 60.5613 116.385 60.4923 116.447C60.4235 116.509 60.0032 116.472 59.5585 116.364C59.0599 116.244 58.5876 116.312 58.327 116.543C57.7472 117.057 57.3922 117.021 56.6736 116.374C56.1907 115.939 55.9877 115.884 55.7269 116.118C55.5442 116.283 55.258 116.365 55.0909 116.3C54.9239 116.236 54.4593 116.258 54.0586 116.348C53.2127 116.539 51.9783 116.203 51.4413 115.634C51.1603 115.337 51.0197 115.33 50.8751 115.605C50.7692 115.806 50.6018 115.886 50.5031 115.781C50.4043 115.677 49.9477 115.514 49.4883 115.419C49.0288 115.325 48.5296 115.117 48.3787 114.957C48.2278 114.798 48.0314 114.733 47.9423 114.813C47.8473 114.898 47.5848 114.703 47.3078 114.341C46.8463 113.736 46.177 113.446 45.8739 113.719C45.7905 113.794 45.5495 113.673 45.3385 113.449C45.0058 113.097 44.9419 113.11 44.8601 113.547C44.7935 113.902 44.7333 113.96 44.657 113.743C44.5973 113.573 44.4761 113.499 44.3876 113.579C44.2992 113.659 43.6361 113.403 42.9144 113.011C41.6177 112.307 41.6004 112.291 41.4925 111.636C41.3598 110.831 41.2215 110.665 40.7755 110.777C40.5399 110.835 40.3393 110.702 40.1303 110.348C39.9363 110.02 39.8161 109.929 39.7968 110.098C39.7803 110.243 39.6394 110.308 39.4836 110.242C39.327 110.175 39.3343 110.001 39.5002 109.851C39.6696 109.699 39.6769 109.452 39.517 109.282C39.3614 109.118 39.3113 108.904 39.4054 108.808C39.4997 108.712 39.2453 108.731 38.8405 108.851C38.1943 109.043 38.0264 108.987 37.4672 108.395C36.6833 107.565 35.7747 107.469 36.0282 108.241C36.1639 108.655 36.0644 108.643 35.3064 108.152C34.6119 107.703 34.3557 107.434 34.0856 106.875C33.7656 106.213 33.9007 105.618 34.28 106.019C34.3741 106.119 34.5375 106.035 34.6435 105.834C34.8271 105.484 35.0718 105.587 35.5803 106.227C35.8709 106.592 36.5294 106.345 36.389 105.923C36.2915 105.63 36.3452 105.59 36.6617 105.719C36.8784 105.807 37.1016 105.75 37.1577 105.591C37.2137 105.432 37.5016 105.315 37.7978 105.33C38.094 105.346 38.2833 105.424 38.2184 105.503C38.0539 105.704 39.3404 105.169 40.0665 104.735C41.2672 104.017 41.6894 103.888 41.9464 104.16C42.0964 104.318 42.2533 104.31 42.3132 104.14C42.3709 103.976 42.9256 103.815 43.5461 103.781C44.1663 103.747 44.7827 103.621 44.9158 103.502C45.0488 103.382 45.4583 103.346 45.8259 103.422C46.1934 103.497 46.5596 103.5 46.6397 103.428C46.7197 103.356 46.8557 103.372 46.9419 103.463C47.0281 103.554 47.3986 103.594 47.7652 103.551C48.1318 103.508 48.7042 103.54 49.0374 103.622C49.4088 103.714 49.7182 103.628 49.838 103.401C49.9622 103.164 50.0713 103.139 50.139 103.331C50.2056 103.52 50.2894 103.508 50.3634 103.299C50.4517 103.048 50.5384 103.07 50.7092 103.386C50.9082 103.755 50.9353 103.746 50.9239 103.314C50.9125 102.892 50.9508 102.862 51.1835 103.108C51.7925 103.753 54.3717 103.565 54.4509 102.87C54.4669 102.728 54.6709 102.598 54.9042 102.58C55.193 102.558 55.3103 102.411 55.2724 102.12C55.2269 101.771 55.069 101.617 54.4073 101.277C53.962 101.048 53.5044 100.945 53.3903 101.048C53.2761 101.15 53.0442 101.088 52.875 100.909C52.4867 100.498 49.2868 99.9384 48.9677 100.226C48.8123 100.365 48.5696 100.27 48.2684 99.9514C47.7209 99.3718 46.6818 99.0699 46.9358 99.5641C47.0255 99.7383 46.9355 99.7166 46.7333 99.5151C46.457 99.2397 46.3067 99.2505 46.1061 99.5602C45.9412 99.8149 45.7873 99.8636 45.695 99.6899C45.6139 99.5373 45.093 99.2861 44.5373 99.1317C43.7133 98.9029 43.3861 98.9524 42.7636 99.4009C42.3247 99.7171 41.7324 99.9087 41.3704 99.8518C40.7757 99.7584 40.0361 99.7638 39.2488 99.8672C39.0572 99.8922 38.6481 99.8799 38.3398 99.8397C37.8373 99.774 37.6049 99.8575 36.8016 100.392C36.6755 100.476 36.3854 100.408 36.1567 100.241C35.7565 99.9494 35.6178 100 34.6075 100.809C33.9589 101.328 33.2328 101.491 32.9414 101.183C32.5913 100.812 31.8454 101.161 32.0729 101.589C32.2166 101.859 32.1087 101.908 31.5683 101.815C31.1901 101.75 30.6836 101.78 30.4429 101.881C30.2021 101.982 29.887 101.939 29.7427 101.787C29.5983 101.634 29.3799 101.599 29.2574 101.709C29.1347 101.819 28.8777 101.814 28.6864 101.697C28.4762 101.568 28.2074 101.647 28.0067 101.895C27.8242 102.12 27.4852 102.326 27.2534 102.351C27.002 102.378 26.7975 102.564 26.7467 102.812C26.6996 103.04 26.5717 103.492 26.4626 103.816C26.3531 104.14 26.3781 104.454 26.5177 104.514C26.6575 104.573 26.934 104.926 27.1324 105.297C27.3909 105.781 27.6156 106.008 27.9269 106.099C28.1654 106.169 28.3731 106.321 28.388 106.436C28.4032 106.552 28.5876 106.697 28.7981 106.758C29.0084 106.82 29.2769 107.009 29.3947 107.179C29.516 107.353 29.7078 107.375 29.8373 107.23C29.963 107.089 30.1518 107.064 30.257 107.175C30.3711 107.296 30.2103 107.499 29.8576 107.679C29.5328 107.844 29.4081 107.979 29.5805 107.978C29.753 107.977 30.1337 108.174 30.4267 108.416C30.7197 108.659 30.8254 108.77 30.6614 108.663C30.4977 108.557 30.3027 108.524 30.2286 108.591C30.0459 108.755 30.759 109.489 31.0922 109.479C31.2388 109.475 31.4025 109.597 31.4561 109.749C31.6167 110.206 32.3875 111.08 32.5226 110.959C32.701 110.798 33.3862 111.567 33.3498 111.888C33.3288 112.072 33.4444 112.191 33.7259 112.274C34.0242 112.361 34.1123 112.47 34.0571 112.681C33.9975 112.909 34.0428 112.96 34.2735 112.923C34.6944 112.854 35.0215 113.275 35.2393 114.164C35.4043 114.837 35.5586 115.04 36.3889 115.673C37.6634 116.645 37.6763 116.661 37.3893 116.933C37.1644 117.146 37.1938 117.172 37.7 117.207C38.1625 117.239 38.2187 117.283 38.0249 117.457C37.878 117.589 37.9816 117.945 38.3021 118.408C38.5837 118.815 38.8529 119.315 38.9008 119.519C38.9485 119.723 39.1266 119.978 39.2963 120.086C39.4662 120.194 39.7599 120.641 39.9492 121.078C40.2447 121.761 40.2316 121.835 39.8573 121.594C39.4698 121.346 39.4531 121.392 39.7063 122.009C39.8633 122.392 39.9297 122.76 39.8539 122.828C39.6673 122.996 40.1743 126.221 40.4297 126.491C40.5627 126.632 40.6153 126.569 40.5815 126.31C40.5531 126.092 40.5998 125.853 40.6855 125.779C40.7711 125.705 40.8236 125.817 40.802 126.028C40.7728 126.314 40.8591 126.431 41.1418 126.49C41.363 126.535 41.7958 126.921 42.1813 127.416C42.7158 128.103 42.8874 128.224 43.0795 128.051C43.2102 127.934 43.1791 127.692 43.0105 127.513C42.7706 127.259 42.8233 127.129 43.2538 126.916C43.6496 126.719 43.7315 126.566 43.5463 126.37C43.4048 126.221 43.211 126.176 43.116 126.271C43.0205 126.366 42.81 126.537 42.6481 126.651C42.3799 126.839 42.347 126.811 42.2856 126.339C42.2482 126.053 42.1055 125.7 41.9686 125.556C41.8315 125.41 41.7687 125.152 41.8289 124.98C41.9069 124.76 42.064 124.802 42.3682 125.124C42.8109 125.592 44.1426 126.172 43.7262 125.715C43.5993 125.576 43.5862 125.379 43.6977 125.279C43.809 125.179 43.7228 124.826 43.506 124.495C43.2577 124.115 43.2217 123.865 43.4089 123.818C43.5727 123.777 43.6416 123.017 43.5623 122.123C43.4494 120.85 43.292 120.362 42.83 119.852C42.5063 119.495 42.2925 119.157 42.3549 119.101C42.4173 119.045 42.3226 118.756 42.1445 118.459C41.3043 117.06 41.922 116.573 43.3153 117.535C43.8093 117.876 44.4764 118.197 44.7975 118.247C45.1186 118.298 45.5894 118.559 45.8439 118.829C46.1775 119.182 46.337 119.231 46.416 119.007C46.4955 118.782 46.655 118.832 46.9913 119.188C47.2474 119.459 47.5406 119.606 47.6428 119.514C47.8509 119.327 49.6894 119.76 49.7212 120.004C49.7322 120.09 49.99 120.154 50.2937 120.147C50.6727 120.138 51.0406 120.34 51.4666 120.79C52.0934 121.454 52.1822 121.467 53.1103 121.034C53.3929 120.902 53.7374 120.914 53.8758 121.061C54.2334 121.439 55.796 121.781 56.0647 121.539C56.1886 121.427 56.4252 121.479 56.5906 121.654C56.7558 121.829 57.0643 121.903 57.2761 121.817C57.4878 121.731 58.107 121.911 58.6517 122.217C59.2601 122.558 59.7121 122.677 59.8234 122.524C60.1403 122.09 61.0682 121.834 61.3279 122.109C61.6502 122.45 62.884 122.79 63.0988 122.597C63.1894 122.515 63.3909 122.583 63.5465 122.748C63.7021 122.912 63.9019 122.982 63.9905 122.902C64.0792 122.822 63.9866 122.656 63.7849 122.533C63.5833 122.41 63.4888 122.246 63.5751 122.168C63.6704 122.082 63.8837 122.259 64.1198 122.62C64.4729 123.16 64.5163 123.17 64.5987 122.731C64.6731 122.334 64.7462 122.308 65.0053 122.582C65.4106 123.011 66.2373 123.07 66.665 122.7C66.8605 122.531 67.1156 122.536 67.2814 122.711C67.4622 122.903 67.7044 122.885 67.953 122.661C68.1668 122.469 68.6038 122.353 68.9242 122.403C69.4726 122.489 70.0224 122.284 70.8094 121.699C70.9968 121.56 71.1854 121.546 71.2282 121.668C71.2711 121.79 71.4178 121.684 71.5539 121.433C71.7312 121.106 72.0084 121.011 72.5239 121.099C72.921 121.167 73.299 121.175 73.364 121.117C73.4289 121.058 73.5918 121.127 73.7259 121.269C73.86 121.41 74.3573 121.373 74.8313 121.185C75.3053 120.998 75.892 120.879 76.1351 120.92C76.3781 120.962 76.6544 120.952 76.7489 120.899C76.8435 120.846 77.1885 120.65 77.5156 120.463C77.8428 120.276 78.2589 120.187 78.4405 120.264C78.6221 120.342 79.1028 120.14 79.5085 119.816C79.9142 119.492 80.3657 119.305 80.5117 119.402C80.6575 119.498 80.8243 119.442 80.8821 119.278C80.9398 119.114 81.0809 119.08 81.1956 119.201C81.3105 119.323 81.6158 119.229 81.8741 118.993C82.3377 118.57 82.9936 118.132 84.4333 117.285C84.8377 117.047 85.2708 116.96 85.3958 117.093C85.7159 117.431 87.6806 116.313 87.7598 115.747C87.804 115.431 87.9036 115.364 88.1227 115.501C88.2887 115.606 88.5448 115.583 88.6915 115.451C88.8381 115.319 88.8851 115.069 88.7959 114.896C88.6956 114.701 88.759 114.704 88.9625 114.906C89.3884 115.328 90.0727 115.098 90.1857 114.495C90.2511 114.146 90.5167 113.95 91.2032 113.743C91.7142 113.589 92.2758 113.311 92.451 113.124C92.6261 112.938 93.0142 112.691 93.3131 112.575C93.765 112.399 93.7903 112.323 93.463 112.123C92.9668 111.82 93.2035 111.58 93.8199 111.761C94.3523 111.917 95.0087 111.432 94.8552 110.996C94.7914 110.815 94.8828 110.713 95.0928 110.732C95.2805 110.748 95.5322 110.674 95.6525 110.566C95.7727 110.458 96.1702 110.205 96.5355 110.004C96.9453 109.779 97.1254 109.56 97.0056 109.433C96.8804 109.301 96.9634 109.212 97.2395 109.182C97.475 109.157 98.1824 108.624 98.8117 107.997C99.4716 107.339 100.032 106.937 100.135 107.046C100.244 107.162 100.347 107.06 100.399 106.786C100.46 106.458 100.596 106.368 100.898 106.457C101.195 106.544 101.566 106.305 102.213 105.611C102.709 105.079 103.303 104.463 103.532 104.243C103.96 103.831 103.998 103.372 103.656 102.72C103.534 102.486 103.553 102.437 103.708 102.587C103.844 102.719 104.054 102.738 104.174 102.63C104.294 102.522 104.482 102.529 104.592 102.645C104.702 102.761 104.804 102.745 104.82 102.609C104.835 102.474 105.437 101.77 106.158 101.047C106.878 100.323 107.48 99.6228 107.495 99.4906C107.51 99.3586 107.766 98.9494 108.062 98.5818C109.467 96.842 109.745 96.4159 109.587 96.248C109.493 96.1486 109.545 95.9512 109.702 95.8094C109.885 95.6451 109.868 95.4776 109.654 95.3472C109.336 95.1527 109.559 94.2738 109.909 94.3457C109.994 94.3631 109.986 94.446 109.893 94.5299C109.8 94.614 109.85 94.8175 110.006 94.9822C110.332 95.3273 110.631 95.1717 110.403 94.7754C110.318 94.6289 110.574 94.1523 110.971 93.7161C111.368 93.2797 111.628 92.8117 111.55 92.6758C111.472 92.5398 111.599 92.2568 111.832 92.0468C112.066 91.8366 112.189 91.5934 112.106 91.506C112.024 91.4185 112.383 90.7679 112.905 90.0602C113.432 89.3458 113.825 88.5488 113.788 88.2675C113.752 87.9888 113.914 87.5885 114.148 87.3777C114.383 87.1668 114.49 86.9044 114.386 86.7946C114.282 86.6848 114.391 86.4208 114.627 86.208C114.864 85.9953 115.227 85.1933 115.434 84.4262C115.642 83.6591 115.968 82.4924 116.161 81.8338C116.353 81.1753 116.468 80.5493 116.417 80.4431C116.366 80.3365 116.452 80.1349 116.608 79.9946C116.764 79.8544 116.802 79.5709 116.692 79.3648C116.582 79.1586 116.612 78.8826 116.758 78.7514C116.904 78.6203 116.993 78.2803 116.956 77.9956C116.918 77.711 117.027 77.2721 117.198 77.0203C117.368 76.7683 117.543 76.1226 117.588 75.5853C117.632 75.048 117.755 74.5303 117.861 74.4349C117.967 74.3394 117.979 73.747 117.888 73.1184C117.796 72.4898 117.773 71.9289 117.837 71.8718C118.037 71.6915 117.898 70.5648 117.642 70.2937C117.507 70.1508 117.485 69.7849 117.594 69.4807C117.702 69.1766 117.732 68.5727 117.659 68.1386C117.586 67.7045 117.564 67.3164 117.609 67.276C117.654 67.2356 117.595 66.4877 117.479 65.6139C117.363 64.7404 117.38 63.9908 117.517 63.9486C117.655 63.906 117.632 63.7292 117.468 63.5553C117.304 63.3814 117.268 63.1509 117.388 63.0429C117.51 62.9331 117.438 62.6686 117.225 62.4431C116.999 62.2037 116.906 61.808 116.996 61.4707C117.089 61.1239 116.974 60.6547 116.701 60.2674C116.454 59.9183 116.343 59.5516 116.453 59.4527C116.563 59.3537 116.568 59.1828 116.464 59.073C116.36 58.9632 116.374 58.785 116.494 58.677C116.687 58.503 116.559 58.1987 116.137 57.83C116.061 57.7635 116.107 57.4382 116.239 57.107C116.399 56.7043 116.328 56.2051 116.026 55.6039C115.777 55.1087 115.631 54.6518 115.702 54.5886C115.772 54.5253 115.638 54.1885 115.404 53.8404C114.879 53.0578 114.141 51.4214 114.208 51.1877C114.235 51.0926 114.093 50.9663 113.891 50.9067C113.662 50.8396 113.47 50.6427 113.382 50.3846C113.286 50.1033 113.317 50.05 113.479 50.218C113.609 50.3543 113.854 50.3226 114.022 50.1478C114.252 49.9088 114.243 49.8642 113.987 49.968C113.52 50.1567 113.229 49.7964 113.587 49.4739C113.749 49.3285 113.752 49.0789 113.595 48.9126C113.44 48.7479 113.376 48.5561 113.453 48.4863C113.531 48.4167 113.429 48.2587 113.228 48.1354C112.96 47.9715 112.963 47.8196 113.24 47.57C113.654 47.1977 113.517 46.9416 112.722 46.6065C112.308 46.4321 112.163 46.2357 111.99 45.619C111.757 44.7847 111.926 44.4185 112.404 44.722C112.569 44.8272 112.694 44.8055 112.682 44.674C112.67 44.5423 112.416 44.3849 112.119 44.3236C111.709 44.2393 111.527 44.0869 111.365 43.692C111.248 43.4056 111.24 43.0918 111.348 42.9946C111.603 42.7647 111.071 41.9436 110.605 41.8476C110.344 41.7941 110.353 41.6737 110.635 41.4197C110.851 41.2252 110.929 40.9609 110.807 40.8324C110.686 40.7038 110.545 40.3649 110.494 40.0796C110.443 39.7942 110.23 39.3354 110.021 39.06C109.813 38.7845 109.655 38.4371 109.67 38.2878C109.685 38.1381 109.46 37.7645 109.169 37.4574C108.877 37.15 108.588 36.5798 108.525 36.19C108.442 35.6767 108.201 35.2835 107.652 34.7645C107.074 34.2177 106.816 33.7715 106.565 32.8837C106.384 32.2433 106.144 31.6224 106.032 31.5038C105.731 31.1852 104.902 31.0606 104.928 31.3378C104.941 31.4693 104.856 31.413 104.74 31.2127C104.624 31.0124 104.648 30.7644 104.794 30.6612C105.088 30.4534 104.895 30.1383 104.48 30.1502C104.333 30.1543 104.169 30.032 104.115 29.878C104.061 29.7242 103.78 29.5845 103.49 29.5678C103.055 29.5427 102.953 29.4611 102.905 29.1029C102.857 28.744 102.888 28.7443 103.08 29.1051C103.238 29.4007 103.384 29.4783 103.531 29.3454C103.805 29.099 103.228 28.1989 102.344 27.495C101.889 27.1322 101.727 26.9065 101.845 26.8001C101.963 26.6944 101.811 26.48 101.387 26.1512C99.8338 24.9484 98.3379 23.3563 98.2699 22.834C98.2156 22.4178 97.9431 22.0806 96.8767 21.1115C96.1476 20.4487 95.493 19.9584 95.4224 20.0219C95.3517 20.0856 95.0599 19.8909 94.7743 19.5895C94.4885 19.2882 93.9137 18.8721 93.4971 18.6652C92.5245 18.1823 92.2197 17.8508 92.3 17.3639C92.3477 17.0747 92.2155 16.8749 91.7948 16.6C91.4811 16.3951 91.1231 16.0843 90.9985 15.9091C90.7925 15.619 90.2578 15.2813 88.9882 14.6391C88.6994 14.493 88.5829 14.3574 88.6752 14.2744C88.7558 14.2019 88.6521 13.9628 88.4447 13.7432C88.2351 13.5214 87.9704 13.4313 87.8492 13.5403C87.7291 13.6483 87.4769 13.5846 87.2887 13.3983C86.3656 12.4853 85.9576 12.1928 85.6207 12.2026C85.3963 12.2091 85.0416 11.9533 84.712 11.5477C84.371 11.1281 83.9379 10.8231 83.5399 10.7221C83.172 10.6291 82.6178 10.2536 82.2117 9.82266C81.8285 9.4159 81.3061 9.03908 81.0508 8.98547C80.719 8.91547 80.5959 8.80605 80.6192 8.60157C80.6417 8.40448 80.4667 8.20475 80.0576 7.96012C79.7309 7.76474 78.8714 7.19187 78.1479 6.68718C77.1213 5.97072 76.7502 5.81818 76.4575 5.99219C76.2207 6.13283 75.9085 6.06478 75.6114 5.80796C75.3455 5.5778 75.0279 5.48949 74.8811 5.60489C74.7385 5.71729 74.6569 5.69953 74.6997 5.56567C74.8177 5.1973 73.9638 4.66931 73.4976 4.82246C73.1674 4.93119 72.9949 4.82639 72.6121 4.28411C72.0592 3.50147 71.2126 3.02565 70.8895 3.31631C70.7156 3.47278 70.5588 3.36382 70.1949 2.83331C69.8275 2.29776 69.6748 2.19332 69.495 2.35502C69.3687 2.46867 69.1804 2.47193 69.0766 2.36213C68.9729 2.25234 68.7591 2.27851 68.6015 2.42031C68.396 2.60518 68.2535 2.56238 68.0979 2.26917C67.9489 1.98889 67.8441 1.94724 67.7648 2.13681C67.6399 2.43493 66.9311 2.37093 66.6116 2.03276C66.5037 1.91857 66.3661 1.96523 66.3056 2.13633C66.2453 2.30763 66.0964 2.34231 65.9745 2.21335C65.5596 1.77417 63.7556 1.31288 63.2619 1.5199C62.8601 1.68822 62.7037 1.62549 62.4118 1.17943C62.1707 0.810908 61.9469 0.659216 61.7255 0.714387C61.5449 0.759448 61.1188 0.625369 60.779 0.416679C60.4391 0.207996 60.1213 0.0939301 60.0725 0.163351C59.8014 0.549466 59.3978 0.66659 59.17 0.425443C58.7283 -0.0420829 58.0697 -0.0105249 58.1761 0.473161C58.2267 0.702802 58.3668 0.910956 58.4878 0.935825C58.6087 0.960694 58.5924 1.08472 58.4515 1.21146C58.3106 1.33821 57.9857 1.28893 57.7291 1.10171C57.4582 0.904138 57.222 0.878094 57.1651 1.03964C57.1113 1.19263 56.8479 1.27264 56.5801 1.21775C56.3123 1.16252 55.9528 1.24367 55.7812 1.39804C55.4874 1.66239 55.4651 1.64623 55.396 1.1149C55.3367 0.661172 55.2669 0.569279 55.0378 0.644272C54.8812 0.695398 54.5839 0.661932 54.3771 0.569877C54.1254 0.457652 53.98 0.529405 53.9377 0.786441C53.8503 1.31601 53.2194 1.53132 52.9945 1.10838C52.8136 0.767813 51.8059 0.421671 51.8441 0.713093C51.8548 0.796525 51.5747 0.791523 51.2212 0.701805C50.8678 0.612417 50.4517 0.653302 50.2964 0.793002C50.1368 0.936632 49.8176 0.903191 49.561 0.715973C49.2056 0.456639 48.9853 0.495309 48.5406 0.895437C48.2286 1.17615 47.7839 1.42781 47.5525 1.45503C47.3209 1.48206 46.8554 1.56924 46.5176 1.64891C46.0061 1.76941 45.8693 1.70895 45.6956 1.28608C45.511 0.836514 45.4041 0.825626 44.7547 1.19157C44.3518 1.41853 43.8468 1.58412 43.6324 1.5595C43.418 1.53488 43.0895 1.72294 42.9022 1.97751C42.6701 2.293 42.4115 2.37687 42.0891 2.24077C41.596 2.03292 40.2971 2.67676 40.5881 2.98478C40.6798 3.0818 40.6357 3.19531 40.4903 3.23748C40.3449 3.27932 40.1109 3.15674 39.9704 2.96476C39.66 2.54081 39.1433 2.74613 38.7907 3.43335C38.5911 3.82274 38.4641 3.87126 38.247 3.64149C38.0912 3.4766 37.7287 3.29349 37.4413 3.23441C37.0051 3.14457 36.9017 3.21917 36.8141 3.68612C36.7563 3.99369 36.8363 4.44282 36.9916 4.68419C37.1469 4.92555 37.1793 5.19487 37.0636 5.28304C36.9054 5.40364 36.8747 5.3777 36.94 5.17897C37.0951 4.70627 36.6911 4.53941 36.2779 4.90564C35.9846 5.16544 35.8849 5.16393 35.9115 4.89996C35.9319 4.70068 36.0897 4.50214 36.2625 4.459C36.5214 4.39449 36.4307 4.30764 35.7467 3.96579C34.7903 3.48751 34.5392 3.5768 34.9681 4.24307C35.1338 4.50024 35.1745 4.7827 35.0588 4.87087C34.9006 4.99146 34.8699 4.96553 34.9352 4.7668C34.9829 4.62122 34.9442 4.42007 34.8491 4.31946C34.5851 4.03999 33.6589 4.98696 33.844 5.34671C33.9411 5.53525 33.8688 5.52569 33.6649 5.32323C33.4772 5.13682 33.2578 5.04315 33.1778 5.11516C33.0978 5.18717 32.9106 5.11733 32.762 4.96003C32.5838 4.77138 32.3483 4.81369 32.0712 5.08372C31.6505 5.49361 31.871 6.05673 32.4048 5.93548C32.5571 5.9007 32.5083 6.04171 32.2964 6.24827C31.9144 6.62076 31.5294 6.48336 31.5851 5.9941C31.6341 5.56409 31.2265 5.29932 31.094 5.67517C30.9844 5.98655 30.5953 6.10314 28.8812 6.33799C28.5378 6.38512 28.5516 6.48786 28.9604 6.92045C29.3708 7.35484 29.3813 7.43695 29.0216 7.39565C28.7825 7.3682 28.3735 7.17554 28.1129 6.96755L27.6393 6.58966L27.9617 7.14572C28.278 7.6917 28.2734 7.69801 27.7104 7.4888C27.3404 7.35127 26.9861 7.42289 26.7115 7.69069C26.4773 7.91873 26.1123 8.06984 25.9005 8.02629C25.6883 7.98267 25.1962 8.23376 24.8067 8.58413C24.4173 8.9345 23.878 9.2428 23.6083 9.26906C23.3387 9.29552 22.7003 9.60514 22.1894 9.95692C21.1499 10.6736 14.7389 16.283 14.4508 16.728ZM13.0611 19.9918C13.1304 20.0768 13.3991 20.371 13.6584 20.6454C13.9177 20.9199 14.0644 21.2034 13.9844 21.2754C13.9044 21.3474 13.5348 21.0846 13.1631 20.6911C12.765 20.2697 12.5794 19.9473 12.7113 19.9066C12.8345 19.8685 12.9918 19.9068 13.0611 19.9918ZM27.9744 8.15654C28.136 8.32762 28.1485 8.47111 28.0021 8.47542C27.8555 8.47954 27.6943 8.36566 27.6439 8.22195C27.507 7.83286 27.643 7.8058 27.9744 8.15654ZM9.80539 26.138C9.83326 26.3519 9.72032 26.3287 9.47608 26.0702C9.23183 25.8117 9.21728 25.6999 9.43346 25.7444C9.64998 25.7889 9.77747 25.9238 9.80539 26.138ZM15.7738 20.0348C15.8775 20.1446 15.893 20.2969 15.8083 20.3731C15.7236 20.4493 15.6098 20.3855 15.5555 20.2312C15.5013 20.0769 15.4857 19.9248 15.521 19.8929C15.5564 19.8611 15.6701 19.925 15.7738 20.0348ZM12.44 23.7728C12.5933 23.8381 12.6492 23.954 12.5645 24.0302C12.4798 24.1064 12.3255 24.079 12.2218 23.9692C12.118 23.8594 12.062 23.7437 12.0973 23.7118C12.1327 23.68 12.2868 23.7075 12.44 23.7728ZM22.7132 15.2688C22.8664 15.334 22.8895 15.4794 22.7648 15.5916C22.6401 15.7038 22.4531 15.7059 22.3493 15.5961C22.2456 15.4863 22.2223 15.3411 22.2977 15.2733C22.3731 15.2054 22.5599 15.2035 22.7132 15.2688ZM7.238 30.6952C7.19134 31.1031 6.9859 31.0937 6.83922 30.6769C6.78056 30.5099 6.85479 30.3696 7.00447 30.3653C7.18053 30.3602 7.26268 30.4765 7.238 30.6952ZM33.5023 7.45341C33.8424 7.81334 33.8321 7.86913 33.4354 7.82345C33.0621 7.78046 32.9747 7.7025 33.0017 7.43557C33.0478 6.97601 33.0514 6.97611 33.5023 7.45341ZM8.46242 30.5338C8.50203 30.5758 8.40368 30.7281 8.2436 30.8722C8.08352 31.0162 7.87559 31.0526 7.78167 30.9532C7.68755 30.8535 7.78609 30.7014 8.0003 30.6146C8.2147 30.5281 8.42263 30.4917 8.46242 30.5338ZM9.88748 29.7625C9.99122 29.8723 10.0473 29.988 10.0119 30.0198C9.97655 30.0517 9.8224 30.0241 9.66919 29.9589C9.51598 29.8936 9.46007 29.7777 9.54476 29.7015C9.62946 29.6253 9.78375 29.6527 9.88748 29.7625ZM30.551 11.3936C30.5927 11.64 30.6913 11.784 30.7699 11.7133C30.9209 11.5774 30.7809 11.0009 30.5883 10.966C30.5258 10.9546 30.5089 11.147 30.551 11.3936ZM5.13978 35.9529C5.10109 36.3622 4.90991 36.2576 4.5347 35.6217C4.21836 35.0856 4.22518 35.0743 4.685 35.3664C4.95796 35.5396 5.15492 35.7934 5.13978 35.9529ZM33.8025 8.91099C34.0841 9.20903 34.0515 9.81194 33.7497 9.88728C33.3329 9.99123 33.1071 9.69805 33.3086 9.31436C33.5826 8.79308 33.6439 8.7431 33.8025 8.91099ZM5.45412 35.0437C5.60972 35.2084 5.67154 35.4021 5.5915 35.4741C5.51145 35.5461 5.31866 35.4703 5.16306 35.3056C5.00746 35.1409 4.94564 34.9472 5.02568 34.8752C5.10572 34.8032 5.29852 34.8791 5.45412 35.0437ZM37.3245 7.50944C37.6325 7.83543 37.0929 8.01548 36.6394 7.73839C36.4223 7.60577 36.4399 7.4939 36.6945 7.39118C36.9008 7.30782 37.1844 7.36112 37.3245 7.50944ZM42.4467 2.85781C42.644 2.97832 42.7931 3.18655 42.7778 3.3203C42.7626 3.45404 42.5753 3.37839 42.3618 3.15241C41.9064 2.67031 41.9414 2.54901 42.4467 2.85781ZM4.89063 37.5819C4.99436 37.6917 5.01375 37.8405 4.93371 37.9125C4.85367 37.9845 4.70331 37.9536 4.59958 37.8438C4.49584 37.734 4.47646 37.5852 4.5565 37.5132C4.63654 37.4412 4.7869 37.4721 4.89063 37.5819ZM4.38405 40.2536C4.68843 40.472 4.67766 40.4817 4.28698 40.3409C3.89645 40.2 3.86312 40.23 3.98705 40.6108C4.10544 40.974 4.07407 40.9841 3.7806 40.6772C3.36324 40.2406 3.87048 39.8847 4.38405 40.2536ZM4.76897 41.0152C4.92218 41.0805 4.97809 41.1964 4.8934 41.2726C4.8087 41.3488 4.65441 41.3214 4.55068 41.2116C4.44694 41.1018 4.39089 40.986 4.42625 40.9542C4.46161 40.9224 4.61576 40.9499 4.76897 41.0152ZM5.03281 42.2551C5.11198 42.1838 5.22713 42.269 5.28879 42.4439C5.36093 42.6494 5.17607 42.6532 4.76851 42.4552C4.4208 42.2861 4.09349 42.0177 4.0416 41.8591C3.98937 41.7003 4.15875 41.7537 4.41766 41.9776C4.67673 42.2013 4.9535 42.3264 5.03281 42.2551ZM4.62033 45.6501C4.72423 45.851 4.64504 45.8347 4.41833 45.6084C4.21328 45.4036 4.13635 45.255 4.24728 45.2778C4.35822 45.3006 4.52622 45.4681 4.62033 45.6501ZM3.12697 47.6629C3.2012 47.5961 3.43162 47.7212 3.63909 47.9408C3.84655 48.1603 3.95619 48.3941 3.8827 48.4602C3.80921 48.5263 3.68733 48.7501 3.61207 48.9574C3.49024 49.2927 3.46171 49.2759 3.35384 48.8049C3.26681 48.4253 3.13007 48.2543 2.87112 48.2011C2.61216 48.1478 2.48996 48.0111 2.43959 47.7181C2.38287 47.3876 2.42897 47.3547 2.68064 47.5467C2.85196 47.6773 3.0529 47.7295 3.12697 47.6629ZM2.01763 53.9787C2.05967 54.2252 2.0428 54.4177 1.98035 54.4063C1.78768 54.3713 1.64768 53.7948 1.79874 53.6589C1.87732 53.5882 1.97592 53.7322 2.01763 53.9787ZM2.71935 55.2312C3.06223 55.5941 2.86007 55.8369 2.41316 55.599C2.236 55.5047 2.30165 55.5992 2.55909 55.8093C2.89044 56.08 2.93891 56.2136 2.72504 56.2668C2.34867 56.3606 1.8992 55.9096 2.01557 55.5549C2.18097 55.0512 2.43776 54.9332 2.71935 55.2312ZM4.07739 54.789C4.23402 55.0839 4.32255 55.1032 4.40775 54.8611C4.472 54.6792 4.55184 54.5058 4.58531 54.4757C4.61878 54.4456 4.56127 54.3311 4.45754 54.2213C4.1503 53.8961 3.84518 54.352 4.07739 54.789ZM1.38008 57.7764C1.44353 58.161 1.61969 58.5284 1.77153 58.5931C1.92336 58.6577 1.90702 58.3751 1.73498 57.9645C1.4921 57.3846 1.50945 57.2545 1.81269 57.3805C2.06676 57.4862 2.12518 57.4591 1.98028 57.3029C1.55844 56.8481 1.2652 57.0794 1.38008 57.7764ZM64.2905 5.56025C64.3942 5.67005 64.4503 5.7858 64.4149 5.81762C64.3796 5.84943 64.2254 5.82193 64.0722 5.75665C63.919 5.69137 63.8631 5.57548 63.9478 5.49928C64.0325 5.42308 64.1868 5.45046 64.2905 5.56025ZM2.72723 62.1303C2.72762 62.394 2.86578 62.7967 3.03424 63.0251C3.26783 63.3416 3.45867 63.3638 3.83576 63.1183C4.28332 62.8272 4.33272 62.3691 3.95997 61.9629C3.88343 61.8796 3.72727 61.8953 3.61303 61.9981C3.49894 62.1007 3.25262 62.0646 3.06602 61.9178C2.78211 61.6942 2.72664 61.729 2.72723 62.1303ZM3.73455 61.1501C3.83828 61.2599 4.02139 61.2614 4.14145 61.1533C4.26151 61.0453 4.27487 60.8671 4.17113 60.7573C4.0674 60.6475 3.8843 60.6461 3.76424 60.7541C3.64418 60.8621 3.63082 61.0403 3.73455 61.1501ZM4.00646 66.2823C4.1681 66.4534 4.31355 66.4791 4.32947 66.3392C4.34538 66.1993 4.27866 66.0005 4.18096 65.8971C4.08326 65.7937 3.938 65.7681 3.85796 65.8402C3.77792 65.9122 3.84483 66.1112 4.00646 66.2823ZM4.80913 66.277C4.98208 66.46 5.16341 66.514 5.21226 66.3973C5.26112 66.2806 5.22046 66.0997 5.12201 65.9955C5.02356 65.8913 4.84204 65.8371 4.71888 65.8751C4.59571 65.9132 4.63618 66.0939 4.80913 66.277ZM5.10298 69.9543C5.81718 70.6113 6.36735 70.6323 5.93713 69.986C5.50585 69.3377 4.91332 68.9531 4.67568 69.1669C4.51953 69.3074 4.63913 69.5277 5.10298 69.9543ZM4.4171 70.7597C4.57653 70.723 4.69533 70.6028 4.68103 70.4931C4.66673 70.3833 4.53635 70.4135 4.39108 70.5601C4.23059 70.7222 4.2408 70.8005 4.4171 70.7597ZM5.10417 71.2436C5.11979 71.3647 5.22042 71.5567 5.32774 71.6703C5.4458 71.7952 5.50249 71.7224 5.4716 71.4854C5.44356 71.2702 5.34294 71.0783 5.24804 71.0587C5.15296 71.039 5.08822 71.1224 5.10417 71.2436ZM77.8577 6.81201C77.9036 6.86051 77.9278 7.01446 77.9119 7.15434C77.896 7.29423 77.793 7.31342 77.6832 7.19724C77.5735 7.08106 77.549 6.92691 77.629 6.8549C77.7091 6.78289 77.8119 6.76349 77.8577 6.81201ZM94.1294 23.8399C94.2333 24.0408 94.1541 24.0245 93.9274 23.7982C93.7223 23.5935 93.6454 23.4448 93.7563 23.4676C93.8672 23.4904 94.0353 23.658 94.1294 23.8399ZM102.751 28.103C102.911 28.2083 102.858 28.3389 102.615 28.4372C102.396 28.5256 102.175 28.4795 102.124 28.3347C102.01 28.0105 102.394 27.8685 102.751 28.103ZM38.3351 100.998C38.439 101.198 38.3598 101.182 38.1331 100.956C37.928 100.751 37.8511 100.602 37.962 100.625C38.073 100.648 38.241 100.816 38.3351 100.998ZM38.939 100.407C39.0367 100.51 39.051 100.653 38.9709 100.725C38.8909 100.797 38.693 100.716 38.5314 100.545C38.3697 100.374 38.3553 100.23 38.4994 100.226C38.6436 100.222 38.8413 100.303 38.939 100.407ZM33.5791 107.522C33.6202 107.847 33.5819 107.839 33.392 107.483C33.2608 107.237 33.2374 107.053 33.3404 107.074C33.4431 107.095 33.5506 107.296 33.5791 107.522ZM38.1447 108.738C38.3041 108.701 38.4229 108.581 38.4086 108.471C38.3943 108.362 38.2639 108.392 38.1186 108.538C37.9582 108.7 37.9684 108.779 38.1447 108.738ZM46.188 118.053C46.5753 118.167 46.6017 118.235 46.3478 118.463C46.137 118.653 45.9823 118.622 45.8442 118.362C45.7348 118.156 45.6629 117.971 45.6846 117.952C45.7061 117.933 45.9327 117.978 46.188 118.053ZM43.0374 123.357C43.1413 123.558 43.0621 123.542 42.8354 123.316C42.6303 123.111 42.5534 122.962 42.6643 122.985C42.7753 123.008 42.9433 123.176 43.0374 123.357ZM113.401 78.1482C113.505 78.3491 113.425 78.3328 113.199 78.1065C112.994 77.9017 112.917 77.753 113.028 77.7758C113.139 77.7987 113.307 77.9662 113.401 78.1482ZM72.1879 121.63C72.4472 121.706 72.6505 121.7 72.6398 121.617C72.6098 121.388 72.047 121.194 71.8712 121.352C71.7745 121.439 71.8939 121.543 72.1879 121.63ZM99.9815 97.9075C100.135 97.9728 100.158 98.1182 100.033 98.2304C99.9085 98.3426 99.7214 98.3447 99.6177 98.2349C99.514 98.1251 99.4907 97.9799 99.566 97.912C99.6414 97.8442 99.8283 97.8423 99.9815 97.9075ZM113.281 86.6415C113.419 86.7 113.483 86.8826 113.425 87.0473C113.355 87.2472 113.256 87.2264 113.127 86.9848C112.904 86.5649 112.936 86.4943 113.281 86.6415ZM105.503 101.135C105.607 101.335 105.527 101.319 105.301 101.093C105.096 100.888 105.019 100.739 105.13 100.762C105.241 100.785 105.409 100.953 105.503 101.135Z" fill="#fff"/>
</svg>
