<svg width="153" height="145" viewBox="0 0 153 145" fill="none" xmlns="http://www.w3.org/2000/svg">
<path fill-rule="evenodd" clip-rule="evenodd" d="M66.7073 77.1973C66.1658 80.5202 66.3789 83.2712 66.7026 85.378C69.8931 105.515 91.6517 111.891 112.685 112.241C118.32 112.337 126.998 110.875 132.777 107.411C136.839 104.979 139.496 101.585 138.981 97.1228C138.442 92.2568 134.177 88.0348 128.416 84.6717C120.09 79.8018 108.661 76.7011 101.82 75.7922C93.9278 74.7459 81.5498 74.2419 69.4181 75.0824C70.3362 71.5371 72.1403 67.4294 75.5185 62.8358C77.0112 60.7896 79.3341 58.7965 82.1209 56.9799C85.7527 60.3097 90.3259 63.1816 95.7725 65.3868C100.354 67.2351 110.833 69.5901 119.271 69.0969C125.294 68.7409 130.258 66.9111 131.865 62.7907C133.853 57.6714 131.344 53.9155 126.923 51.3146C120.701 47.6496 110.554 46.3788 104.935 46.791C98.3973 47.2736 89.4659 50.318 82.4904 54.4406C70.9198 42.6433 70.9793 25.5837 84.9545 12.9544C85.3654 12.575 85.3409 11.9754 84.9024 11.6149C84.4441 11.259 83.7243 11.282 83.3134 11.6614C68.5302 25.0264 68.4325 43.0835 80.6587 55.5791C77.6981 57.5186 75.2071 59.652 73.61 61.8373C69.8928 66.8994 67.9843 71.4083 67.0809 75.2609C64.8115 75.4511 62.5584 75.6919 60.3456 75.9899C50.4069 77.324 41.4848 79.8069 36.3959 83.8117C24.6346 93.0647 24.7309 105.947 31.1549 117.049C37.5222 128.042 50.0856 137.244 63.153 139.337C63.7622 139.434 64.3571 139.094 64.4678 138.581C64.5784 138.068 64.181 137.571 63.5718 137.474C51.1364 135.483 39.217 126.68 33.1721 116.217C27.1839 105.861 26.9589 93.8292 37.9187 85.2009C42.7727 81.3941 51.2531 79.1311 60.6997 77.862C62.6668 77.5976 64.6704 77.379 66.7073 77.1973ZM83.9532 55.8428C87.38 58.9376 91.6546 61.6158 96.7536 63.6735C101.114 65.4336 111.065 67.6788 119.124 67.2036C124.119 66.9095 128.403 65.6195 129.726 62.2006C131.359 58.0263 129.235 54.9899 125.634 52.8703C119.855 49.4479 110.367 48.296 105.124 48.6813C98.9821 49.1315 90.5421 51.9774 83.9532 55.8428ZM69.0003 77.0139C68.4115 80.3229 68.6171 83.051 68.9304 85.1257C71.9515 104.22 92.7926 110.012 112.729 110.345C117.978 110.437 126.076 109.098 131.481 105.864C134.861 103.835 137.176 101.032 136.751 97.3012C136.269 92.9407 132.304 89.2443 127.149 86.2292C119.113 81.5294 108.065 78.5444 101.468 77.6657C93.5764 76.6191 81.1368 76.1224 69.0003 77.0139Z" fill="white"/>
<path fill-rule="evenodd" clip-rule="evenodd" d="M83.5134 13.0061C83.3996 13.9686 83.0846 16.7399 83.0505 17.1599C82.9638 18.3366 83.1169 18.937 83.3539 19.5323C83.552 20.0085 83.834 20.4795 84.0725 21.407C84.1971 21.9201 84.814 22.2372 85.4186 22.1236C86.0232 22.0099 86.3931 21.5045 86.2684 20.9914C86.0381 20.1542 85.8068 19.6424 85.5971 19.1961C85.3643 18.6793 85.2096 18.2708 85.292 17.2776C85.3268 16.7942 85.8668 14.1223 85.8212 12.868C85.8001 12.2134 85.5506 11.7763 85.3457 11.6072C85.0527 11.3646 84.606 11.1759 83.9885 11.1191C83.1956 11.049 81.9579 11.189 80.5674 11.3194C79.2608 11.4448 77.7804 11.5618 76.4021 11.4021C75.244 11.2616 74.1696 10.9191 73.4331 10.1039C73.0616 9.68626 72.3697 9.59801 71.8733 9.91237C71.377 10.2267 71.2725 10.8239 71.644 11.2415C72.7327 12.4806 74.3356 13.0669 76.094 13.2773C77.6516 13.4621 79.3258 13.3488 80.8185 13.2036C81.7111 13.1204 82.5354 13.0242 83.1905 12.9999C83.2959 12.9953 83.4047 13.0007 83.5134 13.0061Z" fill="white"/>
</svg>
