<svg width="145" height="70" viewBox="0 0 145 70" fill="none" xmlns="http://www.w3.org/2000/svg">
<path d="M1.18701 32.7068L0.892825 32.9982L0.892825 33.0003C0.956607 33.9807 1.07387 34.955 1.24668 35.9212C2.07164 34.9571 1.89473 35.5992 2.5736 35.0447L2.5736 35.1915C3.02002 35.6195 3.67838 35.7459 4.25438 35.5136C5.19868 34.8123 4.93328 34.5779 5.55248 33.9074C5.08137 34.843 6.02359 34.4618 5.22743 35.2812L5.22743 35.2792C6.3589 34.8817 7.41633 34.2987 8.35447 33.5547C8.35447 33.2632 8.20635 33.145 8.35447 32.825C8.5026 32.503 8.76799 33.0288 8.64866 33.4386C9.50448 32.5906 10.1813 32.9412 11.0968 33.1471C12.0102 33.3509 13.1026 33.4386 13.4853 32.4459L13.4853 32.4438C13.7075 32.1034 13.8967 31.7406 14.0469 31.3635C14.4604 31.3635 14.0469 31.9771 14.4892 32.2991C14.8719 30.7806 15.9334 31.92 16.2873 30.8376C16.3984 30.9803 16.528 31.1067 16.6699 31.2168L16.4046 31.5959C17.7315 31.1862 16.6411 32.56 17.0526 32.7944L17.0547 32.7965C17.2439 32.6803 17.4846 32.6803 17.6739 32.7965L17.0547 32.7965L16.5836 33.1185C16.5836 33.1185 17.32 32.8556 17.6739 32.7088C18.0278 32.5621 18.1162 33.4691 18.5585 33.7606C18.2335 33.7606 18.5585 35.1915 18.5585 35.9518L18.3816 35.9518C19.3835 35.5421 19.5316 36.2147 19.9739 36.5368C19.618 36.7957 19.1675 36.8915 18.7354 36.7997L18.972 37.2094L18.972 37.2074C19.2682 37.1198 19.5892 37.185 19.8258 37.3827L19.0584 37.6742C19.4123 38.2001 20.5026 38.2877 20.445 39.2518C21.1239 38.9012 21.9489 37.6456 22.8047 38.1124C22.4796 38.3468 21.8913 38.726 21.6259 38.6098C21.3605 38.4936 22.0394 38.6098 21.9797 38.8727L21.2124 38.8727C21.2124 39.3395 21.8028 38.8727 21.8913 39.0195C21.3893 39.3109 21.6547 39.4292 21.2124 39.6045C20.7701 39.7798 21.2124 39.2539 21.0355 39.2824C21.1178 39.7105 20.9984 40.1508 20.7104 40.481C20.9758 40.2771 21.3893 40.0713 21.5662 40.2465C21.7432 40.4218 21.0951 40.801 21.0355 41.2698C21.449 41.2698 21.3297 41.7366 22.0682 41.2698C22.0682 41.4165 21.8316 41.6795 21.6855 41.8548C22.1875 41.8548 22.599 43.0819 23.1894 42.2645C24.4875 42.6742 24.0144 44.368 24.9875 45.0121L24.7509 45.1874C25.399 45.5095 25.7836 46.1801 26.549 46.1516C26.549 46.1516 26.549 46.8243 26.1067 46.9995C26.6086 47.2339 26.874 46.9995 27.0201 47.876C26.3124 47.876 26.8144 48.2857 26.4009 47.876C26.6374 48.5181 26.4008 48.9563 27.4624 48.9278L27.4644 48.9257C27.2114 48.9849 27.0324 49.2091 27.0324 49.4659C27.0324 49.7248 27.2114 49.949 27.4644 50.0061L27.4644 49.3049C27.7319 49.4863 27.9541 49.7268 28.1146 50.0061L27.2896 50.5911C27.4953 52.3726 30.4454 50.7664 29.8859 52.9005C30.5936 52.6091 29.6493 52.0526 30.4166 51.6734C30.7705 52.1708 30.4166 53.6323 30.4166 53.7485C30.7705 54.7126 31.9205 53.1064 32.3937 53.9523C32.3937 53.6017 32.9841 52.8129 33.6918 52.9291C34.3995 53.0453 33.4552 54.5353 32.984 54.5353L32.9799 54.5353C32.9306 54.5047 32.9018 54.4497 32.9018 54.3906C32.9018 54.3315 32.9306 54.2764 32.9799 54.2438C32.7433 54.2438 32.4492 54.2438 32.4204 54.6535L32.6857 54.4191C32.6857 54.8859 33.4819 55.3241 32.9799 55.6747C33.5704 55.6747 33.4819 55.3241 33.2741 54.9735C33.6568 55.8214 34.3068 55.6747 34.8068 56.4044C34.8068 56.17 34.8068 55.7623 35.0125 55.8194C35.7799 56.8426 35.8087 55.5279 36.5761 55.8194C36.5761 56.4921 35.7799 56.8426 36.7242 56.8426C36.9896 57.397 36.3703 57.6906 36.0453 57.8353C37.0184 57.6008 37.078 58.9156 37.401 59.2376L36.9299 59.2376L36.9319 59.2417C37.2385 59.152 37.5697 59.2172 37.8166 59.417L37.8166 58.6873C37.8166 58.9217 38.1416 58.9788 38.0223 59.2417C38.4358 58.9502 38.3761 58.1308 39.0838 57.7802C39.0838 58.2185 40.0857 57.7802 39.7916 58.6853C39.0551 58.0126 39.4974 59.5617 38.6703 59.3579L38.6724 59.3579C38.8864 59.3375 39.0921 59.4395 39.2032 59.6209C39.1785 59.7167 39.0962 59.786 38.9975 59.7962C39.4994 60.9356 39.8224 59.0359 40.707 59.4456C40.382 59.8553 40.5013 60.4382 40.707 60.4097C40.3532 60.2344 40.884 59.5332 41.3551 59.3294C41.7686 59.943 42.0916 59.3294 42.357 59.3294L42.0916 59.0379C42.4166 58.5997 42.6511 58.775 43.0934 58.775C43.0934 59.1541 42.6511 58.775 42.7108 59.1256C43.4781 58.4244 43.3588 60.3812 44.1859 60.0306C44.3628 60.4689 43.8917 60.9662 44.1859 61.2862C45.0993 60.8765 44.7454 62.1912 45.6609 61.8998C45.6609 61.17 45.6609 61.3147 46.2802 60.8194L44.9244 60.8194L46.0148 60.0897C45.6609 60.0897 45.1013 60.265 44.9244 60.0897C45.484 59.6515 45.3668 59.8268 45.3956 59.2133C45.5725 60.3527 46.5456 58.9218 46.8994 59.7677L46.3687 61.4044C47.0476 62.4277 48.1667 61.0253 49.3188 61.6959L49.0246 61.3168C49.3496 60.6747 49.7611 61.3168 50.1746 61.3168L50.1746 61.3148C50.045 61.7041 50.045 62.124 50.1746 62.5133C50.1746 62.0751 51.0304 62.7477 51.3534 61.6368L51.7361 62.4848C52.6207 62.9515 53.0918 61.0539 53.9476 61.3739C53.5938 61.9589 53.9476 62.4256 53.2399 62.7762C53.5341 62.7762 53.7995 62.9801 53.8591 62.601C53.8591 62.9801 54.8035 61.9589 55.0092 62.601C55.1573 62.3665 55.2746 61.753 55.6284 61.8407L55.6305 61.8407C55.6531 61.9385 55.6531 62.0384 55.6305 62.1342C55.6305 61.8427 56.19 61.8121 55.9843 61.1415C56.7208 63.0413 58.5209 61.1415 59.2287 62.8354C59.9055 62.6662 60.5968 62.5582 61.2942 62.5133L61.2942 62.7478C62.1191 63.2736 61.8249 61.0824 62.7384 61.6674C63.6518 62.2525 62.2364 62.1648 62.5326 62.5154C62.6808 64.4151 63.6538 62.2524 64.3307 63.3328L64.1826 63.3328C64.7133 63.9749 65.3326 62.5439 66.1287 62.6315L66.1308 62.6315C66.1102 62.7273 66.1102 62.8272 66.1308 62.923C66.6184 62.1057 67.3796 61.484 68.2827 61.1701C68.1346 61.9303 67.9885 61.6083 68.2827 62.338C68.6077 62.1913 68.0461 61.1395 68.6962 60.848C68.9616 61.2271 69.4923 61.5207 69.6405 62.3095L69.0212 62.3095C69.4635 63.3021 69.8462 62.3095 70.2001 62.3095L70.2001 62.7763C71.1732 62.4848 70.9962 61.3739 72.0578 61.2577L71.8808 60.9356C72.2347 59.7085 72.4713 61.4615 72.8539 60.5259L73.2366 61.6368L73.2386 61.6368C73.7386 61.007 74.3002 60.4301 74.9194 59.9124C74.6725 60.6992 74.2508 61.4187 73.6809 62.018C74.0636 62.018 74.9482 61.6959 75.0078 61.0824C75.0078 61.0824 74.7712 61.5492 74.5655 61.4044C74.8309 60.4118 75.2733 59.8268 76.0097 59.68C76.452 61.8712 78.0444 59.68 78.9599 61.2576C79.9926 60.0897 81.6138 60.8194 83.06 60.1468C81.9388 58.6853 83.4735 59.9429 82.7658 58.3062C83.06 58.1023 83.1793 58.0718 83.2678 58.1594L84.712 59.1541C85.1543 59.5332 84.5351 59.6514 84.712 60.002C85.5082 59.8267 85.3024 60.587 85.9792 60.8194C85.6254 60.265 85.9792 59.8553 86.4216 59.9144L85.5081 59.3885C86.1562 58.1023 86.9832 60.4117 87.6621 59.097L87.6621 59.7391C88.0756 59.2132 89.6391 58.8626 89.5197 57.3135C89.6967 57.3135 90.0505 57.8394 89.8736 58.0738C91.2602 57.6947 91.9082 55.3261 93.266 55.6482L93.266 56.0864C93.4429 55.852 93.266 55.1508 93.768 55.3852C94.2699 55.6196 93.768 55.8235 94.0046 55.7949C94.2411 55.7664 94.2103 54.8023 94.6238 54.8593L94.6238 55.4443C96.068 55.269 95.8026 53.3978 96.57 52.5214L96.5679 52.5193C97.0719 53.2959 98.043 53.6322 98.9276 53.3387L98.9276 53.514C100.343 52.8128 100.549 51.176 101.435 49.9775C102.968 50.5911 104.386 48.7504 105.83 48.4875C105.505 48.4875 105.239 47.6701 105.359 47.4072C105.476 47.1442 105.536 46.1516 106.214 47.1157C107.128 47.876 107.513 47.1157 107.924 46.9119L107.011 45.6563C109.547 46.5328 109.311 42.7333 111.168 43.7566C111.168 43.2592 111.493 42.9678 111.493 42.4704L112.024 43.1125L112.022 43.1105C112.81 42.7538 113.491 42.1993 113.997 41.5043L114.205 42.1749C114.736 41.7652 113.203 39.8655 113.586 39.4273L114.559 40.2161C115.355 39.4273 116.947 39.4273 116.978 37.8496C116.978 37.8496 117.332 38.2593 117.215 38.4346C117.628 38.084 119.28 37.5866 117.922 36.5063C118.719 37.2666 118.836 35.7766 118.895 34.9877L119.426 35.6298C119.044 34.5189 118.836 34.3151 119.132 33.6139L119.13 33.6139C119.311 33.6098 119.472 33.7301 119.513 33.9054C119.866 33.7016 119.218 33.1166 119.926 32.9412L120.103 33.4671C120.545 33.088 120.309 32.9127 120.103 32.2686C119.897 31.6265 120.988 31.5959 121.607 32.0056C121.313 31.655 121.076 31.013 121.607 30.8947L121.607 30.8968C121.78 30.9967 121.897 31.1679 121.932 31.3636C122.994 30.9539 122.138 29.6391 123.199 29.6391C123.327 29.7451 123.479 29.8165 123.642 29.845C123.111 30.43 122.668 30.8968 122.668 30.8092C123.259 31.3065 123.759 30.8091 124.232 31.9486C124.232 31.1883 123.73 29.7574 124.38 29.4639L124.646 29.4639C124.794 29.4639 124.822 29.26 124.646 29.0847C124.833 29.0419 125.006 28.9522 125.145 28.8218C125.676 29.1439 125.882 28.4427 126.09 28.2082C125.411 27.7415 125.765 27.4785 124.969 27.3909L124.969 27.6824C124.956 27.7292 124.956 27.7802 124.969 27.8271L124.526 28.4692C124.349 28.0309 124.232 27.5927 124.792 27.5927L123.967 26.4533C125.145 26.7753 126.149 26.4533 126.917 26.7753C127.123 25.7235 127.95 24.6412 126.917 23.357C126.917 23.035 127.476 23.357 127.742 23.357C128.007 23.357 127.742 23.7076 127.742 23.9115C127.742 23.2388 128.449 22.3929 127.565 21.7773C128.332 21.4267 128.244 22.5947 128.567 21.7773L128.803 22.0403C131.311 21.1047 127.742 18.1247 130.573 17.132C130.431 17.1891 130.272 17.1891 130.13 17.132C131.928 15.1732 130.867 12.3114 132.638 10.1486C133.052 9.50652 132.344 9.33125 131.842 8.89303L132.726 8.89303L131.725 8.13275C131.046 7.19714 133.879 6.32065 132.373 5.20977L131.782 5.44418C131.782 4.9774 131.192 4.07035 131.782 4.04181C131.782 4.04181 131.134 4.04181 131.428 3.77886L131.871 3.77886C131.546 3.4568 131.223 3.13677 130.869 2.84325C130.869 1.90764 132.698 2.52119 132.402 1.20647C132.076 0.7397 130.692 0.301452 130.455 0.592937C130.453 0.933338 130.225 1.23298 129.894 1.32466L129.54 1.00261C128.24 1.15549 127.042 1.78126 126.178 2.75559L127.151 3.04707L126.561 3.39766L126.384 2.95942C125.853 3.39766 126.384 3.39767 126.886 3.48531C126.637 3.56277 126.413 3.70545 126.238 3.89502L127.711 3.89502C127.209 4.07031 126.621 3.89501 126.413 4.30472C127.061 4.30472 127.534 3.80737 128.005 4.30472C127.446 4.71442 126.915 4.71442 127.503 4.94681L127.505 4.94681C127.26 5.05484 126.983 5.05484 126.738 4.94681C127.209 5.15064 127.063 5.64801 127.799 5.73563C127.063 6.11475 128.065 6.72827 126.767 6.75885C127.092 6.75885 127.828 7.22563 127.888 7.48856C126.355 6.9912 127.888 8.51178 126.09 8.30592C127.505 8.71563 126.649 9.59209 127.3 10.3524C127.3 10.3524 126.975 10.2057 127.063 10.1486C127.151 10.0895 126.473 10.5277 126.178 10.703C127.328 10.9374 127.476 11.5795 128.067 12.0463C126.857 12.2501 126.8 11.4613 125.736 11.4042C126.649 11.5795 126.472 12.3683 127.24 12.3968L127.24 12.3988C126.814 12.5823 126.341 12.6333 125.884 12.5456C127.271 12.9838 126.061 12.9247 126.798 13.4506C125.942 13.7421 125.471 13.1877 125.707 13.8298C125.205 13.8298 124.882 13.3324 124.882 13.3324C124.677 13.8298 125.827 13.9174 126.357 14.2089C126.357 14.9692 125.502 14.2089 124.913 14.2089C125.061 14.7063 125.827 15.3483 125.68 15.6398C125.532 15.9313 125.415 15.6398 125.238 15.4645C125.857 16.2248 124.767 16.7507 125.475 17.6863L125.209 17.6863L125.205 17.6883C125.685 17.8269 126.15 18.0124 126.592 18.2428C126.592 18.5057 126.975 19.003 126.298 18.7972C126.298 18.7972 126.15 18.5057 125.973 18.3589L125.973 18.7686C124.94 18.5648 125.973 18.2428 125.148 17.9207C125.148 18.5628 125.678 19.5575 125.148 19.7919C124.234 19.4127 125.325 18.7401 124.263 18.8277L124.882 18.418C123.261 18.1551 125.148 18.1265 123.438 17.7759C122.819 18.3895 123.438 18.8562 122.79 19.4412C123.173 19.8795 123.526 19.7918 123.911 20.2301C124.148 21.8362 121.257 19.7918 121.934 21.2227C122.377 21.7771 123.378 22.5374 122.465 22.7127L121.64 21.8954C121.109 22.5375 122.73 23.2101 121.64 23.5016C121.375 23.1224 121.64 22.7413 121.64 22.7718C120.578 22.7718 121.934 23.4731 121.64 23.8236L120.755 23.3263C120.373 24.1436 120.342 25.3728 119.842 26.2492C119.636 26.0148 119.488 25.6948 119.105 25.6948L119.099 25.6948C118.492 26.9504 117.361 27.8779 116.003 28.2366L116.328 29.1722C116.328 29.1722 115.915 29.1722 115.857 28.8502C115.297 28.8502 116.24 29.2293 116.328 29.639C116.417 30.0487 115.709 29.639 115.649 29.2599C115.649 30.3708 115.118 32.1829 113.792 32.1829L113.792 31.8914C113.024 32.1543 114.47 33.7035 113.438 33.6158L113.438 33.412C112.082 34.2293 111.343 35.9844 109.603 35.8376C110.282 36.8893 108.099 36.4511 109.189 37.7964C107.951 37.7964 107.951 37.3582 106.624 37.7964C106.33 37.9432 106.949 38.9358 106.624 39.3456L106.034 38.6729L106.239 39.7532L105.357 38.9603L105.357 39.3985C105.614 39.3924 105.857 39.5127 106.005 39.7206C105.799 40.4218 104.472 40.1588 104.147 39.7206L103.528 41.2106C103.322 40.9192 103.528 40.6562 103.528 40.3627C103.528 41.5612 102.82 39.7206 102.82 40.8009C103.026 40.8009 103.114 41.2392 103.234 41.4145L103.234 41.4165C102.59 41.2881 101.944 41.6142 101.67 42.2053L101.376 41.6509C100.463 42.1768 99.8124 43.2286 98.8394 43.8727C99.3413 43.8727 99.9009 44.7777 99.6952 45.0712L99.0163 44.37C99.1932 44.9836 99.5182 44.37 99.5758 45.3056C99.1623 45.4809 98.6912 44.6044 98.72 44.1947L98.4834 44.7797C98.3065 44.5759 98.3065 44.37 98.1296 44.05C98.3065 44.6636 96.8315 43.7871 97.1565 44.8103L96.9795 44.6065C96.0064 45.2486 95.7699 45.805 94.9737 46.3595C95.416 47.0607 94.9737 47.0892 94.9737 47.821C94.2372 47.821 93.2333 47.821 92.5543 48.3183C91.8754 48.8157 92.7601 48.991 92.7909 49.5454C92.3774 48.9319 91.6697 49.3986 91.7891 48.728L91.7891 48.7219C91.0382 49.2233 90.3963 49.8675 89.9026 50.6196C90.168 50.8234 90.3737 50.8825 90.4333 51.1455C90.493 51.4084 89.8141 51.1455 89.666 50.7663C88.8699 52.4602 85.7428 50.2996 85.3889 52.1687C85.1524 52.5784 84.9178 53.0167 84.6525 53.3958C84.3871 53.7749 84.6525 52.7537 84.1814 52.4908C83.5024 54.1275 82.264 53.1043 81.5851 54.2438C80.0524 52.4317 78.9312 55.3832 77.4562 54.2438L77.6619 54.7105C77.6619 55.265 77.2484 54.5352 77.0139 54.4761C76.7773 54.417 77.4274 54.8267 77.3677 55.1488C75.2446 56.4635 72.4138 55.6461 70.054 55.587C69.1982 55.587 70.054 58.3041 68.6674 57.2238L68.8443 56.2311C67.2232 57.6335 65.275 56.5532 63.5942 57.605C63.5942 57.3706 63.5942 57.0791 63.8596 57.0791C63.4769 56.3779 62.5038 57.0791 62.5038 57.6335C62.2384 57.6335 62.5038 57.1076 62.2672 56.8162C62.0307 56.5247 61.3229 57.7212 61.146 57.02C61.146 57.02 61.146 56.7856 61.323 56.757C61.4999 56.7285 60.2326 56.757 60.4095 57.4297C59.7615 57.02 59.1423 57.7212 58.6403 57.2259C58.2268 58.1309 57.5787 56.6714 57.3422 57.9556C57.5191 56.6409 56.3094 56.7876 55.8383 57.342C56.0152 56.9629 55.5441 56.9038 55.8383 56.3494C55.3672 56.3494 54.9248 56.3494 54.894 57.1668C54.3035 55.4729 52.9478 58.1309 52.8285 56.0559C51.4275 56.433 49.973 56.5797 48.5226 56.4941C48.9361 55.267 49.9092 56.757 50.2034 55.3832C48.9362 55.6462 47.9322 56.4635 46.8706 55.85C46.6341 55.587 47.2245 55.3526 47.3726 55.1773C46.0457 55.3812 45.2783 54.2723 44.011 54.5923L44.011 54.5944C44.0933 54.468 44.2188 54.3763 44.3649 54.3314C44.1592 54.3314 43.9823 53.9808 43.7745 54.5352L44.0399 54.5352C44.0399 55.4709 42.536 55.9091 42.3303 56.2882C43.363 54.8573 41.5341 55.4403 42.9495 53.7158L42.9495 53.7179C42.6677 53.8218 42.4496 54.0481 42.3591 54.3314C42.3591 54.1276 42.3591 53.8932 42.6533 53.5711C41.8283 53.5711 41.7974 54.2438 41.1782 53.9503C41.1782 53.6873 41.4724 53.6588 41.709 53.3653C41.1494 53.7444 40.559 54.095 40.1763 53.5997C40.1763 53.5997 40.3244 53.2206 40.5013 53.3082C39.6167 52.8985 38.2589 53.8055 37.5512 52.7823C38.4955 51.8773 37.5512 52.2279 37.9935 51.2637L37.3455 51.2637L37.3455 51.8487C36.9319 51.5573 36.107 51.8487 35.9301 51.4105L36.5205 51.2637L35.6071 50.8846C35.6071 51.119 35.6071 51.3229 35.8128 51.5267C35.0454 51.702 35.0454 52.6947 34.6628 52.0241C34.8397 52.0241 34.2493 51.6735 34.4262 51.0008C34.0127 51.0008 33.5704 51.2352 33.4243 50.797C33.2762 50.3588 34.2493 49.892 34.3378 49.6861C33.5704 50.2405 33.2165 49.1602 32.3607 49.6861C32.6323 49.5231 32.8648 49.305 33.0397 49.042L32.3916 49.4517C32.3916 49.1011 32.3916 49.0135 32.7455 48.6914C32.3031 48.1064 31.9781 49.89 31.7436 48.8382L32.0686 48.8382C31.6551 48.0208 30.4763 48.0779 30.211 47.2014C30.859 46.2658 30.859 47.5235 31.361 46.6755C30.5051 46.0029 28.7647 45.8867 28.4108 44.8044L28.4088 44.8064C27.0819 45.6543 28.4088 43.6955 27.5838 43.6955C27.7607 43.6955 28.38 43.3164 28.2319 43.404C27.9953 42.6438 26.9934 42.4114 25.9318 41.6796L26.3454 41.6796C26.3454 41.0946 25.8434 40.5993 25.7549 40.0734C25.3414 40.0734 25.2529 39.8981 24.8415 40.3364C25.9627 37.8822 22.2452 38.4652 23.2204 36.3331C23.2204 36.3331 23.7223 36.5084 23.6627 36.3331L22.7492 35.5157C22.1897 35.9254 22.4551 35.8378 22.13 36.3331L22.1279 36.331C21.7576 36.4207 21.3709 36.2964 21.124 36.009C21.7721 36.2434 22.0683 35.4831 22.3028 35.0734C22.1259 35.0734 21.8893 35.2487 21.7124 35.3648C22.4797 34.254 20.4739 35.9499 20.7681 34.8104L21.0931 34.8104C20.7681 34.6351 20.2373 34.6066 20.1489 34.256C20.7681 33.7586 20.62 34.256 21.2104 34.0807C20.945 33.7016 19.4411 34.0807 19.9123 33.2328C20.2065 33.2328 20.3546 33.5548 20.6488 33.6119C21.2083 32.7639 21.0026 32.8231 20.9429 32.4439L20.9429 31.5389L20.9429 31.8304C18.9659 32.2971 19.8526 31.1292 18.6429 30.9824L19.3506 30.9824L19.3547 30.9845C19.4823 31.0089 19.6016 31.0578 19.7086 31.1292L19.5029 30.7786L19.6798 30.6033C19.6798 30.6033 19.9164 30.8662 20.0049 30.8948L20.0028 30.8968C19.9349 30.7745 19.8444 30.6644 19.7374 30.5747L19.9143 30.5747C19.974 30.3811 20.0542 30.1956 20.1509 30.0203C21.7165 29.4516 23.3541 29.097 25.0184 28.9665C25.6665 28.7627 24.0165 26.4533 25.3435 27.1259L25.6376 28.0901C26.1972 26.4248 28.0261 26.7468 28.5878 25.1671C28.5878 25.4015 28.7935 25.6339 28.5878 25.693C29.207 26.1312 29.4724 25.1671 29.1473 24.7003C29.3531 24.7003 29.4724 25.11 29.7378 25.2853C30.0032 25.4606 29.7378 24.1459 30.3282 24.6433L30.3262 24.6433C30.3694 24.735 30.3694 24.843 30.3262 24.9347C30.3262 24.5556 31.0627 24.525 30.3262 23.9706C30.4496 24.0215 30.5875 24.0215 30.7088 23.9706L33.0364 22.5352L29.4997 21.2532C29.1747 21.2532 28.8244 19.7392 28.5878 19.4477C28.2627 20.3242 27.3168 17.0157 27.1398 18.2733C27.1398 16.9586 26.4033 17.1339 26.0783 17.7475C26.0783 17.3683 25.8417 17.3092 26.0783 16.7833C25.7532 16.7833 25.4302 16.9871 25.4302 17.6883C25.3891 17.5192 25.2965 17.3642 25.1648 17.2501L25.1648 17.0157L25.1648 17.2195C24.6937 17.0157 24.1033 18.4751 23.9552 16.8404L23.5416 17.0442L23.5437 17.0442C23.5519 16.928 23.5519 16.8119 23.5437 16.6936C23.4511 16.8791 23.3421 17.0544 23.2186 17.2195L22.2455 17.6863C22.4821 17.1604 22.8936 16.9566 23.1302 16.1963C22.7763 17.0442 22.2455 16.8098 22.009 17.5701C21.9905 17.1216 22.0707 16.6712 22.2456 16.2554C22.1509 16.4388 22.0439 16.6162 21.9205 16.7813C21.9205 16.7813 21.9205 16.5774 21.4782 16.9851C21.4782 16.1963 21.9802 15.7295 21.4782 15.9619L21.4782 15.9639C21.542 15.6337 21.7456 15.3463 22.0398 15.1751C21.7148 14.9998 21.3918 16.0516 21.038 16.5489C20.4784 16.5489 21.2149 15.7315 21.3033 15.1751C20.9207 15.1751 20.2418 16.0801 20.0649 15.9354L20.0628 15.9354C20.1019 15.7845 20.1718 15.6459 20.2685 15.5256C19.5896 16.1107 19.4436 15.1159 18.5589 15.8477C18.5507 15.7601 18.5507 15.6724 18.5589 15.5848C18.3532 16.0373 18.1166 16.4775 17.8512 16.8995C17.6743 16.8995 17.2032 17.3092 17.4974 16.6651C17.4974 16.6651 17.734 16.4898 17.9109 16.343L17.5858 16.5183C17.9685 15.5541 17.9993 16.343 18.382 15.7009C17.88 15.7009 17.0551 16.2859 16.9666 15.8762C17.4377 14.9997 17.7339 15.8762 17.8512 14.9997L18.0281 15.5542C18.5589 14.0356 18.2051 15.7886 18.7955 14.1803C18.4704 13.6545 17.9705 14.1803 17.6743 13.7421C17.2608 14.1212 17.2608 14.4433 16.8493 14.853C16.4358 15.2627 16.4358 14.4433 16.6436 13.8888C16.8493 13.3344 17.234 12.9247 16.3185 13.1C15.4051 13.2753 15.0513 14.5615 14.7859 13.5668L15.4936 12.6903C14.6686 11.93 14.4032 13.8889 13.9013 12.515C14.1667 12.1644 14.6378 12.515 14.5493 12.515C14.2839 11.1718 13.9589 12.8656 13.5762 12.515L13.7243 11.347C12.78 10.762 11.7782 10.8211 10.982 10.3544L10.98 10.3523C11.1055 9.91411 11.1055 9.44936 10.98 9.00911C10.1838 8.74616 9.32801 7.75351 8.32609 6.37963L8.32403 6.37963C8.01956 6.38778 7.72743 6.49989 7.49907 6.69965L7.70479 8.45263C7.70479 8.45263 7.41061 8.13058 7.37975 7.75142C6.9971 7.75142 7.64514 8.54025 7.7336 9.24146C7.82206 9.94267 7.32009 8.94997 7.26249 8.42409C7.26249 10.4115 7.26248 12.6618 6.26062 12.6312L6.26062 12.193C5.70104 12.6312 7.23374 14.5595 6.43756 14.4718L6.43756 14.2374C5.55292 15.493 5.75863 17.5395 4.226 18.2692C5.37601 18.736 3.40104 19.2048 5.08182 19.7002C4.07996 20.1099 3.84333 19.8755 3.07599 20.6358C3.07599 20.8702 4.04911 21.2208 4.16634 21.5408L3.2817 21.3655L4.13752 21.9505L3.01632 21.9505L3.19324 22.2726L3.19324 22.2766C3.41953 22.1788 3.67464 22.1788 3.90096 22.2766C4.22602 22.774 3.10482 23.2122 2.63373 23.1531C2.86414 23.5547 3.06163 23.9746 3.2221 24.4087C2.86824 24.4087 2.77979 23.999 2.57405 23.8543C3.39901 24.7022 1.60094 23.8543 2.33747 24.7593L3.0452 24.7593C2.48767 25.2342 2.27785 25.9986 2.51442 26.6876L1.89516 26.6876C1.77173 28.0288 1.77173 29.3802 1.89516 30.7214C2.18935 30.0488 3.31058 29.582 3.39905 29.8449L2.42594 30.5746C3.01638 30.4279 2.8086 29.9896 3.54715 29.9896C3.26943 30.54 2.72014 30.9069 2.10089 30.9538L2.42594 31.3329C2.13175 31.5673 1.98363 31.5368 1.60099 31.7426C1.71825 31.072 0.12546 33.1164 1.18701 32.7068ZM125.294 28.4997L125.588 28.8217C125.588 29.0561 125.383 29.0255 125.235 28.8217C125.296 28.7096 125.346 28.5914 125.383 28.4711L125.294 28.4997ZM119.75 27.0382C120.104 27.2726 120.104 27.2726 120.104 27.507C120.104 27.7414 119.69 27.507 119.367 27.507L119.365 27.507C119.513 27.3663 119.643 27.2094 119.75 27.0382ZM9.97837 23.2978C9.71711 23.416 9.41469 23.416 9.15342 23.2978C9.15342 22.831 8.94769 22.3928 9.74385 22.3052C9.74385 22.6558 9.56692 22.9778 10.1862 23.4161C9.92283 23.2448 9.63275 23.1164 9.33034 23.0349L9.97837 23.2978ZM8.59178 25.1384C8.85717 25.1384 7.70716 24.9916 8.91684 24.904L9.06497 24.904L9.06497 25.1078L8.59178 25.1384ZM9.71299 21.9239L9.71299 21.926C9.59984 21.716 9.45172 21.5265 9.27068 21.3695L10.0668 21.4286L10.3034 21.0495C10.3034 21.0495 10.3034 21.2248 10.6285 21.3715L10.6285 21.3695C10.5297 21.2248 10.4515 21.0678 10.3919 20.9027C10.5338 20.8171 10.6058 20.652 10.5688 20.493C10.5873 20.3177 10.5873 20.1424 10.5688 19.9671L10.9823 20.2892C11.0646 20.4176 11.1634 20.5358 11.2765 20.6398L11.2765 21.341C11.0893 21.4266 10.8733 21.4266 10.6861 21.341C10.9227 21.7201 11.188 22.0707 10.6861 22.246C10.3425 22.1727 10.0072 22.0646 9.6842 21.926L9.71299 21.9239ZM10.2746 18.5056L10.7457 18.9724C10.7457 19.3515 10.7457 19.7021 10.5688 19.7898L10.3631 19.1171C10.6285 19.2068 10.9823 19.2374 10.2746 18.5056ZM10.0689 17.0441L10.3343 17.5109L10.3343 17.7148L10.3322 17.7168C10.2355 17.5272 10.1471 17.3315 10.0668 17.1318L10.0689 17.0441ZM10.4227 17.9492L10.8054 17.9492L10.8054 17.9512C10.7622 18.1326 10.7622 18.3242 10.8054 18.5056L10.215 17.7454C10.6861 18.681 10.5976 18.5056 10.4207 18.0389L10.4227 17.9492ZM9.83231 14.7062C9.83231 14.1212 10.038 14.4718 10.3631 15.495L10.3631 15.4971C10.252 15.5888 10.1717 15.7111 10.1265 15.8477C10.0977 15.5847 9.97836 15.3503 9.83023 14.8245L9.83231 14.7062ZM10.4804 15.8457C10.6285 16.1677 10.6573 15.8457 10.6861 15.6704L10.6861 15.9924L10.1553 16.1677C10.1553 16.1677 10.4516 16.023 10.4804 15.9639L10.4804 15.8457ZM10.9823 16.1983L10.9823 16.4612C10.8856 16.3675 10.8054 16.2574 10.7458 16.1392L10.9823 16.1983ZM11.9842 16.1983L11.7476 16.1983L11.7476 15.5847C12.0727 15.8477 12.0727 16.08 12.0727 16.2859L11.9842 16.1983ZM13.5186 17.1908C13.5165 17.1908 13.6358 17.2785 13.607 17.3661L13.5186 17.1908ZM18.9742 21.0779C18.9639 21.1554 18.9639 21.2328 18.9742 21.3103L18.9742 21.4856C18.9742 21.4856 19.0915 21.4285 19.0627 21.2532L18.9742 21.0779ZM11.3356 17.4843L11.3356 17.4823C11.3212 17.6005 11.3212 17.7167 11.3356 17.8329L11.099 17.3947L11.3356 17.4843ZM14.4338 21.4876C14.2857 21.8973 14.4338 21.8667 14.6108 21.7791C14.6108 21.9258 14.7877 21.6914 14.6108 21.7791L14.6087 21.7791C14.6786 21.879 14.7383 21.987 14.7856 22.1011C14.6828 22.2071 14.5634 22.2948 14.4318 22.3641L14.226 22.1297L14.4318 22.1297L14.0779 21.9544C14.226 21.9544 14.0779 21.9544 14.0779 21.7506L14.0779 21.5732C14.047 21.4998 14.047 21.4163 14.0779 21.3409L14.4338 21.4876ZM16.8799 23.21C16.8428 23.2834 16.8428 23.371 16.8799 23.4444L16.703 23.2406L16.8799 23.21ZM19.4165 24.7877L19.4165 24.6124L19.5934 24.6124L19.4165 24.7877ZM19.4165 23.8235L19.5934 24.0579C19.5996 24.1659 19.5996 24.2719 19.5934 24.38L19.1799 23.9703L19.1799 23.8235C19.077 23.7257 18.9968 23.6054 18.9433 23.4729L18.9433 23.2976C19.0338 23.4586 19.1141 23.6237 19.1799 23.795L19.4165 23.8235ZM16.7317 23.3261L16.7317 23.3282C16.6947 23.4301 16.6453 23.5279 16.5836 23.6197C16.5507 23.5157 16.5507 23.4036 16.5836 23.2976L16.7317 23.3261ZM16.5548 23.6767L16.5548 23.6788C16.5301 23.7542 16.5301 23.8357 16.5548 23.9112L16.4067 23.9112C16.5548 23.9112 16.5836 23.9112 16.5836 24.1456L16.3182 23.9417C16.3182 24.2332 16.4952 24.1456 16.5836 24.1761L16.5836 24.1741C16.2853 24.4105 15.9027 24.5165 15.5221 24.4676L15.0798 24.4676C14.9913 24.3963 14.8905 24.3372 14.7856 24.2923C15.051 24.2923 15.1394 24.0008 15.3163 23.7073C15.3246 23.6584 15.3246 23.6095 15.3163 23.5606C15.2608 23.5524 15.2052 23.5667 15.1621 23.5993C15.1168 23.6319 15.088 23.6829 15.0798 23.7359L14.874 23.7359L14.5202 23.4729L15.0798 23.2385L15.2855 23.4423L15.1086 23.2385L15.5509 23.2385L15.5509 23.5014C15.5509 23.5014 15.5509 23.7359 15.7566 23.7053L15.9047 23.4423L15.9068 23.4444C15.8533 23.5178 15.7813 23.5789 15.699 23.6197C15.6188 23.799 15.5488 23.9845 15.4933 24.1741C15.4933 24.1741 15.7587 23.8235 15.9356 23.5014L16.1125 23.8805L16.1125 24.172L16.1125 23.9967L15.9356 23.4117L15.9356 23.4158C15.952 23.5218 15.952 23.6298 15.9356 23.7358L15.9356 23.3567L16.0837 23.3567C16.1125 23.481 16.1125 23.6115 16.0837 23.7358L16.0837 23.9702L16.0837 23.3281L16.2894 23.3281C16.2833 23.4158 16.2935 23.5055 16.3182 23.5911L16.5548 23.6767ZM14.4605 24.7C14.2795 24.7835 14.1252 24.914 14.0182 25.0811C13.9647 24.8997 13.9647 24.7061 14.0182 24.5247L14.7855 24.5247L14.4605 24.7ZM13.5471 24.6123L13.5471 25.1667C13.5471 25.1688 13.1624 24.6429 13.2817 24.4961L13.5471 24.6123ZM14.4317 21.6893L13.9297 21.4284C14.0388 21.4508 14.1272 21.5283 14.1663 21.6322L14.4317 21.6893ZM14.1067 22.7696L13.6931 22.7696L13.8701 22.5943L14.1067 22.7696ZM13.222 22.5352L13.222 22.2722L13.3701 22.2722L13.7836 22.5943L13.5471 22.9164L13.222 22.5352ZM13.0451 22.2722L13.2817 22.0684L13.2817 22.0705C13.148 22.1989 12.9607 22.2539 12.7797 22.2172L13.0451 22.2722ZM13.0451 22.0093L13.0451 22.2457C12.9525 22.1459 12.8826 22.0256 12.8394 21.8952L13.2529 21.8952L13.0451 22.0093ZM15.4645 23.0611L14.9625 23.0611C14.874 22.5087 14.9913 22.684 15.051 22.9775L15.4645 23.0611ZM13.2529 22.8267C13.0163 23.1487 12.9875 23.3525 13.1048 23.4993C12.9279 23.4993 12.8682 23.4993 12.7797 23.2955L13.2529 22.8267ZM13.5471 24.2005L13.5471 24.2046C13.8804 24.1821 14.2157 24.1821 14.549 24.2046L14.0182 24.4675L13.6931 24.4675L13.5162 24.4675C13.366 24.4492 13.222 24.388 13.1048 24.2922C13.0904 24.1842 13.1007 24.0741 13.1336 23.9702L13.5471 24.2005ZM20.0355 22.3884C20.0355 22.739 19.6529 23.0019 19.4451 23.0019L19.9471 22.1846L19.9471 22.1887C19.8504 22.156 19.7475 22.156 19.6508 22.1887C19.6611 22.0317 19.6611 21.8768 19.6508 21.7198L19.9759 21.7198C19.8566 21.8564 19.7475 22.0032 19.6508 22.1581L20.0355 22.3884ZM18.7086 22.5943L18.7086 22.5963C18.723 22.6942 18.723 22.792 18.7086 22.8898C18.7086 22.8898 18.3835 22.5087 18.3239 22.3334L18.7086 22.5943ZM18.4432 22.5943L18.2663 22.2437L18.2663 22.2457C18.2766 22.3721 18.2766 22.5005 18.2663 22.6269L17.9721 22.6269C17.9124 22.6269 17.9721 22.2172 18.1778 22.1601L18.1778 22.1581C18.2416 22.2844 18.3197 22.4027 18.4123 22.5087L18.4432 22.5943ZM17.5586 22.156L18.0297 22.156C17.4989 22.0704 17.1738 22.421 17.1738 21.8666L17.5586 22.156ZM12.4277 18.0366L12.1912 18.0366L12.1912 17.7736L12.4565 17.7736L12.4277 18.0366ZM12.0142 17.1601C12.0142 16.7504 12.0142 16.518 12.22 16.9563L12.0142 17.1601ZM12.3084 16.6057C12.4853 16.6057 12.3084 16.7524 12.3084 16.9277L12.3084 16.6057ZM12.5141 17.7757C12.5141 17.7757 12.0718 17.4251 12.0718 17.5127L12.5141 17.7757ZM12.2199 17.1336L12.545 16.9583L12.545 17.2212L12.2199 17.1336ZM11.1872 26.4265L11.1872 26.8647L11.1872 26.8627C11.1769 26.7078 11.1769 26.5508 11.1872 26.3959L11.1872 26.4265ZM21.5393 24.38C21.5393 24.38 21.1855 24.117 21.1258 24.0865L21.5393 24.38ZM23.3086 23.2406C23.4238 23.0653 23.4958 22.8635 23.5143 22.6556L23.6912 23.1815C23.7221 23.2671 23.7221 23.3588 23.6912 23.4444L23.3086 23.2406ZM10.4795 15.5845C10.4486 15.3216 10.4486 15.0566 10.4795 14.7957L10.4795 15.5845ZM10.2429 9.73868L10.2429 10.5275C10.1503 10.1117 10.0022 9.7081 9.80056 9.33099C9.93429 9.47979 10.0824 9.61638 10.2429 9.73868ZM9.94869 16.2838C10.2737 16.6935 9.53518 15.0567 9.94869 15.4073L10.2141 16.2552L10.2141 15.9923C10.2141 15.7293 10.4507 15.9923 10.7448 15.9923C10.5782 16.1309 10.3869 16.2389 10.1853 16.3143L10.893 16.1105L10.9814 17.1031C10.8889 17.1928 10.8169 17.3029 10.7737 17.4252C10.7737 17.4252 10.5371 17.4252 10.2717 17.0746L10.2717 17.5414L10.2738 17.5414C9.96311 16.987 9.75328 16.3836 9.65246 15.7599C9.65246 15.7599 10.0968 16.5772 9.9487 16.3734L9.94869 16.2838ZM10.0968 19.2067L10.3622 19.2067L10.3622 19.8203C9.74295 19.4982 8.97561 19.1782 8.97561 19.0315L10.0968 19.2067ZM9.18338 23.2977C9.44876 23.4729 10.3046 23.5015 9.71413 23.7644C9.71413 23.7644 9.56601 23.7644 9.47754 23.5606L9.47549 23.5606C9.37262 23.6544 9.30062 23.7767 9.26976 23.9112L9.26976 24.4656L8.38514 24.4656C9.29858 24.3494 9.29857 23.8827 9.18129 23.3853L9.18338 23.2977ZM9.18338 25.3727L9.59688 25.6356C9.21423 25.9577 8.50655 26.5121 8.15268 26.453L8.14856 26.455C8.56412 26.1839 8.93444 25.8476 9.24096 25.4604L9.18338 25.3727ZM9.44876 25.9862L9.65448 25.6642L9.65243 25.6662C9.89312 25.8069 10.1503 25.9169 10.4198 25.9862C10.3725 26.1371 10.3128 26.2838 10.2428 26.4245L9.94866 26.4245L9.94866 26.8342L9.94866 26.6303L10.1256 26.1045C10.1256 26.2512 9.71207 27.1277 9.83139 26.6018C9.94866 26.0759 10.0371 26.0759 10.0371 26.0474C10.0371 26.0189 9.53515 27.04 9.59481 26.7486L9.91986 26.1065C10.1564 25.4053 8.79865 27.7433 8.03131 28.2977C8.91593 27.0686 9.2698 26.4551 9.50638 26.0739L9.44876 25.9862Z" fill="#202020"/>
</svg>
